<svg width="292" height="292" viewBox="0 0 292 292" fill="none" xmlns="http://www.w3.org/2000/svg">
<rect width="292" height="292" fill="#D6D6D6"/>
<rect width="1512" height="4741" transform="translate(-217 -1657)" fill="white"/>
<path d="M-217 -744H1293.5V2947H-217V-744Z" fill="url(#paint0_linear_0_1)"/>
<rect x="-66" y="-41" width="558" height="422" rx="17" fill="#D9D9D9" fill-opacity="0.3"/>
<rect x="-65" y="-40" width="556" height="420" rx="16" stroke="black" stroke-opacity="0.6" stroke-width="2"/>
<g filter="url(#filter0_d_0_1)">
<path fill-rule="evenodd" clip-rule="evenodd" d="M273.994 137.855C273.994 177.204 257.213 212.533 230.305 237.521C217.575 249.298 202.24 258.776 185.749 265.095C170.704 270.839 154.212 273.999 137.142 273.999C131.066 273.999 124.99 273.712 119.203 272.85C113.706 272.275 108.498 271.126 103.29 269.69C90.8491 266.531 79.276 261.648 68.5708 255.616C61.6269 251.595 55.2617 247.287 49.1858 242.117C35.0087 230.341 23.1463 215.692 14.7557 199.321C9.54783 188.98 5.49724 177.779 2.89328 166.003C0.867985 156.811 0 147.62 0 137.855C0 110.856 7.81187 85.8671 21.4103 64.8997C27.1969 55.9958 33.8514 47.6663 41.6633 40.1984C66.2562 16.3589 100.108 1.71045 137.142 1.71045C140.035 1.71045 143.218 1.71047 146.111 1.99769C161.735 3.14659 176.49 6.59325 190.089 12.3377C192.403 13.1994 194.718 14.3483 197.033 15.4972C206.87 20.38 216.128 26.4117 224.808 33.3051C227.701 35.6029 230.305 38.1879 232.909 40.7729C233.777 41.6346 234.935 42.4963 235.803 43.6452C259.528 68.0592 273.994 101.377 273.994 137.855Z" fill="url(#paint1_radial_0_1)" fill-opacity="0.9"/>
<path d="M268.534 100.121C262.897 85.0989 260.81 78.8764 255.157 69.461C252.586 65.1791 249.903 60.7275 246.804 56.4455C246.207 55.6211 235.399 42.7875 234.715 42.1478C234.391 41.8443 234.077 41.5509 233.794 41.2574C231.155 38.5221 224.334 32.3289 221.402 29.8976C212.605 22.6034 207.403 19.679 197.433 14.5123C195.088 13.2967 192.741 12.0808 190.396 11.1691C176.614 5.09067 161.659 1.44363 145.824 0.22794C142.892 -0.0759817 172.42 -0.075984 131.115 0.227957C89.8094 0.531897 61.2234 17.5178 36.2986 42.7433C31.7983 47.2348 27.4165 53.5374 23.1379 59.8711C19.8891 64.6803 17.1392 69.2913 15.4253 72.7169C13.7113 76.1424 10.7927 81.5576 9.42654 84.7063C7.40253 89.3713 6.4866 92.7777 5.14175 97.5521C3.9093 101.927 3.60939 101.802 2.57088 106.972C1.95497 110.039 0.52373 118.088 0 121.531C6.44539 131.465 28.6621 147.55 60.7924 132.919C80.7463 123.833 129.22 97.1292 151.553 90.042C206.953 72.2381 229.011 85.3245 251.768 97.6387C259.445 101.793 268.533 110.498 270.569 109.766C272.018 109.279 269.531 102.777 268.534 100.121Z" fill="url(#paint2_linear_0_1)"/>
<path opacity="0.4" d="M230.312 237.523C257.219 212.534 274 177.206 274 137.856C274 101.379 259.534 68.0606 235.809 43.6466C235.368 43.0631 234.853 42.5537 234.338 42.0807C234.287 42.0333 234.205 42.0905 234.227 42.1568C234.228 42.1601 234.229 42.1629 234.23 42.1663C234.422 43.3228 234.355 44.6084 234.291 45.8494C234.26 46.4543 234.229 47.0486 234.229 47.6122C234.229 48.3294 234.013 48.9749 233.797 49.6204C233.582 50.2659 233.366 50.9115 233.366 51.6287C233.366 51.7965 233.377 51.9752 233.388 52.1584C233.464 53.4013 232.256 53.3414 231.373 52.4641C231.055 52.1492 230.73 51.8817 230.429 51.7254C230.283 51.6501 230.131 51.5888 229.979 51.5289C229.173 51.2124 228.255 51.2755 227.308 51.3407C226.261 51.4128 225.177 51.4874 224.165 51.0549C223.619 50.8369 223.071 50.619 222.52 50.4004C217.273 48.3161 211.858 46.1649 206.914 43.3087C204.326 41.7308 202.242 39.5791 200.157 37.4273C198.073 35.2756 195.988 33.1239 193.4 31.546C191.417 30.5567 189.298 30.7954 187.136 31.0389C186.163 31.1485 185.181 31.259 184.199 31.259C181.891 31.4362 179.692 31.9417 177.535 32.4376C176.2 32.7446 174.88 33.0479 173.561 33.2673C172.375 33.4825 171.189 33.5767 170.003 33.6708C168.026 33.8277 166.05 33.9846 164.073 34.7018C162.24 35.3113 160.512 36.0243 158.799 36.7309C156.48 37.6874 154.19 38.6322 151.709 39.2922C150.902 39.4935 150.13 39.7655 149.369 40.0337C148.499 40.3405 147.642 40.6423 146.763 40.8282C145.67 41.059 144.541 41.1608 143.425 41.1386C143.023 41.1306 142.622 41.1039 142.221 41.0773C141.742 41.0454 141.263 41.0135 140.783 41.0135C139.537 41.1091 138.291 41.2367 137.045 41.3642C134.553 41.6192 132.062 41.8742 129.57 41.8742C124.969 41.8742 120.657 41.8742 116.056 41.3004C115.17 41.1898 114.251 41.0579 113.312 40.9232C109.382 40.3589 105.106 39.745 101.393 40.4398C99.6673 40.8701 97.7984 41.3722 95.9295 41.8743C94.0606 42.3763 92.1917 42.8784 90.4666 43.3087C88.2507 43.7509 86.8887 45.0451 85.4593 46.4034C85.0339 46.8076 84.6026 47.2174 84.1411 47.6122C82.7034 49.0466 80.6908 50.4811 78.9656 51.6287C77.6607 52.7138 76.5203 52.9781 75.1711 53.2908C74.7366 53.3915 74.2804 53.4972 73.7902 53.637C73.0234 53.8283 72.2247 53.9877 71.4259 54.1471C69.8286 54.4658 68.2313 54.7845 66.8896 55.3583C65.4236 55.9852 64.1101 56.7644 62.7269 57.5849C62.2112 57.8908 61.6858 58.2025 61.1391 58.5142C56.8263 60.5225 52.2259 62.8176 48.4881 65.6866C44.4627 68.8425 41.2999 71.4246 39.8623 76.3018C38.4247 81.7528 39.2873 88.0645 41.2999 93.2287C43.3126 98.3928 46.4754 102.409 49.9257 106.426C50.0883 106.588 50.2568 106.751 50.4268 106.914C51.4594 107.91 52.5541 108.965 52.8009 110.442C52.9926 111.208 52.9287 111.973 52.8648 112.738C52.8329 113.12 52.8009 113.503 52.8009 113.885C52.8009 115.447 52.6495 116.97 52.4978 118.497C52.2313 121.179 51.9638 123.871 52.5134 126.796C53.2801 130.43 54.558 133.809 55.8359 137.188C56.4748 138.877 57.1138 140.567 57.6888 142.288C58.5398 144.496 59.4916 146.603 60.4248 148.669C61.0681 150.093 61.7026 151.498 62.2892 152.903C62.3746 153.102 62.46 153.304 62.5463 153.507C63.3311 155.36 64.1852 157.377 65.7395 158.928C66.0316 159.219 66.3238 159.492 66.6112 159.761C67.4553 160.55 68.2588 161.301 68.9023 162.371C69.144 162.672 69.373 162.974 69.6 163.272C70.453 164.395 71.2775 165.481 72.6401 166.387C75.0553 167.936 77.16 169.796 79.2646 171.655C80.6678 172.894 82.0709 174.133 83.566 175.281C85.359 176.712 87.2637 177.251 89.2106 177.802C90.3858 178.134 91.5763 178.471 92.7668 179.011C93.4856 179.298 94.0607 179.728 94.6357 180.158C95.2107 180.589 95.7858 181.019 96.5046 181.306C97.9422 181.88 99.3798 182.453 100.817 182.74C101.788 183.017 102.758 183.16 103.697 183.299C104.704 183.448 105.675 183.591 106.568 183.888C106.951 183.984 107.335 184.111 107.718 184.239C108.485 184.494 109.252 184.749 110.018 184.749C112.894 185.035 116.344 184.175 119.219 183.314C120.906 182.667 122.417 181.844 123.911 181.031C125.728 180.042 127.519 179.067 129.57 178.437C130.608 178.092 131.541 178.058 132.496 178.024C133.128 178.001 133.77 177.977 134.458 177.863C136.397 177.621 138.336 176.768 140.103 175.99C140.746 175.707 141.378 175.391 141.941 174.97C142.567 174.503 143.161 173.986 143.756 173.467C144.962 172.417 146.177 171.359 147.684 170.691C149.697 169.83 151.709 169.543 154.009 169.543C154.373 169.543 154.737 169.58 155.097 169.616C155.759 169.683 156.406 169.749 157.008 169.579C157.782 169.36 158.39 168.744 158.843 168.08C158.986 167.871 159.119 167.652 159.254 167.43C159.681 166.726 160.124 165.997 160.91 165.527C161.868 164.953 162.827 164.889 163.785 164.825C164.265 164.793 164.744 164.761 165.223 164.666C167.377 164.236 168.079 161.712 168.658 159.629C168.852 158.932 169.032 158.284 169.248 157.78L173.561 148.313C173.744 147.912 173.926 147.52 174.106 147.135C175.341 144.487 176.436 142.138 176.436 139.132C176.436 138.176 176.692 137.219 176.948 136.263C177.201 135.314 177.339 134.325 177.143 133.362C177.068 132.995 176.972 132.631 176.87 132.241C176.823 132.058 176.773 131.87 176.724 131.673C176.405 130.561 175.911 129.536 175.435 128.552C175.051 127.758 174.68 126.99 174.424 126.222C173.959 125.062 173.494 124.465 172.878 123.673C172.565 123.271 172.214 122.896 171.924 122.476C171.694 122.142 171.503 121.781 171.304 121.406C171.048 120.924 170.779 120.417 170.398 119.91C168.882 117.893 167.588 116.984 165.931 115.819C165.702 115.659 165.467 115.493 165.223 115.32C164.788 115.009 164.406 114.713 164.049 114.435C162.756 113.429 161.788 112.676 159.76 112.451C158.466 112.307 157.172 112.379 155.878 112.451C154.584 112.522 153.291 112.594 151.997 112.451C150.514 112.266 149.389 111.604 148.238 110.926C147.604 110.553 146.961 110.174 146.246 109.869C145.793 109.675 145.384 109.481 144.995 109.297C143.658 108.664 142.566 108.147 140.783 108.147C140.227 108.147 139.627 108.103 139.007 108.058C137.384 107.94 135.627 107.811 134.17 108.434C133.517 108.76 132.988 109.168 132.473 109.565C131.627 110.216 130.821 110.838 129.57 111.016C128.93 111.096 128.335 111.131 127.759 111.166C126.265 111.255 124.905 111.335 123.244 112.164C122.338 112.68 121.432 113.081 120.552 113.47C119.478 113.944 118.442 114.402 117.494 115.033C117.058 115.381 116.489 115.756 115.892 116.149C114.523 117.051 113.006 118.05 112.606 119.049C112.287 119.844 112.41 120.991 112.534 122.149C112.634 123.081 112.734 124.02 112.606 124.787C112.494 125.678 112.253 126.569 112.016 127.443C111.642 128.821 111.28 130.157 111.456 131.386C111.7 133.088 112.357 134.585 113.076 136.224C113.206 136.519 113.337 136.818 113.469 137.124C113.518 137.271 113.567 137.414 113.615 137.553C114.127 139.043 114.496 140.115 113.181 141.427C112.031 142.862 111.456 143.722 112.031 145.731C113.756 150.608 117.494 151.182 122.094 150.895C123.067 150.895 123.973 150.56 124.908 150.214C125.909 149.843 126.944 149.46 128.132 149.46C129.33 149.328 130.466 149.563 131.597 149.798C132.91 150.071 134.218 150.342 135.608 150.034C137.333 149.747 139.058 149.46 140.496 148.313C141.646 147.165 142.796 146.018 144.234 145.157C144.423 145.044 144.602 144.941 144.772 144.843C145.893 144.196 146.609 143.783 147.109 142.288C147.396 141.571 147.612 140.925 147.828 140.28C148.043 139.634 148.259 138.989 148.546 138.271C148.666 137.973 148.81 137.638 148.964 137.281C149.55 135.92 150.272 134.244 150.272 133.107C150.272 131.971 149.189 130.655 148.31 129.586C148.08 129.306 147.863 129.042 147.684 128.804C145.671 126.222 143.084 123.927 139.633 124.213C139.537 124.233 139.409 124.257 139.253 124.286C137.472 124.624 132.134 125.636 130.88 127.323C130.381 127.995 130.84 128.95 131.471 129.501C131.977 129.942 132.422 130.476 132.707 131.084C132.832 131.35 132.94 131.629 133.039 131.886C133.134 132.133 133.221 132.36 133.308 132.534C133.384 132.725 133.456 132.911 133.526 133.093C133.98 134.274 134.362 135.269 135.608 136.263C137.046 137.411 138.196 137.411 140.208 137.411C140.408 137.411 140.655 137.442 140.919 137.475C141.279 137.52 142.112 138.643 141.801 138.828C141.194 139.188 140.447 139.442 139.728 139.687C139.175 139.876 138.638 140.059 138.196 140.28C136.183 141.427 133.595 142.862 131.008 142.575C127.27 142.001 126.695 138.271 127.845 135.116C128.244 134.318 128.644 133.381 128.561 132.499C128.486 131.698 127.848 131.07 127.1 130.772C126.455 130.515 125.688 130.339 125.054 130.193C124.672 130.105 124.338 130.028 124.107 129.951C120.944 128.517 119.794 125.648 120.369 122.492C120.582 121.219 121.896 119.317 123.148 118.181C123.896 117.502 124.894 117.218 125.903 117.168C126.605 117.133 127.264 117.101 128.132 116.754C131.295 115.32 134.17 114.459 137.621 114.459C139.738 114.459 141.544 114.926 143.382 115.401C144.04 115.571 144.702 115.742 145.384 115.893C147.109 116.467 148.259 116.754 149.984 116.754C150.444 116.754 150.962 116.725 151.502 116.694C152.65 116.629 153.894 116.559 154.872 116.754C157.525 117.162 158.73 119.882 159.823 122.35C160.269 123.359 160.697 124.325 161.198 125.074C161.619 125.6 162.002 126.126 162.375 126.638C163.019 127.522 163.632 128.364 164.36 129.091C164.811 129.541 165.375 130.019 165.973 130.525C167.28 131.633 168.746 132.876 169.536 134.255C169.892 135.145 170.139 136.476 170.068 137.701C169.988 139.09 169.059 140.31 167.736 140.739C166.796 141.044 165.769 141.14 164.935 141.14C164.535 141.14 164.151 141.123 163.785 141.106C162.051 141.028 160.71 140.967 159.76 142.862C159.444 143.493 159.214 144.297 158.977 145.132C158.782 145.816 158.581 146.519 158.322 147.165C158.242 147.325 158.139 147.642 158.014 148.028C157.691 149.024 157.219 150.481 156.597 150.895C155.885 151.25 155.283 150.945 154.723 150.662C154.091 150.341 153.36 150.155 152.664 150.288C152.001 150.414 151.424 150.798 150.847 151.182C149.522 151.975 148.929 152.768 148.169 153.786C148.105 153.873 148.039 153.961 147.971 154.051C146.246 156.346 144.809 157.78 142.508 159.502C139.058 162.371 135.033 164.092 130.432 163.518C128.42 163.231 126.407 162.944 124.682 162.084C123.233 161.464 121.783 161.142 120.226 160.796C119.621 160.661 119 160.523 118.356 160.362C114.044 159.502 110.306 156.92 106.855 154.338C106.635 154.172 106.435 154.018 106.247 153.872C105.753 153.489 105.334 153.165 104.808 152.863C104.095 152.453 103.35 152.06 102.543 151.899C102.183 151.827 101.824 151.756 101.393 151.469C100.533 150.783 99.8793 149.584 99.2467 148.425C98.821 147.644 98.4048 146.882 97.9422 146.305C95.9296 143.722 94.4919 141.427 94.2044 138.271C94.0116 136.54 94.0774 134.679 94.1417 132.862C94.1732 131.97 94.2044 131.089 94.2044 130.238C94.2044 125.361 94.2044 121.058 96.5046 116.754C97.1091 115.789 97.612 114.875 98.0987 113.99C98.7693 112.77 99.4093 111.606 100.242 110.442C101.165 109.259 101.846 107.895 102.534 106.516C103.348 104.886 104.172 103.234 105.418 101.836C106.855 100.114 109.156 98.3928 111.168 97.5321C113.123 96.8821 115.261 96.6003 117.376 96.3216C118.994 96.1084 120.598 95.897 122.094 95.5238C126.289 94.4774 130.178 93.1256 133.984 91.8026C135.396 91.312 136.796 90.8254 138.196 90.3597C143.154 88.5926 147.459 90.9615 151.847 93.377C154.584 94.8831 157.353 96.4074 160.335 96.9583C164.171 97.6542 166.844 99.9327 169.572 102.258C171.342 103.768 173.136 105.297 175.286 106.426C177.132 107.577 178.608 109.098 180.011 110.544C180.118 110.654 180.224 110.764 180.33 110.873C180.798 111.353 181.239 111.859 181.627 112.405C182.065 113.021 182.52 113.66 183.026 114.215C183.568 114.808 184.187 115.332 184.828 115.818C185.3 116.176 185.815 116.516 186.339 116.861C186.976 117.282 187.625 117.71 188.225 118.189C189.231 119.049 190.094 119.982 190.956 120.914C191.819 121.847 192.681 122.779 193.688 123.64C195.125 124.787 196.276 125.935 196.851 127.656C197.504 129.286 198.24 130.957 198.98 132.637C200.194 135.395 201.42 138.18 202.314 140.853C203.464 143.436 204.326 145.444 204.326 148.313C204.182 149.747 203.895 151.182 203.607 152.616C203.32 154.051 203.032 155.485 202.889 156.92C202.577 158.992 202.416 161.063 202.255 163.122C201.971 166.764 201.691 170.364 200.588 173.847C200.541 173.99 200.493 174.133 200.445 174.277C199.34 177.597 198.169 181.114 195.413 183.314C193.729 184.827 191.748 185.65 189.761 186.476C188.356 187.061 186.947 187.646 185.637 188.478C182.762 189.913 180.462 191.921 179.887 195.077C179.743 195.722 179.617 196.368 179.491 197.013C179.114 198.95 178.737 200.887 177.874 202.823C174.838 208.882 169.548 212.317 164.235 215.766C161.498 217.544 158.754 219.325 156.31 221.471C152.572 224.627 148.834 228.357 145.671 232.087C145.433 232.358 145.186 232.646 144.932 232.944C143.037 235.157 140.696 237.892 137.908 238.398C137.525 238.494 137.141 238.526 136.758 238.558C136.351 238.591 135.945 238.625 135.538 238.735C134.762 238.945 134.009 239.498 133.871 240.291C133.82 240.581 133.836 240.897 133.856 241.289C133.869 241.534 133.883 241.81 133.883 242.128C133.883 247.579 126.695 249.3 122.382 249.874C113.309 250.827 104.633 253.165 95.6944 255.573C93.8687 256.065 92.0322 256.56 90.1791 257.047C87.8789 257.62 85.6506 258.266 83.4222 258.911C81.5438 259.455 81.3275 262.055 83.1249 262.826C89.5741 265.592 96.298 267.914 103.297 269.692C108.505 271.128 113.712 272.277 119.21 272.851C124.996 273.713 131.072 274 137.148 274C154.218 274 170.71 270.841 185.755 265.096C202.247 258.777 217.581 249.299 230.312 237.523Z" fill="url(#paint3_radial_0_1)" fill-opacity="0.5"/>
<path opacity="0.3" fill-rule="evenodd" clip-rule="evenodd" d="M50.7248 174.107C51.458 175.5 52.0423 177.06 51.7534 178.608C51.5843 179.513 51.4534 180.438 51.3431 181.372C51.1564 182.956 52.1806 186.123 53.6924 186.63C55.3029 187.17 56.6449 187.17 57.987 187.98C59.329 188.79 60.671 190.681 62.0131 190.951C62.8183 191.221 64.1603 190.951 65.234 190.951C67.3812 190.951 69.2601 190.951 71.139 191.491C73.2862 192.031 75.9703 192.571 78.1176 192.301C79.4596 192.031 81.8753 191.491 82.9489 190.411C84.0225 189.33 84.5594 186.63 84.8278 185.009C85.0962 180.418 81.6069 175.826 78.1176 173.125C76.2387 171.775 74.3598 171.775 72.2126 170.695C69.7969 169.344 67.6497 168.804 64.9656 167.994C63.3551 167.453 61.2079 166.913 59.5974 166.913C57.987 166.913 56.1081 167.994 54.7661 168.264C53.3981 168.723 52.2239 168.792 51.2433 169.63C50.8749 169.944 50.5992 170.359 50.4342 170.814C50.0487 171.879 50.1456 173.006 50.7248 174.107Z" fill="url(#paint4_linear_0_1)"/>
<path opacity="0.3" fill-rule="evenodd" clip-rule="evenodd" d="M87.8079 193.344C87.8648 193.229 87.6254 193.063 87.5364 193.155C85.4804 195.279 80.6696 200.197 83.6875 202.504C83.7365 202.541 83.7853 202.585 83.8379 202.617C83.9894 202.709 84.2781 202.8 84.5946 202.877C85.4577 203.087 86.3917 203.402 87.2269 203.099C87.5288 202.99 87.8477 202.803 88.3275 202.561C89.5772 201.843 90.1144 200.766 90.1761 199.489C90.2428 198.109 89.8478 196.723 89.2388 195.483C89.2006 195.405 89.1647 195.333 89.1327 195.269C88.8675 194.468 88.0781 194.459 87.8005 193.416C87.794 193.392 87.7968 193.366 87.8079 193.344Z" fill="url(#paint5_linear_0_1)"/>
<path opacity="0.3" fill-rule="evenodd" clip-rule="evenodd" d="M131.887 25.7629C131.784 25.9689 132.015 26.1853 132.215 26.0706C133.985 25.0525 137.493 23.1935 139.587 22.9593C140.393 22.9593 141.466 23.2294 142.271 23.2294C144.15 23.2294 145.761 22.9593 147.103 24.3098C148.176 25.3901 148.713 26.4704 147.908 27.8208C146.834 29.7114 144.15 31.0619 142.271 31.8721C138.245 34.3029 132.877 36.4636 128.046 35.9234C124.288 35.6533 120.799 32.6824 117.309 30.7918C114.894 29.4414 110.331 27.0106 113.283 24.0397C115.699 21.6089 119.457 20.2585 122.946 19.9884C124.557 19.9884 128.314 19.4482 129.388 20.2585C130.654 21.2778 129.531 25.1825 131.655 25.3933C131.835 25.4112 131.967 25.6009 131.887 25.7629Z" fill="url(#paint6_linear_0_1)"/>
<path opacity="0.5" fill-rule="evenodd" clip-rule="evenodd" d="M17.7534 162.076C11.1835 160.208 4.00635 166.206 5.44119 172.884C5.91869 175.106 7.29533 177.016 9.38188 177.918C17.4852 181.419 41.3557 189.337 84.8336 185.282C139.857 180.151 152.741 153.141 174.213 137.476C195.686 121.811 237.289 109.386 248.026 96.9622C258.338 85.2883 250.326 62.1528 249.677 60.3425C249.647 60.2588 249.61 60.1931 249.558 60.1211C248.887 59.1927 246.975 60.1039 247.202 61.2266C248.719 68.7161 249.745 80.8952 243.731 90.7501C234.605 106.145 193.539 113.438 171.261 133.155C148.983 152.871 103.622 167.996 64.703 168.267C44.9057 168.407 28.7292 165.195 17.7534 162.076Z" fill="#BDFFE8" fill-opacity="0.5"/>
<path opacity="0.5" fill-rule="evenodd" clip-rule="evenodd" d="M33.3213 212.091C29.134 211.037 25.4267 216.032 27.8464 219.609C28.4262 220.466 29.2626 221.087 30.2662 221.339C38.0405 223.29 74.9922 231.218 127.518 220.934C186.836 209.32 231.66 175.559 252.327 156.382C272.555 137.854 270.733 112.266 270.587 110.557C270.582 110.493 270.572 110.435 270.557 110.373C270.179 108.743 267.363 108.758 266.919 110.371C264.126 120.52 257.337 138.815 241.859 156.382C218.776 182.581 180.125 206.349 124.565 216.073C86.6124 222.932 51.5683 216.685 33.3213 212.091Z" fill="#BDFFE8" fill-opacity="0.5"/>
<path opacity="0.5" fill-rule="evenodd" clip-rule="evenodd" d="M12.1649 82.5615C10.9753 85.2216 12.315 88.3077 15.099 89.1684C33.3692 94.8167 96.7174 112.425 147.376 102.367C204.516 91.2797 221.785 55.3316 224.168 34.7048C224.373 32.9302 223.558 31.2252 222.136 30.1435C218.573 27.4322 213.005 29.9737 212.15 34.3692C209.508 47.9581 201.303 71.4191 175.827 87.7819C140.202 110.41 52.0152 99.0529 20.0732 80.2953C17.2742 78.6516 13.49 79.5984 12.1649 82.5615Z" fill="#BDFFE8" fill-opacity="0.5"/>
<path opacity="0.5" fill-rule="evenodd" clip-rule="evenodd" d="M18.2732 134.507C19.0784 139.368 29.8148 132.616 38.1354 116.411C46.1877 100.205 47.7981 66.4436 43.5036 63.7427C39.4775 60.5015 12.3682 101.285 18.2732 134.507Z" fill="white"/>
<path opacity="0.5" fill-rule="evenodd" clip-rule="evenodd" d="M19.0692 141.526C13.4326 142.607 13.701 153.68 17.1903 158.272C20.6796 162.863 25.2426 160.702 25.511 150.979C25.7794 145.307 23.6321 140.716 19.0692 141.526Z" fill="white"/>
<path opacity="0.5" fill-rule="evenodd" clip-rule="evenodd" d="M187.041 21.904C182.038 22.0301 185.263 15.7875 186.755 20.5645C186.9 21.0305 187.529 21.8917 187.041 21.904Z" fill="white"/>
</g>
<defs>
<filter id="filter0_d_0_1" x="0" y="0" width="291.826" height="291.826" filterUnits="userSpaceOnUse" color-interpolation-filters="sRGB">
<feFlood flood-opacity="0" result="BackgroundImageFix"/>
<feColorMatrix in="SourceAlpha" type="matrix" values="0 0 0 0 0 0 0 0 0 0 0 0 0 0 0 0 0 0 127 0" result="hardAlpha"/>
<feOffset dx="11" dy="11"/>
<feGaussianBlur stdDeviation="3.41302"/>
<feComposite in2="hardAlpha" operator="out"/>
<feColorMatrix type="matrix" values="0 0 0 0 0.377683 0 0 0 0 0.411226 0 0 0 0 0.612482 0 0 0 1 0"/>
<feBlend mode="normal" in2="BackgroundImageFix" result="effect1_dropShadow_0_1"/>
<feBlend mode="normal" in="SourceGraphic" in2="effect1_dropShadow_0_1" result="shape"/>
</filter>
<linearGradient id="paint0_linear_0_1" x1="540" y1="-222.5" x2="540" y2="2947" gradientUnits="userSpaceOnUse">
<stop stop-color="#E5E2EF" stop-opacity="0"/>
<stop offset="0.5" stop-color="#FBC2EB" stop-opacity="0.156316"/>
<stop offset="1" stop-color="#FBC2EB" stop-opacity="0.3"/>
</linearGradient>
<radialGradient id="paint1_radial_0_1" cx="0" cy="0" r="1" gradientUnits="userSpaceOnUse" gradientTransform="translate(98.1636 99.2925) rotate(3.59899) scale(180.467 179.153)">
<stop offset="0.00558659" stop-color="#00B9F3" stop-opacity="0.81"/>
<stop offset="0.2576" stop-color="#00B6EF" stop-opacity="0.72"/>
<stop offset="0.3833" stop-color="#01A5EC" stop-opacity="0.74"/>
<stop offset="0.4811" stop-color="#028EF3" stop-opacity="0.65"/>
<stop offset="0.5645" stop-color="#0081EB" stop-opacity="0.74"/>
<stop offset="0.6387" stop-color="#0075D4" stop-opacity="0.78"/>
<stop offset="0.754061" stop-color="#006ACD" stop-opacity="0.73"/>
<stop offset="0.854167" stop-color="#1A66CF" stop-opacity="0.75"/>
<stop offset="1" stop-color="#3A63D6" stop-opacity="0.84"/>
</radialGradient>
<linearGradient id="paint2_linear_0_1" x1="52.081" y1="19.697" x2="196.931" y2="204.146" gradientUnits="userSpaceOnUse">
<stop offset="0.0167598" stop-color="#B1D9FD"/>
<stop offset="1" stop-color="#37C7D1" stop-opacity="0"/>
</linearGradient>
<radialGradient id="paint3_radial_0_1" cx="0" cy="0" r="1" gradientUnits="userSpaceOnUse" gradientTransform="translate(138.953 117.185) rotate(14.8968) scale(148.425 148.071)">
<stop stop-color="white"/>
<stop offset="1" stop-color="#2D008B"/>
</radialGradient>
<linearGradient id="paint4_linear_0_1" x1="50.2753" y1="179.741" x2="84.8683" y2="179.741" gradientUnits="userSpaceOnUse">
<stop stop-color="#B8C2FF"/>
<stop offset="1" stop-color="#7D72B3"/>
</linearGradient>
<linearGradient id="paint5_linear_0_1" x1="82.5919" y1="197.791" x2="89.7189" y2="197.791" gradientUnits="userSpaceOnUse">
<stop stop-color="#B8C2FF"/>
<stop offset="1" stop-color="#7D72B3"/>
</linearGradient>
<linearGradient id="paint6_linear_0_1" x1="112.546" y1="28.193" x2="148.368" y2="28.193" gradientUnits="userSpaceOnUse">
<stop stop-color="#B8C2FF"/>
<stop offset="1" stop-color="#7D72B3"/>
</linearGradient>
</defs>
</svg>
