<svg width="282" height="282" viewBox="0 0 282 282" fill="none" xmlns="http://www.w3.org/2000/svg">
<g filter="url(#filter0_d_436_487)">
<path fill-rule="evenodd" clip-rule="evenodd" d="M274 136.71C274 150.034 272.264 162.778 268.792 174.653C261.848 198.983 248.538 220.416 230.31 237.216C217.58 249.091 202.245 258.649 185.463 265.021C170.418 270.814 153.926 274 136.855 274C134.541 274 131.937 274 129.622 273.71C126.15 273.421 122.389 273.131 118.917 272.841C92.5871 269.366 68.283 258.359 48.8975 241.85C41.6642 235.767 35.0095 228.816 28.9335 221.285C24.5935 215.782 20.5427 209.7 17.0707 203.328C16.2027 201.88 15.3347 200.142 14.4667 198.693C13.5987 196.956 12.7308 195.507 12.1521 193.77C9.83741 188.556 7.81205 183.053 6.07605 177.55C4.91871 173.495 3.76135 169.44 2.89335 165.385C2.31468 162.488 1.73601 159.592 1.44667 156.406C0.578669 150.034 0 143.662 0 137C0 133.235 3.53106e-05 129.469 0.578705 125.704C0.868039 123.387 0.868004 121.07 1.44667 118.753C3.18268 105.14 6.944 92.3954 12.4414 80.5201C15.0454 74.7273 18.2281 68.9345 21.7001 63.7209C27.4868 54.7421 34.1415 46.3425 41.9535 38.8118C66.547 14.7717 100.399 0 137.434 0C138.881 0 140.327 0 141.774 0C143.221 0 144.957 6.62503e-06 146.403 0.289647C154.215 0.868928 162.027 2.02749 169.261 3.76534C173.601 4.9239 177.941 6.08246 181.992 7.53066C184.885 8.39958 187.489 9.55814 190.382 10.7167C192.408 11.5856 194.433 12.4546 196.458 13.3235C196.748 13.6131 197.037 13.6131 197.616 13.9028C210.925 20.2749 223.077 28.9641 233.493 39.3911C234.94 40.8393 236.386 42.2875 237.833 43.7357C238.701 44.8943 239.859 45.7632 240.727 46.9218C242.463 48.6596 243.909 50.6871 245.356 52.4249C250.853 59.3763 255.483 66.907 259.533 74.7273C264.163 83.9958 267.924 93.8436 270.528 103.981C272.553 114.408 274 125.414 274 136.71Z" fill="url(#paint0_radial_436_487)"/>
<path fill-rule="evenodd" clip-rule="evenodd" d="M194 12.5182C193.43 12.5182 193.145 12.5182 192.576 12.8093C191.151 13.1004 189.727 12.8093 188.303 12.5182C187.163 12.2271 186.593 11.6448 185.169 11.6448C183.46 11.3537 182.035 10.7715 180.326 10.4803C178.617 10.1892 177.192 9.60698 175.483 9.02474C174.059 8.4425 173.489 8.73362 172.35 9.02474C171.21 9.31586 170.355 8.73362 169.216 8.4425C168.076 7.86026 166.652 7.86026 165.512 7.56914C162.094 6.9869 158.676 5.82241 155.257 4.94905C153.263 4.3668 151.269 4.36681 148.99 4.36681C147.28 4.36681 145.856 4.94905 144.147 4.94905C143.007 4.94905 142.153 4.65793 141.013 4.65793C139.874 4.36681 138.734 4.65793 137.595 4.65793C135.885 4.36681 135.031 4.07569 133.322 4.65793C131.897 4.94905 131.043 4.94905 129.618 5.24017C128.194 5.24017 126.485 5.82241 125.06 6.11353C122.496 6.69578 119.648 7.27802 117.084 7.27802C115.375 7.27802 113.096 6.69578 111.671 7.27802C110.817 7.56914 110.247 8.73362 109.392 9.31586C107.968 10.7715 106.543 11.936 105.404 13.3916C104.264 14.8472 103.125 16.5939 103.125 18.6317C103.125 20.3785 103.979 22.4163 104.834 23.8719C105.689 25.6186 105.974 27.0742 104.264 28.2387C102.27 29.6943 99.7064 30.8588 97.4274 31.7322C95.7181 32.3144 94.2938 32.6055 93.1543 31.441C92.5845 31.1499 92.2996 30.2766 91.7299 29.6943C91.1601 29.4032 90.3055 29.6943 89.7357 29.9854C88.0265 30.5677 86.3173 31.1499 84.608 31.441C83.4685 31.7322 82.6139 32.3144 81.4743 32.3144C80.3349 32.6055 79.4802 31.7322 78.0558 32.0233C76.3466 32.3144 74.3525 33.1878 72.6432 33.1878C71.2188 33.1878 69.5096 32.6055 68.3701 32.0233C67.8003 31.7322 67.5154 31.1499 66.6608 31.441C66.091 31.441 65.2364 32.3144 64.9515 32.8967C64.3818 33.4789 64.3818 34.3523 63.812 34.9345C63.2423 35.8079 62.9574 36.3901 62.3877 37.2635C61.533 38.7191 60.6784 40.1747 59.8238 41.6303C59.2541 42.5036 58.6843 43.9593 57.8297 44.8326C57.5448 45.4149 56.6902 45.706 56.1205 45.9971C54.6961 46.8704 53.2717 48.0349 51.8473 48.9083C49.2835 50.9461 46.7195 53.2751 44.1557 55.313C42.1615 56.7686 39.3128 57.6419 37.0338 58.8064C35.6094 59.3886 34.185 59.9709 32.7607 60.5531C32.1909 60.8442 31.3363 60.8442 31.0514 61.4265C30.4816 62.0087 30.1968 62.591 29.9119 63.4643C28.7724 64.9199 27.348 66.6667 26.4934 68.4134C25.9236 69.5779 25.6387 70.4512 25.069 71.6157C24.4992 73.0713 23.6447 74.5269 23.3598 76.2737C22.2203 79.476 22.2202 82.9694 20.7959 86.1718C20.2261 87.9185 19.0866 89.6652 18.232 91.4119C16.8076 94.3232 16.5228 97.8166 16.2379 101.019C15.9531 102.766 16.2379 105.095 16.5227 106.841C16.8076 108.879 16.8076 110.917 16.8076 112.955C16.8076 114.993 15.3833 117.322 14.2438 118.777C13.1043 120.233 11.1101 120.815 9.68574 122.271C8.54624 123.435 7.12185 124.6 6.5521 126.346C6.26722 126.929 6.5521 127.802 6.5521 128.675C6.26722 130.422 5.69751 131.878 5.69751 133.624C5.41263 135.662 5.41261 137.7 5.41261 140.029C5.41261 141.194 5.41261 142.067 5.41261 143.231C5.41261 144.396 5.69752 145.269 5.9824 146.143C5.9824 146.725 5.9824 147.598 5.9824 148.181C5.9824 149.054 6.5521 149.927 6.5521 150.509C7.12185 152.547 7.40679 154.294 7.69167 156.332C7.97654 158.079 8.83117 159.825 9.11604 161.572C9.97067 163.901 10.2555 166.23 10.8252 168.85C11.1101 170.597 11.1101 172.635 11.395 174.381C11.6799 175.837 11.9648 177.293 11.9648 178.748C11.9648 181.077 11.395 183.115 11.395 185.444C11.395 189.229 12.8194 193.013 13.674 196.798C13.9589 197.962 14.2438 198.836 14.5287 200C5.12777 181.368 0 160.116 0 137.7C0 110.335 7.69162 85.0073 21.0808 63.7555C26.7783 54.7307 33.3304 46.2882 41.022 39.0102C65.2364 14.8472 98.5668 0 135.031 0C137.88 0 141.013 -4.44649e-06 143.862 0.291116C161.524 -4.44649e-06 178.617 4.94905 194 12.5182Z" fill="url(#paint1_linear_436_487)"/>
<path fill-rule="evenodd" clip-rule="evenodd" d="M88.5384 116.725C86.8024 119.911 82.173 125.414 83.6197 130.048C84.1983 132.075 85.645 133.813 86.513 135.841C88.8277 140.765 93.457 145.689 99.2437 142.213C105.898 138.158 103.005 130.917 100.112 125.703C98.9544 123.676 97.5077 121.359 95.4824 120.2C94.3251 119.621 92.5891 119.042 91.4317 118.752C89.117 117.883 90.5637 116.725 88.5384 116.725Z" fill="#FFDC97"/>
<path fill-rule="evenodd" clip-rule="evenodd" d="M103.293 165.095C103.582 164.226 103.872 161.329 104.74 160.171C105.318 159.302 106.765 158.723 107.922 158.143C110.237 157.274 112.841 157.564 114.577 159.302C118.049 162.198 117.76 166.832 114.577 170.019C113.13 171.467 111.105 172.915 109.08 172.915C107.922 172.915 106.765 173.205 105.897 172.625C104.74 172.046 103.872 170.887 103.582 169.729C103.004 167.701 103.293 166.253 104.45 164.515L103.293 165.095Z" fill="#FFDC97"/>
<path fill-rule="evenodd" clip-rule="evenodd" d="M78.1213 163.646C78.1213 165.095 77.2533 168.86 79.568 169.439C80.7254 169.729 81.8827 168.281 81.8827 167.412C82.172 166.543 81.8827 165.095 81.5934 164.226C81.0147 163.067 79.8573 162.198 78.9893 163.357H78.1213V163.646Z" fill="#FFDC97"/>
<path fill-rule="evenodd" clip-rule="evenodd" d="M19.6738 136.999C19.9632 139.316 19.9632 143.082 21.4099 145.109C21.9885 145.978 22.5672 146.847 23.7246 147.137C24.8819 147.426 25.4606 146.847 26.0392 145.978C27.1966 144.53 27.1965 143.661 27.1965 141.923C27.1965 140.475 26.6179 138.737 26.0392 137.289C25.4606 136.42 24.5925 135.551 24.0138 134.972C23.4352 134.393 22.8565 134.103 21.6992 134.103C20.2525 134.103 20.5419 135.841 20.2525 136.999H19.6738Z" fill="#FFDC97"/>
<path fill-rule="evenodd" clip-rule="evenodd" d="M222.788 125.704C222.788 125.414 223.077 121.359 223.945 120.49C224.235 120.2 225.103 119.911 225.392 119.621C226.55 119.042 227.996 118.752 229.443 119.331C231.179 120.2 232.915 122.807 232.336 124.835C231.757 127.441 228.864 129.179 226.549 129.179C223.945 129.179 221.92 125.993 223.367 123.676L222.788 125.704Z" fill="#FFDC97"/>
<path fill-rule="evenodd" clip-rule="evenodd" d="M81.8828 158.143C81.8828 158.143 82.1722 156.116 82.4615 155.537C82.7509 155.247 83.0402 155.247 83.3295 155.247C83.9082 154.957 84.7762 154.957 85.3549 155.247C86.2229 155.826 87.0909 156.985 86.8015 158.143C86.5122 159.302 85.0655 160.461 83.9082 160.461C82.7509 160.461 81.5935 158.723 82.1722 157.564L81.8828 158.143Z" fill="#FFDC97"/>
<path fill-rule="evenodd" clip-rule="evenodd" d="M144.378 183.341C144.378 183.341 144.667 181.314 144.957 180.734C145.246 180.445 145.535 180.445 145.825 180.445C146.403 180.155 147.271 180.155 147.85 180.445C148.718 181.024 149.586 182.183 149.297 183.341C149.007 184.5 147.561 185.658 146.403 185.658C145.246 185.658 144.089 183.92 144.667 182.762L144.378 183.341Z" fill="#FFDC97"/>
<path fill-rule="evenodd" clip-rule="evenodd" d="M186.623 72.6996C186.623 72.6996 186.912 70.6721 187.202 70.0928C187.491 69.8032 187.78 69.8032 188.07 69.8032C188.648 69.5135 189.516 69.5135 190.095 69.8032C190.963 70.3824 191.831 71.541 191.542 72.6996C191.252 73.8581 189.806 75.0167 188.648 75.0167C187.491 75.0167 186.334 73.2788 186.912 72.1203L186.623 72.6996Z" fill="#FFDC97"/>
<path fill-rule="evenodd" clip-rule="evenodd" d="M100.689 233.16C100.689 233.16 100.979 231.133 101.268 230.553C101.557 230.264 101.847 230.264 102.136 230.264C102.715 229.974 103.583 229.974 104.162 230.264C105.03 230.843 105.898 232.001 105.608 233.16C105.319 234.319 103.872 235.477 102.715 235.477C101.557 235.477 100.4 233.739 100.979 232.581L100.689 233.16Z" fill="#FFDC97"/>
<path fill-rule="evenodd" clip-rule="evenodd" d="M213.82 159.881C211.795 161.329 210.348 161.908 209.191 163.646C208.323 165.095 207.166 166.253 206.587 167.991C206.008 169.149 205.43 171.177 205.43 172.336C205.719 175.811 210.059 172.915 211.506 171.756C213.242 170.308 214.978 168.281 214.978 165.963C214.978 165.095 214.978 163.936 214.688 163.067C214.399 162.777 214.399 162.198 214.11 161.908C213.531 161.329 213.242 161.329 213.82 159.881Z" fill="#FFDC97"/>
<path fill-rule="evenodd" clip-rule="evenodd" d="M257.508 175.811C257.798 174.363 256.93 179.866 257.219 180.156C257.798 180.156 258.376 180.156 258.955 180.156C259.534 180.156 259.823 179.577 260.402 179.287C261.559 178.418 262.427 177.839 262.427 176.391C262.427 175.232 262.138 174.363 260.98 173.784C260.402 173.494 260.112 173.494 259.534 173.494C258.376 173.784 257.508 174.943 256.93 176.101L257.508 175.811Z" fill="#FFDC97"/>
<path fill-rule="evenodd" clip-rule="evenodd" d="M137.147 235.477C138.305 235.477 134.254 235.477 134.254 235.477C134.254 235.766 134.254 236.346 134.254 236.635C134.254 237.215 134.543 237.215 134.833 237.504C135.411 238.084 135.99 238.663 136.858 238.663C137.726 238.663 138.305 238.373 138.305 237.504C138.305 237.215 138.594 236.925 138.305 236.635C138.015 235.766 137.147 235.187 136.569 235.187L137.147 235.477Z" fill="#F7EDAA"/>
<path fill-rule="evenodd" clip-rule="evenodd" d="M135.12 223.602C135.409 222.154 134.541 227.657 134.83 227.947C135.409 227.947 135.988 227.947 136.566 227.947C137.145 227.947 137.434 227.367 138.013 227.078C139.17 226.209 140.038 225.629 140.038 224.181C140.038 223.023 139.749 222.154 138.592 221.575C138.013 221.285 137.724 221.285 137.145 221.285C135.988 221.575 135.12 222.733 134.541 223.892L135.12 223.602Z" fill="#FFDC97"/>
<g opacity="0.25">
<path opacity="0.4" fill-rule="evenodd" clip-rule="evenodd" d="M36.8032 53.366C32.7525 58.2899 29.2805 62.9241 26.6765 68.717C24.3618 73.6409 23.4938 79.4337 22.6258 84.9368C22.0471 88.1229 21.7578 91.3089 21.1791 94.7846C20.8898 97.681 20.0218 100.577 20.3112 103.474C20.8898 107.529 21.1792 111.873 23.2045 115.349C25.2299 119.114 27.2552 122.59 29.8592 126.066C32.4632 129.252 35.6459 130.99 39.9859 131.279C42.3006 131.569 44.6152 130.99 46.9299 131.279C50.1126 131.569 53.2953 132.148 56.478 132.728C62.8434 133.886 70.0767 133.886 74.706 128.673C78.4674 124.328 80.2034 119.114 82.5181 113.901C85.1221 108.398 88.3047 104.053 92.9341 100.288C96.4061 97.681 99.5889 94.495 102.772 91.5985C104.218 90.44 105.086 88.9918 106.822 87.8332C108.558 86.9643 109.426 85.8057 110.873 84.3575C112.32 83.199 113.766 82.3301 114.924 80.8819C116.949 78.5647 118.396 75.6683 119.264 73.0616C120.421 70.1652 120.71 67.2687 121.289 64.0827C121.578 61.1863 120.71 58.2899 119.842 55.3935C118.106 50.1799 113.477 46.7043 109.426 43.5182C104.218 39.4632 97.8528 37.7254 91.4874 36.2772C85.7007 35.1186 78.4674 34.829 72.3914 35.9876C66.026 37.1461 59.6606 38.015 53.8739 40.6218C49.5339 42.6493 46.93 45.2561 43.4579 48.4421C41.7219 49.8903 39.6965 51.0489 37.9605 52.7867C35.9352 55.1039 33.9098 57.7106 36.8032 53.366Z" fill="#4F4E4E"/>
<path opacity="0.4" fill-rule="evenodd" clip-rule="evenodd" d="M98.7217 27.8779C99.5897 26.4297 100.458 24.1126 101.615 22.954C102.194 22.0851 103.062 21.5058 103.93 20.9265C106.244 18.899 108.848 17.4508 111.742 16.5819C113.478 16.0026 115.214 16.0026 116.66 16.5819C118.396 16.8716 121.29 18.0301 122.447 19.1887C124.762 21.5058 123.315 25.2711 122.447 27.8779C121.868 30.4847 121.001 33.0914 118.686 34.5396C117.239 35.6982 115.214 36.5671 113.478 36.8568C112.61 37.1464 111.452 37.1464 110.295 37.1464C109.427 37.1464 108.559 37.436 107.98 37.436C105.955 37.436 103.062 35.9878 102.483 34.25C102.194 33.3811 101.904 32.2225 101.326 31.3536C101.036 30.4847 100.747 29.9054 100.458 29.0365C99.879 27.5883 99.5897 26.1401 98.7217 27.8779Z" fill="#4F4E4E"/>
<path opacity="0.4" fill-rule="evenodd" clip-rule="evenodd" d="M121.577 42.3598C120.998 43.808 120.709 45.5459 120.709 46.9941C121.288 47.2837 121.577 48.1526 122.445 48.7319C123.024 49.0215 123.892 49.0215 124.76 49.0215C126.206 49.0215 127.364 49.0215 127.653 47.2837C127.942 45.8355 126.496 44.6769 125.338 43.808C124.47 43.2287 123.024 41.7805 122.156 42.9391L121.577 42.3598Z" fill="#4F4E4E"/>
<path opacity="0.4" fill-rule="evenodd" clip-rule="evenodd" d="M140.385 64.6623C138.649 65.8209 136.624 66.9794 134.888 68.4276C132.862 70.1655 131.126 72.193 129.39 74.5101C127.365 77.1169 124.761 80.0133 125.34 83.7786C125.918 87.2543 127.076 90.4403 129.68 92.7574C132.863 95.6538 137.781 95.6538 141.543 97.3917C144.725 98.8399 146.751 102.026 148.197 105.212C150.512 109.846 155.72 110.715 160.349 111.584C163.243 112.163 166.425 112.453 169.319 113.032C173.369 113.612 177.42 114.191 181.471 114.77C188.994 115.349 196.516 117.087 204.039 116.508C212.14 115.929 219.374 113.032 225.739 108.398C231.236 104.633 236.444 97.6813 237.891 91.0196C239.338 84.0682 237.023 76.2479 233.84 69.8758C229.5 61.7659 224.292 54.5249 218.506 47.2839C215.323 43.2289 211.851 39.7532 208.379 35.9879C205.486 32.5122 202.592 29.6158 199.409 26.7194C191.887 20.3473 182.628 15.1338 172.791 14.5545C169.029 14.2648 165.268 14.8441 161.507 16.2923C158.324 17.4509 156.009 19.1887 153.695 21.7955C147.908 27.8779 144.725 35.6982 142.121 43.5185C140.964 47.2839 139.807 51.3388 140.385 55.1042C140.385 56.2627 141.253 57.1316 141.253 58.2902C141.253 59.4488 141.253 60.3177 141.253 61.4763C141.253 62.0555 141.253 62.6348 140.964 63.2141C140.675 63.7934 139.807 64.6623 140.385 64.6623Z" fill="#4F4E4E"/>
<path opacity="0.4" fill-rule="evenodd" clip-rule="evenodd" d="M109.137 91.8882C105.375 94.2053 101.325 95.9431 98.4313 99.4188C97.8527 99.9981 97.2739 100.867 97.5633 101.736C97.8526 102.605 99.01 103.184 99.878 103.474C102.771 104.632 106.243 105.212 109.426 104.632C112.319 104.053 115.791 102.315 117.238 99.7085C119.263 96.5224 116.949 91.3089 112.898 91.5985C112.319 91.5985 111.741 91.8882 111.162 91.8882C110.583 91.8882 110.294 91.8882 109.715 91.8882C109.137 91.8882 109.137 91.8882 108.558 92.1778C107.979 92.7571 107.401 93.3364 109.137 91.8882Z" fill="#4F4E4E"/>
<path opacity="0.4" fill-rule="evenodd" clip-rule="evenodd" d="M29.8578 144.893C28.4111 146.341 26.6752 147.499 25.8072 149.237C24.9391 150.975 24.3605 152.713 24.0711 154.74C23.7818 156.478 23.2031 158.216 23.7818 159.954C24.0711 161.402 24.9391 162.85 25.5178 164.588C26.0965 166.616 26.9645 168.353 27.2538 170.381C27.8325 172.988 28.7005 175.015 29.8578 177.332C31.0152 179.649 32.1725 181.677 33.6191 183.704C35.0658 186.022 36.5125 187.47 38.2485 189.497C44.6139 195.869 52.1366 202.821 61.3953 203.979C66.0246 204.559 70.9433 203.4 74.4153 199.924C78.1767 196.159 80.4914 190.945 81.3594 185.732C81.938 181.387 81.6487 176.753 79.3341 172.988C77.3087 169.802 75.2833 166.616 72.9687 164.009C71.2327 162.271 69.4967 160.823 67.4713 159.085C65.7353 157.347 63.9993 155.609 61.974 154.451C58.502 151.844 55.3193 149.237 51.8473 146.92C48.6646 144.603 45.1926 142.286 41.4312 141.417C38.8272 140.838 35.9339 140.258 33.3299 141.417C32.1725 141.996 31.3045 142.286 30.7258 143.155C30.4365 143.734 29.8578 144.603 29.8578 145.182C29.2792 144.603 28.9898 144.603 29.8578 144.893Z" fill="#4F4E4E"/>
<path opacity="0.4" fill-rule="evenodd" clip-rule="evenodd" d="M54.1639 138.81C54.1639 139.969 54.4533 141.127 54.4533 141.996C54.4533 142.286 54.7426 142.576 54.7426 143.155C55.032 143.444 55.9 143.444 56.1893 143.444C57.3466 143.444 58.504 142.865 59.372 142.286C60.8187 141.127 61.3973 138.81 59.9506 137.652C59.0826 136.783 57.636 136.203 56.1893 136.493C55.6106 136.783 52.428 138.231 53.5853 139.389L54.1639 138.81Z" fill="#4F4E4E"/>
<path opacity="0.4" fill-rule="evenodd" clip-rule="evenodd" d="M237.601 108.688C238.179 106.371 238.179 104.633 239.626 102.895C241.073 101.447 242.519 99.7088 243.677 98.2606C245.991 95.3642 247.438 91.5988 248.306 88.1232C249.174 84.9371 248.306 81.7511 249.753 78.565C250.042 77.6961 250.621 76.5375 251.199 75.9583C251.778 75.6686 253.514 75.9583 254.093 76.2479C254.671 76.5375 255.539 77.4065 256.118 77.9857C256.986 78.8547 257.854 79.7236 259.011 80.8821C263.641 85.806 266.245 93.3367 265.955 99.9984C265.955 104.053 265.377 107.529 264.219 111.294C263.641 112.743 263.062 114.191 262.194 115.639C261.326 117.377 259.879 118.246 258.433 119.404C253.803 122.301 246.859 121.432 242.809 117.666C241.362 116.218 240.783 114.48 239.626 112.743C238.758 111.584 238.179 110.425 237.89 108.688C237.89 108.398 237.89 108.398 237.601 108.688Z" fill="#4F4E4E"/>
<path opacity="0.4" fill-rule="evenodd" clip-rule="evenodd" d="M237.601 57.1315C238.469 59.7383 238.758 62.6347 241.651 64.0829C242.23 64.3725 243.098 64.6622 243.677 64.6622C244.255 64.6622 244.834 64.3725 245.413 63.7932C248.306 61.7658 246.57 56.8419 244.834 54.5248C243.677 53.3662 242.23 52.7869 240.783 52.2076C240.205 51.918 240.205 51.918 239.626 52.2076C239.047 52.4973 238.758 52.4973 238.469 53.0765C238.179 53.3662 238.179 54.2351 238.179 54.5248C238.179 55.104 237.89 55.3937 237.89 55.6833C237.601 56.5522 237.89 57.4211 238.179 58.2901L237.601 57.1315Z" fill="#4F4E4E"/>
<path opacity="0.4" fill-rule="evenodd" clip-rule="evenodd" d="M216.191 168.643C215.612 170.381 215.033 172.409 214.165 174.146C213.297 176.174 212.429 177.912 211.561 179.939C209.536 184.863 208.378 190.366 206.932 195.58C205.485 201.083 204.617 206.876 204.038 212.379C203.749 215.275 203.17 218.172 203.46 221.068C203.46 223.096 203.46 225.702 204.328 227.73C204.906 228.888 206.064 230.916 207.221 231.495C208.957 232.364 210.982 230.916 212.429 230.047C217.926 227.151 222.845 223.096 227.185 218.751C231.525 214.406 235.865 210.351 239.627 205.428C241.363 203.11 243.099 201.083 244.545 198.476C245.703 196.449 246.571 194.132 247.439 192.104C248.307 190.077 249.175 188.049 250.043 186.022C251.2 183.705 252.068 181.098 252.936 178.491C254.383 173.567 255.829 168.643 254.093 163.719C252.647 159.375 249.175 156.189 244.545 155.32C242.231 154.74 239.337 154.161 237.022 154.161C234.708 154.451 232.104 155.03 229.789 155.899C227.764 156.768 225.738 157.637 224.002 158.795C223.134 159.375 222.267 160.244 221.398 161.113C219.952 162.561 218.795 164.009 217.637 165.747C217.059 166.616 216.769 167.195 215.901 167.774C215.612 169.222 215.033 170.671 216.191 168.643Z" fill="#4F4E4E"/>
<path opacity="0.4" fill-rule="evenodd" clip-rule="evenodd" d="M194.49 232.074C191.596 233.233 189.282 234.102 186.678 236.129C183.784 238.446 180.891 240.474 178.865 243.66C177.997 244.819 176.551 246.556 177.708 248.005C178.576 249.163 180.312 249.163 181.759 249.163C183.784 249.163 185.809 248.873 187.545 248.005C189.282 247.425 190.728 246.267 192.464 245.687C194.2 245.108 196.515 243.95 197.672 242.501C198.251 241.632 198.829 240.474 199.408 239.605C199.987 238.736 199.987 238.446 199.987 237.288C199.987 236.129 199.119 234.681 198.54 234.102C197.962 233.523 196.515 232.654 195.647 232.943C195.068 232.943 194.49 233.233 193.911 233.523C192.754 233.523 191.886 234.971 194.49 232.074Z" fill="#4F4E4E"/>
<path opacity="0.4" fill-rule="evenodd" clip-rule="evenodd" d="M191.019 215.275C190.44 212.958 189.861 211.51 189.861 209.193C190.151 207.166 190.151 205.428 191.019 203.69C191.597 202.821 192.755 200.504 193.623 200.214C193.912 200.214 194.78 200.214 195.069 200.214C196.516 200.504 197.384 202.242 197.673 203.69C198.252 205.717 197.673 208.034 197.963 210.352C197.963 212.089 197.673 213.538 197.095 214.986C196.516 216.144 195.648 216.144 194.491 216.144C193.333 216.144 192.755 215.855 191.887 214.986C191.597 214.696 191.019 214.696 190.729 214.407C190.151 213.827 190.151 213.248 191.019 215.275Z" fill="#4F4E4E"/>
<path opacity="0.4" fill-rule="evenodd" clip-rule="evenodd" d="M188.413 128.383C188.124 129.831 188.124 131.569 188.124 133.017C188.702 133.017 189.281 134.176 189.86 134.176C191.017 134.466 191.885 133.886 192.753 133.307C194.489 131.859 195.068 129.252 194.489 127.225C194.2 125.197 191.885 124.907 190.149 125.197C189.571 125.197 188.702 125.487 188.413 125.776C187.256 126.645 187.256 127.804 187.256 128.962L188.413 128.383Z" fill="#4F4E4E"/>
<path opacity="0.4" fill-rule="evenodd" clip-rule="evenodd" d="M57.6352 222.806C58.5032 221.068 59.3712 219.33 60.5285 217.882C61.9752 216.144 63.4218 214.696 64.8685 213.248C66.8939 211.51 68.9192 209.772 70.9446 208.324C72.9699 206.875 74.7059 205.427 76.7313 203.979C80.2033 201.662 83.9646 200.214 88.0153 198.765C91.198 197.607 94.67 197.317 98.142 197.897C101.614 198.476 105.086 200.503 107.401 202.82C109.715 205.138 112.319 208.034 113.766 210.93C116.949 217.013 115.502 223.964 113.477 230.047C112.609 232.943 110.583 236.129 108.269 238.157C106.822 239.315 105.375 239.894 103.639 240.184C101.903 240.474 99.5887 241.343 97.8527 241.343C89.462 242.501 81.0712 241.922 73.2592 239.026C70.0765 237.867 67.1831 236.419 64.0005 234.971C61.6858 233.812 59.6604 232.364 58.2138 230.336C57.0564 228.888 56.1885 226.861 56.1885 224.833C56.1885 223.964 56.4778 223.095 56.7671 222.226C57.3458 222.806 57.6352 222.516 57.6352 222.806Z" fill="#4F4E4E"/>
<path opacity="0.4" fill-rule="evenodd" clip-rule="evenodd" d="M119.553 226.571C118.974 228.019 118.685 229.757 118.396 231.205C118.974 231.495 118.974 232.364 119.263 232.943C119.842 233.523 120.131 233.812 121 233.812C121.868 233.812 122.735 233.812 123.314 233.812C124.471 233.523 124.761 233.233 125.34 232.364C125.918 231.495 126.207 230.916 126.207 229.757C126.207 228.888 125.918 228.019 125.34 227.44C125.05 226.861 124.472 226.282 123.893 225.992C122.736 225.123 121.868 225.702 121 226.282L119.553 226.571Z" fill="#4F4E4E"/>
<path opacity="0.4" fill-rule="evenodd" clip-rule="evenodd" d="M254.962 155.03C253.805 154.161 252.647 153.003 251.779 151.555C251.779 150.975 251.779 150.396 251.779 149.817C251.49 148.368 251.201 147.21 251.49 145.762C252.069 142.286 254.962 139.969 258.434 139.679C260.749 139.39 263.931 141.127 265.089 143.155C266.246 145.182 266.825 147.5 266.825 149.817C266.825 151.555 266.535 153.872 265.378 155.32C264.51 156.478 263.063 156.478 261.906 156.478C260.459 156.478 259.013 156.189 257.855 155.899C256.698 155.61 255.541 155.03 254.962 155.03Z" fill="#4F4E4E"/>
</g>
</g>
<defs>
<filter id="filter0_d_436_487" x="0" y="0" width="282" height="282" filterUnits="userSpaceOnUse" color-interpolation-filters="sRGB">
<feFlood flood-opacity="0" result="BackgroundImageFix"/>
<feColorMatrix in="SourceAlpha" type="matrix" values="0 0 0 0 0 0 0 0 0 0 0 0 0 0 0 0 0 0 127 0" result="hardAlpha"/>
<feOffset dx="4" dy="4"/>
<feGaussianBlur stdDeviation="2"/>
<feComposite in2="hardAlpha" operator="out"/>
<feColorMatrix type="matrix" values="0 0 0 0 0 0 0 0 0 0 0 0 0 0 0 0 0 0 0.25 0"/>
<feBlend mode="normal" in2="BackgroundImageFix" result="effect1_dropShadow_436_487"/>
<feBlend mode="normal" in="SourceGraphic" in2="effect1_dropShadow_436_487" result="shape"/>
</filter>
<radialGradient id="paint0_radial_436_487" cx="0" cy="0" r="1" gradientUnits="userSpaceOnUse" gradientTransform="translate(51.9885 72.5553) scale(220.188 220.421)">
<stop stop-color="#E6D3E6"/>
<stop offset="0.142857" stop-color="#E4B2E5"/>
<stop offset="0.285714" stop-color="#EFADE4"/>
<stop offset="0.428571" stop-color="#ED9EE0"/>
<stop offset="0.571429" stop-color="#F09CE8"/>
<stop offset="0.714286" stop-color="#ED96DF"/>
<stop offset="0.857143" stop-color="#DE94D2"/>
<stop offset="1" stop-color="#B17DDA"/>
</radialGradient>
<linearGradient id="paint1_linear_436_487" x1="-0.191721" y1="98.7246" x2="193.95" y2="98.7246" gradientUnits="userSpaceOnUse">
<stop offset="0.0111732" stop-color="#FAF5F6"/>
<stop offset="0.2983" stop-color="#E5F9AC"/>
<stop offset="0.5089" stop-color="#9FC0FF"/>
<stop offset="0.695" stop-color="#87BCFA"/>
<stop offset="0.8659" stop-color="#9DE8F9"/>
<stop offset="1" stop-color="#6ACCF6"/>
</linearGradient>
</defs>
</svg>
