<svg width="282" height="282" viewBox="0 0 282 282" fill="none" xmlns="http://www.w3.org/2000/svg">
<g filter="url(#filter0_d_812_279)">
<path fill-rule="evenodd" clip-rule="evenodd" d="M274 137C274 150.006 272.264 163.012 268.792 174.863C261.848 199.141 248.249 220.529 230.31 237.293C217.579 249.143 202.245 258.681 185.463 265.04C170.418 270.821 153.926 274 136.855 274C134.54 274 131.936 274 129.622 273.711C126.15 273.422 122.388 273.133 118.916 272.844C92.5869 269.375 68.2829 258.392 48.8975 241.918C41.6641 235.848 35.0095 228.911 28.9334 221.396C24.5934 215.616 20.5427 209.835 17.0707 203.477C16.2027 202.031 15.3347 200.297 14.4667 198.852C14.4667 198.852 14.4667 198.852 14.4667 198.563C13.5987 196.829 12.7307 195.384 12.152 193.65C9.83732 188.447 7.81196 182.955 6.07595 177.464C4.91861 173.417 3.76135 169.371 2.89334 165.325C2.31467 162.434 1.73601 159.544 1.44667 156.365C0.578669 150.006 0 143.647 0 137C0 133.242 -5.29873e-05 129.485 0.578616 125.728C0.86795 123.415 1.15734 121.103 1.44667 118.791C3.18268 105.206 6.94399 92.489 12.4413 80.6388C15.0454 74.8582 18.2281 69.0776 21.7001 63.8751C27.4868 54.9151 34.1415 46.5333 41.9535 39.0185C66.5469 15.029 100.399 0.288452 137.434 0.288452C138.88 0.288452 140.327 0.288452 141.774 0.288452C143.221 0.288452 144.956 0.288448 146.403 0.577478C154.215 1.15554 162.027 2.31166 169.55 4.04584C173.89 5.20196 178.23 6.35808 182.281 7.80323C185.174 8.67032 187.778 9.82644 190.671 10.9826C192.697 11.8496 194.722 12.7167 196.747 13.5838C197.037 13.8729 197.326 13.8729 197.905 14.1619C211.214 20.5206 223.366 29.1915 233.782 39.5965C235.229 41.0417 236.675 42.4868 238.122 44.221C238.99 45.3771 240.147 46.2442 241.015 47.4003C242.751 49.1345 244.198 51.1577 245.645 52.8919C251.142 59.8286 255.772 67.3434 259.822 75.1473C264.452 84.3962 268.213 94.2232 270.817 104.339C272.553 114.455 274 125.438 274 137Z" fill="url(#paint0_radial_812_279)"/>
<path opacity="0.2" fill-rule="evenodd" clip-rule="evenodd" d="M197.037 13.8732C196.458 13.8732 196.169 13.8732 195.59 14.1623C194.143 14.4513 192.697 14.1623 191.25 13.8732C190.093 13.5842 189.514 13.0061 188.067 13.0061C186.331 12.7171 184.885 12.1391 183.149 11.85C181.413 11.561 179.966 10.9829 178.23 10.4049C176.783 9.82683 176.205 10.1159 175.047 10.4049C173.89 10.6939 173.022 10.1159 171.865 9.82682C170.707 9.24876 169.261 9.24876 168.103 8.95973C164.631 8.38167 161.159 7.22555 157.687 6.35846C155.662 5.7804 153.637 5.7804 151.322 5.7804C149.586 5.7804 148.139 6.35846 146.403 6.35846C145.246 6.35846 144.378 6.06943 143.221 6.06943C142.063 5.7804 140.906 6.06943 139.748 6.06943C138.012 5.7804 137.144 5.49137 135.408 6.06943C133.962 6.35846 133.094 6.35846 131.647 6.64749C130.2 6.64749 128.464 7.22555 127.018 7.51458C124.414 8.09264 121.52 8.6707 118.916 8.6707C117.18 8.6707 114.866 8.09264 113.419 8.6707C112.551 8.95973 111.972 10.1159 111.104 10.6939C109.658 12.1391 108.211 13.2952 107.054 14.7403C105.896 16.1855 104.739 17.9197 104.739 19.9429C104.739 21.6771 105.607 23.7003 106.475 25.1454C107.343 26.8796 107.632 28.3247 105.896 29.4809C103.871 30.926 101.267 32.0821 98.9523 32.9492C97.2163 33.5273 95.7696 33.8163 94.6123 32.6602C94.0336 32.3712 93.7443 31.5041 93.1656 30.926C92.587 30.637 91.719 30.926 91.1403 31.215C89.4043 31.7931 87.6683 32.3712 85.9323 32.6602C84.7749 32.9492 83.9069 33.5273 82.7496 33.5273C81.5922 33.8163 80.7243 32.9492 79.2776 33.2383C77.5416 33.5273 75.5163 34.3944 73.7803 34.3944C72.3336 34.3944 70.5976 33.8163 69.4403 33.2383C68.8616 32.9492 68.5722 32.3712 67.7042 32.6602C67.1256 32.6602 66.2575 33.5273 65.9682 34.1053C65.3895 34.6834 65.3896 35.5505 64.8109 36.1286C64.2322 36.9957 63.9429 37.5737 63.3642 38.4408C62.4962 39.8859 61.6282 41.3311 60.7602 42.7762C60.1816 43.6433 59.6029 45.0885 58.7349 45.9556C58.4455 46.5336 57.5775 46.8227 56.9988 47.1117C55.5522 47.9788 54.1055 49.1349 52.6588 50.002C50.0548 52.0252 47.4508 54.3375 44.8468 56.3607C42.8215 57.8058 39.9282 58.6729 37.6135 59.829C36.1668 60.4071 34.7201 60.9851 33.2735 61.5632C32.6948 61.8522 31.8268 61.8522 31.5374 62.4303C30.9588 63.0084 30.6694 63.5864 30.3801 64.4535C29.2228 65.8987 27.7761 67.6328 26.9081 69.367C26.3294 70.5231 26.0401 71.3902 25.4614 72.5463C24.8827 73.9915 24.0147 75.4366 23.7254 77.1708C22.568 80.3502 22.568 83.8185 21.1214 86.9979C20.5427 88.732 19.3854 90.4662 18.5174 92.2004C17.0707 95.0907 16.7813 98.5591 16.492 101.738C16.2027 103.473 16.492 105.785 16.7814 107.519C17.0707 109.542 17.0707 111.565 17.0707 113.589C17.0707 115.612 15.6241 117.924 14.4667 119.369C13.3094 120.814 11.284 121.392 9.83735 122.838C8.68001 123.994 7.23333 125.15 6.65466 126.884C6.36532 127.462 6.65466 128.329 6.65466 129.196C6.36532 130.93 5.78669 132.376 5.78669 134.11C5.49735 136.133 5.49734 138.156 5.49734 140.468C5.49734 141.625 5.49734 142.492 5.49734 143.648C5.49734 144.804 5.78662 145.671 6.07595 146.538C6.07595 147.116 6.07595 147.983 6.07595 148.561C6.07595 149.428 6.65466 150.295 6.65466 150.874C7.23333 152.897 7.52264 154.631 7.81198 156.654C8.10131 158.388 8.96931 160.122 9.25865 161.857C10.1267 164.169 10.416 166.481 10.9947 169.082C11.284 170.817 11.284 172.84 11.5734 174.574C11.8627 176.019 12.152 177.464 12.152 178.909C12.152 181.222 11.5734 183.245 11.5734 185.557C11.5734 189.314 13.02 193.072 13.888 196.829C14.1774 197.985 14.4667 198.852 14.756 200.009C5.20795 181.511 0 160.411 0 138.156C0 110.987 7.81201 85.8417 21.4107 64.7425C27.1974 55.7826 33.8521 47.4007 41.6641 40.175C66.2576 16.1855 100.11 1.44495 137.145 1.44495C140.038 1.44495 143.221 1.44495 146.114 1.73398C164.053 1.44495 181.413 6.06943 197.037 13.8732Z" fill="url(#paint1_linear_812_279)"/>
<path opacity="0.4" fill-rule="evenodd" clip-rule="evenodd" d="M168.683 3.75739C161.161 2.02321 153.638 0.867097 145.537 0.289037C144.09 0.289037 142.354 0 140.907 0C144.09 1.73418 147.273 4.91352 147.851 8.38188C149.009 14.1625 151.034 19.365 151.902 24.8566C153.059 30.3482 152.77 37.2849 150.166 42.1984C148.719 45.3777 146.694 47.979 144.09 50.5803C142.354 52.3145 140.618 53.4706 139.461 55.7828C138.303 58.095 136.857 60.1183 135.41 62.1415C133.385 65.3208 131.07 68.5001 128.466 71.3904C127.598 72.5466 126.73 73.1246 125.862 74.2807C124.994 75.7259 124.415 77.171 123.258 78.3272C120.654 80.9284 116.893 82.6626 113.71 83.8187C109.37 85.5529 105.608 87.2871 101.558 89.5993C95.7711 92.7787 90.8524 96.5361 84.1977 96.8251C81.883 96.8251 79.5684 96.5361 77.2537 96.8251C74.3604 97.1141 71.7564 98.2702 69.1524 98.8483C66.8377 99.4263 64.2337 99.7154 61.919 100.293C57.8683 100.871 54.6856 102.317 50.9242 103.184C46.0056 104.34 40.7976 104.051 35.5896 104.918C30.9602 105.496 27.1989 106.074 22.5695 104.918C15.6255 103.184 11.8641 100.004 13.3108 92.4896C14.1788 87.5761 13.8895 83.8187 11.5748 80.3504C6.07748 92.2006 2.31608 105.207 0.580078 118.502C3.76276 119.947 7.5241 120.526 10.7068 120.815C20.8335 121.971 31.8282 117.346 41.0869 113.878C45.7162 112.144 50.6349 109.542 55.843 108.964C61.3403 108.386 65.9697 108.964 71.467 107.808C89.9844 103.184 108.212 96.8251 124.994 86.9981C131.938 82.9516 134.831 77.171 139.75 71.3904C143.801 66.1879 148.719 62.1415 153.638 57.806C158.557 53.4706 162.897 49.4241 165.79 43.6435C168.973 37.5739 171.577 30.6372 173.023 23.9895C174.47 16.4747 172.445 9.53799 168.683 3.75739ZM167.815 22.2553C167.526 23.7005 167.237 25.4346 166.947 26.8798C165.79 30.6372 163.475 34.3946 160.003 36.1288C158.557 36.9959 156.242 36.4178 155.374 34.9726C154.795 34.1056 154.795 32.9494 154.795 32.0823C154.506 30.0591 154.217 28.325 154.217 26.3017C154.217 21.6773 154.217 17.0528 153.638 12.4283C154.217 15.0296 153.638 8.38187 157.689 6.64769C159.714 5.7806 162.607 6.64769 164.054 8.09284C165.79 10.1161 166.369 13.2954 166.947 15.6076C167.526 18.2089 168.105 19.9431 167.815 22.2553Z" fill="url(#paint2_linear_812_279)" fill-opacity="0.5"/>
<path opacity="0.4" fill-rule="evenodd" clip-rule="evenodd" d="M147.85 241.051C147.561 241.051 146.982 241.34 146.693 241.34L149.297 241.629C149.297 241.34 148.718 241.051 147.85 241.051ZM147.85 241.051C147.561 241.051 146.982 241.34 146.693 241.34L149.297 241.629C149.297 241.34 148.718 241.051 147.85 241.051ZM269.949 103.762C269.949 107.23 268.792 110.988 268.792 114.456C268.792 119.369 267.924 123.127 266.766 127.751C265.898 130.931 264.162 133.243 263.294 136.422C262.137 139.891 260.401 143.07 258.665 146.249C255.193 152.608 251.432 159.256 249.985 166.481C248.538 173.129 248.249 178.621 245.066 184.69C241.884 190.471 237.254 195.384 233.782 201.165C232.336 203.766 231.178 203.766 228.574 205.5C225.97 207.524 223.366 210.414 220.762 212.437C215.265 216.773 210.057 219.952 203.113 222.553C198.773 224.287 194.722 225.444 190.093 226.022C187.199 226.6 184.306 226.022 181.413 226.6C176.783 227.467 172.443 228.623 167.814 230.068C160.581 232.38 153.058 233.825 145.825 236.138C140.617 237.583 135.698 238.739 130.49 239.606C127.307 240.184 124.703 241.918 121.521 241.34C118.338 240.762 115.155 239.606 111.973 238.45C107.922 237.294 104.45 237.005 100.11 237.005C94.3231 237.005 87.3791 237.872 81.303 236.716C74.6484 235.56 68.283 233.536 61.6283 232.38C57.5777 231.513 54.6843 229.779 50.9229 228.334C47.4509 226.6 43.979 226.311 40.2176 225.154C36.4563 223.998 32.6949 222.264 28.9336 221.397C34.7203 228.912 41.375 235.849 48.8976 241.918C68.2831 258.393 92.2978 269.376 118.917 272.844C122.389 273.133 125.861 273.712 129.622 273.712C137.434 271.977 144.957 269.665 152.769 267.353C165.789 263.306 177.073 255.503 190.093 251.745C195.011 250.3 199.352 248.855 203.692 246.543C207.164 244.809 210.636 244.519 213.818 243.074C225.97 237.872 234.94 226.311 240.437 214.749C242.752 209.547 245.066 203.766 249.696 199.72C251.432 197.986 253.746 196.83 255.193 194.806C256.929 192.783 258.086 190.471 259.822 188.159C262.716 184.401 265.32 180.355 267.924 176.597C268.213 176.019 268.502 175.73 268.792 175.152C272.264 163.013 274 150.296 274 137.289C274 125.439 272.553 114.456 269.949 103.762ZM144.089 241.918C144.667 241.629 145.246 241.051 145.825 240.762C146.403 240.473 147.271 240.762 147.85 241.051C149.007 240.762 149.875 240.762 150.743 241.34C151.322 241.629 152.19 242.207 152.479 242.785C152.769 243.363 152.479 243.652 151.901 244.23C151.322 244.809 151.033 244.809 150.165 244.809C148.718 245.098 147.271 245.387 145.535 245.098C144.667 245.098 143.221 244.809 142.642 244.23C142.642 243.074 143.51 242.496 144.089 241.918ZM153.058 259.838C152.19 260.994 151.322 262.15 150.165 262.728C149.007 263.595 147.85 263.885 146.982 264.752C144.089 266.197 141.195 267.931 138.302 268.798C137.145 269.087 135.698 269.087 134.541 269.087C133.094 269.376 131.358 269.376 129.911 269.376C128.175 269.376 126.15 269.665 124.414 269.954C122.678 269.954 120.653 270.243 118.917 270.243C115.734 270.532 113.13 269.954 110.236 268.798C107.632 267.931 105.029 266.486 102.714 265.041C100.978 263.885 99.5312 262.439 98.3738 260.994C96.9272 259.838 96.0592 258.393 95.1912 256.659C94.9018 256.081 94.6125 255.503 94.9018 254.636C94.9018 254.347 95.1912 254.057 95.1912 254.057C95.7698 253.768 96.3485 253.19 96.6378 253.19C97.5058 252.612 98.6632 252.612 99.8205 252.323C102.425 252.034 105.028 252.323 107.632 252.612C109.079 252.612 110.526 252.901 111.973 252.612C113.998 252.323 116.023 251.745 117.759 251.167C122.389 250.011 127.018 248.855 131.647 248.566C136.277 247.988 141.485 247.41 146.114 248.277C147.85 248.566 150.165 249.144 151.611 250.011C152.769 250.878 153.637 252.034 154.215 253.19C155.083 255.503 154.505 257.815 153.058 259.838ZM189.514 247.988C188.646 248.855 187.489 249.433 186.331 250.3C184.885 251.456 183.438 252.034 181.991 252.901C180.834 253.768 179.387 254.347 178.23 254.925C176.783 255.503 175.626 256.081 174.179 256.948C172.733 257.526 171.286 258.104 169.839 258.682C168.682 258.971 167.525 259.549 166.367 259.26C165.499 258.971 164.342 258.682 163.763 258.104C162.606 256.948 162.895 255.792 163.185 255.214C163.185 254.347 162.895 252.901 163.185 251.745C163.474 251.167 164.053 250.3 164.342 249.722C165.499 247.41 167.235 245.965 168.971 244.23C170.418 242.785 172.154 241.629 174.179 240.762C176.494 239.895 179.387 239.606 181.702 239.317C184.306 239.028 188.935 238.739 190.382 241.918C191.25 243.941 190.961 245.965 189.514 247.988ZM149.586 241.34C149.297 241.34 148.718 241.051 148.139 240.762C147.85 240.762 147.271 241.051 146.982 241.051L149.586 241.34Z" fill="url(#paint3_linear_812_279)" fill-opacity="0.5"/>
<path opacity="0.4" fill-rule="evenodd" clip-rule="evenodd" d="M258.955 74.5694V75.1474C258.665 78.9048 257.219 81.5061 255.772 84.9744C254.615 87.8647 253.457 90.177 252.011 92.7783C249.696 97.1137 248.539 101.16 246.803 106.074C243.909 113.299 242.752 121.103 238.412 127.751C234.651 133.821 233.493 141.046 230.6 147.405C227.128 154.631 221.63 159.544 215.844 164.747C213.24 167.059 210.925 169.949 208.61 172.551C206.006 175.152 204.27 178.62 201.088 180.932C194.722 185.557 187.489 189.603 181.124 194.517C177.362 197.407 174.758 201.454 170.418 203.766C166.368 206.367 161.738 208.101 157.688 210.413C153.926 212.726 150.165 215.038 146.114 216.772C141.485 218.506 137.724 217.928 132.805 218.217C127.597 218.506 122.099 219.951 117.181 221.686C113.13 223.131 109.658 224.576 105.318 223.131C102.425 222.264 100.11 220.241 97.2167 219.662C90.2726 218.217 82.7499 219.662 75.8059 219.373C70.3086 219.084 64.5219 217.928 59.0246 216.772C53.8165 215.905 49.4765 212.148 44.5578 210.703C38.1925 208.968 30.9591 210.414 25.1724 208.101C22.5684 207.234 20.2537 205.211 18.2284 203.766C17.6497 203.477 17.3604 203.188 16.7817 202.899C15.9137 201.454 15.0457 199.719 14.1777 198.274C15.6244 198.852 17.0711 199.43 18.5178 200.297C26.3298 204.055 36.1671 203.477 44.5578 204.922C54.1059 206.656 63.6539 208.968 73.2019 210.124C77.2526 210.703 81.014 210.414 85.0647 210.124C90.562 209.546 96.0593 209.546 101.557 208.679C110.815 206.945 120.074 202.61 129.622 203.766C131.358 204.055 133.383 204.922 135.119 204.922C137.723 204.922 139.749 202.61 141.774 201.165C145.536 198.852 149.586 199.141 153.058 195.962C156.241 192.783 160.002 190.759 164.053 188.736C174.469 183.534 182.86 174.863 191.25 166.481C198.194 159.544 204.849 152.318 209.478 143.937C214.108 135.555 213.24 125.439 216.712 116.768C219.316 110.409 221.341 104.628 225.392 99.1369C227.417 96.5356 229.732 94.2234 231.757 91.6221C234.072 89.0209 235.229 86.1306 236.965 82.9512C238.701 79.4829 241.305 76.5926 242.752 72.8352C244.199 69.3668 243.909 66.4765 243.909 62.7191C243.909 58.9617 243.909 54.9153 243.909 50.8689C249.985 59.2508 254.904 66.7655 258.955 74.5694Z" fill="url(#paint4_linear_812_279)" fill-opacity="0.5"/>
<path opacity="0.4" fill-rule="evenodd" clip-rule="evenodd" d="M237.254 43.6439C235.808 42.1987 234.361 40.4645 232.914 39.0194C222.498 28.6143 210.346 20.2324 197.037 13.5847C196.747 13.2957 196.458 13.2957 195.879 13.0067C193.854 12.1396 191.829 11.2725 189.803 10.4054C186.91 9.24929 184.306 8.09316 181.413 7.22607C182.281 7.80413 183.438 8.3822 183.727 8.3822C185.463 9.24929 186.91 9.82735 188.067 11.2725C189.225 12.7177 189.803 13.8738 189.803 15.897C189.803 17.6312 190.093 19.6544 190.382 21.3886C190.671 23.1227 191.539 24.5679 191.829 26.3021C192.118 27.1692 192.118 28.0362 192.407 29.1924C192.986 31.5046 193.854 33.8169 194.433 36.1291C195.301 40.4645 192.986 43.9329 191.539 47.6903C189.225 53.7599 187.778 59.8295 185.753 66.1882C184.306 71.1017 181.702 76.0152 177.941 79.7726C174.179 83.241 168.682 84.1081 165.499 87.8655C162.606 91.3338 159.134 94.5132 155.083 96.2473C150.454 98.5596 145.246 100.294 140.327 101.739C136.855 102.895 133.094 102.895 129.332 103.762C124.703 104.918 120.652 107.23 116.602 108.965C111.972 110.988 107.922 113.3 103.292 115.323C98.663 117.347 94.6123 119.948 89.9829 121.682C87.6683 122.549 85.3536 123.127 83.3283 123.705C78.6989 125.439 74.3589 128.33 69.4403 128.908C67.7042 129.197 65.9682 129.486 64.2322 129.486C62.7855 129.486 61.6282 129.775 60.4709 130.064C56.1309 131.798 53.5268 136.423 48.6081 136.712C43.9788 136.712 39.6388 136.423 35.2987 137.001C32.9841 137.29 30.9588 137.001 28.9334 137.29C28.3548 137.29 27.4867 137.579 26.9081 137.29C26.3294 137.001 25.4614 136.423 24.5934 135.844C22.8574 134.977 21.4107 133.821 19.9641 132.665C17.0707 130.353 13.3094 131.798 10.1267 130.931C9.2587 130.642 7.81201 130.931 6.94401 130.353C4.91867 129.197 2.31462 126.596 0.578616 125.15C0.289281 128.908 0 132.665 0 136.423C0 143.07 0.578669 149.429 1.44667 155.788C1.73601 158.678 2.31468 161.568 2.89334 164.747C3.76135 168.794 4.91861 173.129 6.07595 176.887C7.81196 182.378 9.83732 187.87 12.152 193.072C15.9133 193.65 19.6747 194.229 23.436 193.65C28.9334 192.783 34.1414 191.916 39.6388 192.205C44.8468 192.494 49.4761 194.229 54.3948 195.096C59.8922 195.963 65.6789 196.83 71.4655 197.119C76.6736 197.408 81.8816 197.986 86.8003 198.564C90.5617 199.142 94.6123 199.72 98.3737 200.009C108.5 200.587 118.338 197.986 128.175 197.119C133.094 196.541 138.012 195.385 142.931 194.229C145.825 193.65 148.718 192.783 151.322 191.049C154.794 188.737 157.109 185.558 160.002 182.956C163.474 180.066 166.946 177.176 170.418 174.574C173.311 172.262 176.205 169.661 179.387 167.638C181.702 166.193 184.306 164.458 186.621 162.724C190.961 159.256 194.722 155.209 198.483 150.874C203.691 144.804 205.717 136.423 207.742 128.908C209.767 121.971 210.925 115.323 214.686 108.965C216.422 106.074 217.869 102.606 218.737 99.1376C219.315 97.1144 219.605 94.5132 220.473 92.49C221.919 89.3106 225.102 86.7094 226.838 83.8191C228.285 81.5068 230.021 79.1946 230.889 76.3043C232.914 71.1017 234.361 65.8992 235.229 60.1186C235.807 56.0722 237.254 52.0257 238.412 47.9793C238.701 47.4013 238.701 46.5342 238.99 45.9561C238.99 45.6671 238.122 44.511 237.254 43.6439ZM58.7348 137.29C59.0242 136.712 64.2322 134.688 64.8109 134.399C64.8109 134.399 64.8109 134.399 64.5215 134.399L61.0495 135.844C64.8108 134.688 71.4655 138.446 68.2828 142.492C67.4148 143.648 64.8109 144.226 63.3642 144.515C61.9175 144.804 61.0495 144.226 60.1815 143.07C59.3135 141.914 58.7348 140.18 58.7348 138.735C58.7348 138.446 58.7348 137.579 58.7348 137.29ZM17.9387 173.996C13.888 172.84 11.284 171.395 8.9693 167.927C7.23329 165.615 6.076 163.591 5.49734 160.99C5.208 158.678 4.33996 156.944 4.91863 154.631C5.20797 152.897 6.076 150.874 6.94401 149.429C7.81201 147.695 9.25865 145.671 9.25865 145.093C13.3093 144.804 17.0707 144.515 20.832 144.515C25.172 144.515 29.8014 145.093 34.1414 145.093C36.1668 145.093 38.1921 145.093 40.2175 144.804C42.2428 144.515 43.9788 143.937 46.0042 143.648C49.4762 143.07 52.6588 142.781 55.8415 144.226C58.1562 145.382 59.3135 148.273 60.4709 150.585C61.0495 152.03 61.6282 152.897 61.6282 154.631C61.6282 156.655 61.6282 158.389 61.3388 160.123C61.3388 160.701 61.0495 161.568 61.0495 162.146C58.1561 168.216 50.6335 170.239 44.8468 172.551C36.1668 176.02 26.6187 176.309 17.9387 173.996ZM79.567 187.292C77.8309 191.916 70.3082 193.361 65.9682 193.65C63.9429 193.65 61.3389 193.361 59.3135 192.205C58.1562 191.627 57.2882 190.471 56.4202 189.315C55.8415 188.448 54.9735 187.003 52.6588 187.581C53.2375 184.98 53.8162 182.667 54.9735 180.355C55.8415 179.199 56.9988 178.332 58.1561 177.176C60.1815 175.442 62.4962 173.707 64.8109 172.551C68.5722 170.528 72.6229 171.973 76.0949 173.707C78.6989 174.864 80.435 176.598 81.0136 179.199C81.8816 182.378 80.7243 184.402 79.567 187.292ZM130.49 186.425C129.043 189.604 127.018 190.471 124.124 192.205C120.652 193.94 116.023 195.385 112.262 195.385C110.236 195.385 108.211 194.518 106.475 193.65C105.318 193.072 103.871 192.783 103.003 191.916C100.399 189.315 99.8203 185.847 101.556 186.425C100.399 184.113 99.8204 181.8 99.531 179.488C100.11 179.199 100.399 178.621 100.399 178.043C101.846 175.442 104.45 173.129 107.343 171.684C111.972 169.083 118.048 168.505 123.256 170.817C125.571 171.684 127.018 172.84 128.464 174.574C129.332 175.442 130.2 176.02 131.068 177.176C131.936 179.488 131.358 183.823 130.49 186.425ZM145.825 185.847C144.957 186.425 143.51 187.581 142.642 187.581C141.774 187.292 140.327 185.847 140.327 184.691L139.748 184.113C140.906 182.089 142.063 180.355 143.221 178.332C144.957 179.199 146.692 178.91 147.85 180.933C149.296 182.956 147.271 184.691 145.825 185.847ZM184.885 94.8022C183.438 96.8254 181.413 98.8486 179.098 99.7157C176.205 100.872 172.154 102.028 171.865 97.4035C171.865 94.8022 172.154 92.779 173.311 90.4667C175.047 86.9984 176.494 86.1313 179.966 84.3971C181.123 84.3971 182.57 84.9752 183.438 85.2642C185.174 85.8423 186.91 87.5765 187.199 89.5997C187.489 91.6229 186.042 93.357 184.885 94.8022ZM221.051 75.4372C219.605 80.0617 217.579 84.3971 215.554 88.4435C213.239 93.6461 212.95 99.1376 211.503 104.629C210.925 107.809 209.189 111.277 206.295 112.433C204.849 113.011 203.691 112.722 202.245 112.722C200.798 112.722 198.483 113.3 198.483 114.456C197.615 112.144 196.458 109.254 195.879 106.941C195.301 104.34 195.011 101.45 194.722 98.5596C194.143 95.6693 194.143 92.779 193.854 89.8887C193.565 87.2874 192.986 84.3971 192.986 81.7958C192.986 72.8359 198.194 61.5637 206.585 57.5173C209.189 56.3612 211.793 55.7831 214.686 56.0722C217.869 56.6502 219.894 57.5173 221.341 60.6967C223.077 65.0321 222.209 70.8127 221.051 75.4372Z" fill="url(#paint5_linear_812_279)" fill-opacity="0.5"/>
<path opacity="0.4" fill-rule="evenodd" clip-rule="evenodd" d="M8.96924 145.093C8.67991 145.093 8.39062 145.093 8.39062 145.093C8.96929 144.804 8.96924 144.804 8.96924 145.093Z" fill="url(#paint6_linear_812_279)" fill-opacity="0.5"/>
<path opacity="0.1" fill-rule="evenodd" clip-rule="evenodd" d="M145.536 201.165C145.536 201.165 158.267 219.952 175.338 235.27C192.408 250.589 194.723 260.994 194.723 260.994C194.723 260.994 226.839 247.699 249.696 215.905C272.554 184.401 145.536 201.165 145.536 201.165Z" fill="black" fill-opacity="0.5"/>
<path opacity="0.3" fill-rule="evenodd" clip-rule="evenodd" d="M58.7378 249.722C58.7378 249.722 71.1791 254.347 80.1485 251.746C80.1485 251.746 83.6205 222.554 72.6258 203.767C61.6311 184.98 42.8244 213.305 42.8244 213.305L38.4844 231.225C38.4844 231.225 48.9004 243.653 58.7378 249.722Z" fill="black" fill-opacity="0.5"/>
</g>
<defs>
<filter id="filter0_d_812_279" x="0" y="0" width="282" height="282" filterUnits="userSpaceOnUse" color-interpolation-filters="sRGB">
<feFlood flood-opacity="0" result="BackgroundImageFix"/>
<feColorMatrix in="SourceAlpha" type="matrix" values="0 0 0 0 0 0 0 0 0 0 0 0 0 0 0 0 0 0 127 0" result="hardAlpha"/>
<feOffset dx="4" dy="4"/>
<feGaussianBlur stdDeviation="2"/>
<feComposite in2="hardAlpha" operator="out"/>
<feColorMatrix type="matrix" values="0 0 0 0 0 0 0 0 0 0 0 0 0 0 0 0 0 0 0.25 0"/>
<feBlend mode="normal" in2="BackgroundImageFix" result="effect1_dropShadow_812_279"/>
<feBlend mode="normal" in="SourceGraphic" in2="effect1_dropShadow_812_279" result="shape"/>
</filter>
<radialGradient id="paint0_radial_812_279" cx="0" cy="0" r="1" gradientUnits="userSpaceOnUse" gradientTransform="translate(51.928 72.8524) scale(220.188 219.956)">
<stop stop-color="#AAB9C7"/>
<stop offset="0.1" stop-color="#D1DEE2"/>
<stop offset="0.2" stop-color="#B2C8C5"/>
<stop offset="0.3" stop-color="#B7C6D1"/>
<stop offset="0.4" stop-color="#9EB4B7"/>
<stop offset="0.5" stop-color="#959EA3"/>
<stop offset="0.6" stop-color="#6B7B91"/>
<stop offset="0.7" stop-color="#6E7887"/>
<stop offset="0.8" stop-color="#4F5A6B"/>
<stop offset="0.9" stop-color="#535B67"/>
<stop offset="1" stop-color="#475462"/>
</radialGradient>
<linearGradient id="paint1_linear_812_279" x1="-0.255193" y1="99.3331" x2="196.926" y2="99.3331" gradientUnits="userSpaceOnUse">
<stop offset="0.0111732" stop-color="#001218"/>
<stop offset="0.3224"/>
<stop offset="0.5506"/>
<stop offset="0.7523"/>
<stop offset="0.9375"/>
<stop offset="1"/>
</linearGradient>
<linearGradient id="paint2_linear_812_279" x1="0.99643" y1="60.5752" x2="173.384" y2="60.5752" gradientUnits="userSpaceOnUse">
<stop stop-color="#D9DEFD"/>
<stop offset="1" stop-color="#A195DB"/>
</linearGradient>
<linearGradient id="paint3_linear_812_279" x1="28.9738" y1="188.756" x2="273.895" y2="188.756" gradientUnits="userSpaceOnUse">
<stop stop-color="#DFE2F5"/>
<stop offset="1" stop-color="#9F8DF7"/>
</linearGradient>
<linearGradient id="paint4_linear_812_279" x1="14.5073" y1="138.149" x2="258.937" y2="138.149" gradientUnits="userSpaceOnUse">
<stop stop-color="#E6E9FF"/>
<stop offset="1" stop-color="#9E8DF2"/>
</linearGradient>
<linearGradient id="paint5_linear_812_279" x1="-0.249117" y1="104.027" x2="240.014" y2="104.027" gradientUnits="userSpaceOnUse">
<stop stop-color="#E9ECFF"/>
<stop offset="0.5" stop-color="#272433"/>
<stop offset="1" stop-color="#C1B9E9"/>
</linearGradient>
<linearGradient id="paint6_linear_812_279" x1="8.34405" y1="145.124" x2="9.02884" y2="145.124" gradientUnits="userSpaceOnUse">
<stop stop-color="#E8DDFF"/>
<stop offset="1" stop-color="#AA8AD8"/>
</linearGradient>
</defs>
</svg>
