<svg width="282" height="282" viewBox="0 0 282 282" fill="none" xmlns="http://www.w3.org/2000/svg">
<g filter="url(#filter0_d_815_397)">
<path fill-rule="evenodd" clip-rule="evenodd" d="M273.711 136.855C273.711 176.494 256.965 212.083 230.114 237.255C217.121 249.118 202.107 258.666 185.361 265.031C174.679 269.082 163.13 271.975 151.292 273.132C148.405 273.422 145.229 273.711 142.341 273.711C140.609 273.711 138.877 273.711 136.856 273.711C130.792 273.711 124.729 273.422 118.955 272.554C98.1665 269.95 78.8219 262.427 62.0759 251.432C60.3435 250.275 58.8999 249.407 57.4563 248.25C54.569 246.224 51.9705 244.199 49.0832 241.884C34.9357 230.021 23.098 215.265 14.725 198.773C9.52794 188.357 5.48577 177.073 2.88725 165.21C1.73235 159.134 0.866193 153.058 0.288743 146.982C1.76181e-05 143.8 0 140.328 0 136.855C0 109.947 7.7956 84.4858 21.3657 63.3644C27.1402 54.395 33.7808 46.0043 41.5764 38.7709C66.118 14.7561 99.8989 0 136.856 0C139.743 0 142.919 -4.41921e-06 145.806 0.289331C157.644 1.15734 169.193 3.47203 179.876 6.94405C183.34 8.10139 186.516 9.25873 189.692 10.7054C192.002 11.5734 194.312 12.7307 196.622 13.8881C209.903 20.2535 222.03 28.9335 232.424 39.3496C237.621 44.5576 242.529 50.055 246.86 55.8417C260.43 74.3591 269.669 96.0592 272.556 120.074C273.134 125.282 273.711 131.069 273.711 136.855Z" fill="url(#paint0_radial_815_397)"/>
<path fill-rule="evenodd" clip-rule="evenodd" d="M197 12.5182C196.421 12.5182 196.132 12.5182 195.554 12.8093C194.107 13.1004 192.661 12.8093 191.214 12.5182C190.057 12.2271 189.479 11.6448 188.032 11.6448C186.297 11.3537 184.85 10.7715 183.115 10.4803C181.379 10.1892 179.932 9.60698 178.197 9.02474C176.75 8.4425 176.172 8.73362 175.015 9.02474C173.858 9.31586 172.99 8.73362 171.833 8.4425C170.675 7.86026 169.229 7.86026 168.072 7.56914C164.601 6.9869 161.129 5.82241 157.658 4.94905C155.633 4.3668 153.608 4.36681 151.294 4.36681C149.558 4.36681 148.112 4.94905 146.376 4.94905C145.219 4.94905 144.351 4.65793 143.194 4.65793C142.037 4.36681 140.88 4.65793 139.722 4.65793C137.987 4.36681 137.119 4.07569 135.383 4.65793C133.937 4.94905 133.069 4.94905 131.623 5.24017C130.176 5.24017 128.441 5.82241 126.994 6.11353C124.391 6.69578 121.498 7.27802 118.894 7.27802C117.159 7.27802 114.844 6.69578 113.398 7.27802C112.53 7.56914 111.952 8.73362 111.084 9.31586C109.637 10.7715 108.191 11.936 107.034 13.3916C105.877 14.8472 104.72 16.5939 104.72 18.6317C104.72 20.3785 105.587 22.4163 106.455 23.8719C107.323 25.6186 107.612 27.0742 105.877 28.2387C103.852 29.6943 101.248 30.8588 98.9339 31.7322C97.1982 32.3144 95.7518 32.6055 94.5947 31.441C94.0162 31.1499 93.7269 30.2766 93.1483 29.6943C92.5698 29.4032 91.7019 29.6943 91.1234 29.9854C89.3877 30.5677 87.652 31.1499 85.9163 31.441C84.7592 31.7322 83.8913 32.3144 82.7342 32.3144C81.5771 32.6055 80.7092 31.7322 79.2628 32.0233C77.5272 32.3144 75.5022 33.1878 73.7665 33.1878C72.3201 33.1878 70.5844 32.6055 69.4273 32.0233C68.8488 31.7322 68.5595 31.1499 67.6916 31.441C67.1131 31.441 66.2452 32.3144 65.956 32.8966C65.3774 33.4789 65.3774 34.3523 64.7988 34.9345C64.2203 35.8079 63.931 36.3901 63.3524 37.2635C62.4846 38.7191 61.6167 40.1747 60.7489 41.6303C60.1703 42.5036 59.5918 43.9593 58.724 44.8326C58.4347 45.4149 57.5668 45.706 56.9883 45.9971C55.5418 46.8704 54.0954 48.0349 52.649 48.9083C50.0455 50.9461 47.442 53.2751 44.8385 55.313C42.8135 56.7686 39.9207 57.6419 37.6065 58.8064C36.1601 59.3886 34.7137 59.9709 33.2673 60.5531C32.6887 60.8442 31.8208 60.8442 31.5316 61.4265C30.953 62.0087 30.6637 62.591 30.3745 63.4643C29.2173 64.9199 27.7709 66.6667 26.9031 68.4134C26.3245 69.5779 26.0353 70.4512 25.4567 71.6157C24.8781 73.0713 24.0103 74.5269 23.721 76.2737C22.5639 79.476 22.5639 82.9694 21.1175 86.1718C20.5389 87.9185 19.3818 89.6652 18.5139 91.4119C17.0675 94.3232 16.7783 97.8166 16.489 101.019C16.1997 102.766 16.489 105.095 16.7783 106.841C17.0676 108.879 17.0675 110.917 17.0675 112.955C17.0675 114.993 15.6211 117.322 14.464 118.777C13.3069 120.233 11.2819 120.815 9.83552 122.271C8.6784 123.435 7.23202 124.6 6.65346 126.346C6.36418 126.929 6.65346 127.802 6.65346 128.675C6.36418 130.422 5.78561 131.878 5.78561 133.624C5.49633 135.662 5.49631 137.7 5.49631 140.029C5.49631 141.194 5.49631 142.067 5.49631 143.231C5.49631 144.396 5.78558 145.269 6.07486 146.143C6.07486 146.725 6.07486 147.598 6.07486 148.181C6.07486 149.054 6.65346 149.927 6.65346 150.509C7.23202 152.547 7.52128 154.294 7.81056 156.332C8.09985 158.079 8.96769 159.825 9.25697 161.572C10.1248 163.901 10.4141 166.23 10.9927 168.85C11.2819 170.597 11.2819 172.635 11.5712 174.381C11.8605 175.837 12.1498 177.293 12.1498 178.748C12.1498 181.077 11.5712 183.115 11.5712 185.444C11.5712 189.229 13.0176 193.013 13.8855 196.798C14.1748 197.962 14.464 198.836 14.7533 200C5.20702 181.368 0 160.116 0 137.7C0 110.335 7.81056 85.0073 21.4067 63.7555C27.1924 54.7307 33.8458 46.2882 41.6564 39.0102C66.2452 14.8472 100.091 0 137.119 0C140.012 0 143.194 -4.44649e-06 146.087 0.291116C164.022 -4.44649e-06 181.379 4.94905 197 12.5182Z" fill="url(#paint1_linear_815_397)"/>
<g opacity="0.5">
<g opacity="0.4">
<path fill-rule="evenodd" clip-rule="evenodd" d="M272.553 119.759C271.974 118.609 271.395 117.746 270.527 116.883C269.08 114.871 267.054 114.008 264.738 113.433C263.002 112.858 261.265 111.996 259.818 113.433C258.371 114.871 257.213 116.883 256.345 118.321C255.766 119.471 254.898 121.771 253.451 122.059C252.004 122.346 250.267 120.334 249.109 119.184C247.662 117.746 246.794 115.446 245.347 114.296C244.189 113.433 242.452 112.571 241.295 112.283C238.69 111.133 235.796 110.846 232.901 110.558C230.875 110.558 229.428 109.408 227.692 108.546C225.955 107.683 223.64 107.396 221.903 107.108C220.167 106.821 218.43 106.533 216.693 105.958C214.957 105.671 213.51 105.383 212.063 103.946C210.616 102.221 209.458 99.9205 207.721 98.483C204.538 95.6079 201.064 97.6205 197.012 97.6205C193.829 97.6205 191.224 95.6079 188.04 94.7454C184.278 93.8829 181.094 93.3079 178.778 90.1453C176.753 87.2702 177.331 83.8201 176.174 80.6575C173.858 74.3324 165.175 72.6073 159.097 72.0323C154.177 71.7448 149.836 73.4699 145.205 73.4699C141.153 73.4699 137.68 72.6073 135.075 76.0574C132.181 79.795 129.286 83.8201 126.971 87.8452C125.235 91.0078 122.34 94.1704 121.183 97.908C120.604 99.9205 120.604 101.933 120.314 103.946C119.735 106.246 117.999 109.408 116.552 111.421C115.105 113.433 112.21 114.871 109.895 116.021C107.869 117.171 106.422 118.609 104.685 120.334C102.659 122.346 100.633 124.359 99.1861 126.659C98.6072 127.809 98.0284 128.959 96.8706 129.821C96.0024 130.684 94.8447 130.971 93.9764 131.834C93.1081 132.409 92.5292 133.271 91.9504 134.134C90.7927 135.284 88.7667 136.146 87.0301 136.434C84.1359 136.434 81.2416 134.134 78.9262 137.296C77.479 139.022 75.7425 142.184 76.0319 144.484C76.3213 146.497 78.0579 148.222 79.2156 149.947C81.2416 152.534 85.583 157.134 84.7147 160.872C84.4253 162.31 82.9782 163.172 83.557 164.897C83.8465 166.335 84.1359 167.772 84.1359 169.497C84.1359 170.647 83.557 172.66 84.1359 173.522C85.0042 174.672 87.609 175.822 89.0561 176.11C91.9504 177.26 94.5553 179.273 97.4495 180.71C99.4755 181.86 100.633 183.298 102.659 183.873C104.685 184.448 106.422 184.16 108.448 184.448C109.605 184.735 111.053 184.735 112.21 185.023C113.079 185.31 113.947 185.885 114.815 186.173C118.288 187.035 122.34 186.173 126.103 186.173C128.418 186.173 130.734 186.748 132.76 185.598C135.075 184.16 135.654 182.435 135.654 179.848C135.654 177.548 134.496 175.535 133.628 173.235C133.338 172.085 133.049 170.647 132.181 169.497C131.602 168.635 130.734 168.635 129.865 168.06C128.708 167.197 128.418 166.335 126.682 166.047C125.524 165.76 124.366 166.335 123.209 166.91C121.761 168.06 119.157 170.36 119.446 172.372C119.735 173.235 120.314 174.097 121.183 174.672C121.183 173.81 121.472 172.947 121.761 171.797C124.656 172.372 128.997 173.235 131.023 175.535C130.444 177.548 127.839 178.985 126.103 178.985C122.63 178.985 119.157 179.56 116.552 176.973C114.236 174.96 114.236 172.085 112.789 169.497C112.21 168.06 111.631 166.91 110.474 165.76C109.605 164.897 109.027 164.035 108.448 162.885C107.29 161.16 106.132 158.572 107.869 156.847C109.605 155.122 112.789 153.972 114.815 152.822C117.999 151.097 121.472 149.372 124.656 147.359C129.286 144.772 133.049 141.322 138.548 141.034C142.89 140.747 148.099 141.609 151.572 144.484C153.888 146.497 154.467 148.797 155.624 151.384C156.782 153.684 158.519 155.409 160.255 156.847C162.86 158.572 165.465 160.297 167.78 162.022C170.964 164.322 173.569 165.185 175.884 168.635C179.357 174.385 181.094 180.71 182.83 187.323C183.988 190.485 184.567 193.648 185.146 197.098C185.725 199.686 186.882 201.698 188.04 204.286C188.908 206.586 189.777 208.311 190.934 210.323C191.513 211.186 192.092 212.048 192.382 213.198C193.25 217.224 189.198 220.099 187.172 223.261C184.856 226.711 182.252 229.586 181.094 233.611C180.226 236.774 181.383 238.212 181.962 241.087C183.12 245.974 180.804 248.849 177.621 252.299C175.884 254.025 174.148 255.462 171.832 256.612C165.754 259.2 160.255 263.8 155.624 268.687C155.045 270.125 152.441 272.137 151.283 273C163.149 271.85 174.727 268.975 185.435 264.95C202.222 258.625 217.272 249.137 230.297 237.349C257.213 212.623 274 176.973 274 137.584C273.711 130.971 273.132 125.221 272.553 119.759ZM119.446 121.484C118.867 123.209 114.526 124.071 112.789 124.646C112.21 124.934 111.342 125.221 110.763 124.646C109.316 123.496 114.236 119.471 114.236 119.759L112.789 119.184C114.236 119.184 114.526 117.458 115.683 117.746C115.973 117.746 117.131 118.321 117.42 118.609C118.578 118.896 120.025 120.046 119.446 121.484ZM165.754 89.8578C164.597 95.8954 157.65 100.496 152.151 102.221C149.257 103.083 146.652 103.658 143.758 103.658C141.153 103.658 138.259 104.233 135.654 103.658C131.023 102.508 129.865 99.3455 131.312 97.333C130.444 95.0329 129.286 93.0204 130.155 90.7203C131.023 88.9953 131.891 87.2702 133.049 85.8327C135.075 82.9576 137.969 82.9576 141.153 81.8076C147.52 79.795 154.467 77.495 160.834 80.945C163.728 82.9576 166.333 86.1202 165.754 89.8578ZM227.113 217.511C224.508 225.274 217.851 229.011 210.616 231.599C206.853 233.036 203.38 235.049 199.617 236.487C197.012 237.637 195.276 238.212 192.96 237.349C189.777 235.912 188.908 233.036 190.356 229.874C192.382 226.424 196.144 223.549 195.276 219.236C194.697 216.361 194.408 214.061 194.986 211.186C195.565 206.873 195.565 202.561 195.565 198.248C192.671 203.711 192.382 199.111 192.671 195.948C192.671 193.36 193.539 192.21 195.855 190.773C203.09 185.885 212.931 190.485 219.298 194.51C223.35 197.098 226.245 201.411 227.981 205.723C229.139 209.748 228.56 213.773 227.113 217.511ZM224.797 136.434C222.771 136.721 219.588 133.846 218.141 132.696C216.693 131.546 215.536 129.821 214.378 128.384C213.22 127.234 211.773 125.796 210.905 124.359C210.037 122.634 209.458 120.621 208.589 118.609C207.432 115.733 206.563 113.433 204.827 110.558C204.248 112.283 204.248 110.558 205.406 109.983C206.563 109.408 208.3 109.983 209.458 109.983C212.641 110.558 214.378 111.996 216.693 114.008C219.009 116.596 221.614 118.609 223.64 121.196C225.376 123.209 229.139 127.234 229.139 129.821C229.428 132.409 227.113 136.434 224.797 136.434Z" fill="url(#paint2_linear_815_397)"/>
<path opacity="0.8" fill-rule="evenodd" clip-rule="evenodd" d="M246.861 55.5526C245.706 56.7099 243.973 57.2886 242.53 58.4459C241.375 59.3139 240.22 60.7606 239.065 61.3393C237.333 61.9179 235.023 61.3393 233.579 60.7606C229.826 59.3139 227.516 57.8672 223.474 59.3139C222.319 59.8926 221.164 59.6032 220.009 59.8926C218.854 60.1819 218.854 60.7606 217.411 60.7606C215.101 60.7606 212.791 58.4459 211.347 56.9992C209.615 54.9739 208.749 54.9739 206.15 54.9739C203.552 54.9739 200.665 55.5526 200.087 58.7353C199.51 62.2073 203.841 65.1006 206.15 66.8366C209.615 69.4406 205.862 70.0193 204.418 72.6233C203.263 74.938 205.573 76.3847 203.841 78.41C200.087 82.4607 191.137 85.3541 186.228 82.7501C182.764 80.7247 181.031 76.9634 178.433 74.07C176.989 72.334 174.968 71.1767 173.524 69.4406C171.215 67.126 169.482 63.9433 168.327 60.7606C169.482 63.9433 167.461 59.3139 166.884 55.5526C166.595 53.8165 167.461 52.6592 167.75 51.2125C168.039 49.4765 167.173 48.8979 166.306 47.7405C164.863 45.1365 162.842 43.1112 164.863 40.5071C166.018 38.7711 167.461 37.3245 168.905 35.8778C170.349 34.4311 172.081 32.4058 174.102 31.5378C174.391 30.3804 170.637 26.6191 169.771 25.7511C167.75 23.4364 166.018 20.543 163.708 18.5177C162.842 17.6497 161.109 16.7817 160.532 15.9137C159.377 13.599 163.13 10.4163 164.574 9.25895C167.461 7.23361 170.06 6.94427 173.236 6.94427C175.257 6.94427 177.567 6.94427 179.876 7.23361C183.341 8.39095 186.517 9.54828 189.693 10.995C192.003 11.863 194.313 13.0203 196.622 14.1777C209.904 20.543 222.03 29.2231 232.424 39.6391C237.91 43.9792 242.53 49.4765 246.861 55.5526Z" fill="url(#paint3_linear_815_397)"/>
<path fill-rule="evenodd" clip-rule="evenodd" d="M175.256 226.839C174.101 228.864 173.813 230.89 173.813 232.915C173.813 234.94 173.813 236.966 173.813 238.991C173.813 241.884 171.792 243.62 170.059 245.646C168.038 248.25 165.44 249.986 163.13 252.011C161.975 253.168 161.398 254.615 160.243 255.772C159.088 256.93 157.933 257.798 157.067 258.955C155.912 260.402 155.623 261.27 154.179 262.138C152.447 263.295 151.292 264.742 149.849 266.189C147.25 268.503 144.94 271.107 142.342 273.133C140.609 273.133 138.877 273.133 136.856 273.133C130.793 273.133 124.729 272.843 118.955 271.975C98.1668 269.371 78.8222 261.848 62.0762 250.854C63.8085 251.143 65.2521 251.722 66.9845 252.011C68.7168 252.3 70.4492 253.168 72.1815 253.458C75.3575 254.326 79.3997 253.747 82.5757 253.747C87.484 253.747 92.1036 254.615 97.0119 255.194C100.477 255.772 103.075 256.351 106.54 255.194C109.427 254.326 112.314 253.168 114.624 251.722C120.11 248.539 126.462 248.539 131.948 245.646C134.257 244.488 136.278 242.463 138.588 241.016C139.743 240.438 141.476 238.991 142.919 238.702C144.074 238.412 144.94 238.412 146.095 237.834C148.982 236.676 151.87 236.098 154.757 235.23C157.067 234.362 160.82 232.626 162.841 230.89C165.44 228.575 168.904 224.814 170.059 221.631C170.926 219.316 170.925 217.291 170.925 214.976C170.925 214.108 170.925 212.951 170.925 212.083C170.925 210.926 170.637 210.347 170.348 209.479C169.771 207.164 170.926 206.007 171.503 203.981C172.08 202.245 172.658 200.509 173.235 198.484C173.813 195.88 173.813 194.433 172.947 191.829C172.658 190.961 172.08 189.515 171.792 188.647C171.503 187.779 171.503 186.621 171.503 185.753C171.503 186.911 172.947 189.804 173.235 190.672C174.101 192.697 175.834 194.433 175.834 197.037C175.834 199.352 175.256 201.088 174.679 203.403C174.101 205.717 174.968 207.164 174.968 209.479C174.968 210.347 174.968 211.504 175.256 212.372C175.545 213.53 175.545 214.687 175.834 215.555C176.123 217.58 177.566 219.316 178.144 221.052C178.144 223.656 176.411 225.103 175.256 226.839Z" fill="url(#paint4_linear_815_397)"/>
</g>
<path opacity="0.4" fill-rule="evenodd" clip-rule="evenodd" d="M69.8714 229.154C70.1602 236.098 66.118 242.174 60.6322 246.225C59.4773 247.093 58.3225 247.671 57.1676 248.25C54.2803 246.225 51.6818 244.199 48.7945 241.885C34.647 230.022 22.8093 215.266 14.4362 198.774C9.2392 188.358 5.19708 177.074 2.59855 165.211C1.44365 159.135 0.57745 153.059 0 146.983C0.57745 146.404 0.866175 146.115 1.44362 145.536C1.44362 150.165 3.17597 153.637 4.33087 157.977C5.19705 161.16 6.35195 164.343 7.21812 167.525C7.79557 170.129 8.37302 172.444 10.1054 174.759C11.2603 176.206 12.1265 176.784 13.8588 177.363C15.0137 177.942 16.1686 178.81 17.3235 179.388C19.922 180.256 23.3867 181.124 26.274 180.835C27.7176 180.835 28.5838 180.835 30.0274 181.414C30.8936 181.992 31.7598 182.571 32.6259 183.15C34.647 184.596 36.3793 186.043 38.1117 187.779C40.7102 190.672 40.4215 194.434 42.4426 197.616C44.1749 200.22 46.4847 201.088 49.6607 201.088C55.7239 201.088 60.921 208.322 64.0969 212.662C66.9842 217.58 69.5827 223.946 69.8714 229.154Z" fill="url(#paint5_linear_815_397)"/>
</g>
</g>
<defs>
<filter id="filter0_d_815_397" x="0" y="0" width="282" height="281.711" filterUnits="userSpaceOnUse" color-interpolation-filters="sRGB">
<feFlood flood-opacity="0" result="BackgroundImageFix"/>
<feColorMatrix in="SourceAlpha" type="matrix" values="0 0 0 0 0 0 0 0 0 0 0 0 0 0 0 0 0 0 127 0" result="hardAlpha"/>
<feOffset dx="4" dy="4"/>
<feGaussianBlur stdDeviation="2"/>
<feComposite in2="hardAlpha" operator="out"/>
<feColorMatrix type="matrix" values="0 0 0 0 0 0 0 0 0 0 0 0 0 0 0 0 0 0 0.25 0"/>
<feBlend mode="normal" in2="BackgroundImageFix" result="effect1_dropShadow_815_397"/>
<feBlend mode="normal" in="SourceGraphic" in2="effect1_dropShadow_815_397" result="shape"/>
</filter>
<radialGradient id="paint0_radial_815_397" cx="0" cy="0" r="1" gradientUnits="userSpaceOnUse" gradientTransform="translate(70.1801 52.6876) scale(229.305 229.79)">
<stop stop-color="#EDFFFF"/>
<stop offset="0.1" stop-color="#E6FEFF"/>
<stop offset="0.2" stop-color="#D6FAFF"/>
<stop offset="0.291226" stop-color="#B9ECFF"/>
<stop offset="0.332893" stop-color="#B2E6FF"/>
<stop offset="0.34331" stop-color="#B2E4FF"/>
<stop offset="0.4" stop-color="#AEDDFF"/>
<stop offset="0.5" stop-color="#95D2FF"/>
<stop offset="0.6" stop-color="#93CDFF"/>
<stop offset="0.7" stop-color="#68B5FF"/>
<stop offset="0.8" stop-color="#429EFF"/>
<stop offset="0.9" stop-color="#4C9FFF"/>
<stop offset="1" stop-color="#0A77F7"/>
</radialGradient>
<linearGradient id="paint1_linear_815_397" x1="-0.263535" y1="98.6579" x2="196.881" y2="98.6579" gradientUnits="userSpaceOnUse">
<stop offset="0.0111732" stop-color="#B0E1FF"/>
<stop offset="0.2926" stop-color="#ADDEFF"/>
<stop offset="0.499" stop-color="#A5D5FF"/>
<stop offset="0.6813" stop-color="#98C5FF"/>
<stop offset="0.8488" stop-color="#85AEFF"/>
<stop offset="1" stop-color="#6D93FF"/>
</linearGradient>
<linearGradient id="paint2_linear_815_397" x1="75.6965" y1="171.928" x2="273.593" y2="171.928" gradientUnits="userSpaceOnUse">
<stop stop-color="#FEFFDD"/>
<stop offset="1" stop-color="#FFD601"/>
</linearGradient>
<linearGradient id="paint3_linear_815_397" x1="160.014" y1="44.9646" x2="246.917" y2="44.9646" gradientUnits="userSpaceOnUse">
<stop stop-color="#F7FFC9"/>
<stop offset="0.884989" stop-color="#FFF490"/>
</linearGradient>
<linearGradient id="paint4_linear_815_397" x1="61.9878" y1="229.964" x2="177.723" y2="229.964" gradientUnits="userSpaceOnUse">
<stop stop-color="#FFFCDD"/>
<stop offset="1" stop-color="#7319F3"/>
</linearGradient>
<linearGradient id="paint5_linear_815_397" x1="0.402483" y1="196.807" x2="70.0406" y2="196.807" gradientUnits="userSpaceOnUse">
<stop stop-color="#FFE6E6"/>
<stop offset="1" stop-color="#FFEA7B"/>
</linearGradient>
</defs>
</svg>
