<svg width="282" height="282" viewBox="0 0 282 282" fill="none" xmlns="http://www.w3.org/2000/svg">
<g filter="url(#filter0_d_785_995)">
<path fill-rule="evenodd" clip-rule="evenodd" d="M274 137C274 176.597 257.236 212.148 230.357 237.293C217.639 249.143 202.321 258.681 185.557 265.04C170.527 270.82 154.053 274 137 274C130.93 274 124.861 273.711 119.08 272.844C92.7785 269.375 68.5 258.392 49.135 241.918C34.9726 230.067 23.1224 215.327 14.7405 198.852C9.53797 188.447 5.49156 177.175 2.8903 165.325C0.867089 156.076 0 146.827 0 137C0 109.831 7.80379 84.6855 21.3882 63.5864C27.1688 54.6265 33.8165 46.2446 41.6203 39.0189C66.1878 15.0294 100.004 0.28894 137 0.28894C139.89 0.28894 143.07 0.288947 145.96 0.577976C161.568 1.44506 176.308 5.20244 190.181 10.983C192.494 11.8501 194.806 13.0062 197.118 14.1624C210.413 20.521 222.553 29.1919 232.958 39.597C258.392 64.1645 274 98.848 274 137Z" fill="url(#paint0_radial_785_995)"/>
<path opacity="0.3" fill-rule="evenodd" clip-rule="evenodd" d="M208.101 169.371C206.656 172.551 205.211 175.441 203.188 178.331C201.454 180.354 199.431 182.089 198.274 184.401C193.939 192.494 194.806 201.743 192.494 210.124C191.049 214.749 187.58 218.506 186.135 223.131C185.557 225.154 185.846 227.177 185.846 229.489C185.846 232.091 184.401 233.825 182.956 235.848C181.222 238.16 178.909 239.605 176.308 240.762C174.285 241.629 171.973 241.34 169.66 241.34C164.747 241.34 160.123 240.762 155.209 239.316C150.874 238.16 146.827 236.137 142.492 234.692C139.601 233.825 137.289 234.114 134.399 234.692C131.798 235.27 128.907 234.981 126.306 234.981C121.682 234.981 117.346 237.582 113.3 239.605C110.409 241.051 108.386 242.785 107.23 245.964C105.785 249.721 105.785 253.19 101.45 254.635C98.8483 255.502 95.6689 254.635 93.0676 254.057C90.7554 253.479 88.1542 253.768 85.8419 253.768C81.2174 253.768 76.882 252.323 72.5466 250.3C67.6331 247.698 63.2976 243.941 59.5402 240.184C57.517 238.16 54.6267 237.004 52.6035 234.981C49.7132 232.38 46.5339 229.778 43.9326 227.177C39.5972 222.842 34.9727 218.506 30.3482 214.46C26.8799 211.859 23.9896 208.39 21.0993 205.211C18.7871 202.61 17.3419 198.852 15.6077 195.673C12.1394 189.603 9.24908 182.667 7.5149 175.73C5.4917 167.926 3.17945 159.544 3.46848 151.451C3.46848 144.515 2.6014 138.156 2.6014 131.219C2.02334 144.226 2.6014 154.92 4.04655 165.036C2.02334 155.787 1.15625 146.538 1.15625 136.711C1.15625 109.542 8.96005 84.3966 22.5444 63.2974C28.325 54.3375 34.9727 45.9557 42.7765 38.7299C67.344 14.7405 101.16 0 138.156 0C141.047 0 144.226 -4.41455e-06 147.116 0.289025C162.724 1.15611 177.464 4.9135 191.338 10.6941C194.806 14.4515 198.274 18.7869 200.876 23.1224C202.032 24.8565 202.61 26.8797 203.766 28.6139C204.633 30.3481 205.789 30.9261 205.5 32.9494C205.211 34.1055 204.633 35.5506 204.055 36.7067C202.61 40.4641 198.274 43.0654 195.095 45.0886C190.471 47.9789 185.268 49.135 180.355 51.7363C177.175 53.4704 176.308 54.9156 173.996 57.5169C172.84 58.962 171.395 59.8291 170.528 61.2742C167.926 65.3207 166.481 71.1012 166.77 75.7257C167.059 84.9747 174.285 91.6223 176.019 100.293C177.464 107.808 176.308 115.901 178.909 123.127C181.511 131.508 188.736 138.156 195.673 143.07C198.563 145.093 201.165 146.827 203.766 149.139C206.078 151.451 209.258 152.608 210.992 155.498C212.437 160.122 209.836 165.036 208.101 169.371Z" fill="url(#paint1_linear_785_995)"/>
<path fill-rule="evenodd" clip-rule="evenodd" d="M196.829 12.4283C196.251 12.4283 195.962 12.4283 195.384 12.7173C193.939 13.0063 192.494 12.7173 191.049 12.4283C189.892 12.1392 189.314 11.5612 187.869 11.5612C186.135 11.2721 184.69 10.6941 182.956 10.4051C181.222 10.116 179.776 9.53797 178.042 8.95991C176.597 8.38185 176.019 8.67088 174.863 8.95991C173.707 9.24894 172.84 8.67088 171.684 8.38185C170.527 7.80379 169.082 7.80379 167.926 7.51476C164.458 6.9367 160.989 5.78059 157.521 4.9135C155.498 4.33544 153.475 4.33544 151.162 4.33544C149.428 4.33544 147.983 4.9135 146.249 4.9135C145.093 4.9135 144.226 4.62447 143.07 4.62447C141.914 4.33544 140.757 4.62447 139.601 4.62447C137.867 4.33544 137 4.04641 135.266 4.62447C133.821 4.9135 132.954 4.9135 131.508 5.20253C130.063 5.20253 128.329 5.78058 126.884 6.06961C124.283 6.64767 121.392 7.22574 118.791 7.22574C117.057 7.22574 114.745 6.64768 113.3 7.22574C112.433 7.51477 111.854 8.67089 110.987 9.24895C109.542 10.6941 108.097 11.8502 106.941 13.2954C105.785 14.7405 104.629 16.4747 104.629 18.4979C104.629 20.2321 105.496 22.2553 106.363 23.7004C107.23 25.4346 107.519 26.8797 105.785 28.0359C103.762 29.481 101.16 30.6371 98.8481 31.5042C97.1139 32.0823 95.6688 32.3713 94.5127 31.2152C93.9346 30.9261 93.6456 30.0591 93.0675 29.481C92.4895 29.192 91.6224 29.481 91.0443 29.77C89.3101 30.3481 87.576 30.9261 85.8418 31.2152C84.6857 31.5042 83.8186 32.0823 82.6625 32.0823C81.5063 32.3713 80.6393 31.5042 79.1941 31.7932C77.4599 32.0823 75.4367 32.9494 73.7025 32.9494C72.2574 32.9494 70.5232 32.3713 69.3671 31.7932C68.789 31.5042 68.5 30.9261 67.6329 31.2152C67.0549 31.2152 66.1878 32.0823 65.8988 32.6603C65.3207 33.2384 65.3207 34.1055 64.7426 34.6835C64.1646 35.5506 63.8755 36.1287 63.2975 36.9958C62.4304 38.4409 61.5633 39.8861 60.6962 41.3312C60.1182 42.1983 59.5401 43.6434 58.673 44.5105C58.384 45.0886 57.5169 45.3776 56.9388 45.6667C55.4937 46.5337 54.0485 47.6899 52.6034 48.5569C50.0021 50.5802 47.4009 52.8924 44.7996 54.9156C42.7764 56.3607 39.8861 57.2278 37.5738 58.384C36.1287 58.962 34.6836 59.5401 33.2384 60.1181C32.6603 60.4072 31.7933 60.4072 31.5042 60.9852C30.9262 61.5633 30.6371 62.1413 30.3481 63.0084C29.192 64.4536 27.7468 66.1877 26.8798 67.9219C26.3017 69.078 26.0127 69.9451 25.4346 71.1012C24.8565 72.5464 23.9895 73.9915 23.7004 75.7257C22.5443 78.905 22.5443 82.3734 21.0992 85.5527C20.5211 87.2869 19.365 89.0211 18.4979 90.7552C17.0528 93.6455 16.7637 97.1139 16.4747 100.293C16.1857 102.027 16.4747 104.34 16.7637 106.074C17.0527 108.097 17.0528 110.12 17.0528 112.143C17.0528 114.167 15.6076 116.479 14.4515 117.924C13.2954 119.369 11.2722 119.947 9.82701 121.392C8.67089 122.548 7.22574 123.705 6.64768 125.439C6.35865 126.017 6.64768 126.884 6.64768 127.751C6.35865 129.485 5.78059 130.93 5.78059 132.665C5.49156 134.688 5.49157 136.711 5.49157 139.023C5.49157 140.179 5.49157 141.046 5.49157 142.202C5.49157 143.359 5.78059 144.226 6.06962 145.093C6.06962 145.671 6.06962 146.538 6.06962 147.116C6.06962 147.983 6.64768 148.85 6.64768 149.428C7.22574 151.451 7.51477 153.186 7.8038 155.209C8.09283 156.943 8.95992 158.677 9.24895 160.411C10.116 162.724 10.4051 165.036 10.9831 167.637C11.2722 169.371 11.2722 171.394 11.5612 173.129C11.8502 174.574 12.1392 176.019 12.1392 177.464C12.1392 179.776 11.5612 181.8 11.5612 184.112C11.5612 187.869 13.0063 191.627 13.8734 195.384C14.1624 196.54 14.4515 197.407 14.7405 198.563C5.20253 180.065 0 158.966 0 136.711C0 109.542 7.8038 84.3966 21.3882 63.2974C27.1688 54.3375 33.8165 45.9557 41.6203 38.7299C66.1878 14.7405 100.004 0 137 0C139.89 0 143.07 -4.41455e-06 145.96 0.289025C163.88 0.289025 181.222 4.9135 196.829 12.4283Z" fill="url(#paint2_linear_785_995)"/>
<path fill-rule="evenodd" clip-rule="evenodd" d="M212.148 139.023C202.899 139.023 195.962 134.688 192.205 126.884C183.534 107.808 183.534 70.8122 189.892 56.0717C191.627 52.3143 193.361 50.0021 195.673 49.135C197.985 48.2679 200.297 47.6898 202.899 47.6898C210.992 47.6898 219.373 53.1814 227.177 63.2974C239.894 80.0611 248.854 107.23 245.386 119.369C244.23 123.127 241.051 127.462 235.848 130.93C228.622 135.844 219.951 139.023 212.148 139.023Z" fill="url(#paint3_linear_785_995)"/>
<path opacity="0.3" fill-rule="evenodd" clip-rule="evenodd" d="M185.268 241.339C187.869 239.605 190.47 238.16 193.361 236.426C196.251 234.692 199.141 233.825 202.321 232.379C204.633 231.512 204.922 231.512 206.656 232.957C208.39 234.403 210.413 234.692 212.437 234.692C215.327 234.692 218.506 234.981 218.795 238.738C219.084 243.941 211.57 248.276 207.812 250.299C204.922 252.033 201.743 253.189 198.563 254.635C195.962 255.791 193.072 257.236 190.181 257.525C187.58 257.814 186.135 256.658 184.401 254.924C182.378 252.611 182.667 250.588 182.667 247.987C182.667 244.519 182.667 242.206 185.268 241.339Z" fill="url(#paint4_linear_785_995)"/>
<path opacity="0.3" fill-rule="evenodd" clip-rule="evenodd" d="M226.02 49.7131C228.044 53.7595 229.489 59.2511 232.668 62.7194C234.402 64.4536 235.558 64.7426 237.871 64.7426C239.027 64.7426 241.05 65.0317 242.206 64.7426C243.651 64.1646 243.651 62.4304 243.651 60.9853C243.362 55.4937 239.894 50.5802 236.426 46.8228C234.113 44.2216 230.645 41.3313 226.888 41.9093C225.731 44.5106 225.442 47.1119 226.02 49.7131Z" fill="url(#paint5_linear_785_995)"/>
<path fill-rule="evenodd" clip-rule="evenodd" d="M145.671 272.265C144.804 272.265 143.937 272.265 143.07 272.265C128.908 271.976 118.214 265.907 116.479 260.704C115.901 258.681 116.19 256.658 117.635 255.502C121.971 251.744 140.18 251.455 143.937 251.455C155.787 251.455 170.239 252.611 171.395 258.103C171.684 259.548 171.684 261.571 169.372 264.173C166.192 267.352 161.857 272.265 145.671 272.265Z" fill="url(#paint6_linear_785_995)"/>
<path fill-rule="evenodd" clip-rule="evenodd" d="M255.502 128.329C254.346 128.329 253.479 128.04 252.612 127.462C246.831 123.994 243.074 101.738 247.12 94.8017C248.276 92.7785 249.721 92.2004 250.589 92.2004C250.878 92.2004 251.456 92.2004 252.034 92.2004C258.392 92.2004 264.751 99.7152 267.063 109.542C268.508 116.479 265.618 122.26 262.15 125.15C260.127 127.173 257.814 128.329 255.502 128.329Z" fill="url(#paint7_linear_785_995)"/>
<path fill-rule="evenodd" clip-rule="evenodd" d="M219.661 224.286C215.037 224.286 211.568 222.552 210.123 219.084C207.233 212.725 208.678 189.314 217.927 168.793C231.511 138.156 250.587 130.063 258.391 130.063C258.969 130.063 259.547 130.063 259.836 130.063C260.125 130.063 260.414 130.063 260.703 130.352C262.727 130.93 264.75 132.664 265.906 135.265C271.398 146.538 268.218 174.284 259.258 193.649C251.455 211.858 232.09 224.286 219.661 224.286Z" fill="url(#paint8_linear_785_995)"/>
<path fill-rule="evenodd" clip-rule="evenodd" d="M26.011 117.924C24.5659 117.924 23.1207 117.345 22.2537 116.189C18.4963 111.854 23.9878 96.5353 26.3001 91.0438C30.0575 82.3729 34.1039 77.7484 37.5722 77.7484C39.0174 77.7484 40.1735 78.3265 41.3296 79.1936L41.9077 79.7716C45.9541 83.818 47.9773 93.356 44.2199 100.871C41.3296 106.362 32.9478 115.9 27.1672 117.345C27.1672 117.924 26.5891 117.924 26.011 117.924Z" fill="url(#paint9_linear_785_995)"/>
<path fill-rule="evenodd" clip-rule="evenodd" d="M64.7428 227.755C53.1816 227.755 32.0825 210.991 21.9664 189.603C9.53816 162.723 9.24914 134.399 15.3188 129.196C17.0529 127.751 19.3652 126.884 22.2555 126.884C23.9896 126.884 26.3019 127.173 28.3251 127.751C42.7766 132.086 63.0086 152.029 71.6795 172.261C80.0614 191.915 77.7491 207.523 75.1479 217.061C73.4137 226.021 68.5002 227.755 64.7428 227.755Z" fill="url(#paint10_linear_785_995)"/>
<path fill-rule="evenodd" clip-rule="evenodd" d="M73.4134 216.483C71.9683 221.975 69.367 225.443 64.7425 225.443C54.9155 225.443 34.1054 209.836 24.2784 188.447C11.5611 161.568 12.4282 134.977 17.0526 130.931C19.3649 128.907 23.4113 128.618 28.0358 130.063C42.7763 134.399 65.0316 153.186 69.656 172.84C73.9915 189.315 76.0147 206.656 73.4134 216.483Z" fill="url(#paint11_linear_785_995)"/>
<path fill-rule="evenodd" clip-rule="evenodd" d="M167.637 262.149C164.169 265.907 160.123 270.242 143.07 269.953C126.595 269.375 115.034 260.704 119.08 257.236C124.572 252.611 167.348 252.322 168.793 258.681C169.372 259.548 169.082 260.993 167.637 262.149Z" fill="url(#paint12_linear_785_995)"/>
<path fill-rule="evenodd" clip-rule="evenodd" d="M243.073 118.502C242.206 121.97 239.027 125.728 234.403 128.907C222.552 137.578 201.742 142.202 194.227 126.017C185.846 107.519 185.846 71.3901 191.915 56.9386C193.071 54.0483 194.806 52.0251 196.54 51.158C222.263 40.4639 247.987 100.582 243.073 118.502Z" fill="url(#paint13_linear_785_995)"/>
<path fill-rule="evenodd" clip-rule="evenodd" d="M260.702 123.415C258.389 125.727 255.788 126.594 254.054 125.438C249.43 122.837 245.961 102.027 249.429 95.9574C250.008 95.0903 250.586 94.5122 251.164 94.5122C255.788 93.6451 262.436 99.7148 264.748 110.12C265.904 115.611 263.592 120.525 260.702 123.415Z" fill="url(#paint14_linear_785_995)"/>
<path fill-rule="evenodd" clip-rule="evenodd" d="M257.524 193.071C246.541 216.771 217.349 228.622 212.435 218.217C209.834 213.014 210.99 190.759 220.239 169.949C234.113 139.023 253.189 131.797 259.836 132.664H260.125C269.663 135.265 268.218 169.66 257.524 193.071Z" fill="url(#paint15_linear_785_995)"/>
<path fill-rule="evenodd" clip-rule="evenodd" d="M43.3528 100.293C40.7516 105.495 32.0807 115.033 26.8782 116.479C25.433 116.768 24.2769 116.768 23.6988 115.901C19.9415 111.276 30.9246 79.7718 38.4393 79.4828C39.5955 79.4828 40.7516 80.0608 41.6187 80.9279C44.798 84.1073 46.8212 93.0672 43.3528 100.293Z" fill="url(#paint16_linear_785_995)"/>
<path fill-rule="evenodd" clip-rule="evenodd" d="M77.1701 32.9491C76.592 33.5271 75.4359 34.3942 76.303 34.9723C76.592 35.2613 76.881 34.9723 77.1701 35.2613C77.4591 35.2613 77.4591 35.5503 77.7481 35.2613C78.6152 35.2613 78.3262 32.66 77.1701 32.9491Z" fill="#FFFF45"/>
<path fill-rule="evenodd" clip-rule="evenodd" d="M81.5068 41.6197C81.7959 41.3307 82.3739 41.3307 82.663 41.3307C82.663 41.9087 83.241 42.7758 82.3739 43.3539C81.7959 43.6429 82.0849 42.4868 81.7959 42.4868L81.5068 41.6197Z" fill="#FFFF45"/>
<path fill-rule="evenodd" clip-rule="evenodd" d="M89.8877 41.6203C90.7548 41.9093 91.3329 42.1984 92.1999 42.4874C92.489 42.1984 92.778 42.1984 93.067 42.1984C93.356 41.9093 93.6451 41.3313 93.9341 41.0422C94.2231 40.4642 93.9341 39.8861 93.6451 39.3081C93.3561 39.019 93.356 38.441 93.067 38.152C92.778 37.8629 91.9109 37.8629 91.6219 38.152C91.0438 38.441 90.7548 38.73 90.4657 39.3081C90.1767 39.5971 89.8877 40.4642 89.8877 40.7532C89.8877 41.3313 90.1767 41.9093 90.7548 42.1984L89.8877 41.6203Z" fill="#FFFF45"/>
<path fill-rule="evenodd" clip-rule="evenodd" d="M96.8242 200.008C97.6913 200.297 98.2694 200.586 99.1364 200.875C99.4255 200.586 99.7145 200.586 100.004 200.586C100.293 200.297 100.582 199.719 100.871 199.43C101.16 198.852 100.871 198.274 100.582 197.696C100.293 197.407 100.293 196.829 100.004 196.54C99.7145 196.251 98.8474 196.251 98.5584 196.54C97.9803 196.829 97.6913 197.118 97.4023 197.696C97.1132 197.985 96.8242 198.852 96.8242 199.141C96.8242 199.719 97.1132 200.297 97.6913 200.586L96.8242 200.008Z" fill="#FFFF45"/>
<path fill-rule="evenodd" clip-rule="evenodd" d="M67.6327 49.1351C67.3437 49.4241 67.0547 49.7132 66.7656 50.0022C67.0547 50.2912 67.3437 50.8693 67.9217 50.8693C68.2108 50.8693 68.4998 50.8693 68.4998 50.8693C68.7888 50.5803 68.4998 50.2912 68.7888 50.2912C69.0779 49.7132 69.0779 49.7132 68.7888 49.1351C68.4998 48.8461 68.4998 48.8461 68.2108 48.8461C67.9217 48.8461 67.6327 48.8461 67.3437 49.1351H67.6327Z" fill="#FFFF45"/>
<path fill-rule="evenodd" clip-rule="evenodd" d="M69.3663 61.5629C69.3663 61.5629 68.7882 63.297 69.3663 62.719C69.9443 62.43 69.9443 61.8519 69.3663 61.5629C69.6553 61.5629 69.6553 61.5629 69.3663 61.5629Z" fill="#FFFF45"/>
<path fill-rule="evenodd" clip-rule="evenodd" d="M58.0927 82.3733C57.5146 82.9513 57.5146 83.2404 57.2256 84.1075C57.5146 84.3965 57.8037 84.3965 58.0927 84.3965C58.6707 84.3965 58.6707 84.1074 58.6707 83.8184C58.6707 83.5294 58.9598 83.2404 58.6707 82.9513C58.6707 82.3733 58.3817 82.0842 58.0927 82.3733Z" fill="#FFFF45"/>
<path fill-rule="evenodd" clip-rule="evenodd" d="M75.4365 50.5799C75.7256 50.8689 76.0146 51.1579 76.0146 51.447C75.7255 51.447 75.4365 51.158 75.4365 50.8689C75.4365 50.2909 75.4365 50.5799 75.7255 50.0018L75.4365 50.5799Z" fill="#FFFF45"/>
<path fill-rule="evenodd" clip-rule="evenodd" d="M71.3905 34.3945C71.1015 34.6835 70.8125 34.9726 70.5234 35.2616C70.8125 35.5506 70.5234 35.8397 71.1015 35.8397C71.3905 35.8397 71.6796 35.5506 71.9686 35.2616C72.2576 34.9726 72.2576 34.6835 72.2576 34.3945C72.2576 34.1055 72.2576 33.5274 71.9686 34.1055L71.3905 34.3945Z" fill="#FFFF45"/>
<path fill-rule="evenodd" clip-rule="evenodd" d="M123.993 26.0124C123.993 25.7234 124.282 25.1453 124.282 24.8563L124.571 24.5672C124.86 24.2782 124.86 24.2782 125.149 24.2782C125.438 24.2782 125.727 24.2782 126.305 24.5672C127.462 25.4343 124.571 26.3014 124.282 25.4343L123.993 26.0124Z" fill="#FFFF45"/>
<path fill-rule="evenodd" clip-rule="evenodd" d="M133.819 29.7701C133.53 30.3482 133.241 31.2153 133.819 31.7933C134.397 32.0823 135.553 31.5043 135.842 31.2153C136.709 30.6372 137.577 29.1921 136.709 28.325C136.42 27.7469 134.975 27.4579 134.397 27.4579C132.952 27.4579 132.663 29.1921 132.374 30.6372L133.819 29.7701Z" fill="#FFFF45"/>
<path fill-rule="evenodd" clip-rule="evenodd" d="M138.154 16.1855C137.865 15.0293 137.865 13.8732 138.732 13.2952C139.31 13.0061 140.177 12.7171 140.756 13.2952C141.045 13.5842 141.334 14.1623 141.623 14.4513C141.912 15.0293 141.912 15.0293 141.623 15.6074C141.334 16.7635 141.045 17.6306 139.599 17.6306C137.865 17.6306 137.865 16.4745 137.865 14.7403V16.1855H138.154Z" fill="#FFFF45"/>
<path fill-rule="evenodd" clip-rule="evenodd" d="M152.896 36.418C153.763 36.129 154.63 35.8399 155.208 34.9728C154.63 34.6838 153.185 33.8167 152.896 34.9728V36.418Z" fill="#FFFF45"/>
<path fill-rule="evenodd" clip-rule="evenodd" d="M102.027 218.506C102.894 218.217 103.762 217.928 104.34 217.061C103.762 216.772 102.316 215.905 102.027 217.061V218.506Z" fill="#FFC445"/>
<path fill-rule="evenodd" clip-rule="evenodd" d="M195.961 238.161C196.828 237.872 197.695 237.583 198.273 236.716C197.695 236.426 196.25 235.559 195.961 236.716V238.161Z" fill="#FFC445"/>
<path fill-rule="evenodd" clip-rule="evenodd" d="M164.167 54.0486C165.034 52.8925 166.19 51.1583 167.924 52.0254C168.791 52.6034 169.08 54.3376 168.213 54.9157C167.346 55.4937 166.768 55.7827 165.612 56.0718C165.034 56.3608 163.878 55.7827 164.167 54.6266V54.0486Z" fill="#FFFF45"/>
<path fill-rule="evenodd" clip-rule="evenodd" d="M103.182 79.1941C104.049 78.038 105.206 76.3038 106.94 77.1709C107.807 77.7489 108.096 79.4831 107.229 80.0612C106.362 80.6392 105.784 80.9283 104.627 81.2173C104.049 81.5063 102.893 80.9283 103.182 79.7721V79.1941Z" fill="#FFC445"/>
<path fill-rule="evenodd" clip-rule="evenodd" d="M204.343 34.3945C205.21 33.2384 206.366 31.5042 208.1 32.3713C208.967 32.9494 209.256 34.6835 208.389 35.2616C207.522 35.8397 206.944 36.1287 205.788 36.4177C205.21 36.7068 204.053 36.1287 204.343 34.9726V34.3945Z" fill="#FFC445"/>
<path fill-rule="evenodd" clip-rule="evenodd" d="M147.695 127.751C148.562 126.595 149.718 124.861 151.452 125.728C152.32 126.306 152.609 128.04 151.741 128.618C150.874 129.196 150.296 129.485 149.14 129.774C148.562 130.063 147.406 129.485 147.695 128.329V127.751Z" fill="#FFC445"/>
<path fill-rule="evenodd" clip-rule="evenodd" d="M98.2692 41.331C97.113 41.9091 95.3789 42.7761 95.0898 44.5103C95.0898 45.3774 95.3789 45.9555 96.2459 46.2445C96.824 46.5335 97.9801 46.5335 98.8472 46.2445C100.003 45.6664 101.159 44.7994 101.448 43.9323C101.738 43.0652 101.738 42.4871 101.448 41.9091C101.159 41.62 100.87 41.042 100.292 40.753C98.8472 40.1749 97.9801 41.62 96.824 42.1981L98.2692 41.331Z" fill="#FFFF45"/>
<path fill-rule="evenodd" clip-rule="evenodd" d="M101.738 37.2849C102.316 37.5739 102.894 37.8629 103.183 38.441C102.605 38.73 102.027 39.019 101.449 39.019C100.582 38.73 100.582 37.8629 100.582 37.2849C100.582 36.9958 101.449 36.1288 101.738 36.4178C102.027 36.4178 102.027 36.7068 102.027 36.9958C102.316 37.2849 102.316 37.2849 102.027 37.8629H101.738V37.2849Z" fill="#FFFF45"/>
<path fill-rule="evenodd" clip-rule="evenodd" d="M40.7533 62.7192C39.5972 63.8753 38.4411 65.0314 37.863 66.4766C37.574 67.3437 38.152 67.3437 38.7301 67.0547C40.1752 66.7656 41.3314 66.4766 42.7765 66.1876C43.6436 65.8985 44.7997 65.6095 45.0888 65.0314C45.3778 64.4534 45.6668 63.5863 45.6668 63.0082C45.6668 62.1411 44.7997 61.8521 44.2217 61.5631C42.4875 60.985 39.8862 62.1412 39.3082 63.8753L40.7533 62.7192Z" fill="#FFFF45"/>
<path fill-rule="evenodd" clip-rule="evenodd" d="M41.6187 68.7892C42.4858 68.7892 43.3529 69.0782 44.22 69.3672C43.931 69.6563 43.931 69.9453 43.931 70.2343C43.6419 70.8124 43.3529 71.1014 42.7748 71.3905C41.9077 71.9685 40.7516 71.9685 39.8846 71.6795C37.2833 70.8124 41.3297 67.9221 41.9078 68.7892H41.6187Z" fill="#FFFF45"/>
<path fill-rule="evenodd" clip-rule="evenodd" d="M119.945 13.8731C120.812 13.2951 121.68 13.006 122.547 12.717C123.703 12.428 124.859 12.428 126.015 12.428C126.593 12.428 128.038 12.428 127.46 13.2951C127.171 14.4512 124.859 15.3183 123.992 15.6073C122.547 16.1854 121.101 17.0525 119.367 17.3415C118.5 17.3415 117.055 17.6305 116.477 16.7634C116.188 15.8963 116.188 15.3183 116.766 14.7402C117.055 14.1622 117.633 13.8731 118.5 13.5841C118.789 13.5841 120.812 13.006 120.812 13.5841L119.945 13.8731Z" fill="#FFFF45"/>
<path fill-rule="evenodd" clip-rule="evenodd" d="M104.628 14.1622C104.338 14.4513 101.159 16.1854 102.604 17.0525C103.471 17.3416 104.917 17.3416 105.784 17.0525C106.362 16.7635 107.229 16.1854 106.651 15.3184C105.784 13.5842 103.471 14.7403 102.315 15.3184L104.628 14.1622Z" fill="#FFFF45"/>
<path fill-rule="evenodd" clip-rule="evenodd" d="M61.5625 127.462C61.8515 128.618 62.1406 130.063 63.2967 130.93C64.4528 131.797 65.898 131.508 66.765 130.641C67.6321 130.063 68.4992 129.485 69.0773 129.196C69.6553 128.907 69.9444 128.907 69.9444 128.04C69.9444 127.173 69.3663 126.306 68.7882 125.728C68.2102 125.15 67.3431 124.282 66.476 123.993C64.7418 123.415 61.5625 123.993 61.5625 126.306V127.462Z" fill="#FFD32F"/>
<path fill-rule="evenodd" clip-rule="evenodd" d="M159.832 128.907C160.121 130.063 160.41 131.509 161.566 132.376C162.722 133.243 164.167 132.954 165.035 132.087C165.902 131.509 166.769 130.931 167.347 130.642C167.925 130.352 168.214 130.352 168.214 129.485C168.214 128.618 167.636 127.751 167.058 127.173C166.48 126.595 165.613 125.728 164.746 125.439C163.011 124.861 159.832 125.439 159.832 127.751V128.907Z" fill="#FFBA00"/>
<path fill-rule="evenodd" clip-rule="evenodd" d="M19.9438 178.331C19.9438 178.331 18.7876 183.245 22.256 189.603C25.7244 195.962 28.3256 195.384 28.3256 195.384C28.3256 195.384 25.1463 183.823 19.9438 178.331Z" fill="#FFFFA2"/>
<path fill-rule="evenodd" clip-rule="evenodd" d="M73.4141 216.483C60.1188 221.396 39.3086 204.632 28.6145 177.175C19.0765 153.185 26.3023 134.109 28.3255 130.063C43.066 134.398 65.3213 153.185 69.9457 172.839C73.9922 189.314 76.0154 206.656 73.4141 216.483Z" fill="#FFFFA2"/>
<path fill-rule="evenodd" clip-rule="evenodd" d="M252.901 190.759C233.536 222.263 212.147 218.217 212.147 218.217C209.546 213.014 210.702 190.759 219.951 169.949C233.825 139.023 252.901 131.797 259.548 132.664H259.837C263.884 144.514 266.774 168.214 252.901 190.759Z" fill="#FFFFA2"/>
<path fill-rule="evenodd" clip-rule="evenodd" d="M167.637 262.15C139.312 270.82 119.08 256.947 119.08 256.947C124.572 252.323 167.348 252.034 168.793 258.392C169.371 259.548 169.082 260.993 167.637 262.15Z" fill="#FFFFA2"/>
<path fill-rule="evenodd" clip-rule="evenodd" d="M234.404 128.907C222.553 137.578 201.743 142.202 194.228 126.017C185.847 107.519 185.847 71.3901 191.916 56.9387C197.119 56.3606 207.235 58.0948 218.507 74.8585C234.693 97.9808 239.895 115.612 234.404 128.907Z" fill="#FFFFA2"/>
<path fill-rule="evenodd" clip-rule="evenodd" d="M260.703 123.416C258.39 125.728 255.789 126.595 254.055 125.439C249.43 122.837 245.962 102.027 249.43 95.9578C252.899 97.981 258.39 102.316 259.836 110.12C260.414 115.034 260.703 119.658 260.703 123.416Z" fill="#FFFFA2"/>
<path fill-rule="evenodd" clip-rule="evenodd" d="M43.3555 100.293C40.7543 105.495 32.0834 115.033 26.8809 116.478C27.1699 114.455 31.2163 89.8876 41.3323 80.9277C44.8007 84.1071 46.8239 93.067 43.3555 100.293Z" fill="#FFFFA2"/>
<path fill-rule="evenodd" clip-rule="evenodd" d="M150.585 265.33C150.296 265.908 149.717 266.197 150.007 266.775C150.296 267.064 150.874 267.353 151.163 267.353C151.741 267.642 152.897 267.353 153.475 267.064C154.053 266.775 153.764 266.197 153.475 265.619C152.897 264.751 152.03 264.462 151.163 265.04L150.585 265.33Z" fill="#FFFFA2"/>
<path fill-rule="evenodd" clip-rule="evenodd" d="M243.364 110.987C243.364 110.987 239.317 122.548 238.739 124.283C238.739 123.994 245.098 122.259 243.364 110.987Z" fill="#FFFFA2"/>
<path fill-rule="evenodd" clip-rule="evenodd" d="M265.041 114.456C265.041 114.456 262.15 116.479 260.705 121.971C260.705 121.971 264.173 123.705 265.041 114.456Z" fill="#FFFFA2"/>
<path fill-rule="evenodd" clip-rule="evenodd" d="M220.82 221.975C220.82 221.975 233.827 213.593 241.341 213.015C241.341 213.015 232.671 223.42 220.82 221.975Z" fill="#FFFFA2"/>
<path fill-rule="evenodd" clip-rule="evenodd" d="M60.9849 35.5505C59.5398 36.1286 58.9617 36.1286 57.5166 37.2847C56.3604 38.1518 55.2043 39.0189 54.0482 40.175C52.603 41.6202 52.025 43.0653 51.736 44.5104C51.1579 45.9556 50.8689 47.6898 51.4469 48.5569C51.736 48.8459 52.6031 48.8459 53.4701 48.8459C54.6263 48.5569 55.7824 47.6898 56.9385 47.1117C58.3836 46.2446 59.5398 44.7995 60.6959 43.3543C61.563 42.1982 61.852 41.0421 62.4301 39.886C62.7191 39.0189 63.0081 38.4408 63.2971 37.8628C63.5862 37.2847 63.5862 36.7067 63.2971 36.4176C63.0081 35.5505 62.7191 35.5505 60.9849 35.5505Z" fill="#FFFFA2"/>
</g>
<defs>
<filter id="filter0_d_785_995" x="0" y="0" width="282" height="282" filterUnits="userSpaceOnUse" color-interpolation-filters="sRGB">
<feFlood flood-opacity="0" result="BackgroundImageFix"/>
<feColorMatrix in="SourceAlpha" type="matrix" values="0 0 0 0 0 0 0 0 0 0 0 0 0 0 0 0 0 0 127 0" result="hardAlpha"/>
<feOffset dx="4" dy="4"/>
<feGaussianBlur stdDeviation="2"/>
<feComposite in2="hardAlpha" operator="out"/>
<feColorMatrix type="matrix" values="0 0 0 0 0 0 0 0 0 0 0 0 0 0 0 0 0 0 0.25 0"/>
<feBlend mode="normal" in2="BackgroundImageFix" result="effect1_dropShadow_785_995"/>
<feBlend mode="normal" in="SourceGraphic" in2="effect1_dropShadow_785_995" result="shape"/>
</filter>
<radialGradient id="paint0_radial_785_995" cx="0" cy="0" r="1" gradientUnits="userSpaceOnUse" gradientTransform="translate(52.349 73.0527) rotate(16.6322) scale(225.75 225.749)">
<stop stop-color="#F9E5B5"/>
<stop offset="0.1" stop-color="#FFE4A5"/>
<stop offset="0.2" stop-color="#FFD98D"/>
<stop offset="0.3" stop-color="#FFC978"/>
<stop offset="0.5" stop-color="#FFA16C"/>
<stop offset="0.6" stop-color="#FF9163"/>
<stop offset="0.7" stop-color="#FF8254"/>
<stop offset="0.8" stop-color="#FE6B4B"/>
<stop offset="0.9" stop-color="#F3535F"/>
<stop offset="1" stop-color="#D74A7C"/>
</radialGradient>
<linearGradient id="paint1_linear_785_995" x1="0.226731" y1="127.564" x2="210.826" y2="127.564" gradientUnits="userSpaceOnUse">
<stop offset="0.0111732" stop-color="#FFE00B"/>
<stop offset="0.3061" stop-color="#FFDD0D"/>
<stop offset="0.5224" stop-color="#FFD412"/>
<stop offset="0.7136" stop-color="#F67C27"/>
<stop offset="0.8891" stop-color="#ED6930"/>
<stop offset="1" stop-color="#E76332"/>
</linearGradient>
<linearGradient id="paint2_linear_785_995" x1="-0.0624304" y1="98.0816" x2="196.911" y2="98.0816" gradientUnits="userSpaceOnUse">
<stop offset="0.0111732" stop-color="#FFF9D4"/>
<stop offset="0.3061" stop-color="#F6E891"/>
<stop offset="0.5224" stop-color="#FFE677"/>
<stop offset="0.7136" stop-color="#F9D778"/>
<stop offset="0.8891" stop-color="#F3D7A8"/>
<stop offset="1" stop-color="#F2E2D0"/>
</linearGradient>
<linearGradient id="paint3_linear_785_995" x1="210.071" y1="139.052" x2="221.918" y2="49.8205" gradientUnits="userSpaceOnUse">
<stop offset="0.0111732" stop-color="#FFA90B"/>
<stop offset="0.3713" stop-color="#FFA60E"/>
<stop offset="0.6354" stop-color="#FF9D16"/>
<stop offset="0.868" stop-color="#FF8D25"/>
<stop offset="1" stop-color="#FF8031"/>
</linearGradient>
<linearGradient id="paint4_linear_785_995" x1="182.763" y1="244.65" x2="218.882" y2="244.65" gradientUnits="userSpaceOnUse">
<stop offset="0.0111732" stop-color="#FFE00B"/>
<stop offset="0.3061" stop-color="#FFDD0D"/>
<stop offset="0.5224" stop-color="#FFD412"/>
<stop offset="0.7136" stop-color="#FFC41B"/>
<stop offset="0.8891" stop-color="#FFAD27"/>
<stop offset="1" stop-color="#FF9B31"/>
</linearGradient>
<linearGradient id="paint5_linear_785_995" x1="225.648" y1="53.476" x2="243.425" y2="53.476" gradientUnits="userSpaceOnUse">
<stop offset="0.0111732" stop-color="#FFE00B"/>
<stop offset="0.3061" stop-color="#FFDD0D"/>
<stop offset="0.5224" stop-color="#FFD412"/>
<stop offset="0.7136" stop-color="#FFC41B"/>
<stop offset="0.8891" stop-color="#FFAD27"/>
<stop offset="1" stop-color="#FF9B31"/>
</linearGradient>
<linearGradient id="paint6_linear_785_995" x1="143.863" y1="272.276" x2="143.863" y2="251.156" gradientUnits="userSpaceOnUse">
<stop offset="0.0111732" stop-color="#FFA90B"/>
<stop offset="0.3713" stop-color="#FFA60E"/>
<stop offset="0.6354" stop-color="#FF9D16"/>
<stop offset="0.868" stop-color="#FF8D25"/>
<stop offset="1" stop-color="#FF8031"/>
</linearGradient>
<linearGradient id="paint7_linear_785_995" x1="256.497" y1="128.217" x2="256.497" y2="91.9646" gradientUnits="userSpaceOnUse">
<stop offset="0.0111732" stop-color="#FFA90B"/>
<stop offset="0.3713" stop-color="#FFA60E"/>
<stop offset="0.6354" stop-color="#FF9D16"/>
<stop offset="0.868" stop-color="#FF8D25"/>
<stop offset="1" stop-color="#FF8031"/>
</linearGradient>
<linearGradient id="paint8_linear_785_995" x1="238.816" y1="224.339" x2="238.816" y2="130.405" gradientUnits="userSpaceOnUse">
<stop offset="0.0111732" stop-color="#FF8E0B"/>
<stop offset="0.3475" stop-color="#FD8B0D"/>
<stop offset="0.5941" stop-color="#F98215"/>
<stop offset="0.8113" stop-color="#F17221"/>
<stop offset="1" stop-color="#E65D31"/>
</linearGradient>
<linearGradient id="paint9_linear_785_995" x1="20.6738" y1="98.256" x2="47.0718" y2="97.4188" gradientUnits="userSpaceOnUse">
<stop offset="0.0111732" stop-color="#FFA90B"/>
<stop offset="0.3713" stop-color="#FFA60E"/>
<stop offset="0.6354" stop-color="#FF9D16"/>
<stop offset="0.868" stop-color="#FF8D25"/>
<stop offset="1" stop-color="#FF8031"/>
</linearGradient>
<linearGradient id="paint10_linear_785_995" x1="11.6926" y1="177.378" x2="77.9925" y2="177.378" gradientUnits="userSpaceOnUse">
<stop offset="0.0111732" stop-color="#FF9D43"/>
<stop offset="0.3713" stop-color="#FBBF59"/>
<stop offset="0.6354" stop-color="#FFA120"/>
<stop offset="0.868" stop-color="#ED8E38"/>
<stop offset="1" stop-color="#F68A47"/>
</linearGradient>
<linearGradient id="paint11_linear_785_995" x1="14.0308" y1="177.378" x2="74.4898" y2="177.378" gradientUnits="userSpaceOnUse">
<stop offset="0.0111732" stop-color="#FFE00B"/>
<stop offset="0.3061" stop-color="#FFDD0D"/>
<stop offset="0.5224" stop-color="#FFD412"/>
<stop offset="0.7136" stop-color="#FFC41B"/>
<stop offset="0.8891" stop-color="#FFAD27"/>
<stop offset="1" stop-color="#FF9B31"/>
</linearGradient>
<linearGradient id="paint12_linear_785_995" x1="143.861" y1="269.901" x2="143.861" y2="253.532" gradientUnits="userSpaceOnUse">
<stop offset="0.0111732" stop-color="#FFE00B"/>
<stop offset="0.3061" stop-color="#FFDD0D"/>
<stop offset="0.5224" stop-color="#FFD412"/>
<stop offset="0.7136" stop-color="#FFC41B"/>
<stop offset="0.8891" stop-color="#FFAD27"/>
<stop offset="1" stop-color="#FF9B31"/>
</linearGradient>
<linearGradient id="paint13_linear_785_995" x1="210.377" y1="136.7" x2="221.599" y2="52.1734" gradientUnits="userSpaceOnUse">
<stop offset="0.0111732" stop-color="#FFE00B"/>
<stop offset="0.3061" stop-color="#FFDD0D"/>
<stop offset="0.5224" stop-color="#FFD412"/>
<stop offset="0.7136" stop-color="#FFC41B"/>
<stop offset="0.8891" stop-color="#FFAD27"/>
<stop offset="1" stop-color="#FF9B31"/>
</linearGradient>
<linearGradient id="paint14_linear_785_995" x1="256.475" y1="125.841" x2="256.475" y2="94.3403" gradientUnits="userSpaceOnUse">
<stop offset="0.0111732" stop-color="#FFE00B"/>
<stop offset="0.3061" stop-color="#FFDD0D"/>
<stop offset="0.5224" stop-color="#FFD412"/>
<stop offset="0.7136" stop-color="#FFC41B"/>
<stop offset="0.8891" stop-color="#FFAD27"/>
<stop offset="1" stop-color="#FF9B31"/>
</linearGradient>
<linearGradient id="paint15_linear_785_995" x1="211.145" y1="177.371" x2="266.431" y2="177.371" gradientUnits="userSpaceOnUse">
<stop offset="0.0111732" stop-color="#FFE00B"/>
<stop offset="0.3061" stop-color="#FFDD0D"/>
<stop offset="0.5224" stop-color="#FFD412"/>
<stop offset="0.7136" stop-color="#FFC41B"/>
<stop offset="0.8891" stop-color="#FFAD27"/>
<stop offset="1" stop-color="#FF9B31"/>
</linearGradient>
<linearGradient id="paint16_linear_785_995" x1="22.3" y1="98.2046" x2="45.3885" y2="97.4723" gradientUnits="userSpaceOnUse">
<stop offset="0.0111732" stop-color="#FFE00B"/>
<stop offset="0.3061" stop-color="#FFDD0D"/>
<stop offset="0.5224" stop-color="#FFD412"/>
<stop offset="0.7136" stop-color="#FFC41B"/>
<stop offset="0.8891" stop-color="#FFAD27"/>
<stop offset="1" stop-color="#FF9B31"/>
</linearGradient>
</defs>
</svg>
