<svg width="161" height="161" viewBox="0 0 161 161" fill="none" xmlns="http://www.w3.org/2000/svg">
<path opacity="0.92" fill-rule="evenodd" clip-rule="evenodd" d="M160.724 80.1206C160.724 103.305 150.946 124.124 135.174 138.792C127.603 145.731 118.771 151.409 108.993 155.036C100.161 158.349 90.5397 160.241 80.6035 160.241C76.976 160.241 73.5062 159.926 70.0364 159.61C66.8821 159.137 63.7277 158.664 60.7311 157.875C53.4761 155.983 46.6942 153.144 40.3855 149.516C36.4426 147.151 32.6573 144.627 29.0298 141.63C20.6708 134.691 13.8889 126.016 8.99967 116.396C5.84531 110.245 3.63726 103.778 2.06009 96.8387C0.956064 91.4763 0.325195 85.9561 0.325195 80.2783C0.325195 64.5065 4.89901 49.6811 12.7849 37.2214C16.097 32.0167 20.0399 27.1274 24.6137 22.7113C39.1238 8.67447 58.8385 0 80.4458 0C82.1807 0 83.9156 -1.44418e-05 85.6505 0.157703C94.7981 0.788574 103.473 2.83891 111.516 6.15098C112.936 6.78185 114.355 7.41272 115.617 8.04359C121.452 10.8825 126.815 14.3523 131.704 18.6107C133.439 20.0301 135.016 21.4496 136.436 22.8691C137.066 23.3422 137.54 23.9731 138.013 24.604C152.207 38.9563 160.724 58.5132 160.724 80.1206Z" fill="url(#paint0_radial_4_1282)"/>
<path fill-rule="evenodd" clip-rule="evenodd" d="M161 80.5C161 103.478 151.139 124.108 135.328 138.699C127.848 145.576 118.837 151.111 109.147 154.801C100.306 158.155 90.6156 160 80.585 160C77.0148 160 73.4446 159.832 70.0443 159.329C66.8141 158.994 63.754 158.323 60.6938 157.484C53.3833 155.639 46.5829 152.788 40.2925 149.266C36.2122 146.918 32.472 144.402 28.9018 141.383C20.5713 134.506 13.6008 125.953 8.67054 116.392C5.61035 110.354 3.2302 103.813 1.70011 96.9367C0.510032 91.5697 0 86.2025 0 80.5C0 64.7342 4.59029 50.1424 12.5808 37.8987C15.981 32.6994 19.8912 27.8354 24.4815 23.4747C38.9324 9.55379 58.8237 1 80.585 1C82.2851 1 84.1552 1.00001 85.8553 1.16773C95.0359 1.83862 103.706 3.85126 111.697 7.20569C113.057 7.70886 114.417 8.37975 115.777 9.05064C121.558 11.9019 126.998 15.4241 132.098 19.4494C133.798 20.7911 135.328 22.3006 136.859 23.8101C137.369 24.3133 138.049 24.8165 138.559 25.4874C152.499 39.7437 161 59.1994 161 80.5Z" fill="url(#paint1_radial_4_1282)"/>
<path d="M156.988 55.6544C153.187 44.2354 146.83 33.9462 138.559 25.4874C138.213 25.0324 137.789 24.6545 137.392 24.3015C137.204 24.134 137.023 23.9721 136.859 23.8101C135.328 22.3006 133.798 20.7911 132.098 19.4494C126.998 15.4241 121.558 11.9019 115.777 9.05064C114.417 8.3798 113.057 7.70883 111.697 7.20569C103.706 3.85126 95.0359 1.83862 85.8553 1.16773C84.1552 1.00001 82.2851 1 80.585 1C58.8237 1 38.9324 9.55379 24.4815 23.4747C19.8912 27.8354 15.981 32.6994 12.5808 37.8987C6.7587 46.8198 2.74178 56.9874 0.990356 67.9475C4.72726 73.4295 19.4002 67.0698 38.0286 58.9957C49.5974 53.9813 62.6919 48.3058 75.6399 44.3947C107.76 34.5694 134.085 48.1288 147.279 54.9245C151.73 57.2169 154.686 58.7397 155.867 58.3355C156.707 58.0671 157.071 57.1215 156.988 55.6544Z" fill="url(#paint2_linear_4_1282)"/>
<path opacity="0.4" d="M135.328 138.699C151.139 124.108 161 103.478 161 80.5C161 59.1994 152.499 39.7437 138.559 25.4874C138.264 25.0995 137.912 24.7677 137.569 24.4595C137.593 24.5184 137.614 24.5722 137.63 24.62C137.744 25.2961 137.704 26.048 137.667 26.7737C137.648 27.1269 137.63 27.4739 137.63 27.803C137.63 28.2218 137.503 28.5988 137.377 28.9757C137.25 29.3527 137.123 29.7296 137.123 30.1484C137.123 30.2464 137.13 30.3508 137.136 30.4577C137.163 30.8996 137.193 31.3865 136.785 31.6562C136.447 31.1536 135.772 30.316 135.265 30.1484C134.76 29.8984 134.172 29.9386 133.563 29.9803C132.948 30.0223 132.311 30.0659 131.717 29.8134C131.396 29.6861 131.074 29.5588 130.75 29.4312C127.667 28.2141 124.485 26.9579 121.58 25.2901C120.059 24.3686 118.834 23.1122 117.609 21.8557C116.384 20.5992 115.16 19.3427 113.639 18.4213C112.474 17.8437 111.228 17.983 109.958 18.1252C109.386 18.1892 108.809 18.2538 108.233 18.2538C106.876 18.3572 105.584 18.6524 104.317 18.942C103.532 19.1213 102.757 19.2984 101.981 19.4265C101.285 19.5521 100.588 19.6071 99.8907 19.6621C98.7292 19.7537 97.5676 19.8453 96.4061 20.2642C95.3294 20.62 94.3137 21.0364 93.3072 21.449C91.9446 22.0076 90.5988 22.5592 89.1412 22.9446C88.667 23.0622 88.2135 23.221 87.7663 23.3777C86.9389 23.6674 86.1327 23.9498 85.2554 23.9498C84.6922 24.0615 84.129 24.0242 83.5659 23.987C83.2843 23.9684 83.0027 23.9498 82.7211 23.9498C81.9889 24.0056 81.2568 24.0801 80.5246 24.1546C79.0604 24.3035 77.5962 24.4524 76.132 24.4524C73.4288 24.4524 70.8946 24.4524 68.1914 24.1173C67.6704 24.0528 67.1305 23.9757 66.5791 23.897C64.2696 23.5675 61.7571 23.209 59.5749 23.6148C58.5612 23.8661 57.463 24.1592 56.3648 24.4524C55.2666 24.7456 54.1685 25.0388 53.1548 25.2901C51.8527 25.5483 51.0524 26.304 50.2124 27.0972C49.9625 27.3332 49.7091 27.5725 49.4379 27.803C48.5931 28.6407 47.4105 29.4783 46.3967 30.1484C45.63 30.782 44.9599 30.9364 44.167 31.119C43.9117 31.1778 43.6437 31.2396 43.3556 31.3212C42.9051 31.4329 42.4357 31.5259 41.9664 31.619C41.0278 31.8051 40.0892 31.9913 39.3008 32.3263C38.4394 32.6924 37.6676 33.1474 36.8548 33.6265C36.5518 33.8051 36.243 33.9871 35.9218 34.1692C33.3876 35.3419 30.6844 36.6821 28.488 38.3574C26.1227 40.2002 24.2642 41.708 23.4195 44.5561C22.5747 47.7391 23.0816 51.4248 24.2642 54.4403C25.4469 57.4559 27.3053 59.8013 29.3328 62.1467C29.4283 62.2415 29.5273 62.3363 29.6272 62.432C30.234 63.0131 30.8772 63.6291 31.0223 64.4922C31.1349 64.9389 31.0973 65.3857 31.0598 65.8324C31.041 66.0558 31.0223 66.2792 31.0223 66.5025C31.0223 67.4143 30.9333 68.3041 30.8441 69.1958C30.6875 70.7616 30.5304 72.3335 30.8533 74.0414C31.3038 76.1635 32.0547 78.1366 32.8056 80.1097C33.1811 81.0963 33.5565 82.0829 33.8944 83.088C34.3945 84.3772 34.9537 85.6077 35.5021 86.8143C35.8801 87.646 36.2529 88.4663 36.5976 89.2866C36.6478 89.4027 36.698 89.5205 36.7487 89.6394C37.2098 90.7215 37.7117 91.8991 38.625 92.8048C38.7967 92.975 38.9683 93.1344 39.1372 93.2912C39.6333 93.7519 40.1054 94.1903 40.4835 94.8152C40.6255 94.9912 40.7601 95.1672 40.8934 95.3417C41.3947 95.9975 41.8792 96.6313 42.6798 97.1606C44.099 98.0652 45.3357 99.1508 46.5725 100.236C47.3969 100.96 48.2214 101.684 49.1 102.354C50.1535 103.19 51.2728 103.504 52.4167 103.826C53.1073 104.02 53.8068 104.217 54.5064 104.532C54.9288 104.699 55.2667 104.951 55.6046 105.202C55.9425 105.453 56.2803 105.705 56.7027 105.872C57.5475 106.207 58.3922 106.542 59.237 106.71C59.8072 106.871 60.3775 106.955 60.9288 107.036C61.5208 107.123 62.0911 107.206 62.616 107.38C62.8413 107.436 63.0665 107.51 63.2918 107.585C63.7423 107.734 64.1929 107.883 64.6434 107.883C66.3329 108.05 68.3603 107.547 70.0498 107.045C71.0411 106.667 71.9291 106.186 72.8071 105.711C73.8745 105.134 74.927 104.565 76.132 104.197C76.7418 103.995 77.2904 103.976 77.8514 103.955C78.2231 103.942 78.6002 103.929 79.0042 103.862C80.1436 103.721 81.2829 103.222 82.3211 102.768C82.5145 102.684 82.7044 102.6 82.8901 102.522C83.4545 102.172 83.96 101.734 84.4681 101.295C85.1767 100.681 85.8904 100.064 86.7759 99.6735C87.9586 99.1709 89.1412 99.0034 90.4928 99.0034C90.7067 99.0034 90.9206 99.0249 91.1318 99.0461C91.7545 99.1087 92.3534 99.1688 92.8581 98.6683C93.1643 98.4407 93.3664 98.1099 93.5744 97.7694C93.8257 97.3582 94.0855 96.9329 94.5476 96.658C95.1108 96.3229 95.674 96.2857 96.2372 96.2485C96.5187 96.2299 96.8003 96.2112 97.0819 96.1554C98.3477 95.9044 98.76 94.4307 99.1003 93.2143C99.2143 92.8071 99.3201 92.4287 99.4472 92.1347L101.981 86.6062C102.089 86.3721 102.196 86.1435 102.302 85.9185C103.027 84.3722 103.671 83.0002 103.671 81.2452C103.671 80.6868 103.821 80.1283 103.971 79.5699C104.046 79.2907 104.122 79.0115 104.178 78.7322C104.178 78.1771 104.062 77.7369 103.926 77.2212C103.898 77.1144 103.869 77.0044 103.84 76.8894C103.653 76.24 103.362 75.6419 103.082 75.0668C102.857 74.6034 102.639 74.1549 102.488 73.7063C102.215 73.0294 101.942 72.6807 101.58 72.2181C101.494 72.1083 101.403 71.992 101.306 71.8635C101.023 71.5828 100.845 71.2499 100.655 70.894C100.505 70.6125 100.347 70.3166 100.123 70.0206C99.2321 68.8428 98.4717 68.3119 97.4977 67.6319C97.3635 67.5382 97.2252 67.4417 97.0819 67.3402C96.8261 67.159 96.602 66.9857 96.3923 66.8236C95.6326 66.2362 95.0635 65.7962 93.8718 65.6649C93.1116 65.5811 92.3513 65.623 91.591 65.6649C90.8307 65.7068 90.0704 65.7487 89.3102 65.6649C88.4388 65.5569 87.7781 65.1703 87.1017 64.7746C86.7289 64.5565 86.3514 64.3357 85.9312 64.1571C85.6649 64.0439 85.4244 63.9308 85.196 63.8234C84.41 63.4537 83.7684 63.1519 82.7211 63.1519C82.3942 63.1519 82.0416 63.1263 81.6774 63.0999C80.7238 63.0307 79.691 62.9557 78.8352 63.3194C78.4516 63.5096 78.1405 63.7479 77.8379 63.9796C77.3411 64.3601 76.8671 64.7231 76.132 64.8272C75.7561 64.8738 75.4062 64.8945 75.068 64.9145C74.1903 64.9664 73.3908 65.0136 72.4151 65.4974C71.8827 65.799 71.3504 66.0328 70.8334 66.2598C70.2019 66.537 69.5935 66.8042 69.0361 67.1727C68.7798 67.376 68.4456 67.5948 68.095 67.8243C67.2904 68.3512 66.3993 68.9346 66.164 69.5181C65.9767 69.9822 66.0489 70.6522 66.1217 71.3283C66.1803 71.8724 66.2393 72.4205 66.164 72.8687C66.0984 73.3889 65.9565 73.909 65.8172 74.4194C65.5977 75.224 65.3848 76.0043 65.4882 76.7219C65.6314 77.716 66.0174 78.5897 66.4404 79.5471C66.5164 79.7191 66.5936 79.8939 66.6708 80.0725C66.6997 80.1584 66.7286 80.2418 66.7567 80.3232C67.0578 81.1934 67.2744 81.8194 66.5019 82.5854C65.8261 83.4231 65.4882 83.9257 65.8261 85.0984C66.8398 87.9464 69.0361 88.2815 71.7393 88.1139C72.3109 88.1139 72.843 87.9183 73.3929 87.7161C73.9808 87.4999 74.5889 87.2763 75.2873 87.2763C75.9909 87.1988 76.6583 87.3365 77.3231 87.4736C78.0949 87.6329 78.863 87.7913 79.68 87.6113C80.6936 87.4438 81.7075 87.2763 82.5522 86.6062C83.2279 85.9361 83.9038 85.2659 84.7485 84.7633C84.8596 84.6973 84.9648 84.637 85.0646 84.5798C85.7236 84.2022 86.1445 83.9611 86.438 83.088C86.607 82.6692 86.7337 82.2923 86.8604 81.9153C86.9871 81.5384 87.1138 81.1614 87.2828 80.7426C87.353 80.5686 87.4378 80.3728 87.5281 80.1643C87.8724 79.3696 88.2965 78.3906 88.2965 77.7271C88.2965 77.0635 87.6603 76.2948 87.144 75.6708C87.0085 75.5071 86.8813 75.3534 86.7759 75.2141C85.5933 73.7063 84.0727 72.3661 82.0453 72.5336C81.9888 72.5448 81.9134 72.559 81.8222 72.5762C80.5484 72.8162 76.1772 73.6396 76.8078 75.0465C76.8078 75.238 77.0285 75.4295 77.2492 75.6209C77.4147 75.7645 77.5802 75.9081 77.6526 76.0517C77.8882 76.2853 78.0416 76.6818 78.1702 77.0141C78.2261 77.1584 78.2772 77.2906 78.3284 77.392C78.3735 77.5039 78.4156 77.6127 78.4567 77.719C78.7235 78.4086 78.948 78.9893 79.68 79.5699C80.5247 80.24 81.2006 80.24 82.3832 80.24C82.5008 80.24 82.6457 80.258 82.8011 80.2774C83.3151 80.3414 83.943 80.4196 84.0727 79.905C84.0727 80.9017 83.0449 81.2498 82.1011 81.5695C81.7758 81.6797 81.4604 81.7865 81.2006 81.9153C80.0179 82.5854 78.4973 83.4231 76.9768 83.2556C74.7804 82.9205 74.4425 80.7426 75.1183 78.8998C75.4562 78.2297 75.7941 77.392 75.2873 76.7219C74.9161 76.3538 74.092 76.1654 73.4783 76.0252C73.2539 75.9739 73.0577 75.9291 72.922 75.8842C71.0635 75.0465 70.3877 73.3713 70.7256 71.5285C70.8946 70.5233 72.2462 68.8479 73.0909 68.5129C73.4254 68.4466 73.7068 68.4327 73.9773 68.4195C74.39 68.3992 74.777 68.3803 75.2873 68.1778C77.1457 67.3402 78.8353 66.8376 80.8627 66.8376C82.1069 66.8376 83.1678 67.1102 84.248 67.3877C84.6345 67.487 85.0236 67.5869 85.4243 67.6752C86.438 68.0103 87.1138 68.1778 88.1275 68.1778C88.3976 68.1778 88.7022 68.1607 89.0193 68.1429C89.6939 68.105 90.425 68.0639 90.9997 68.1778C92.5588 68.4157 93.2666 70.0043 93.9086 71.4454C94.171 72.0344 94.4225 72.5988 94.7166 73.0362C94.9644 73.3434 95.1896 73.6506 95.4086 73.9496C95.7869 74.4657 96.1471 74.9573 96.575 75.3816C96.84 75.6444 97.1715 75.9236 97.5225 76.2193C98.2906 76.8663 99.1523 77.5923 99.6162 78.3972C99.9541 79.2348 100.123 80.7426 99.6162 81.5803C98.9404 82.2504 97.7577 82.4179 96.913 82.4179C96.6774 82.4179 96.4521 82.4077 96.2371 82.398C95.2183 82.352 94.4299 82.3164 93.8718 83.4231C93.686 83.7915 93.5513 84.2613 93.4115 84.7488C93.2971 85.1479 93.1792 85.559 93.0271 85.936C92.9799 86.0296 92.9196 86.2145 92.8461 86.4399C92.6563 87.0216 92.3787 87.8724 92.0134 88.1139C91.5948 88.3215 91.2411 88.1434 90.912 87.9778C90.7098 87.876 90.5168 87.7789 90.3239 87.7789C89.6481 87.6113 89.1413 87.9464 88.6345 88.2814C87.8559 88.7446 87.5078 89.2079 87.0612 89.8023C87.0232 89.8528 86.9846 89.9043 86.9449 89.9568C85.9312 91.297 85.0864 92.1347 83.7348 93.1399C81.7074 94.8152 79.3421 95.8203 76.6389 95.4853C75.4563 95.3177 74.2736 95.1502 73.2599 94.6476C72.4082 94.2857 71.5565 94.0975 70.6416 93.8954C70.2862 93.8168 69.9212 93.7362 69.543 93.6424C67.0087 93.1398 64.8123 91.6321 62.7849 90.1243C62.6553 90.0279 62.5381 89.9376 62.4274 89.8524C61.9608 89.4931 61.6092 89.2224 60.9265 88.9516C60.6731 88.7841 60.4619 88.7422 60.2507 88.7003C60.0395 88.6584 59.8283 88.6165 59.5749 88.449C59.0699 88.0484 58.6857 87.3485 58.314 86.6714C58.0638 86.2158 57.8193 85.7704 57.5475 85.4335C56.3648 83.9257 55.5201 82.5855 55.3511 80.7426C55.2378 79.7314 55.2765 78.6448 55.3143 77.5839C55.3328 77.063 55.3511 76.5483 55.3511 76.0517C55.3511 73.2037 55.3511 70.6908 56.7027 68.1778C57.058 67.6143 57.3534 67.0803 57.6394 66.5635C58.0335 65.8513 58.4096 65.1717 58.8991 64.4922C59.4411 63.8012 59.8411 63.0046 60.2456 62.1992C60.7237 61.2473 61.208 60.283 61.9402 59.4662C62.7849 58.4611 64.1366 57.4559 65.3192 56.9533C66.4676 56.5737 67.7243 56.4091 68.9667 56.2464C69.9177 56.1219 70.8603 55.9985 71.7393 55.7806C74.2043 55.1695 76.4894 54.3801 78.726 53.6076C79.5553 53.3211 80.3779 53.0369 81.2006 52.765C84.1143 51.7331 86.6435 53.1165 89.2224 54.527C90.8305 55.4064 92.4578 56.2965 94.2097 56.6182C96.4638 57.0246 98.0343 58.3551 99.6373 59.7131C100.678 60.5944 101.732 61.4874 102.995 62.1467C104.08 62.819 104.947 63.7072 105.771 64.5513C105.974 64.7589 106.174 64.9639 106.374 65.1623C106.489 65.3143 106.604 65.4749 106.721 65.6383C107.12 66.1952 107.541 66.7841 108.064 67.1727C108.458 67.5633 108.967 67.8971 109.49 68.2403C109.864 68.4858 110.246 68.7361 110.598 69.0155C111.189 69.5181 111.696 70.0626 112.203 70.607C112.71 71.1515 113.217 71.696 113.808 72.1986C114.653 72.8687 115.329 73.5388 115.666 74.544C116.05 75.4956 116.483 76.4712 116.918 77.4527C117.631 79.063 118.352 80.689 118.877 82.2504C119.552 83.7582 120.059 84.9309 120.059 86.6062C119.975 87.4438 119.806 88.2815 119.637 89.1191C119.468 89.9568 119.299 90.7944 119.214 91.6321C119.031 92.8419 118.937 94.0518 118.842 95.2538C118.675 97.3806 118.51 99.4827 117.863 101.516C117.835 101.6 117.807 101.684 117.779 101.768C117.129 103.706 116.441 105.76 114.822 107.045C113.832 107.928 112.668 108.409 111.501 108.891C110.675 109.233 109.847 109.575 109.077 110.06C107.388 110.898 106.036 112.071 105.698 113.914C105.614 114.291 105.54 114.668 105.466 115.044C105.244 116.175 105.023 117.306 104.516 118.437C102.732 121.975 99.6233 123.981 96.5015 125.995C94.8929 127.033 93.2808 128.073 91.8444 129.326C89.6481 131.169 87.4517 133.347 85.5933 135.525C85.4532 135.684 85.3083 135.852 85.1588 136.026C84.0456 137.318 82.6699 138.915 81.0316 139.211C80.8063 139.267 80.5811 139.285 80.3558 139.304C79.9053 139.341 79.4547 139.378 79.0042 139.713C78.6097 140.104 78.6246 140.394 78.6506 140.898C78.658 141.042 78.6663 141.203 78.6663 141.389C78.6663 144.572 74.4425 145.577 71.9083 145.912C66.577 146.468 61.4788 147.833 56.2266 149.24C55.1539 149.527 54.0747 149.816 52.9858 150.1C51.6342 150.435 50.3248 150.812 49.0155 151.189C47.9412 151.498 46.8669 151.808 45.7692 152.094C50.4824 154.325 55.4572 156.163 60.6938 157.484C63.754 158.323 66.8141 158.994 70.0443 159.329C73.4446 159.832 77.0148 160 80.585 160C90.6156 160 100.306 158.155 109.147 154.801C118.837 151.111 127.848 145.576 135.328 138.699Z" fill="url(#paint3_radial_4_1282)"/>
<path opacity="0.3" fill-rule="evenodd" clip-rule="evenodd" d="M30.7647 102.832C30.2916 104.409 30.1338 106.144 29.9761 107.879C30.4493 107.721 31.0801 108.825 31.5533 108.983C32.4996 109.298 33.2882 109.298 34.0768 109.772C34.8654 110.245 35.654 111.349 36.4425 111.506C36.9157 111.664 37.7043 111.506 38.3352 111.506C39.5969 111.506 40.7009 111.506 41.8049 111.822C43.0667 112.137 44.6439 112.453 45.9056 112.295C46.6942 112.137 48.1136 111.822 48.7445 111.191C49.3754 110.56 49.6908 108.983 49.8485 108.037C50.0063 105.355 47.9559 102.674 45.9056 101.097C44.8016 100.309 43.6976 100.308 42.4358 99.6776C41.0164 98.889 39.7546 98.5736 38.1774 98.1005C37.2311 97.785 35.9694 97.4696 35.0231 97.4696C34.0768 97.4696 32.9727 98.1005 32.1842 98.2582C31.2379 98.5736 30.4493 98.5736 29.8184 99.3622C29.1875 100.466 29.503 101.728 30.7647 102.832Z" fill="url(#paint4_linear_4_1282)"/>
<path opacity="0.3" fill-rule="evenodd" clip-rule="evenodd" d="M51.8989 112.295C51.4257 112.926 47.0096 116.711 49.2177 118.288C49.3754 118.446 50.3217 118.604 50.4794 118.604C51.1103 118.761 51.268 118.604 51.8989 118.288C53.0029 117.657 53.1606 116.553 52.8452 115.292C52.8452 114.976 52.5297 114.345 52.372 114.03C52.2143 113.557 51.7412 113.557 51.5834 112.926L51.8989 112.295Z" fill="url(#paint5_linear_4_1282)"/>
<path opacity="0.3" fill-rule="evenodd" clip-rule="evenodd" d="M77.2915 15.4563C78.0801 14.9832 80.6036 13.5637 82.023 13.406C82.4962 13.406 83.1271 13.5637 83.6002 13.5637C84.7042 13.5637 85.6505 13.406 86.4391 14.1946C87.07 14.8255 87.3854 15.4563 86.9123 16.2449C86.2814 17.349 84.7042 18.1375 83.6002 18.6107C81.2345 20.0302 78.0801 21.2919 75.2412 20.9765C73.0331 20.8187 70.9828 19.0839 68.9325 17.9798C67.513 17.1912 64.8318 15.7718 66.5667 14.0369C67.9862 12.6174 70.1942 11.8288 72.2445 11.6711C73.1908 11.6711 75.3989 11.3557 76.0298 11.8289C76.8184 12.4597 76.0298 14.9832 77.6069 14.8255L77.2915 15.4563Z" fill="url(#paint6_linear_4_1282)"/>
<path opacity="0.5" fill-rule="evenodd" clip-rule="evenodd" d="M1.11377 91.3187L3.63725 102.99C3.63725 102.99 17.5164 111.191 49.8485 108.195C82.1807 105.198 89.7511 89.4261 102.369 80.2785C114.986 71.1308 139.432 63.8758 145.741 56.6208C152.05 49.5235 146.687 35.1712 146.687 35.1712L144.164 31.7014C144.164 31.7014 148.738 44.0034 143.217 52.9933C137.855 61.9832 113.724 66.2416 100.634 77.755C87.5431 89.2684 60.8888 98.1006 38.0197 98.2583C15.6238 98.416 1.11377 91.3187 1.11377 91.3187Z" fill="#BDFFE8" fill-opacity="0.5"/>
<path opacity="0.5" fill-rule="evenodd" clip-rule="evenodd" d="M11.8391 121.6L16.886 129.013C16.886 129.013 40.0705 135.795 74.9261 129.013C109.782 122.231 136.121 102.516 148.265 91.3184C160.567 80.1205 158.99 64.5064 158.99 64.5064L157.886 59.7749C157.886 59.7749 155.678 76.0198 142.114 91.3184C128.55 106.617 105.839 120.496 73.1912 126.174C40.7014 132.01 11.8391 121.6 11.8391 121.6Z" fill="#BDFFE8" fill-opacity="0.5"/>
<path opacity="0.5" fill-rule="evenodd" clip-rule="evenodd" d="M5.84531 51.1005C5.84531 51.1005 51.4257 66.7145 86.5968 59.7749C121.768 52.9931 131.231 30.2817 131.862 18.6106L125.395 13.7214C125.395 13.7214 125.553 37.0636 103.315 51.2582C81.0767 65.2951 23.9828 56.936 8.68422 44.7918L5.84531 51.1005Z" fill="#BDFFE8" fill-opacity="0.5"/>
<path opacity="0.5" fill-rule="evenodd" clip-rule="evenodd" d="M10.7348 78.5433C11.208 81.3822 17.5167 77.4393 22.4059 67.9762C27.1375 58.5132 28.0838 38.7985 25.5603 37.2213C23.1945 35.3287 7.26505 59.144 10.7348 78.5433Z" fill="white"/>
<path opacity="0.5" fill-rule="evenodd" clip-rule="evenodd" d="M11.2079 82.644C7.89588 83.2749 8.05359 89.7413 10.1039 92.4225C12.1543 95.1037 14.8355 93.842 14.9932 88.1641C15.1509 84.8521 13.8892 82.1709 11.2079 82.644Z" fill="white"/>
<path opacity="0.5" fill-rule="evenodd" clip-rule="evenodd" d="M105.838 7.72803C105.838 7.72803 108.993 8.51661 109.939 12.775C109.939 12.9327 106.784 11.9864 105.838 7.72803Z" fill="white"/>
<path opacity="0.5" fill-rule="evenodd" clip-rule="evenodd" d="M47.6405 9.14779C47.6405 9.14779 50.0063 6.30889 54.7378 5.04715C58.523 4.10084 60.7311 4.25855 61.5197 4.10083C61.5197 4.10083 53.4761 9.62094 47.6405 9.14779Z" fill="white"/>
<defs>
<radialGradient id="paint0_radial_4_1282" cx="0" cy="0" r="1" gradientUnits="userSpaceOnUse" gradientTransform="translate(80.5305 80.143) scale(80.1829 80.1829)">
<stop stop-color="#004858"/>
<stop offset="1" stop-color="#008BAB"/>
</radialGradient>
<radialGradient id="paint1_radial_4_1282" cx="0" cy="0" r="1" gradientUnits="userSpaceOnUse" gradientTransform="translate(57.6814 57.982) scale(118.145 116.555)">
<stop offset="0.00558659" stop-color="#00CEC0"/>
<stop offset="0.2576" stop-color="#00CCC0"/>
<stop offset="0.3833" stop-color="#00C4C1"/>
<stop offset="0.4811" stop-color="#00B7C2"/>
<stop offset="0.5645" stop-color="#00A4C4"/>
<stop offset="0.6387" stop-color="#008CC6"/>
<stop offset="0.7054" stop-color="#006EC8"/>
<stop offset="0.729167" stop-color="#0068C9"/>
<stop offset="0.770833" stop-color="#0767CB"/>
<stop offset="0.854167" stop-color="#1A66CF"/>
<stop offset="1" stop-color="#3A63D6"/>
</radialGradient>
<linearGradient id="paint2_linear_4_1282" x1="31.6826" y1="11.9118" x2="110.599" y2="117.487" gradientUnits="userSpaceOnUse">
<stop offset="0.0167598" stop-color="#B1FDF9"/>
<stop offset="1" stop-color="#37C7D1" stop-opacity="0"/>
</linearGradient>
<radialGradient id="paint3_radial_4_1282" cx="0" cy="0" r="1" gradientUnits="userSpaceOnUse" gradientTransform="translate(93.9159 90.711) scale(72.0135 71.4081)">
<stop stop-color="#1372B3"/>
<stop offset="1" stop-color="white"/>
</radialGradient>
<linearGradient id="paint4_linear_4_1282" x1="29.5454" y1="104.96" x2="49.8724" y2="104.96" gradientUnits="userSpaceOnUse">
<stop stop-color="#B8C2FF"/>
<stop offset="1" stop-color="#7D72B3"/>
</linearGradient>
<linearGradient id="paint5_linear_4_1282" x1="48.5286" y1="115.502" x2="52.7165" y2="115.502" gradientUnits="userSpaceOnUse">
<stop stop-color="#B8C2FF"/>
<stop offset="1" stop-color="#7D72B3"/>
</linearGradient>
<linearGradient id="paint6_linear_4_1282" x1="66.1335" y1="16.4623" x2="87.1826" y2="16.4623" gradientUnits="userSpaceOnUse">
<stop stop-color="#B8C2FF"/>
<stop offset="1" stop-color="#7D72B3"/>
</linearGradient>
</defs>
</svg>
