<svg width="158" height="158" viewBox="0 0 158 158" fill="none" xmlns="http://www.w3.org/2000/svg">
<g filter="url(#filter0_d_784_461)">
<path fill-rule="evenodd" clip-rule="evenodd" d="M149.203 74.6012C149.203 96.2088 140.074 115.608 125.437 129.33C118.355 135.796 110.171 141.001 101.042 144.471C95.219 146.679 88.9235 148.256 82.4706 148.887C80.8968 149.045 79.1655 149.202 77.5917 149.202C76.6473 149.202 75.703 149.202 74.6013 149.202C71.2962 149.202 67.9911 149.045 64.8433 148.572C53.5115 147.152 42.9666 143.051 33.8381 137.058C32.8938 136.427 32.1069 135.954 31.32 135.323C29.7461 134.219 28.3296 133.115 26.7557 131.853C19.0438 125.387 12.5909 117.343 8.02673 108.353C5.19377 102.675 2.99035 96.5242 1.57387 90.0577C0.94432 86.7456 0.47217 83.4335 0.157396 80.1214C9.60378e-06 78.3865 0 76.4939 0 74.6012C0 59.9333 4.24946 46.054 11.6466 34.5405C14.7944 29.6512 18.4143 25.0774 22.6637 21.1344C36.0416 8.04369 54.4558 0 74.6013 0C76.1752 0 77.9064 -2.40896e-06 79.4803 0.157717C85.9331 0.630875 92.2286 1.89263 98.0519 3.78527C99.9406 4.41614 101.672 5.04702 103.403 5.83562C104.662 6.30877 105.921 6.93965 107.18 7.57053C114.42 11.0404 121.03 15.7719 126.696 21.4498C129.529 24.2888 132.205 27.2854 134.566 30.4398C141.963 40.5339 146.999 52.3628 148.573 65.4535C148.888 68.2925 149.203 71.4468 149.203 74.6012Z" fill="url(#paint0_radial_784_461)"/>
<g opacity="0.7">
<g opacity="0.7">
<path opacity="0.6" fill-rule="evenodd" clip-rule="evenodd" d="M65.9524 94.5152C65.9482 94.5069 65.9463 94.4982 65.9463 94.489V94.489C65.9463 94.4364 66.0098 94.4099 66.047 94.4471C66.2868 94.6866 66.5178 94.929 66.6773 95.1951C66.8556 95.4927 66.5898 95.6341 66.4059 95.3399C66.2148 95.0341 66.0401 94.6892 65.9524 94.5152Z" fill="url(#paint1_linear_784_461)"/>
<path fill-rule="evenodd" clip-rule="evenodd" d="M148.69 66.2757C148.596 65.385 148.386 64.4815 147.816 63.79V63.79C147.56 63.4783 147.295 63.1706 147.013 62.8824C146.241 62.0952 145.252 61.7123 144.146 61.4435C143.168 61.1267 142.191 60.6515 141.376 61.4435C140.561 62.2356 139.909 63.3444 139.421 64.1365C139.095 64.7701 138.606 66.0374 137.791 66.1958C136.976 66.3542 135.999 65.2453 135.347 64.6117C134.532 63.8197 134.043 62.5524 133.229 61.9188C132.955 61.7195 132.625 61.5203 132.285 61.3444C131.432 60.9028 130.511 60.5875 129.58 60.353C128.497 60.0807 127.36 59.9701 126.222 59.8595C125.081 59.8595 124.266 59.2258 123.289 58.7506C122.311 58.2754 121.008 58.117 120.03 57.9586C119.471 57.8681 118.913 57.7775 118.354 57.6575C117.507 57.4755 116.648 57.322 115.829 57.0424C115.365 56.8844 114.928 56.6418 114.49 56.2161C113.675 55.2656 113.023 53.9984 112.045 53.2063C110.253 51.6222 108.298 52.7311 106.016 52.7311C104.224 52.7311 102.757 51.6222 100.965 51.147C98.8468 50.6718 97.0544 50.355 95.7508 48.6125C94.6102 47.0284 94.9361 45.1275 94.2843 43.385C92.9807 39.9001 88.0923 38.9496 84.6704 38.6328C81.9003 38.4744 79.4561 39.4248 76.849 39.4248C74.5677 39.4248 72.6124 38.9496 71.1458 40.8505C69.5164 42.9098 67.8869 45.1275 66.5833 47.3452C65.6056 49.0877 63.9762 50.8302 63.3244 52.8895C62.9985 53.9984 62.9985 55.1072 62.8355 56.2161C62.5096 57.4833 61.532 59.2258 60.7172 60.3347C59.9025 61.4435 58.273 62.2356 56.9694 62.8692C55.8288 63.5028 55.0141 64.2949 54.0364 65.2453C52.8958 66.3542 51.7552 67.463 50.9404 68.7303C50.6145 69.3639 50.2886 69.9976 49.6368 70.4728C49.3587 70.7432 49.0279 70.911 48.7043 71.0929C48.2094 71.3712 47.7451 71.7182 47.379 72.1523V72.1523C47.0089 72.5911 46.6707 73.0716 46.1774 73.3652C45.939 73.5072 45.679 73.6342 45.4102 73.7431C44.5662 74.0853 43.6333 74.1214 42.7464 73.9146C41.5875 73.6445 40.4758 73.3327 39.5342 74.5914C38.7194 75.5419 37.7417 77.2843 37.9047 78.5516C38.0676 79.6605 39.0453 80.6109 39.6971 81.5614C40.8377 82.987 43.2819 85.5215 42.7931 87.5809C42.6301 88.3729 41.8154 88.8481 42.1413 89.7986C42.3043 90.5906 42.4672 91.3826 42.4672 92.3331C42.4672 92.9667 42.1413 94.0756 42.4672 94.5508C42.7225 94.8818 43.2447 95.2128 43.8013 95.476C44.718 95.9096 45.7228 96.1439 46.6155 96.6249C47.727 97.2239 48.8037 97.9476 49.9628 98.511C51.1034 99.1446 51.7552 99.9367 52.8958 100.253C54.0364 100.57 55.0141 100.412 56.1547 100.57C56.8065 100.729 57.6212 100.729 58.273 100.887C58.7619 101.046 59.2507 101.362 59.7396 101.521C61.6949 101.996 63.9762 101.521 66.0945 101.521C67.398 101.521 68.7016 101.838 69.8423 101.204C71.1458 100.412 71.4717 99.4615 71.4717 98.0358C71.4717 96.7685 70.8199 95.6597 70.3311 94.3924C70.1682 93.7588 70.0052 92.9667 69.5164 92.3331C69.1905 91.8579 68.7016 91.8579 68.2128 91.5411C67.561 91.0658 67.398 90.5906 66.4204 90.4322C66.3295 90.4101 66.2386 90.3973 66.1477 90.3924C64.9665 90.3287 63.9376 91.2201 63.1515 92.1041C62.6688 92.6469 62.2922 93.262 62.3379 93.8396C62.3421 93.8914 62.3548 93.942 62.3731 93.9905C62.4282 94.136 62.4986 94.2808 62.5843 94.4202C62.8263 94.814 63.3727 94.6426 63.4911 94.1957V94.1957C63.5701 93.8975 63.8863 93.6455 64.1888 93.7063C65.0987 93.8891 66.1639 94.1309 67.0999 94.5168C68.3179 95.0188 68.6277 96.5629 67.4625 97.1776C67.0007 97.4212 66.5046 97.5606 66.0945 97.5606C64.1391 97.5606 62.1837 97.8774 60.7172 96.4517C59.4137 95.3429 59.4137 93.7588 58.5989 92.3331C58.273 91.5411 57.9471 90.9074 57.2954 90.2738C56.8065 89.7986 56.4806 89.3233 56.1547 88.6897C55.5029 87.7393 54.8511 86.3136 55.8288 85.3632C56.8065 84.4127 58.5989 83.7791 59.7396 83.1454C61.532 82.195 63.4873 81.2445 65.2797 80.1357C67.8869 78.71 70.0052 76.8091 73.1012 76.6507C75.5454 76.4923 78.4784 76.9675 80.4338 78.5516C81.7374 79.6605 82.0633 80.9277 82.715 82.3534C83.3668 83.6207 84.3445 84.5711 85.3222 85.3632C86.7887 86.3136 88.2552 87.264 89.5588 88.2145C91.3512 89.4818 92.8177 89.957 94.1213 91.8579C96.0767 95.026 97.0544 98.511 98.032 102.154C98.6838 103.897 99.0097 105.639 99.3356 107.54C99.6615 108.966 100.313 110.075 100.965 111.5C101.454 112.768 101.943 113.718 102.595 114.827C102.92 115.302 103.246 115.777 103.409 116.411C103.898 118.629 101.617 120.213 100.476 121.955C99.1727 123.856 97.7061 125.44 97.0544 127.658C96.5655 129.401 97.2173 130.193 97.5432 131.777C98.195 134.47 96.8914 136.054 95.099 137.955C94.1213 138.905 93.1436 139.697 91.8401 140.331C88.4704 141.735 85.4167 144.214 82.8347 146.861C82.7554 146.942 82.711 147.005 82.6579 147.105V147.105C82.2314 147.91 82.6126 149.104 83.5148 148.977C89.0579 148.195 94.4497 146.782 99.4986 144.925C108.949 141.44 117.423 136.212 124.755 129.717C139.909 116.094 149.36 96.4517 149.36 74.7498C149.221 71.6454 148.964 68.886 148.69 66.2757ZM62.3467 65.879C62.0208 66.8294 59.5766 67.3046 58.5989 67.6215C58.273 67.7799 57.7842 67.9383 57.4583 67.6215C56.7644 67.0818 58.6709 65.3931 59.2516 65.0019C59.3267 64.9513 59.3227 64.8931 59.2383 64.8603V64.8603C59.1056 64.8087 59.1177 64.4664 59.2296 64.3783C59.5619 64.1168 59.7761 63.738 60.1874 63.811C60.2145 63.8158 60.2422 63.8191 60.2693 63.8241C60.3345 63.8362 60.4344 63.8717 60.5459 63.9194C61.0045 64.1156 61.4896 64.322 61.8903 64.6192C62.2865 64.9131 62.5593 65.3623 62.3467 65.879ZM88.4182 48.4541C87.7664 51.7807 83.8557 54.3152 80.7597 55.2656C79.1302 55.7409 77.6637 56.0577 76.0342 56.0577C74.5677 56.0577 72.9382 56.3745 71.4717 56.0577C71.0159 55.9469 70.6199 55.8022 70.281 55.633C68.1598 54.5736 67.5224 51.1414 68.3757 48.9293V48.9293C68.8646 47.9789 69.3534 47.0284 70.0052 46.2364C71.1458 44.6523 72.7753 44.6523 74.5677 44.0187C78.1525 42.9098 82.0633 41.6425 85.6481 43.5434C87.2776 44.6523 88.7441 46.3948 88.4182 48.4541ZM122.963 118.787C121.496 123.064 117.749 125.124 113.675 126.549C111.557 127.341 109.601 128.45 107.483 129.242C106.016 129.876 105.039 130.193 103.735 129.717C101.943 128.925 101.454 127.341 102.269 125.599C103.409 123.698 105.528 122.114 105.039 119.738C104.713 118.154 104.55 116.886 104.876 115.302C104.985 114.504 105.058 113.705 105.106 112.906C105.181 111.664 103.456 108.146 103.572 106.907V106.907C103.572 105.481 104.061 104.847 105.365 104.055C109.438 101.362 114.979 103.897 118.563 106.115C120.845 107.54 122.474 109.916 123.452 112.293C124.104 114.51 123.778 116.728 122.963 118.787ZM121.659 74.1162C120.519 74.2746 118.726 72.6905 117.912 72.0569C117.097 71.4232 116.445 70.4728 115.793 69.6808C115.141 69.0471 114.327 68.2551 113.838 67.463C113.349 66.5126 113.023 65.4037 112.534 64.2949C112.059 63.1396 111.67 62.1528 111.115 61.0887C110.854 60.588 110.234 59.7895 110.742 59.5426V59.5426C110.976 59.4289 111.252 59.3968 111.54 59.4025C112.532 59.4218 113.538 59.5708 114.453 59.9543C115.434 60.3657 116.186 60.9857 117.097 61.7604C118.4 63.186 119.867 64.2949 121.008 65.7206C121.985 66.8294 124.104 69.0471 124.104 70.4728C124.266 71.8985 122.963 74.1162 121.659 74.1162Z" fill="url(#paint2_linear_784_461)"/>
<path opacity="0.4" fill-rule="evenodd" clip-rule="evenodd" d="M132.862 27.7487C133.874 29.0324 133.486 30.5623 132.206 31.5781V31.5781C131.576 32.0466 130.947 32.8273 130.317 33.1395C129.373 33.4518 128.114 33.1395 127.327 32.8273C125.281 32.0466 124.022 31.2659 121.818 32.0466C121.189 32.3588 120.559 32.2027 119.93 32.3588C119.3 32.515 119.3 32.8273 118.513 32.8273C117.254 32.8273 115.995 31.5781 115.208 30.7974C114.264 29.7044 113.792 29.7045 112.375 29.7045C110.959 29.7045 109.385 30.0167 109.07 31.7343C108.755 33.608 111.116 35.1694 112.375 36.1062C114.264 37.5115 112.218 37.8237 111.431 39.229C110.801 40.4781 112.06 41.2588 111.116 42.3518C109.07 44.5378 104.191 46.0992 101.515 44.6939C99.6269 43.6009 98.6825 41.5711 97.2661 40.0097C96.4791 39.0729 95.3775 38.4483 94.5905 37.5115C93.3314 36.2623 92.3871 34.5448 91.7576 32.8273C92.3871 34.5448 91.2854 32.0466 90.9706 30.0167C90.8133 29.0799 91.2854 28.4553 91.4428 27.6746C91.6002 26.7378 91.128 26.4255 90.6559 25.8009C89.869 24.3957 88.7673 23.3027 89.869 21.8974C90.4985 20.9606 91.2854 20.1799 92.0723 19.3992V19.3992C93.7268 17.7578 94.387 15.7819 92.742 14.1311C92.6616 14.0504 92.5943 13.9837 92.5445 13.9343C91.4428 12.6852 90.4985 11.1238 89.2394 10.0308C88.7672 9.56235 87.8229 9.09393 87.5082 8.6255C86.8786 7.37638 88.9246 5.65884 89.7116 5.03428C91.2854 3.9413 92.7019 3.78516 94.4331 3.78516C95.0449 3.78516 95.7053 3.78516 96.3872 3.81189C97.4978 3.85544 98.5867 4.11082 99.6352 4.47967C100.93 4.93507 102.167 5.41322 103.404 5.97112C104.663 6.43954 105.922 7.0641 107.181 7.68867C114.421 11.1238 121.031 15.808 126.697 21.429C128.981 23.2177 130.989 25.3706 132.862 27.7487Z" fill="url(#paint3_linear_784_461)"/>
<path opacity="0.4" fill-rule="evenodd" clip-rule="evenodd" d="M113.162 45.8728C113.162 45.8285 113.203 45.7951 113.246 45.8039C114.595 46.0763 115.941 46.4632 117.186 46.9648C117.482 47.0838 117.611 47.4448 117.712 47.7468V47.7468C117.789 47.9752 117.769 48.2459 117.582 48.3975C117.072 48.81 116.324 49.2507 115.68 49.3783C114.736 49.5345 114.264 49.3783 113.477 48.9099C112.696 48.4448 111.759 48.4415 111.9 47.5242C111.902 47.5115 111.903 47.4979 111.903 47.485C111.913 46.6759 112.533 46.2999 113.239 46.0972C113.309 46.0769 113.295 45.9432 113.222 45.9432V45.9432C113.189 45.9432 113.162 45.9165 113.162 45.8835V45.8728Z" fill="url(#paint4_linear_784_461)"/>
<path opacity="0.9" fill-rule="evenodd" clip-rule="evenodd" d="M96.7647 124.27C96.1268 125.367 95.9673 126.465 95.9673 127.563C95.9673 128.66 95.9673 129.758 95.9673 130.856C95.9673 132.424 94.8509 133.365 93.8939 134.463C92.7775 135.874 91.342 136.815 90.0661 137.913C89.4281 138.54 89.1092 139.324 88.4712 139.951C87.8332 140.578 87.1953 141.049 86.7168 141.676C86.0788 142.46 85.9194 142.931 85.1219 143.401C84.1649 144.028 83.527 144.812 82.7295 145.596C82.0802 146.164 81.4634 146.764 80.8498 147.352C79.4309 148.712 77.5178 149.36 75.5524 149.36V149.36C72.2031 149.36 68.8538 149.203 65.6639 148.733C55.1477 147.44 45.3002 143.912 36.6115 138.75C36.0718 138.43 36.3361 137.811 36.9555 137.913V137.913C37.9124 138.069 38.8694 138.54 39.8263 138.697C41.5807 139.167 43.8136 138.853 45.568 138.853C48.2794 138.853 50.8313 139.324 53.5426 139.637C55.4565 139.951 56.8919 140.265 58.8058 139.637C60.4007 139.167 61.9956 138.54 63.2716 137.756C66.3019 136.031 69.8107 136.031 72.841 134.463C74.117 133.835 75.2334 132.738 76.5093 131.954C77.1473 131.64 78.1043 130.856 78.9017 130.699C79.5397 130.542 80.0182 130.542 80.6561 130.229C82.251 129.601 83.846 129.288 85.4409 128.817C86.7168 128.347 88.7902 127.406 89.9066 126.465C91.3421 125.211 93.256 123.172 93.8939 121.447C94.3724 120.192 94.3724 119.095 94.3724 117.84C94.3724 117.37 94.3724 116.743 94.3724 116.272C94.3724 115.645 94.2129 115.331 94.0534 114.861C93.7344 113.606 94.3724 112.979 94.6914 111.881C95.0104 110.94 95.3293 110 95.6483 108.902C95.9673 107.49 95.9673 106.706 95.4888 105.295C95.3293 104.825 95.0103 104.041 94.8509 103.57C94.6914 103.1 94.6914 102.472 94.6914 102.002C94.6914 102.629 95.4888 104.197 95.6483 104.668C96.1268 105.766 97.0837 106.706 97.0837 108.118C97.0837 109.372 96.7647 110.313 96.4458 111.568C96.1268 112.822 96.6053 113.606 96.6053 114.861C96.6053 115.331 96.6053 115.958 96.7647 116.429C96.8146 116.625 96.8488 116.821 96.8773 117.012C96.9909 117.777 97.1188 118.577 97.4476 119.277V119.277C98.0372 120.531 98.4713 121.94 97.6698 123.071C97.3774 123.484 97.0412 123.862 96.7647 124.27Z" fill="url(#paint5_linear_784_461)"/>
</g>
<path opacity="0.7" fill-rule="evenodd" clip-rule="evenodd" d="M37.8786 124.358C38.0351 128.151 35.8438 131.47 32.8698 133.682V133.682C31.7989 134.493 30.3014 134.309 29.2307 133.498C28.3153 132.804 27.4133 132.088 26.4524 131.312C18.7828 124.832 12.3653 116.773 7.82615 107.765C5.00874 102.076 2.81743 95.9126 1.40872 89.4334C0.79386 86.1742 0.329942 82.9151 0.0169968 79.656C0.00612956 79.5428 0.0605825 79.4162 0.140591 79.3355V79.3355C0.381791 79.0919 0.794047 79.2774 0.82517 79.6188C1.01522 81.7031 1.80096 83.412 2.34784 85.4826C2.81741 87.2209 3.44351 88.9593 3.91307 90.6976C4.22612 92.1199 4.53917 93.3842 5.4783 94.6484C5.83722 95.1014 6.14471 95.3985 6.5187 95.6292C7.13659 96.0103 7.83829 96.2364 8.45224 96.6238V96.6238C9.06619 97.0112 9.73373 97.3032 10.4332 97.4977C11.6512 97.8363 13.0399 98.0886 14.2436 97.9671C14.3779 97.9671 14.5029 97.9671 14.6219 97.9687C15.7508 97.9838 16.7505 98.6009 17.6871 99.2313V99.2313C18.7828 100.021 19.7219 100.812 20.661 101.76C22.0697 103.34 21.9132 105.395 23.0089 107.133C23.948 108.555 25.2002 109.029 26.9219 109.029C30.2089 109.029 33.0263 112.98 34.7481 115.35C36.3133 118.037 37.722 121.514 37.8786 124.358Z" fill="url(#paint6_linear_784_461)"/>
</g>
<path fill-rule="evenodd" clip-rule="evenodd" d="M106.624 7.07358C106.798 7.15515 106.75 7.47309 106.577 7.55684V7.55684C106.563 7.56385 106.542 7.57214 106.526 7.57517C105.747 7.72505 104.968 7.56892 104.189 7.41279C104.05 7.3781 103.927 7.33578 103.811 7.29087C102.935 6.95303 101.991 6.86233 101.086 6.61502C100.665 6.49981 100.242 6.38557 99.782 6.30875C98.8377 6.15103 98.0508 5.83559 97.1065 5.52015C96.3195 5.20472 96.0048 5.36244 95.3752 5.52015V5.52015C94.2236 5.80867 93.0813 5.00477 91.9124 4.79735C91.8044 4.77818 91.6991 4.75691 91.5979 4.73156C89.7093 4.41612 87.8207 3.78524 85.932 3.31208C84.8303 2.99664 83.7286 2.99665 82.4695 2.99665C81.5252 2.99665 80.7382 3.31208 79.7939 3.31208C79.5783 3.31208 79.3812 3.29358 79.1898 3.26926C78.4427 3.17426 77.6841 3.0486 76.9333 3.10864V3.10864C76.4275 3.14908 75.9241 3.10181 75.4226 3.02465C74.902 2.94455 74.4728 2.93406 73.8132 3.15437C73.6792 3.18124 73.5542 3.20353 73.4353 3.2228C72.328 3.4023 71.1962 3.47592 70.1067 3.74286C69.8107 3.81538 69.5205 3.88856 69.249 3.94296C67.8325 4.2584 66.2587 4.57384 64.8422 4.57384C63.8979 4.57384 62.6388 4.2584 61.8518 4.57384V4.57384C60.7896 4.92867 60.1825 6.06493 59.3726 6.83848C59.0207 7.1746 58.6874 7.5126 58.3893 7.88594C57.7598 8.67454 57.1302 9.62086 57.1302 10.7249C57.1302 11.6712 57.6024 12.7752 58.0746 13.5638C58.5467 14.5102 58.7041 15.2987 57.7598 15.9296C56.6581 16.7182 55.2416 17.3491 53.9825 17.8223C53.2795 18.0571 52.6638 18.2045 52.1352 18.0043C51.751 17.8587 51.4558 17.5926 51.2282 17.2505V17.2505C51.0006 16.9084 50.627 16.5963 50.2272 16.6912C50.1694 16.705 50.1119 16.7218 50.0557 16.7407C49.8348 16.8151 49.6222 16.9132 49.4009 16.9867C48.5673 17.2632 47.7337 17.5253 46.9001 17.6645V17.6645C45.7382 17.9556 44.5796 17.805 43.392 17.9614C43.3554 17.9662 43.3182 17.9724 43.2802 17.98C42.3359 18.1377 41.2342 18.6109 40.2899 18.6109C39.5029 18.6109 38.5586 18.2954 37.9291 17.98C37.7999 17.9152 37.6972 17.8239 37.5884 17.7497C37.24 17.512 36.7676 17.6605 36.4529 17.9412V17.9412C36.1389 18.2211 35.8835 18.6097 35.7276 19.0004C35.7078 19.0499 35.688 19.0996 35.667 19.1486C35.5401 19.4453 35.3186 19.6912 35.1507 19.9668C34.9815 20.2445 34.8397 20.4947 34.6239 20.8189C34.1518 21.6075 33.6796 22.3961 33.2075 23.1847C33.0635 23.4011 32.9195 23.6835 32.7605 23.9715C32.3905 24.6417 31.8459 25.2075 31.1614 25.5505V25.5505C30.3745 26.0237 29.5876 26.6545 28.8006 27.1277C27.3841 28.2317 25.9677 29.4935 24.5512 30.5975C23.4495 31.3861 21.8756 31.8593 20.6165 32.4902C19.8296 32.8056 19.0427 33.121 18.2557 33.4365C18.1233 33.5028 17.9631 33.5412 17.8101 33.587C17.4218 33.7031 17.1525 34.0257 16.9516 34.3776V34.3776C16.7312 34.7638 16.5388 35.1905 16.2619 35.5385C15.7308 36.2061 15.1646 36.9505 14.7932 37.6949C14.4784 38.3258 14.3211 38.7989 14.0063 39.4298C13.8693 39.7729 13.7026 40.116 13.545 40.472C13.1242 41.4224 12.8648 42.4419 12.6464 43.4581C12.3693 44.7476 12.2096 46.0722 11.6455 47.3158C11.3307 48.2621 10.7012 49.2084 10.229 50.1547C9.44206 51.7319 9.28467 53.6245 9.12729 55.3594C8.9699 56.3058 9.1273 57.5675 9.28468 58.5138C9.44207 59.6179 9.44206 60.7219 9.44206 61.8259C9.44206 62.93 8.65513 64.1917 8.02559 64.9803C7.39604 65.7689 6.29432 66.0844 5.50739 66.873C5.00463 67.3768 4.40151 67.8806 4.01865 68.5451C3.82279 68.885 3.6831 69.2127 3.71302 69.6038V69.6038C3.74784 70.0589 3.74228 70.57 3.63906 71.0146C3.57492 71.2908 3.50675 71.5593 3.44876 71.8295C3.28028 72.6143 3.23381 73.4222 3.18786 74.2236C3.14659 74.9433 3.14659 75.6863 3.14659 76.4938C3.14659 77.1247 3.14659 77.5979 3.14659 78.2287C3.14659 78.4109 3.15971 78.5799 3.18216 78.7396C3.28401 79.4637 3.46136 80.1787 3.46136 80.91V80.91V80.91C3.46136 81.7772 3.91161 82.5917 4.08834 83.4407C4.2168 84.0579 4.31124 84.6636 4.40569 85.3261C4.47526 85.7444 4.60634 86.1627 4.74454 86.581C5.08839 87.6218 5.40903 88.6776 5.65141 89.7465C5.82244 90.5007 5.95275 91.2774 6.13695 92.108C6.29434 93.0544 6.29433 94.1584 6.45172 95.1047C6.60911 95.8933 6.76649 96.6819 6.76649 97.4705C6.76649 98.7323 6.45172 99.8363 6.45172 101.098C6.45172 103.148 7.23866 105.199 7.71082 107.249V107.249C7.77072 107.489 7.48841 107.598 7.38083 107.375C2.69821 97.6736 0.15625 86.7359 0.15625 75.2321C0.15625 60.4065 4.40568 46.6849 11.8029 35.1714C14.9506 30.2821 18.5705 25.7082 22.8199 21.7652C36.1978 8.67455 54.612 0.630859 74.7575 0.630859C76.3314 0.630859 78.0627 0.630857 79.6365 0.788576C89.1228 0.635249 98.3116 3.16497 106.624 7.07358Z" fill="url(#paint7_linear_784_461)"/>
</g>
<defs>
<filter id="filter0_d_784_461" x="0" y="0" width="157.36" height="157.36" filterUnits="userSpaceOnUse" color-interpolation-filters="sRGB">
<feFlood flood-opacity="0" result="BackgroundImageFix"/>
<feColorMatrix in="SourceAlpha" type="matrix" values="0 0 0 0 0 0 0 0 0 0 0 0 0 0 0 0 0 0 127 0" result="hardAlpha"/>
<feOffset dx="4" dy="4"/>
<feGaussianBlur stdDeviation="2"/>
<feComposite in2="hardAlpha" operator="out"/>
<feColorMatrix type="matrix" values="0 0 0 0 0 0 0 0 0 0 0 0 0 0 0 0 0 0 0.25 0"/>
<feBlend mode="normal" in2="BackgroundImageFix" result="effect1_dropShadow_784_461"/>
<feBlend mode="normal" in="SourceGraphic" in2="effect1_dropShadow_784_461" result="shape"/>
</filter>
<radialGradient id="paint0_radial_784_461" cx="0" cy="0" r="1" gradientUnits="userSpaceOnUse" gradientTransform="translate(38.2558 28.7205) rotate(26.3721) scale(128.889 129.162)">
<stop stop-color="#E4FFE3"/>
<stop offset="0.125" stop-color="#D7FEB8"/>
<stop offset="0.25" stop-color="#AAF985"/>
<stop offset="0.375" stop-color="#99EE71"/>
<stop offset="0.5" stop-color="#77E451"/>
<stop offset="0.625" stop-color="#5FCB45"/>
<stop offset="0.75" stop-color="#44A634"/>
<stop offset="0.875" stop-color="#2F902D"/>
<stop offset="1" stop-color="#377627"/>
</radialGradient>
<linearGradient id="paint1_linear_784_461" x1="65.9453" y1="95.0264" x2="66.9369" y2="95.0264" gradientUnits="userSpaceOnUse">
<stop stop-color="#E8DDFF"/>
<stop offset="1" stop-color="#AA8AD8"/>
</linearGradient>
<linearGradient id="paint2_linear_784_461" x1="37.7158" y1="93.6724" x2="149.131" y2="93.6724" gradientUnits="userSpaceOnUse">
<stop stop-color="#E8DDFF"/>
<stop offset="1" stop-color="white"/>
</linearGradient>
<linearGradient id="paint3_linear_784_461" x1="87.226" y1="24.3029" x2="134.597" y2="24.3029" gradientUnits="userSpaceOnUse">
<stop stop-color="#E8DDFF"/>
<stop offset="1" stop-color="#AA8AD8"/>
</linearGradient>
<linearGradient id="paint4_linear_784_461" x1="111.894" y1="47.5406" x2="117.826" y2="47.5406" gradientUnits="userSpaceOnUse">
<stop stop-color="#E8DDFF"/>
<stop offset="1" stop-color="#AA8AD8"/>
</linearGradient>
<linearGradient id="paint5_linear_784_461" x1="34.1953" y1="125.964" x2="98.1274" y2="125.964" gradientUnits="userSpaceOnUse">
<stop stop-color="#E6FBE4"/>
<stop offset="1" stop-color="#DBC1FF"/>
</linearGradient>
<linearGradient id="paint6_linear_784_461" x1="0.218193" y1="106.691" x2="37.9703" y2="106.691" gradientUnits="userSpaceOnUse">
<stop stop-color="#E8DDFF"/>
<stop offset="1" stop-color="#FFD2FB"/>
</linearGradient>
<linearGradient id="paint7_linear_784_461" x1="0.0128707" y1="54.0803" x2="107.272" y2="54.0803" gradientUnits="userSpaceOnUse">
<stop offset="0.0111732" stop-color="#CCFA93"/>
<stop offset="0.2926" stop-color="#ADFFBF"/>
<stop offset="0.499" stop-color="#B3FA6D"/>
<stop offset="0.6813" stop-color="#98FFA8"/>
<stop offset="0.8488" stop-color="#A8DBB3"/>
<stop offset="1" stop-color="#80AC81"/>
</linearGradient>
</defs>
</svg>
