<svg width="282" height="282" viewBox="0 0 282 282" fill="none" xmlns="http://www.w3.org/2000/svg">
<g filter="url(#filter0_d_815_539)">
<path fill-rule="evenodd" clip-rule="evenodd" d="M273.999 136.855C273.999 150.165 272.263 162.895 268.791 174.758C261.847 199.062 248.249 220.473 230.31 237.254C217.579 249.117 202.244 258.665 185.752 265.031C170.707 270.817 154.215 274 137.144 274C134.83 274 132.226 274 129.911 273.711C126.439 273.421 122.678 273.132 119.205 272.843C92.5867 269.371 68.572 258.376 49.1866 241.884C41.9532 235.808 35.2985 228.864 29.2225 221.341C24.8825 215.844 20.8318 209.768 17.0704 203.402C16.2024 201.956 15.3345 200.509 14.7558 198.773C14.7558 198.773 14.7558 198.773 14.7558 198.484C13.8878 196.748 13.0198 195.301 12.4411 193.565C10.1264 188.357 8.10107 182.859 6.36506 177.362C5.20772 173.311 4.05041 169.261 3.18241 165.21C2.60374 162.317 2.02507 159.423 1.73573 156.241C0.867731 149.875 0.289062 143.51 0.289062 136.855C0.289062 133.094 0.578388 129.333 0.867723 125.571C1.15706 123.257 1.4464 120.942 1.73573 118.627C3.47174 105.028 7.23305 92.2977 12.7304 80.435C15.3344 74.6483 18.5171 68.8616 21.9891 63.3643C27.7758 54.3949 34.4305 46.0042 42.2426 38.7708C66.836 14.7561 100.688 0 137.723 0C139.17 0 140.616 0 142.063 0C143.51 0 145.246 1.76553e-05 146.692 0.289352C154.504 0.868022 162.316 2.02535 169.55 3.76136C173.89 4.9187 178.23 6.07605 182.28 7.52272C185.174 8.39072 187.778 9.54804 190.671 10.7054C192.696 11.5734 194.722 12.4414 196.747 13.3094C197.036 13.5987 197.326 13.5987 197.904 13.8881C211.214 20.2534 223.366 28.9335 233.782 39.3495C235.229 40.7962 236.675 42.2429 238.122 43.6896C238.99 44.8469 240.147 45.7149 241.015 46.8723C242.751 48.6083 244.198 50.6336 245.645 52.3696C251.142 59.3136 255.771 66.8363 259.822 74.6483C264.451 83.907 268.213 93.7444 270.817 103.871C272.553 114.287 273.999 125.282 273.999 136.855Z" fill="url(#paint0_radial_815_539)"/>
<g opacity="0.4">
<path opacity="0.4" fill-rule="evenodd" clip-rule="evenodd" d="M34.4296 75.2273C31.8256 80.4353 29.8003 84.7753 29.2216 90.8514C28.9323 95.1914 28.0642 99.242 28.6429 103.582C29.2216 108.211 30.9576 111.973 32.1149 116.313C33.8509 121.521 36.4549 126.15 40.2163 129.912C46.871 136.277 56.1297 136.566 63.9417 132.226C67.9924 129.912 71.1751 127.018 75.5151 125.282C81.3018 122.678 86.7991 120.363 90.8498 115.155C95.1898 109.658 96.9258 103.003 97.5045 96.0594C97.7938 92.0087 98.3725 87.958 97.5045 83.9073C96.6365 80.7247 95.4792 77.2527 93.7432 74.3593C92.5858 72.0446 90.8498 69.7299 89.4031 67.7046C87.0885 64.8112 84.4845 63.6539 81.3018 62.2072C79.2765 61.3392 77.5404 60.1819 75.2258 60.1819C72.6218 60.1819 69.7284 60.1819 67.4137 60.4712C64.5204 60.7605 61.627 61.9179 58.7337 62.7859C56.1297 63.6539 53.2363 64.2326 50.6323 65.3899C48.0283 66.5473 45.4243 67.4153 42.8203 67.9939C39.3483 68.8619 36.4549 70.0193 33.8509 72.6233C33.2723 73.202 32.1149 74.0699 31.5362 74.6486C30.3789 76.0953 30.6682 77.542 34.4296 75.2273Z" fill="white"/>
<path opacity="0.4" fill-rule="evenodd" clip-rule="evenodd" d="M84.1963 133.962C85.0643 131.358 85.3536 126.729 87.9576 124.703C88.8256 123.835 90.2723 123.257 91.4297 122.967C93.455 122.389 94.9016 123.257 96.6376 124.125C100.978 126.439 100.11 133.094 97.795 136.855C95.7697 140.038 90.5617 142.642 87.0896 140.038C84.775 138.302 83.6176 134.541 84.1963 131.647C84.4856 131.647 84.4856 131.647 84.775 131.647L84.1963 133.962Z" fill="white"/>
<path opacity="0.4" fill-rule="evenodd" clip-rule="evenodd" d="M166.656 175.626C166.367 178.23 165.499 182.57 166.077 185.464C166.367 188.357 166.945 191.25 167.813 193.854C168.971 198.773 170.996 204.56 176.204 206.296C180.834 208.032 186.62 206.296 190.96 204.56C195.59 202.534 201.087 201.088 205.427 198.194C209.767 195.301 213.818 191.829 217 187.778C220.472 183.438 221.919 179.388 222.208 173.601C222.498 165.499 219.026 158.266 214.975 151.611C210.346 144.089 201.955 141.774 193.854 144.957C186.91 147.271 183.438 154.794 178.519 159.713C177.072 161.159 175.915 162.895 174.179 164.342C172.153 165.789 171.575 167.235 170.417 169.261C169.549 170.707 168.103 171.865 167.524 173.601C166.367 175.626 166.656 178.23 166.656 175.626Z" fill="white"/>
<path opacity="0.4" fill-rule="evenodd" clip-rule="evenodd" d="M229.44 170.997C230.019 170.418 233.202 163.185 236.095 163.474C237.542 163.763 238.699 165.21 239.278 166.367C240.435 168.103 241.303 169.839 239.856 171.865C238.12 174.469 230.598 176.494 230.308 171.575C230.019 171.575 230.019 171.575 229.73 171.575V170.997H229.44Z" fill="white"/>
<path opacity="0.4" fill-rule="evenodd" clip-rule="evenodd" d="M118.046 24.883C118.625 24.3044 121.807 17.071 124.701 17.3603C126.147 17.6497 127.305 19.0963 127.883 20.2537C129.041 21.9897 129.909 23.7257 128.462 25.751C126.726 28.355 119.203 30.3803 118.914 25.4617C118.625 25.4617 118.625 25.4617 118.335 25.4617V24.883H118.046Z" fill="white"/>
<path opacity="0.4" fill-rule="evenodd" clip-rule="evenodd" d="M194.144 128.175C194.722 127.597 197.905 120.363 200.798 120.653C202.245 120.942 203.402 122.389 203.981 123.546C205.138 125.282 206.006 127.018 204.56 129.043C202.824 131.647 195.301 133.673 195.012 128.754C194.722 128.754 194.722 128.754 194.433 128.754V128.175H194.144Z" fill="white"/>
<path opacity="0.4" fill-rule="evenodd" clip-rule="evenodd" d="M175.336 94.3234C173.6 98.6635 171.574 101.557 173.021 105.607C173.6 107.633 173.889 109.658 174.468 111.684C175.625 115.734 178.808 118.049 181.412 120.942C185.173 124.704 188.356 125.861 193.274 123.546C195.01 122.678 196.457 121.81 197.904 120.653C200.218 118.917 201.086 118.049 202.244 115.445C203.401 113.419 203.69 111.394 204.558 109.08C205.426 106.765 206.584 104.739 206.584 102.135C206.584 99.5314 206.873 96.6381 206.294 94.3234C205.426 91.1408 203.69 88.2474 201.954 85.6434C200.508 83.3287 198.772 81.014 196.457 78.9886C194.721 77.542 192.117 77.542 189.802 76.9634C185.752 76.0954 179.965 79.278 177.94 82.7501C175.046 87.3794 173.6 92.5874 175.336 94.3234Z" fill="#073E92"/>
<path opacity="0.4" fill-rule="evenodd" clip-rule="evenodd" d="M166.076 120.652C166.365 123.835 167.522 126.728 168.969 129.332C169.548 129.043 170.416 128.753 170.994 128.464C170.994 127.596 171.573 127.307 171.862 126.439C172.152 125.571 171.862 124.413 171.862 123.545C171.862 121.809 171.284 120.652 170.705 119.205C170.126 118.048 169.548 116.023 168.101 116.312C165.208 116.891 165.497 119.205 166.076 120.652Z" fill="white"/>
<path opacity="0.4" fill-rule="evenodd" clip-rule="evenodd" d="M28.9337 208.321C29.223 210.925 28.9337 212.95 30.3803 214.975C31.827 217.001 33.563 219.026 35.299 220.762C36.4563 221.919 38.4817 224.523 40.507 223.366C42.243 222.498 42.5324 219.315 42.5324 217.579C42.5324 216.133 41.9537 214.686 41.6644 213.529C41.375 212.082 40.7964 210.635 39.639 209.189C38.1923 206.874 34.7203 203.113 31.5376 204.849C30.6696 205.427 29.8017 205.717 29.223 206.874C28.6443 208.031 28.9337 208.899 28.9337 208.321Z" fill="white"/>
<path opacity="0.4" fill-rule="evenodd" clip-rule="evenodd" d="M97.7948 197.327C97.2161 196.169 96.9268 194.723 96.6374 193.276C96.3481 192.987 96.6374 192.408 96.9268 192.119C97.5054 190.672 97.7948 189.225 98.6628 187.779C100.109 185.464 101.556 182.86 103.871 181.124C104.739 180.545 105.607 180.545 106.764 180.256C107.632 179.966 108.789 179.677 109.657 179.388C111.393 179.098 113.419 179.388 115.155 179.967C117.18 180.545 119.495 181.124 120.942 181.992C122.678 182.86 123.546 184.596 124.703 186.042C126.728 189.225 127.596 193.565 124.703 196.748C123.835 197.616 122.967 198.195 122.099 198.773C121.231 199.352 120.074 200.22 118.916 200.799C117.759 201.377 116.023 201.667 114.576 201.956C111.972 202.535 109.079 202.535 106.185 201.667C103.292 201.377 101.267 199.352 97.7948 197.327Z" fill="white"/>
</g>
<path fill-rule="evenodd" clip-rule="evenodd" d="M197 12.5182C196.421 12.5182 196.132 12.5182 195.554 12.8093C194.107 13.1005 192.661 12.8093 191.214 12.5182C190.057 12.2271 189.479 11.6448 188.032 11.6448C186.297 11.3537 184.85 10.7715 183.115 10.4804C181.379 10.1892 179.932 9.607 178.197 9.02476C176.75 8.44252 176.172 8.73364 175.015 9.02476C173.858 9.31588 172.99 8.73365 171.833 8.44253C170.675 7.86029 169.229 7.86028 168.072 7.56916C164.601 6.98692 161.129 5.82245 157.658 4.94909C155.633 4.36685 153.608 4.36681 151.294 4.36681C149.558 4.36681 148.112 4.94909 146.376 4.94909C145.219 4.94909 144.351 4.65795 143.194 4.65795C142.037 4.36683 140.88 4.65795 139.722 4.65795C137.987 4.36683 137.119 4.07571 135.383 4.65795C133.937 4.94907 133.069 4.94906 131.623 5.24018C130.176 5.24018 128.44 5.82243 126.994 6.11355C124.391 6.6958 121.498 7.27802 118.894 7.27802C117.159 7.27802 114.844 6.69578 113.398 7.27802C112.53 7.56914 111.952 8.73366 111.084 9.3159C109.637 10.7715 108.191 11.936 107.034 13.3916C105.877 14.8472 104.72 16.5939 104.72 18.6317C104.72 20.3784 105.587 22.4163 106.455 23.8719C107.323 25.6187 107.612 27.0743 105.877 28.2388C103.852 29.6944 101.248 30.8588 98.9339 31.7321C97.1982 32.3144 95.7518 32.6056 94.5947 31.4411C94.0161 31.15 93.7269 30.2766 93.1483 29.6944C92.5697 29.4032 91.7019 29.6944 91.1233 29.9855C89.3877 30.5677 87.652 31.15 85.9163 31.4411C84.7592 31.7322 83.8913 32.3144 82.7342 32.3144C81.5771 32.6055 80.7092 31.7322 79.2628 32.0233C77.5271 32.3144 75.5022 33.1877 73.7665 33.1877C72.3201 33.1877 70.5844 32.6055 69.4273 32.0233C68.8487 31.7322 68.5594 31.15 67.6916 31.4411C67.113 31.4411 66.2452 32.3145 65.9559 32.8967C65.3774 33.4789 65.3774 34.3522 64.7988 34.9345C64.2202 35.8079 63.931 36.3901 63.3524 37.2635C62.4846 38.7191 61.6167 40.1747 60.7489 41.6303C60.1703 42.5037 59.5918 43.9592 58.7239 44.8326C58.4347 45.4148 57.5668 45.706 56.9882 45.9971C55.5418 46.8705 54.0954 48.035 52.649 48.9083C50.0455 50.9462 47.442 53.2751 44.8385 55.3129C42.8135 56.7686 39.9207 57.6419 37.6065 58.8064C36.1601 59.3887 34.7137 59.9709 33.2673 60.5532C32.6887 60.8443 31.8208 60.8443 31.5315 61.4265C30.953 62.0087 30.6637 62.591 30.3744 63.4644C29.2173 64.92 27.7709 66.6667 26.9031 68.4134C26.3245 69.5779 26.0352 70.4512 25.4567 71.6157C24.8781 73.0713 24.0103 74.527 23.721 76.2737C22.5639 79.476 22.5639 82.9694 21.1175 86.1718C20.5389 87.9185 19.3818 89.6652 18.5139 91.4119C17.0675 94.3231 16.7783 97.8166 16.489 101.019C16.1997 102.766 16.489 105.095 16.7783 106.841C17.0676 108.879 17.0675 110.917 17.0675 112.955C17.0675 114.993 15.6211 117.322 14.464 118.777C13.3069 120.233 11.2819 120.815 9.83552 122.271C8.6784 123.435 7.23202 124.6 6.65346 126.346C6.36418 126.929 6.65346 127.802 6.65346 128.675C6.36418 130.422 5.78561 131.878 5.78561 133.624C5.49633 135.662 5.49631 137.7 5.49631 140.029C5.49631 141.194 5.49631 142.067 5.49631 143.231C5.49631 144.396 5.78563 145.269 6.07491 146.143C6.07491 146.725 6.07491 147.598 6.07491 148.18C6.07491 149.054 6.65346 149.927 6.65346 150.509C7.23202 152.547 7.52128 154.294 7.81056 156.332C8.09984 158.079 8.96768 159.825 9.25697 161.572C10.1248 163.901 10.4141 166.23 10.9927 168.85C11.2819 170.597 11.2819 172.635 11.5712 174.381C11.8605 175.837 12.1498 177.293 12.1498 178.748C12.1498 181.077 11.5712 183.115 11.5712 185.444C11.5712 189.229 13.0176 193.013 13.8855 196.798C14.1748 197.962 14.464 198.836 14.7533 200C5.20707 181.368 0 160.116 0 137.7C0 110.335 7.81055 85.0072 21.4067 63.7554C27.1923 54.7307 33.8458 46.2882 41.6564 39.0102C66.2452 14.8471 100.091 0 137.119 0C140.012 0 143.194 1.77643e-05 146.087 0.291139C164.022 1.77643e-05 181.379 4.65794 197 12.5182Z" fill="url(#paint1_linear_815_539)"/>
</g>
<defs>
<filter id="filter0_d_815_539" x="0" y="0" width="281.999" height="282" filterUnits="userSpaceOnUse" color-interpolation-filters="sRGB">
<feFlood flood-opacity="0" result="BackgroundImageFix"/>
<feColorMatrix in="SourceAlpha" type="matrix" values="0 0 0 0 0 0 0 0 0 0 0 0 0 0 0 0 0 0 127 0" result="hardAlpha"/>
<feOffset dx="4" dy="4"/>
<feGaussianBlur stdDeviation="2"/>
<feComposite in2="hardAlpha" operator="out"/>
<feColorMatrix type="matrix" values="0 0 0 0 0 0 0 0 0 0 0 0 0 0 0 0 0 0 0.25 0"/>
<feBlend mode="normal" in2="BackgroundImageFix" result="effect1_dropShadow_815_539"/>
<feBlend mode="normal" in="SourceGraphic" in2="effect1_dropShadow_815_539" result="shape"/>
</filter>
<radialGradient id="paint0_radial_815_539" cx="0" cy="0" r="1" gradientUnits="userSpaceOnUse" gradientTransform="translate(52.0877 72.5944) scale(220.188 220.188)">
<stop stop-color="#7BD8A7"/>
<stop offset="0.166667" stop-color="#7BD1A4"/>
<stop offset="0.333333" stop-color="#67BF95"/>
<stop offset="0.5" stop-color="#5DB08F"/>
<stop offset="0.666667" stop-color="#3FA98D"/>
<stop offset="0.833333" stop-color="#70D7D0"/>
<stop offset="1" stop-color="#089FA9"/>
</radialGradient>
<linearGradient id="paint1_linear_815_539" x1="-0.0954626" y1="98.5499" x2="197.049" y2="98.5499" gradientUnits="userSpaceOnUse">
<stop offset="0.0111732" stop-color="#E1FEC6"/>
<stop offset="0.2325" stop-color="#D7FFB4"/>
<stop offset="0.3947" stop-color="#CDF7AC"/>
<stop offset="0.5382" stop-color="#B6F494"/>
<stop offset="0.6707" stop-color="#92F37B"/>
<stop offset="0.7958" stop-color="#82FB93"/>
<stop offset="0.9136" stop-color="#86F0C7"/>
<stop offset="1" stop-color="#007072"/>
</linearGradient>
</defs>
</svg>
