<svg width="282" height="282" viewBox="0 0 282 282" fill="none" xmlns="http://www.w3.org/2000/svg">
<g filter="url(#filter0_d_785_1069)">
<path fill-rule="evenodd" clip-rule="evenodd" d="M274 136.855C274 150.165 272.264 162.895 268.792 174.758C261.848 199.062 248.25 220.473 230.311 237.254C217.58 249.117 202.245 258.665 185.753 265.031C170.708 270.817 154.216 274 137.145 274C134.83 274 132.226 274 129.912 273.711C126.44 273.421 122.678 273.132 119.206 272.843C92.5876 269.371 68.5729 258.376 49.1875 241.884C41.9542 235.808 35.2995 228.864 29.2235 221.341C24.8835 215.844 20.8327 209.768 17.0714 203.402C16.2034 201.956 15.3354 200.509 14.7568 198.773C14.7568 198.773 14.7568 198.773 14.7568 198.484C13.8888 196.748 13.0207 195.301 12.4421 193.565C10.1274 188.357 8.10204 182.859 6.36603 177.362C5.2087 173.311 4.05138 169.261 3.18338 165.21C2.60471 162.317 2.02604 159.423 1.73671 156.241C0.868708 149.875 0.290039 143.51 0.290039 136.855C0.290039 133.094 0.579365 129.333 0.868699 125.571C1.15803 123.257 1.44738 120.942 1.73671 118.627C3.47272 105.028 7.23403 92.2977 12.7314 80.435C15.3354 74.6483 18.5181 68.8616 21.9901 63.3643C27.7768 54.3949 34.4315 46.0042 42.2435 38.7708C66.8369 14.7561 100.689 0 137.724 0C139.17 0 140.617 0 142.064 0C143.51 0 145.246 1.76553e-05 146.693 0.289352C154.505 0.868022 162.317 2.02535 169.551 3.76136C173.891 4.9187 178.231 6.07605 182.281 7.52272C185.175 8.39072 187.779 9.54804 190.672 10.7054C192.697 11.5734 194.723 12.4414 196.748 13.3094C197.037 13.5987 197.327 13.5987 197.905 13.8881C211.215 20.2534 223.367 28.9335 233.783 39.3495C235.229 40.7962 236.676 42.2429 238.123 43.6896C238.991 44.8469 240.148 45.7149 241.016 46.8723C242.752 48.6083 244.199 50.6336 245.645 52.3696C251.143 59.3136 255.772 66.8363 259.823 74.6483C264.452 83.907 268.214 93.7444 270.818 103.871C272.554 114.287 274 125.282 274 136.855Z" fill="url(#paint0_radial_785_1069)"/>
<path d="M172.152 101.267C172.152 100.11 176.01 100.785 177.939 101.267H186.619C190.091 101.267 185.172 104.16 182.279 105.607C180.832 106.089 177.36 107.054 175.046 107.054C172.152 107.054 172.152 102.714 172.152 101.267Z" fill="url(#paint1_linear_785_1069)"/>
<path d="M163.473 114.287C170.417 115.444 179.869 118.627 183.727 120.074H192.406C195.3 120.074 211.213 131.647 214.106 138.88C217 146.114 225.68 138.88 232.913 138.88C240.147 138.88 222.786 163.474 217 169.26C211.213 175.047 221.34 186.621 222.786 189.514C224.233 192.407 218.446 196.747 217 208.321C215.553 219.894 211.213 235.807 208.32 245.934C206.005 254.035 194.817 260.883 189.513 263.294C187.584 264.259 182.569 264.452 177.94 257.507C172.152 248.827 169.26 234.361 167.813 228.574C166.366 222.787 179.386 192.407 153.346 189.514C127.306 186.621 141.773 211.214 108.5 186.621C75.2266 162.027 112.84 114.287 115.733 109.947C118.627 105.607 125.86 109.947 138.88 105.607C149.296 102.135 159.616 104.16 163.473 105.607C160.58 108.018 156.529 113.129 163.473 114.287Z" fill="url(#paint2_linear_785_1069)"/>
<path d="M20.39 195.357C21.3378 192.553 16.8361 183.285 14.4668 179.001C16.4412 176.275 21.3378 171.524 25.1286 174.328C29.8673 177.833 44.0831 169.655 48.8217 170.823C53.5603 171.991 64.2221 173.159 65.4068 176.664C66.5914 180.169 66.5914 188.347 68.9607 191.852C70.8562 194.656 68.9607 202.366 67.7761 205.871C67.3812 207.04 65.8806 209.61 63.0375 210.544C59.4835 211.713 67.7761 211.713 74.884 214.049C81.9919 216.386 77.2533 228.069 79.6226 233.91C81.9919 239.752 95.023 250.266 97.3923 252.603C99.7616 254.939 97.3923 258.444 95.023 257.276C92.6537 256.108 66.5914 235.078 54.7449 232.742C45.2677 230.873 27.8928 212.492 20.39 203.535C19.9952 201.977 19.4423 198.161 20.39 195.357Z" fill="url(#paint3_linear_785_1069)"/>
<path d="M52.0812 81.0135V75.2268V67.9935C52.0812 65.1002 49.1879 65.1001 46.2945 60.7601C43.4012 56.4201 46.2945 57.8667 50.6346 56.4201C54.9746 54.9734 53.5279 59.3134 53.5279 60.7601C53.5279 62.2068 59.3146 65.1001 60.7613 65.1001C62.2079 65.1001 67.9946 65.1001 66.5479 67.9935C65.1013 70.8868 65.1013 72.3335 60.7613 78.1202C57.2892 82.7495 53.5279 81.978 52.0812 81.0135Z" fill="url(#paint4_linear_785_1069)"/>
<path d="M49.1871 70.8869C50.3444 69.7296 44.8471 65.5825 41.9538 63.6536C41.4715 66.0647 39.9284 71.4656 37.6137 73.7803C34.7204 76.6736 41.9538 76.6736 44.8471 78.1203C47.7404 79.567 47.7404 72.3336 49.1871 70.8869Z" fill="url(#paint5_linear_785_1069)"/>
<path d="M232.916 190.96C236.388 190.96 239.184 185.174 240.149 182.28C241.351 179.387 244.489 179.387 245.936 180.834C247.382 182.28 245.936 198.194 241.596 205.427C237.256 212.66 232.915 211.214 230.023 211.214C227.13 211.214 230.022 205.427 232.916 202.534C235.809 199.64 228.575 190.96 232.916 190.96Z" fill="url(#paint6_linear_785_1069)"/>
<path fill-rule="evenodd" clip-rule="evenodd" d="M192.405 107.052C192.405 111.682 189.511 113.803 188.065 114.286L196.745 118.627C196.263 117.18 196.745 114.286 202.532 114.286C206.148 114.286 209.403 120.072 212.658 125.859C215.913 131.646 219.168 137.433 222.785 137.433C230.019 137.433 247.379 127.307 251.719 122.967C255.191 119.495 250.272 113.805 247.379 111.393C246.414 114.287 241.881 117.469 231.465 107.052C218.445 94.0308 222.785 91.1394 231.465 96.9255C238.409 101.554 243.039 100.783 244.485 99.8194C246.414 98.8548 252.297 98.0829 260.399 102.713C268.5 107.343 268.596 139.362 267.632 154.794C270.525 143.22 275.155 116.601 270.525 102.713C256.059 59.3119 238.699 43.3992 222.785 28.9324C210.054 17.359 177.938 5.78609 163.472 1.44629C159.614 3.37519 151.319 8.67966 149.005 14.4663C146.286 21.2647 144.844 21.673 136.273 24.1002C135.725 24.2555 135.147 24.419 134.538 24.5931C127.547 26.5909 127.451 26.5195 125.206 24.8558C124.199 24.1096 122.76 23.043 120.072 21.6991C113.629 18.4771 104.792 22.431 97.1158 25.8658C94.452 27.0577 91.9279 28.1871 89.692 28.9324C81.0126 31.8258 73.7786 40.5058 73.7786 43.3992C73.7786 44.4241 73.0524 45.2676 72.3717 46.058C71.1309 47.499 70.0415 48.7641 73.7786 50.6325C77.5799 52.533 80.7563 51.9369 84.1288 51.3039C85.8907 50.9732 87.706 50.6325 89.692 50.6325C95.4793 50.6325 92.5847 54.9726 89.692 57.8659C86.7993 60.7592 81.0114 62.2059 73.7786 63.6526C69.9124 64.4259 69.3526 66.8527 68.5643 70.2701C67.878 73.2456 67.0184 76.9722 63.6519 81.012C59.4916 86.0045 58.0729 87.8064 57.7832 88.2456C55.3661 88.2586 51.5381 88.8501 54.9713 91.1394L54.979 91.1446C59.3165 94.0368 63.6485 96.9255 57.8646 96.9255C55.3352 96.9255 53.635 98.8599 52.0393 100.676C49.9841 103.014 48.1021 105.156 44.8446 102.713C40.5046 99.4582 37.7924 103.526 34.2663 108.816C33.091 110.579 31.8252 112.477 30.3785 114.286C26.6699 118.921 27.7148 121.775 28.9436 125.13C29.6322 127.011 30.3785 129.049 30.3785 131.646C30.3785 135.391 31.9291 135.258 34.2277 135.062C36.3695 134.88 39.1607 134.642 41.9519 137.433C47.3028 142.784 57.6018 135.765 62.5541 132.39C62.9573 132.115 63.3251 131.864 63.6519 131.646C67.992 128.753 75.2253 107.052 73.7786 102.713C72.552 99.0334 81.726 93.273 87.1907 89.8417C88.171 89.2262 89.0319 88.6856 89.692 88.2454C92.8198 86.1598 95.9476 88.5834 100.7 92.2658C102.542 93.693 104.628 95.3093 107.052 96.9255C112.374 100.473 112.258 100.758 111.704 102.115C111.355 102.971 110.832 104.254 111.392 107.052C112.115 110.669 112.839 109.222 114.105 106.69C115.371 104.159 117.179 100.543 120.072 99.8194C125.859 98.3728 122.966 92.5861 114.286 91.1394C105.606 89.6927 96.9255 81.012 101.266 81.012H120.072C127.306 81.012 131.645 85.3527 128.752 88.2454C125.858 91.1381 140.325 96.9255 144.665 96.9255C147.834 96.9255 145.604 92.2975 143.043 86.9841C142.097 85.0207 141.106 82.9637 140.325 81.012C138.308 75.9687 143.323 77.9582 147.526 79.6251C149.35 80.349 151.022 81.012 151.898 81.012C154.791 81.012 156.238 83.9054 151.898 88.2454C147.558 92.5854 163.471 96.9255 167.811 96.9255H185.171C192.405 96.9255 192.405 101.265 192.405 107.052ZM159.134 79.5664C162.51 80.0486 169.839 80.7237 172.154 79.5664C174.469 78.409 181.799 81.9775 185.174 83.9064C187.103 84.3886 190.672 84.7745 189.514 82.4598C188.068 79.5664 179.387 69.4397 173.601 70.8864C167.814 72.333 157.687 78.119 159.134 79.5664Z" fill="url(#paint7_linear_785_1069)"/>
<path fill-rule="evenodd" clip-rule="evenodd" d="M197.037 13.5984C196.458 13.5984 196.169 13.5984 195.59 13.8877C194.143 14.1771 192.697 13.8877 191.25 13.5984C190.093 13.309 189.514 12.7304 188.067 12.7304C186.331 12.441 184.885 11.8624 183.149 11.573C181.413 11.2837 179.966 10.705 178.23 10.1264C176.783 9.5477 176.205 9.83704 175.047 10.1264C173.89 10.4157 173.022 9.83705 171.865 9.54771C170.707 8.96904 169.261 8.96904 168.103 8.6797C164.631 8.10103 161.159 6.94371 157.687 6.07571C155.662 5.49704 153.636 5.497 151.322 5.497C149.586 5.497 148.139 6.07571 146.403 6.07571C145.246 6.07571 144.378 5.78635 143.22 5.78635C142.063 5.49702 140.906 5.78635 139.748 5.78635C138.012 5.49702 137.144 5.20768 135.408 5.78635C133.962 6.07569 133.094 6.07568 131.647 6.36501C130.2 6.36501 128.464 6.94369 127.018 7.23303C124.414 7.8117 121.52 8.39035 118.916 8.39035C117.18 8.39035 114.866 7.81168 113.419 8.39035C112.551 8.67968 111.972 9.83706 111.104 10.4157C109.658 11.8624 108.211 13.0197 107.054 14.4664C105.896 15.9131 104.739 17.649 104.739 19.6744C104.739 21.4104 105.607 23.4358 106.475 24.8825C107.343 26.6185 107.632 28.0651 105.896 29.2225C103.871 30.6691 101.267 31.8264 98.9523 32.6944C97.2163 33.2731 95.7696 33.5625 94.6123 32.4052C94.0336 32.1158 93.7443 31.2478 93.1656 30.6691C92.587 30.3798 91.719 30.6692 91.1403 30.9585C89.4043 31.5372 87.6683 32.1158 85.9323 32.4052C84.7749 32.6945 83.907 33.2731 82.7496 33.2731C81.5923 33.5625 80.7242 32.6945 79.2776 32.9838C77.5416 33.2731 75.5162 34.1411 73.7802 34.1411C72.3336 34.1411 70.5976 33.5625 69.4402 32.9838C68.8615 32.6945 68.5722 32.1158 67.7042 32.4052C67.1255 32.4052 66.2576 33.2732 65.9682 33.8518C65.3895 34.4305 65.3895 35.2985 64.8109 35.8771C64.2322 36.7451 63.9429 37.3239 63.3642 38.1919C62.4962 39.6385 61.6282 41.0852 60.7602 42.5319C60.1815 43.3999 59.6029 44.8465 58.7349 45.7145C58.4455 46.2932 57.5775 46.5826 56.9988 46.8719C55.5522 47.7399 54.1055 48.8973 52.6588 49.7653C50.0548 51.7906 47.4508 54.1052 44.8468 56.1306C42.8215 57.5772 39.9281 58.4453 37.6135 59.6026C36.1668 60.1813 34.7201 60.76 33.2734 61.3386C32.6948 61.628 31.8267 61.6279 31.5374 62.2066C30.9587 62.7853 30.6694 63.364 30.3801 64.232C29.2228 65.6787 27.7761 67.4146 26.9081 69.1506C26.3294 70.308 26.0401 71.176 25.4614 72.3333C24.8828 73.78 24.0147 75.2267 23.7254 76.9627C22.5681 80.1454 22.5681 83.6174 21.1214 86.8C20.5427 88.5361 19.3854 90.272 18.5174 92.008C17.0707 94.9014 16.7814 98.3735 16.492 101.556C16.2027 103.292 16.4921 105.607 16.7814 107.343C17.0707 109.368 17.0707 111.394 17.0707 113.419C17.0707 115.444 15.624 117.759 14.4667 119.206C13.3094 120.652 11.284 121.231 9.83735 122.678C8.68001 123.835 7.23337 124.992 6.6547 126.728C6.36536 127.307 6.6547 128.175 6.6547 129.043C6.36536 130.779 5.78668 132.226 5.78668 133.962C5.49735 135.987 5.49733 138.012 5.49733 140.327C5.49733 141.484 5.49733 142.352 5.49733 143.51C5.49733 144.667 5.7867 145.535 6.07604 146.403C6.07604 146.982 6.07604 147.85 6.07604 148.428C6.07604 149.296 6.6547 150.164 6.6547 150.743C7.23337 152.768 7.52268 154.504 7.81202 156.53C8.10135 158.266 8.96935 160.002 9.25869 161.738C10.1267 164.052 10.416 166.367 10.9947 168.971C11.284 170.707 11.284 172.732 11.5734 174.468C11.8627 175.915 12.152 177.362 12.152 178.808C12.152 181.123 11.5734 183.148 11.5734 185.463C11.5734 189.225 13.0201 192.986 13.8881 196.747C14.1774 197.905 14.4667 198.773 14.7561 199.93C5.20803 181.412 0 160.291 0 138.012C0 110.815 7.81201 85.6427 21.4107 64.5212C27.1974 55.5519 33.8521 47.1612 41.6641 39.9278C66.2575 15.913 100.11 1.15698 137.144 1.15698C140.038 1.15698 143.22 1.157 146.114 1.44633C164.053 1.157 181.413 5.78635 197.037 13.5984Z" fill="url(#paint8_linear_785_1069)"/>
</g>
<defs>
<filter id="filter0_d_785_1069" x="0" y="0" width="282" height="282" filterUnits="userSpaceOnUse" color-interpolation-filters="sRGB">
<feFlood flood-opacity="0" result="BackgroundImageFix"/>
<feColorMatrix in="SourceAlpha" type="matrix" values="0 0 0 0 0 0 0 0 0 0 0 0 0 0 0 0 0 0 127 0" result="hardAlpha"/>
<feOffset dx="4" dy="4"/>
<feGaussianBlur stdDeviation="2"/>
<feComposite in2="hardAlpha" operator="out"/>
<feColorMatrix type="matrix" values="0 0 0 0 0 0 0 0 0 0 0 0 0 0 0 0 0 0 0.25 0"/>
<feBlend mode="normal" in2="BackgroundImageFix" result="effect1_dropShadow_785_1069"/>
<feBlend mode="normal" in="SourceGraphic" in2="effect1_dropShadow_785_1069" result="shape"/>
</filter>
<radialGradient id="paint0_radial_785_1069" cx="0" cy="0" r="1" gradientUnits="userSpaceOnUse" gradientTransform="translate(52.0887 72.5944) scale(220.188 220.188)">
<stop stop-color="white"/>
<stop offset="0.166667" stop-color="#CFE2F0"/>
<stop offset="0.333333" stop-color="#C3D7EA"/>
<stop offset="0.5" stop-color="#C0DDF9"/>
<stop offset="0.666667" stop-color="#95BCEA"/>
<stop offset="0.833333" stop-color="#779BC6"/>
<stop offset="1" stop-color="#658BD4"/>
</radialGradient>
<linearGradient id="paint1_linear_785_1069" x1="179.983" y1="100.628" x2="179.983" y2="107.054" gradientUnits="userSpaceOnUse">
<stop stop-color="#FFD673"/>
<stop offset="1" stop-color="#FFCB53"/>
</linearGradient>
<linearGradient id="paint2_linear_785_1069" x1="164.744" y1="103.69" x2="211.848" y2="263.307" gradientUnits="userSpaceOnUse">
<stop stop-color="#D1FBC0" stop-opacity="0.95"/>
<stop offset="0.473521" stop-color="#FFDA8A"/>
<stop offset="0.994366" stop-color="#E9EAA4" stop-opacity="0.975759"/>
</linearGradient>
<linearGradient id="paint3_linear_785_1069" x1="56.4203" y1="170.708" x2="56.4203" y2="257.508" gradientUnits="userSpaceOnUse">
<stop stop-color="#C0F9A8"/>
<stop offset="1" stop-color="#FABC5E"/>
</linearGradient>
<linearGradient id="paint4_linear_785_1069" x1="55.954" y1="56.1289" x2="55.954" y2="81.7451" gradientUnits="userSpaceOnUse">
<stop stop-color="#85DF60"/>
<stop offset="1" stop-color="#AAB2A7" stop-opacity="0.6"/>
</linearGradient>
<linearGradient id="paint5_linear_785_1069" x1="43.1441" y1="63.6536" x2="43.1441" y2="78.3105" gradientUnits="userSpaceOnUse">
<stop stop-color="#A7F189"/>
<stop offset="1" stop-color="#4BFF00" stop-opacity="0.33"/>
</linearGradient>
<linearGradient id="paint6_linear_785_1069" x1="237.651" y1="179.883" x2="237.651" y2="211.332" gradientUnits="userSpaceOnUse">
<stop stop-color="#BDEFA8"/>
<stop offset="1" stop-color="#86BD6F"/>
</linearGradient>
<linearGradient id="paint7_linear_785_1069" x1="150.148" y1="1.44629" x2="150.148" y2="154.794" gradientUnits="userSpaceOnUse">
<stop offset="0.04122" stop-color="#ADEA93"/>
<stop offset="0.494355" stop-color="#FDDE98"/>
<stop offset="1" stop-color="#D2EDC7"/>
</linearGradient>
<linearGradient id="paint8_linear_785_1069" x1="-0.0954803" y1="99.1023" x2="197.085" y2="99.1023" gradientUnits="userSpaceOnUse">
<stop stop-color="#BDE3F9"/>
<stop offset="0.125" stop-color="#84C3F1"/>
<stop offset="0.25" stop-color="#7ADFFF"/>
<stop offset="0.375" stop-color="#91C7E5"/>
<stop offset="0.5" stop-color="#9CBFF2"/>
<stop offset="0.625" stop-color="#B5C7F7"/>
<stop offset="0.75" stop-color="#6894EB"/>
<stop offset="0.875" stop-color="#307FC9"/>
<stop offset="1" stop-color="#21AC37"/>
</linearGradient>
</defs>
</svg>
