<svg width="151" height="68" viewBox="0 0 151 68" fill="none" xmlns="http://www.w3.org/2000/svg">
<path d="M5 29.5C2.51472 29.5 0.5 31.5147 0.5 34C0.5 36.4853 2.51472 38.5 5 38.5L5 29.5ZM149.182 37.182C150.939 35.4246 150.939 32.5754 149.182 30.818L120.544 2.1802C118.787 0.422844 115.938 0.422844 114.18 2.1802C112.423 3.93756 112.423 6.7868 114.18 8.54416L139.636 34L114.18 59.4559C112.423 61.2132 112.423 64.0625 114.18 65.8198C115.938 67.5772 118.787 67.5772 120.544 65.8198L149.182 37.182ZM5 38.5L146 38.5L146 29.5L5 29.5L5 38.5Z" fill="url(#paint0_linear_785_1242)"/>
<defs>
<linearGradient id="paint0_linear_785_1242" x1="75.5002" y1="33.9999" x2="117.3" y2="108.518" gradientUnits="userSpaceOnUse">
<stop stop-color="#876AC5"/>
<stop offset="1" stop-color="#BA9CFB" stop-opacity="0.35"/>
</linearGradient>
</defs>
</svg>
