<svg width="282" height="282" viewBox="0 0 282 282" fill="none" xmlns="http://www.w3.org/2000/svg">
<g filter="url(#filter0_d_815_443)">
<path fill-rule="evenodd" clip-rule="evenodd" d="M274 168.314L272.896 171.949C272.896 172.228 272.896 172.228 272.62 172.508C269.861 182.014 266.274 190.961 261.859 199.349C254.684 213.049 245.027 225.63 233.99 236.255C221.021 248.557 205.569 258.343 188.461 264.773C173.009 270.645 156.453 274 139.069 274C136.586 274 134.103 274 131.619 273.72C128.032 273.441 124.445 273.161 120.858 272.602C97.4037 269.526 75.8811 260.579 57.6696 247.159C56.014 245.761 54.3585 244.643 52.7029 243.245C56.0141 240.449 62.6363 240.169 62.6363 240.169L53.2547 232.62L29.8005 219.759C25.3856 213.888 21.2467 207.737 17.6596 201.306C16.8318 199.628 16.004 198.23 15.1762 196.553C15.1762 196.553 15.1762 196.553 15.1762 196.273C14.3484 194.596 13.5206 192.918 12.6929 191.241C10.2095 185.928 8.2779 180.336 6.34638 174.465C4.96673 170.271 3.86305 166.077 3.03526 161.883C2.4834 158.808 1.93152 155.732 1.37966 152.657C0.551862 146.226 0 139.516 0 132.806C0 131.128 0 129.73 0 128.053C0 125.816 0.275948 123.3 0.275948 121.063C0.551879 118.826 0.82776 116.589 0.82776 114.353C0.82776 114.073 0.82776 114.073 0.82776 113.794C1.37962 110.718 1.65557 107.642 2.48336 104.567C3.31116 100.093 4.41492 95.8997 5.79457 91.7058C7.45016 85.8344 9.65758 79.9629 12.141 74.6506C14.6243 69.3384 17.3836 64.0261 20.4189 58.9935C29.8006 53.9608 35.8711 51.1649 35.8711 51.1649C35.8711 51.1649 197.843 18.7322 200.326 15.9363C202.809 13.1404 214.95 14.8179 214.95 14.8179C222.676 19.8505 229.575 25.722 236.197 32.1526C237.853 33.5506 239.232 35.2281 240.612 36.6261C241.44 37.7445 242.543 38.8629 243.371 39.9812C245.027 41.9384 246.407 43.6159 248.062 45.5731C253.581 52.8425 258.547 60.3914 262.686 68.4996C264.342 71.5751 265.722 74.9302 267.101 78.0057C279.518 127.494 264.066 169.712 264.066 169.712C268.205 168.873 271.516 168.594 274 168.314Z" fill="url(#paint0_radial_815_443)"/>
<path fill-rule="evenodd" clip-rule="evenodd" d="M270.138 133.086C270.138 138.119 269.862 143.151 269.31 147.904C268.482 155.453 267.103 162.723 265.171 169.713C265.171 169.992 265.171 169.992 265.171 170.272C262.688 179.219 259.101 187.606 254.962 195.435C248.063 208.296 239.234 220.039 228.748 230.104C216.607 241.568 201.983 250.794 185.979 256.945C171.63 262.537 155.902 265.613 139.622 265.613C137.415 265.613 134.932 265.613 132.724 265.333C129.413 265.053 125.826 264.774 122.515 264.494C100.44 261.698 80.2971 253.031 63.1894 240.449C60.706 238.492 58.2226 236.535 55.7392 234.578C55.1874 234.019 54.3596 233.46 53.8078 232.9C47.7373 227.309 41.9427 221.437 36.9759 214.727C32.837 209.415 28.9739 203.543 25.3868 197.392C24.559 195.994 23.7312 194.596 23.1794 192.919C23.1794 192.919 23.1794 192.919 23.1794 192.639C22.3516 190.961 21.5238 189.564 20.972 187.886C18.7645 182.853 16.833 177.541 15.1774 172.229C14.0737 168.315 12.9699 164.4 12.1421 160.486C11.5903 157.69 11.0384 154.894 10.7625 151.819C9.93467 145.668 9.38281 139.517 9.38281 133.086C9.38281 131.688 9.38281 130.01 9.38281 128.612C9.38281 126.376 9.65876 124.139 9.65876 122.182C9.93469 119.945 9.93464 117.988 10.2106 115.751C10.2106 115.472 10.2106 115.472 10.2106 115.192C10.4865 112.396 11.0384 109.321 11.5902 106.525C12.418 102.331 13.5218 98.4165 14.6255 94.2226C16.2811 88.6308 18.2126 83.3185 20.696 78.0062C23.1794 72.4144 26.2146 66.8225 29.5258 61.5103C31.7332 57.8756 34.2166 54.2409 36.9759 50.8858C40.563 46.1328 44.702 41.6592 48.8409 37.4653C72.2951 14.2592 104.579 0 139.898 0C141.278 0 142.658 0 144.037 0C145.417 0 147.072 1.70608e-05 148.452 0.279609C152.591 0.559202 156.454 1.11839 160.593 1.67757C160.593 1.67757 160.593 1.67757 160.869 1.67757C164.18 2.23676 167.491 2.79593 170.527 3.63471C174.666 4.75308 178.805 5.87145 182.668 7.26942C185.427 8.10819 187.91 9.22658 190.67 10.3449C192.601 11.1837 194.533 12.0225 196.464 12.8613C196.74 13.1409 197.016 13.1408 197.568 13.4204C210.261 19.5715 221.85 27.9592 231.783 38.0246C233.163 39.4225 234.543 40.8205 235.922 42.2184C236.75 43.3368 237.854 44.1756 238.682 45.294C240.061 46.9715 241.717 48.9287 243.097 50.6062C248.339 57.3164 252.754 64.5859 256.617 72.1348C261.032 81.0818 264.619 90.5879 267.103 100.374C268.758 106.525 269.586 112.955 270.414 119.666C269.862 124.419 270.138 128.612 270.138 133.086Z" fill="url(#paint1_radial_815_443)"/>
<path fill-rule="evenodd" clip-rule="evenodd" d="M75.6053 80.2428C75.6053 80.2428 72.0182 88.0714 75.0534 95.9C77.8127 103.729 86.0906 98.6959 95.7482 95.9C105.406 93.1041 115.339 83.0387 121.686 76.6081C128.032 70.1774 134.103 61.5101 133.551 53.1223C132.999 44.7346 124.169 39.1427 124.169 39.1427C124.169 39.1427 127.48 34.9488 124.721 51.7244C121.962 68.2203 118.375 74.3713 114.788 76.8877C111.2 79.404 100.715 85.8346 94.9205 89.4693C89.1259 93.104 82.5036 96.7388 78.6406 95.9C74.5016 94.502 72.57 85.8347 75.6053 80.2428Z" fill="url(#paint2_radial_815_443)"/>
<path fill-rule="evenodd" clip-rule="evenodd" d="M93.2647 74.3712C93.2647 74.3712 88.298 78.8447 89.6777 82.4794C91.0573 86.1141 100.439 83.8773 106.509 76.0488C112.58 68.2202 107.889 62.0692 107.889 62.0692C107.889 62.0692 105.682 74.9304 99.8871 77.1671C94.0925 79.4039 92.161 78.5651 92.161 78.5651C92.161 78.5651 90.7814 77.4467 93.2647 74.3712Z" fill="url(#paint3_radial_815_443)"/>
<path fill-rule="evenodd" clip-rule="evenodd" d="M78.3643 79.9632C78.3643 79.9632 83.0551 74.3713 88.5737 69.3387C94.0924 64.0264 103.474 62.0693 103.474 62.0693C103.474 62.0693 97.9554 58.9937 90.7812 63.1876C83.8829 67.6611 78.3643 79.9632 78.3643 79.9632Z" fill="url(#paint4_radial_815_443)"/>
<path fill-rule="evenodd" clip-rule="evenodd" d="M58.4971 80.2424C58.4971 80.2424 69.8103 67.6608 83.3309 62.3485C96.8515 57.0363 101.542 55.3587 107.613 50.326C113.683 45.2933 120.306 41.3791 120.306 41.3791C120.306 41.3791 107.061 41.9383 86.918 55.0791C66.7751 67.6607 58.4971 76.0485 58.4971 80.2424Z" fill="url(#paint5_radial_815_443)"/>
<path fill-rule="evenodd" clip-rule="evenodd" d="M31.1816 77.7264C31.1816 77.7264 50.4968 58.1549 65.673 50.3263C80.8493 42.4977 91.0587 37.7447 104.579 34.11C118.1 30.7549 139.071 24.6038 139.071 24.6038L142.934 22.6467C142.934 22.6467 99.6126 23.4854 71.4676 40.8202C43.3226 58.1549 31.1816 77.7264 31.1816 77.7264Z" fill="url(#paint6_radial_815_443)"/>
<path fill-rule="evenodd" clip-rule="evenodd" d="M54.6364 100.374C54.6364 100.374 57.9476 127.494 62.6384 128.613C67.3293 129.731 83.8852 129.731 108.719 116.87C133.553 104.008 138.52 107.084 152.316 92.8248C166.113 78.5656 171.907 62.3492 176.046 51.7247C180.461 41.1002 181.565 28.7981 180.185 25.1634C180.185 25.1634 184.876 27.9594 184.876 38.5839C184.876 49.2084 181.841 67.1022 177.426 77.1676C173.011 87.5125 161.422 103.729 147.625 111.557C133.829 119.386 105.96 134.764 78.9184 134.484C51.6012 134.204 56.0161 132.247 53.2568 126.655C50.2215 121.064 54.6364 100.374 54.6364 100.374Z" fill="url(#paint7_radial_815_443)"/>
<path fill-rule="evenodd" clip-rule="evenodd" d="M52.9805 243.525C52.9805 243.525 83.6089 248.837 97.4054 248.557C118.376 247.998 142.658 250.514 161.421 251.074C180.185 251.633 213.021 235.976 219.091 233.18C225.162 230.384 239.51 221.996 252.203 207.737C264.896 193.478 269.862 170.271 269.862 170.271H264.62C264.62 170.271 262.688 180.337 254.962 191.52C250.271 198.231 243.649 204.102 234.543 212.21C221.299 223.674 204.191 232.621 186.807 237.094C163.629 242.965 143.21 241.288 128.862 243.525C108.443 246.6 62.6381 239.331 62.6381 239.331L52.9805 243.525Z" fill="url(#paint8_radial_815_443)"/>
<path fill-rule="evenodd" clip-rule="evenodd" d="M21.5258 82.4792C21.5258 82.4792 0.0031774 108.761 10.4886 124.977C20.9739 141.194 25.6648 164.679 28.7 169.992C31.7353 175.304 66.5026 183.692 73.6768 182.014C80.851 180.337 98.2347 175.863 109.548 180.057C109.548 180.057 129.691 178.379 135.21 178.379C141.004 178.379 151.489 173.347 153.973 172.228C156.456 171.11 169.977 166.637 176.875 163.841C183.773 161.045 195.087 152.098 199.501 148.743C203.916 145.108 215.781 130.849 218.265 126.375C220.472 121.902 227.371 96.1793 229.026 83.8772C230.682 71.5751 225.715 48.0895 221.576 39.9813C217.437 31.8731 205.296 24.3241 205.296 24.3241L206.124 20.6893L215.781 14.8179C215.781 14.8179 232.613 36.9057 233.993 56.1976C234.821 67.3813 237.58 91.4262 234.545 101.771C232.337 110.159 224.335 134.204 217.161 142.871C210.263 151.539 189.292 173.626 178.255 178.1C167.218 182.294 134.106 188.165 114.791 188.445C100.442 188.724 68.986 186.208 53.5338 185.649C38.0817 185.09 27.0445 175.304 20.974 170.271C14.9035 165.239 16.835 151.818 10.7645 140.914C4.41809 130.289 1.10692 116.03 2.48658 108.202C3.86623 100.932 21.5258 82.4792 21.5258 82.4792Z" fill="url(#paint9_radial_815_443)"/>
<path opacity="0.5" fill-rule="evenodd" clip-rule="evenodd" d="M12.1436 123.3C12.1436 123.3 17.1104 134.204 19.5937 144.27C22.353 154.335 21.8012 171.111 33.1143 173.907C44.4275 176.423 60.1556 183.972 65.9501 182.015C72.0206 180.058 94.0952 176.143 106.512 178.66C118.929 181.176 141.279 179.778 149.005 175.864C156.732 171.949 173.839 161.604 181.841 158.529C189.843 155.453 200.88 146.506 210.538 136.721C220.196 126.935 219.92 115.751 222.403 110.159C224.887 104.568 229.577 82.4798 229.026 72.4145C228.474 62.3492 222.403 43.6165 222.403 43.6165L216.885 37.7451C216.885 37.7451 223.783 63.4676 220.748 81.9207C217.712 100.094 220.472 107.643 208.055 124.978C195.638 142.592 177.978 156.292 158.387 162.723C138.796 169.433 126.103 168.594 105.96 170.551C86.9209 172.229 63.1908 171.111 53.8092 168.594C45.2553 166.358 33.9421 160.766 25.3882 146.786C16.2825 132.247 12.1436 123.3 12.1436 123.3Z" fill="#908E98"/>
<path opacity="0.4" fill-rule="evenodd" clip-rule="evenodd" d="M55.462 94.7812C55.462 94.7812 57.3935 124.138 60.9806 126.655C64.5678 129.171 72.5697 130.289 79.7439 127.773C87.1941 125.257 112.028 116.869 116.443 114.353C120.858 111.836 147.071 98.4159 152.314 94.222C157.557 90.3077 164.455 76.0485 166.938 73.2526C169.422 70.4567 175.768 52.8423 177.424 46.1321C179.355 39.4219 180.459 31.5934 180.459 31.5934C180.459 31.5934 181.011 27.9586 177.975 26.5607C174.94 25.4423 174.388 26.5607 174.388 26.5607C174.388 26.5607 173.837 31.0341 171.077 43.6158C168.318 56.1975 131.343 99.2547 112.58 110.718C93.8164 121.902 76.1568 122.461 69.8104 121.622C63.188 120.783 55.1861 99.8138 55.462 94.7812Z" fill="#908E98"/>
<path opacity="0.4" fill-rule="evenodd" clip-rule="evenodd" d="M54.636 100.373C54.636 100.373 55.4638 82.2 60.1546 76.049C64.8454 69.898 80.5735 57.3164 89.6793 52.5633C99.0609 47.8102 112.306 41.1 116.996 39.9816C121.687 38.8633 124.998 39.9816 124.998 39.9816C124.998 39.9816 119.48 36.906 106.511 40.2612C93.5423 43.6163 78.918 55.6388 71.7437 59.5531C64.5695 63.1878 53.8082 72.4143 51.0489 77.1674C48.5655 81.3613 54.636 100.373 54.636 100.373Z" fill="#908E98"/>
<path opacity="0.4" fill-rule="evenodd" clip-rule="evenodd" d="M22.626 81.0816L62.636 45.5734L87.4698 34.1101C87.4698 34.1101 112.028 25.7223 123.341 22.9264C134.654 20.1305 159.764 19.5713 159.764 19.5713L173.008 20.9692C173.008 20.9692 150.106 8.38757 115.891 17.6141C81.9512 26.8407 59.3249 38.5836 49.3913 48.0897C39.7337 57.3162 24.5575 76.3285 22.626 81.0816Z" fill="#908E98"/>
<path fill-rule="evenodd" clip-rule="evenodd" d="M44.9775 228.147C44.9775 228.147 49.9443 241.008 52.9795 243.524C52.9795 243.524 59.6019 243.804 62.9131 240.449L53.5314 232.9L44.9775 228.147Z" fill="url(#paint10_radial_815_443)"/>
<path fill-rule="evenodd" clip-rule="evenodd" d="M270.412 146.226C270.412 146.226 273.723 160.765 273.999 168.594C273.999 168.594 268.757 171.949 264.894 170.271C264.894 170.271 269.584 152.377 270.412 146.226Z" fill="url(#paint11_radial_815_443)"/>
<path fill-rule="evenodd" clip-rule="evenodd" d="M181.84 7.82791C181.84 7.82791 209.157 10.6239 215.503 15.0973C215.503 15.0973 211.089 20.13 205.846 20.9687C206.122 20.6891 184.047 8.3871 181.84 7.82791Z" fill="#C90EEA"/>
<path fill-rule="evenodd" clip-rule="evenodd" d="M20.6924 59.2731L32.0056 57.5955L36.4204 51.7241C36.4204 51.4445 28.4185 55.0792 20.6924 59.2731Z" fill="#F078C6"/>
<path opacity="0.5" fill-rule="evenodd" clip-rule="evenodd" d="M29.8037 220.038C29.8037 220.038 82.7825 235.696 123.896 236.534C165.286 237.373 180.738 228.147 198.674 220.877C216.609 213.887 245.858 197.951 254.688 185.928C263.517 174.185 270.416 146.226 270.416 146.226C270.416 146.226 261.862 188.165 254.688 195.434C247.238 202.704 214.678 225.351 208.883 228.147C203.089 230.943 187.636 242.965 159.215 239.61C159.215 239.61 140.176 242.406 133.278 241.847C126.38 241.287 115.618 248.277 96.0272 241.847C96.0272 241.847 68.71 240.449 62.9155 239.051C56.845 237.932 29.8037 220.038 29.8037 220.038Z" fill="#7F72C3"/>
<path fill-rule="evenodd" clip-rule="evenodd" d="M42.7676 163.561C42.7676 163.561 86.6406 171.39 118.373 168.035C150.105 164.68 167.213 156.572 176.318 150.7C185.424 144.829 203.084 125.537 209.706 116.59C216.328 107.923 219.64 85.8347 219.64 85.8347C219.64 85.8347 220.743 107.084 215.501 116.59C209.982 125.816 191.495 143.431 183.768 148.463C176.042 153.496 154.244 165.798 142.931 167.755C131.617 169.712 112.854 175.584 99.0575 173.067C85.8128 170.831 52.7011 171.39 42.7676 163.561Z" fill="#A253CB"/>
<path fill-rule="evenodd" clip-rule="evenodd" d="M103.473 234.857C103.473 234.857 149.001 231.782 164.729 228.147C180.457 224.512 201.152 216.125 215.501 210.533C229.849 205.221 240.886 194.596 248.888 188.725C256.89 182.853 267.1 158.249 267.1 158.249C267.1 158.249 260.477 182.574 250.544 190.402C240.61 198.231 214.949 212.77 186.252 225.91C153.968 240.449 129.134 236.255 103.473 234.857Z" fill="#B09FC4"/>
<path fill-rule="evenodd" clip-rule="evenodd" d="M122.515 103.169C122.515 103.169 153.971 76.8875 167.216 51.4446C167.491 51.4446 130.517 89.7487 122.515 103.169Z" fill="#8D788C"/>
<path fill-rule="evenodd" clip-rule="evenodd" d="M59.327 182.853C56.0159 182.014 52.9806 180.337 49.6695 179.498C47.7379 178.939 46.0823 178.659 44.1508 178.1C42.2193 177.541 40.2878 177.261 38.3563 177.261C34.4932 176.982 30.6301 176.143 28.1468 173.067C25.9393 170.271 24.5597 167.196 23.7319 163.561C22.3523 158.808 21.2485 154.055 19.8688 149.582C18.4892 145.108 16.8336 141.473 14.3502 137.559C13.5224 136.161 12.6946 134.484 11.5909 133.086C10.7631 131.688 9.38351 130.569 8.55571 128.892C6.6242 124.977 6.07227 120.784 6.07227 116.31C6.07227 114.073 6.6242 111.837 7.17606 109.6C7.72792 106.804 8.55571 104.288 9.93537 101.771C11.315 99.5345 12.4187 97.0182 13.7984 94.7814C16.8336 89.4692 19.8689 84.1569 23.456 79.4039C28.1468 73.5324 33.3895 67.6611 38.9081 62.3488C41.9434 59.2733 45.5304 56.4774 49.1176 53.6814C52.1528 51.4447 54.9121 48.9284 57.6714 46.6916C62.6382 42.7773 68.4328 40.261 74.2273 37.465C81.1256 34.1099 88.0239 30.7549 95.1981 28.2385C103.752 25.163 112.306 22.6466 121.136 20.6895C131.345 18.7323 141.831 18.1732 152.04 18.1732C157.559 18.1732 163.629 17.614 169.148 19.5711C172.183 20.6895 175.77 22.0875 178.253 23.765C178.805 24.3242 179.081 24.3242 179.633 24.8834C179.909 25.163 179.909 25.7222 180.185 26.0018C180.737 27.1202 181.013 28.5181 181.013 29.6365C181.013 30.7549 180.461 31.8733 180.461 32.9916C180.461 34.6692 179.909 36.3467 179.909 38.0243C179.909 39.9814 179.357 41.3793 179.081 43.3365C178.529 46.6916 177.977 50.0467 176.598 53.4018C174.666 58.1549 173.287 63.1876 171.355 67.661C170.803 69.059 169.699 70.1774 168.872 71.5753C168.32 72.9733 167.768 73.812 166.94 75.21C165.561 77.4467 164.457 79.9631 162.801 81.9203C159.49 86.3937 156.455 91.1467 152.04 94.7814C146.797 98.9753 141.279 102.61 135.484 105.686C131.621 107.643 127.758 109.32 123.895 111.277C120.584 112.955 116.997 114.912 113.41 116.59C104.58 120.784 94.9222 123.859 85.5405 126.935C82.7812 127.773 80.2978 128.612 77.5385 129.171C75.0551 129.451 72.0198 130.29 69.5364 130.29C66.7771 130.29 64.0178 129.451 61.2585 128.612C56.8436 127.214 56.2918 122.182 56.0158 117.988C55.7399 114.912 55.464 111.837 54.9121 109.041C54.3603 106.524 54.3603 104.288 53.8084 101.771C53.2566 99.2549 52.9806 96.7386 52.9806 94.2223C52.9806 90.8672 54.0843 88.0713 54.9121 84.7162C55.464 82.759 55.464 80.5223 56.5677 78.5651C57.6715 75.7692 59.8789 73.2529 62.3623 71.2957C64.5698 69.3386 67.0531 67.1019 69.2606 65.1447C70.6402 63.7468 72.2958 62.908 73.6754 61.7896C76.1588 59.8324 78.9181 58.1549 81.9534 56.757C84.1608 55.6386 85.8164 53.6814 88.0239 52.2835C90.2313 50.8855 92.7147 49.4875 94.9222 48.0896C96.8537 46.9712 99.0611 46.412 101.269 45.5733C102.924 45.0141 104.58 43.8957 106.235 43.3365C107.891 42.7773 109.546 42.4977 111.202 41.9385C112.858 41.3793 114.237 40.8201 115.893 40.261C117.824 39.7018 119.756 39.1426 121.412 39.1426C124.999 39.1426 126.654 40.8201 127.758 44.4548C129.138 49.2079 127.482 53.4018 125.826 57.8753C124.447 61.51 122.791 64.8651 121.688 68.4998C120.032 73.2529 115.617 75.7692 112.03 79.1243C108.167 82.4795 103.476 85.8345 99.0611 87.7916C97.6815 88.3508 96.0259 88.91 94.6462 89.4692C93.5425 90.0284 92.1629 90.8672 91.0591 91.4264C90.2313 91.9856 89.6794 92.5448 88.8516 93.104C88.2998 93.6631 87.472 93.6631 86.6442 94.2223C84.9886 95.3407 83.3331 96.4591 81.4015 97.2978C79.746 98.1366 76.1588 98.6957 75.0551 96.459C74.5032 95.3406 74.5033 93.9427 74.2273 92.8243C73.9514 91.4264 73.9514 90.0284 73.9514 88.6305C73.9514 87.2325 74.2273 86.1142 74.5033 84.7162C74.7792 83.3182 75.3311 82.1998 75.8829 80.8018C77.2626 76.8875 79.7459 74.0916 81.9534 71.0161C83.333 69.059 84.7127 67.1019 86.3683 65.1447C88.8517 62.3488 92.4387 61.2304 95.7499 60.112C98.7852 59.2732 103.476 58.4345 106.511 60.112C108.995 61.7896 107.339 65.1447 106.511 67.1018C105.959 68.2202 105.684 69.3386 105.132 70.457C104.856 71.2957 104.856 72.4141 104.304 73.2529C103.2 74.9304 101.269 76.0488 99.613 77.4468C99.0612 78.006 97.9574 78.8447 97.1296 79.1243C96.0258 79.4039 94.9222 79.4039 93.8185 79.6835C93.2666 79.6835 92.9907 80.5223 92.4388 80.2427C91.8869 79.9631 91.8869 79.4039 91.8869 78.8447C91.8869 78.2856 92.1629 77.7263 92.4388 77.1672C92.4388 77.1672 92.4388 76.8875 92.4388 76.6079C92.9907 74.9304 94.9221 72.9733 95.7499 71.5753C97.1296 72.1345 96.3018 72.9732 96.0259 73.812C95.7499 74.3712 95.7499 74.9304 95.7499 75.4896C95.7499 76.0488 94.9222 76.8876 95.4741 77.4468C95.75 77.7264 97.1296 77.1672 97.4055 77.1672C100.717 76.0488 102.648 72.4141 103.752 69.3386C104.304 67.1019 104.304 63.7467 102.096 62.6283C100.441 62.0691 98.2334 62.3488 96.5778 62.3488C90.2313 62.3488 86.3683 69.3385 82.7812 73.812C80.5738 76.8875 78.6422 80.2427 77.2626 83.8774C76.4348 86.3937 75.8829 88.9101 75.331 91.4264C74.7792 93.3835 74.2273 96.1795 76.9866 95.8999C78.6422 95.6203 80.2978 94.7815 81.9534 94.2223C83.333 93.6631 84.4368 93.3835 85.8165 92.5447C87.748 91.4264 90.2313 91.1468 92.1628 90.0284C93.8184 89.1896 95.474 88.3509 97.1296 87.5121C101.269 85.2754 105.683 81.0815 108.443 77.4468C110.374 74.9304 113.41 72.9733 115.617 70.7366C118.1 68.4998 119.204 65.4243 120.86 62.6283C122.515 59.5528 123.343 56.7569 124.171 53.6814C124.723 50.8855 126.654 47.5303 125.551 44.4548C124.723 41.3793 120.584 41.3793 118.1 41.6589C115.893 41.9385 113.685 42.4977 111.478 43.0569C107.615 44.4548 104.028 46.1324 100.441 47.81C94.6462 50.3263 89.6795 54.2406 84.4368 57.5957C81.6775 59.2733 78.6423 60.6712 76.1589 62.6283C74.2273 64.0263 72.5718 65.9835 70.6402 67.3814C69.2606 68.4998 68.4327 69.8978 66.7771 70.7366C64.8456 72.1345 63.1901 73.5324 61.8104 75.21C60.7067 76.6079 59.327 78.5651 58.7752 80.2427C58.2233 81.6407 58.7752 83.0386 58.7752 84.4366C58.7752 86.3937 58.2233 88.3509 58.2233 90.308C58.2233 92.2652 58.2233 94.5019 58.2233 96.459C58.2233 100.653 57.6714 104.567 57.6714 108.482C57.6714 110.998 58.2233 113.794 58.7752 116.03C59.0511 117.988 59.8789 119.665 60.1548 121.622C60.1548 123.02 60.4307 124.698 61.5345 125.537C62.0863 125.816 62.9142 126.096 63.466 126.375C64.0179 126.655 64.5698 126.935 65.1216 126.935C65.3975 126.935 65.6735 127.214 66.2253 127.214C66.5013 127.214 66.7771 127.773 66.7771 127.773C67.329 128.053 68.4328 127.773 68.9846 127.773C70.6402 127.494 72.2958 127.214 73.6754 126.655C77.8144 126.096 81.6775 126.096 85.5405 124.698C89.9554 123.02 94.0944 120.504 98.2334 118.826C104.58 116.03 111.754 114.073 117.824 110.718C120.584 109.32 123.619 107.643 126.378 106.524C133.277 103.449 140.451 100.932 146.245 96.1794C148.453 94.5018 150.384 92.2652 152.316 90.308C153.42 89.1897 154.523 88.0712 155.627 86.6733C158.662 82.759 161.422 78.5651 163.629 74.3712C164.733 72.6937 165.285 70.4569 166.112 68.7794C167.768 65.9835 169.424 63.4672 171.079 60.6712C172.459 57.8753 173.287 55.0794 174.114 52.0039C174.666 50.0467 175.218 48.6488 174.942 46.6916C174.942 42.7773 175.218 39.4222 176.874 35.7875C177.702 33.8304 179.081 31.0345 178.253 28.7977C177.977 27.6794 176.322 27.3998 175.494 27.1202C173.287 26.2814 171.079 25.7222 168.872 24.8834C166.94 24.0446 165.561 22.9263 163.353 22.6467C162.525 22.3671 161.697 22.3671 160.87 22.3671C158.662 22.3671 157.007 24.0446 154.799 23.765C154.247 23.765 153.696 23.4854 152.868 23.4854C151.764 23.2058 150.66 23.4854 149.557 23.4854C147.073 23.4854 144.866 22.9263 142.382 22.9263C139.623 22.9263 136.864 23.2058 134.104 23.4854C131.345 23.765 128.862 23.4854 126.102 23.4854C124.447 23.4854 123.343 24.3242 121.963 24.8834C120.584 25.4426 119.204 25.7222 117.824 26.2813C116.445 26.8405 115.341 27.1202 113.961 27.3998C112.03 27.3998 110.374 27.1201 108.443 27.6793C106.235 28.2385 104.028 29.0773 101.82 29.9161C96.0259 32.4324 90.2313 35.7875 84.1609 37.7446C81.1256 38.5834 78.0903 39.1426 75.331 40.261C74.2273 40.8201 73.3995 41.3794 72.2958 42.2181C70.3642 43.6161 68.4328 44.7344 66.5013 45.8528C62.0864 48.6487 57.9474 51.7243 53.5325 55.0794C48.5657 58.7141 43.8749 62.6284 39.7359 67.3814C32.5617 75.7692 25.1115 84.1569 18.7651 93.3835C15.7299 97.5774 12.4187 102.33 10.4872 107.084V107.363C9.38346 110.159 8.83159 112.955 9.10753 116.03C9.10753 116.03 9.10753 116.03 9.10753 116.31C9.38346 118.826 10.4872 121.622 11.315 123.859C12.4188 126.096 12.9705 128.333 14.3502 130.569C15.7299 132.806 17.6614 134.763 18.4892 137.279C19.5929 140.355 20.6967 143.71 21.8004 147.065C22.9041 150.98 24.0078 155.173 24.5597 159.367C25.1116 161.884 25.3875 164.68 26.7671 166.916C28.4227 170.271 32.0098 171.39 35.045 173.347C36.7006 174.465 37.5284 174.745 39.46 174.745C41.9433 175.024 44.7027 175.584 47.1861 176.422C52.4288 178.1 57.9474 179.218 63.466 179.218C66.7772 179.218 70.0884 178.38 73.1236 177.82C76.1589 177.541 79.1941 177.261 82.2293 176.702C84.9886 176.143 87.7479 175.584 90.5072 175.584C93.2666 175.584 96.3018 176.143 98.7852 176.702C103.476 178.1 107.891 178.939 112.582 178.939C115.617 178.939 118.376 178.1 121.412 178.1C124.171 177.82 126.654 178.38 129.414 178.659C134.104 178.939 138.795 177.82 143.21 176.143C146.245 175.024 148.729 173.626 151.488 171.949C153.696 170.551 155.903 170.271 158.11 169.712C162.801 168.314 167.492 166.637 171.907 164.12C177.426 160.765 182.116 156.012 187.635 152.657C190.67 150.7 194.257 149.302 197.293 147.345C199.776 145.667 202.259 143.71 204.191 141.473C206.674 138.957 208.882 136.441 211.365 133.924C213.297 131.967 214.124 129.451 214.952 127.214C216.608 123.579 217.16 119.945 217.712 116.03C218.263 112.116 219.919 108.761 221.575 105.406C223.782 100.933 225.438 96.7387 225.714 91.706C225.989 87.7917 226.541 84.157 226.541 80.2427C226.541 77.7264 226.265 75.4896 225.714 72.9733C225.438 70.7365 224.886 68.4998 224.61 66.2631C224.058 63.4672 224.058 60.6712 223.506 57.8753C222.954 55.6386 222.402 53.1222 221.851 50.6059C221.299 48.9283 220.747 47.2508 220.195 45.5733C219.091 42.7774 217.436 39.9814 215.504 37.465C214.676 36.3467 213.573 36.0671 212.745 35.5079C211.917 34.9487 211.917 34.3896 211.089 34.11C209.986 33.5508 208.882 32.9916 207.778 32.4324C205.846 31.314 203.915 31.0345 201.983 29.9161C200.328 29.0773 198.672 27.6793 197.017 26.5609C195.085 25.4426 193.154 24.6038 191.498 22.9263C189.842 21.2487 188.739 19.2916 187.359 17.8936C185.704 16.2161 183.496 15.0977 181.84 13.6997C178.805 11.1834 174.942 10.9038 171.631 9.50585C169.975 8.66707 168.044 8.66707 166.388 8.10789C164.181 7.5487 162.801 6.43034 160.594 6.15075C158.662 5.87116 156.731 5.87115 154.523 5.31196C153.42 5.03237 152.316 4.75279 150.936 4.75279C148.729 4.4732 146.245 4.75276 144.038 5.03235C142.106 5.31195 139.899 5.03235 137.967 5.03235C136.312 5.03235 134.38 5.31195 132.725 5.03235C127.758 4.19358 122.515 4.4732 117.549 4.75279C112.858 5.03238 108.167 5.31194 103.752 6.98949C99.889 8.38745 96.3018 9.50585 92.4388 10.9038C89.9554 12.0222 87.7479 13.4201 85.2646 14.8181C79.47 18.1732 74.2273 22.0875 68.9846 25.7222C62.9142 29.9161 57.1196 34.3895 51.3251 38.863C47.462 41.6589 43.599 44.7344 40.0119 47.5304C38.3563 48.9283 36.7006 50.3263 35.321 51.7243C38.9081 46.9712 43.0471 42.4977 47.1861 38.3039C70.6402 15.0977 102.924 0.83847 138.243 0.83847C139.623 0.83847 141.003 0.83847 142.382 0.83847C143.762 0.83847 145.418 0.838488 146.797 1.11808C150.936 1.39767 154.799 1.95686 158.938 2.51604C158.938 2.51604 158.938 2.51604 159.214 2.51604C163.629 3.63441 168.044 5.03235 172.735 6.43032C176.598 7.54868 180.185 8.66705 183.772 9.78541C186.255 10.6242 188.463 11.7426 190.946 12.5813C193.154 13.4201 195.361 14.2589 197.293 15.3773C200.604 17.3344 203.639 19.5712 206.398 21.8079C208.33 23.2059 210.261 25.163 211.917 26.8406C214.4 29.3569 216.608 32.1528 218.539 34.9487C222.954 41.9385 226.541 49.7672 228.197 58.1549C229.577 65.1447 229.577 72.4141 229.301 79.4039C229.025 83.0386 228.473 87.2325 227.645 90.8672C226.817 95.0611 225.438 98.6958 224.886 102.89C224.61 104.847 224.886 107.084 224.61 109.041C224.334 110.718 223.782 112.396 223.506 114.073C222.954 117.428 221.851 121.063 220.195 124.139C217.987 128.612 215.228 132.247 211.917 135.882C208.33 140.075 204.743 144.269 200.88 148.184C197.293 152.377 192.878 155.733 188.187 158.529C184.6 160.765 180.737 163.561 176.874 164.959C173.011 166.357 168.872 168.594 164.733 169.153C161.697 169.433 159.214 170.551 156.731 172.508C155.351 173.627 153.971 175.024 152.592 176.422C151.212 177.541 149.832 177.82 148.177 178.38C144.59 179.498 141.003 179.218 137.14 179.218C131.621 179.218 126.378 179.777 121.136 180.337C118.376 180.616 115.617 180.896 113.134 180.616C110.65 180.337 108.167 179.778 105.959 179.498C103.2 179.218 100.717 179.218 97.9574 178.659C95.75 178.38 94.0944 178.38 92.1628 178.659C90.5073 178.939 88.8517 178.659 86.9202 178.659C85.2646 178.939 83.3331 179.218 81.6775 179.498C75.0551 181.175 67.605 184.81 59.327 182.853Z" fill="#95E3FB"/>
<path fill-rule="evenodd" clip-rule="evenodd" d="M262.687 176.702C263.515 174.465 264.067 172.229 264.895 170.271C262.411 179.218 258.824 187.606 254.685 195.435C253.581 196.553 251.926 197.671 250.822 198.79C249.718 200.188 248.615 201.306 247.511 202.704C241.44 208.576 234.818 213.888 227.644 218.361C220.47 223.114 213.295 227.588 205.293 231.223C199.223 234.018 192.877 236.255 186.53 237.933C181.287 239.331 175.769 239.89 170.526 240.169C167.767 240.449 165.283 240.729 162.524 241.008C159.213 241.288 155.626 241.288 152.591 241.847C146.796 242.965 141.001 243.804 135.207 244.084C130.24 244.363 125.273 245.202 120.307 245.202C113.96 245.202 107.614 244.084 101.267 244.084C95.1968 244.084 88.8505 243.804 82.78 243.245C79.1929 242.965 75.6058 242.127 72.0187 241.847C68.9834 241.567 65.9481 240.729 62.9129 240.449C60.4295 238.492 57.9462 236.535 55.4628 234.578C54.9109 234.018 54.0831 233.459 53.5312 232.9C57.1184 234.019 60.4295 235.137 64.0166 236.255C68.9834 237.933 74.502 238.772 79.4688 239.331C83.6077 239.89 88.8504 240.169 92.9894 239.051C97.4043 237.933 100.44 239.331 104.303 241.008C106.234 241.847 107.89 242.127 109.821 242.686C112.581 243.525 114.512 243.245 117.271 242.965C119.755 242.686 122.238 242.127 124.446 241.847C126.377 241.288 128.585 240.449 130.516 240.169C134.103 239.61 137.966 239.051 141.553 239.89C145.692 240.729 149.831 241.008 153.97 240.449C158.385 239.61 162.248 239.331 166.663 239.331C168.043 239.331 169.422 239.61 170.802 239.61C172.458 239.89 173.837 239.331 175.493 239.331C178.252 239.051 181.012 238.492 183.771 237.653C186.254 236.814 188.738 235.696 191.221 234.857C196.188 232.9 200.327 231.223 204.742 228.147C208.329 225.631 212.468 223.953 216.055 221.437C219.642 219.2 222.677 216.125 226.264 214.167C230.127 211.931 233.438 208.855 237.026 206.339C239.233 204.661 241.44 202.704 243.648 201.027C245.579 199.629 247.787 198.51 249.718 196.833C252.754 194.037 255.789 191.241 257.996 187.327C259.928 183.971 261.583 180.337 262.687 176.702Z" fill="#95E3FB"/>
<path fill-rule="evenodd" clip-rule="evenodd" d="M89.4023 134.204C89.4023 134.204 109.269 134.204 131.344 124.978C153.418 115.751 164.456 96.4593 164.456 96.4593C164.456 96.4593 149.555 110.998 133.275 119.106C116.995 127.214 104.854 129.172 89.4023 134.204Z" fill="#F9C6FF"/>
<path fill-rule="evenodd" clip-rule="evenodd" d="M168.044 91.9853C168.044 91.9853 170.251 86.114 174.39 76.0486C178.529 65.9833 181.841 60.3914 181.841 60.3914C181.841 60.3914 180.737 76.0486 168.044 91.9853Z" fill="#EA9CF4"/>
<path fill-rule="evenodd" clip-rule="evenodd" d="M82.5029 187.606C82.5029 187.606 110.096 194.316 146.243 187.606C182.39 180.896 183.77 178.659 193.703 170.551C203.637 162.722 210.811 152.657 214.674 148.743C218.537 144.829 223.504 131.688 223.504 131.688C223.504 131.688 213.294 150.141 198.67 162.722C184.046 175.024 171.905 181.176 147.347 185.09C123.065 188.724 94.9198 188.165 82.5029 187.606Z" fill="#D374F4"/>
<path fill-rule="evenodd" clip-rule="evenodd" d="M106.786 248.557C106.786 248.557 131.896 250.794 142.105 252.751C152.315 254.987 171.906 254.708 183.219 250.514C194.532 246.32 216.607 234.298 216.607 234.298C216.607 234.298 195.912 246.04 171.078 248.836C146.52 251.353 131.344 247.159 106.786 248.557Z" fill="#D374F4"/>
<path fill-rule="evenodd" clip-rule="evenodd" d="M224.057 230.663C224.057 230.663 240.061 219.759 247.787 212.769C247.787 212.49 239.509 224.233 224.057 230.663Z" fill="#D374F4"/>
<path fill-rule="evenodd" clip-rule="evenodd" d="M102.924 92.5448C102.924 92.5448 121.135 78.5652 126.93 68.7795C132.724 58.7142 133.276 53.1223 133.276 53.1223C133.276 53.1223 135.76 62.908 124.998 75.2101C113.961 87.5121 102.924 92.5448 102.924 92.5448Z" fill="#F2C4F8"/>
<path fill-rule="evenodd" clip-rule="evenodd" d="M17.3858 165.519C17.1099 171.67 20.4211 178.66 31.1824 182.853C41.9437 187.047 50.2216 185.929 50.2216 185.929C50.2216 185.929 37.8047 183.413 30.9064 178.66C24.0082 173.347 17.3858 165.519 17.3858 165.519Z" fill="#F5CEFA"/>
</g>
<defs>
<filter id="filter0_d_815_443" x="0" y="0" width="282" height="282" filterUnits="userSpaceOnUse" color-interpolation-filters="sRGB">
<feFlood flood-opacity="0" result="BackgroundImageFix"/>
<feColorMatrix in="SourceAlpha" type="matrix" values="0 0 0 0 0 0 0 0 0 0 0 0 0 0 0 0 0 0 127 0" result="hardAlpha"/>
<feOffset dx="4" dy="4"/>
<feGaussianBlur stdDeviation="2"/>
<feComposite in2="hardAlpha" operator="out"/>
<feColorMatrix type="matrix" values="0 0 0 0 0 0 0 0 0 0 0 0 0 0 0 0 0 0 0.25 0"/>
<feBlend mode="normal" in2="BackgroundImageFix" result="effect1_dropShadow_815_443"/>
<feBlend mode="normal" in="SourceGraphic" in2="effect1_dropShadow_815_443" result="shape"/>
</filter>
<radialGradient id="paint0_radial_815_443" cx="0" cy="0" r="1" gradientUnits="userSpaceOnUse" gradientTransform="translate(52.3555 83.557) rotate(30.7748) scale(193.375 195.94)">
<stop stop-color="#FFC6FF"/>
<stop offset="0.1" stop-color="#FCB7FF"/>
<stop offset="0.2" stop-color="#F5A4FF"/>
<stop offset="0.3" stop-color="#E88EFF"/>
<stop offset="0.4" stop-color="#DA80FF"/>
<stop offset="0.5" stop-color="#CD75FF"/>
<stop offset="0.6" stop-color="#C566FF"/>
<stop offset="0.7" stop-color="#B53FFF"/>
<stop offset="0.8" stop-color="#9B15F9"/>
<stop offset="0.9" stop-color="#7A2ADF"/>
<stop offset="1" stop-color="#702DC4"/>
</radialGradient>
<radialGradient id="paint1_radial_815_443" cx="0" cy="0" r="1" gradientUnits="userSpaceOnUse" gradientTransform="translate(58.4144 71.0326) rotate(16.3238) scale(220.473 223.398)">
<stop stop-color="#FFC6FF"/>
<stop offset="0.1" stop-color="#FCB7FF"/>
<stop offset="0.2" stop-color="#F5A4FF"/>
<stop offset="0.3" stop-color="#E88EFF"/>
<stop offset="0.4" stop-color="#DA80FF"/>
<stop offset="0.5" stop-color="#CD75FF"/>
<stop offset="0.6" stop-color="#C566FF"/>
<stop offset="0.7" stop-color="#B53FFF"/>
<stop offset="0.8" stop-color="#9B15F9"/>
<stop offset="0.9" stop-color="#7A2ADF"/>
<stop offset="1" stop-color="#702DC4"/>
</radialGradient>
<radialGradient id="paint2_radial_815_443" cx="0" cy="0" r="1" gradientUnits="userSpaceOnUse" gradientTransform="translate(86.0277 48.5292) scale(46.9541 47.5771)">
<stop offset="0.630208" stop-color="white"/>
<stop offset="1" stop-color="#EF9AFF"/>
</radialGradient>
<radialGradient id="paint3_radial_815_443" cx="0" cy="0" r="1" gradientUnits="userSpaceOnUse" gradientTransform="translate(93.4979 65.7279) scale(16.3346 16.5513)">
<stop stop-color="white"/>
<stop offset="1" stop-color="#F7ABFF"/>
</radialGradient>
<radialGradient id="paint4_radial_815_443" cx="0" cy="0" r="1" gradientUnits="userSpaceOnUse" gradientTransform="translate(83.4519 64.1958) scale(17.2126 17.441)">
<stop stop-color="white"/>
<stop offset="1" stop-color="#F9D0FD"/>
</radialGradient>
<radialGradient id="paint5_radial_815_443" cx="0" cy="0" r="1" gradientUnits="userSpaceOnUse" gradientTransform="translate(71.2771 47.3981) scale(39.7604 40.2878)">
<stop stop-color="white"/>
<stop offset="1" stop-color="#F7C2FC"/>
</radialGradient>
<radialGradient id="paint6_radial_815_443" cx="0" cy="0" r="1" gradientUnits="userSpaceOnUse" gradientTransform="translate(54.2843 31.7393) scale(67.4119 68.3064)">
<stop stop-color="white"/>
<stop offset="1" stop-color="#F5AEFE"/>
</radialGradient>
<radialGradient id="paint7_radial_815_443" cx="0" cy="0" r="1" gradientUnits="userSpaceOnUse" gradientTransform="translate(79.2702 42.5588) scale(93.93 95.1763)">
<stop offset="0.744792" stop-color="white"/>
<stop offset="0.9998" stop-color="#E886FF"/>
<stop offset="0.9999" stop-color="#ED8CFF"/>
</radialGradient>
<radialGradient id="paint8_radial_815_443" cx="0" cy="0" r="1" gradientUnits="userSpaceOnUse" gradientTransform="translate(97.5486 183.299) scale(125.071 126.731)">
<stop offset="0.572917" stop-color="#F6DAFF"/>
<stop offset="1" stop-color="#9D1FE6"/>
</radialGradient>
<radialGradient id="paint9_radial_815_443" cx="0" cy="0" r="1" gradientUnits="userSpaceOnUse" gradientTransform="translate(49.9821 43.2586) scale(158.691 160.796)">
<stop offset="0.84375" stop-color="#EEADFE"/>
<stop offset="1" stop-color="#C661F6"/>
</radialGradient>
<radialGradient id="paint10_radial_815_443" cx="0" cy="0" r="1" gradientUnits="userSpaceOnUse" gradientTransform="translate(48.2964 232.193) scale(13.4986 13.6777)">
<stop stop-color="#6D00C2"/>
<stop offset="0.3995" stop-color="#6600BC"/>
<stop offset="0.976" stop-color="#5300AC"/>
<stop offset="1" stop-color="#5200AB"/>
</radialGradient>
<radialGradient id="paint11_radial_815_443" cx="0" cy="0" r="1" gradientUnits="userSpaceOnUse" gradientTransform="translate(266.609 152.665) scale(14.0992 14.2863)">
<stop stop-color="#2D1186"/>
<stop offset="0.73" stop-color="#2F0D87"/>
<stop offset="1" stop-color="#350D93"/>
</radialGradient>
</defs>
</svg>
