<svg width="282" height="282" viewBox="0 0 282 282" fill="none" xmlns="http://www.w3.org/2000/svg">
<g filter="url(#filter0_d_785_1107)">
<path fill-rule="evenodd" clip-rule="evenodd" d="M269.778 135.27C269.778 148.453 268.106 161.063 264.763 172.814C258.076 196.887 245.26 218.095 227.707 234.717C215.448 246.467 200.682 255.925 184.522 262.23C170.035 267.961 154.154 271.114 137.716 271.114C135.487 271.114 132.979 271.114 130.75 270.827C127.407 270.541 123.785 270.254 120.442 269.967C95.0883 266.528 71.6849 255.638 53.0179 239.302C46.0526 233.284 39.6446 226.406 33.7938 218.955C29.6146 213.509 25.714 207.491 22.3707 201.186C21.5348 199.753 20.699 198.033 19.8632 196.601C19.0274 194.881 18.1916 193.448 17.6343 191.729C15.4054 186.57 13.4551 181.125 11.7835 175.679C10.669 171.667 9.55457 167.655 8.71873 163.643C8.16151 160.777 7.60429 157.911 7.32567 154.758C6.48984 148.453 5.93262 142.148 5.93262 135.557C5.93262 131.831 5.93265 128.106 6.48987 124.38C6.76849 122.087 6.76845 119.794 7.32567 117.502C8.99734 104.032 12.6193 91.4221 17.9129 79.6719C20.4204 73.9401 23.4851 68.2083 26.8285 63.0497C32.4007 54.1654 38.8088 45.8544 46.3313 38.403C70.0132 14.6161 102.611 0 138.273 0C139.666 0 141.059 0 142.452 0C143.845 0 145.517 6.55525e-06 146.91 0.286596C154.432 0.859776 161.955 2.00614 168.92 3.72567C173.099 4.87203 177.279 6.01839 181.179 7.45134C183.965 8.31111 186.473 9.45746 189.259 10.6038C191.209 11.4636 193.16 12.3234 195.11 13.1831C195.388 13.4697 195.667 13.4697 196.224 13.7563C209.04 20.0613 220.742 28.659 230.772 38.9762C232.165 40.4091 233.558 41.8421 234.951 43.275C235.787 44.4214 236.901 45.2812 237.737 46.4275C239.409 48.1471 240.802 50.1532 242.195 51.8727C247.489 58.7509 251.946 66.2022 255.847 73.9401C260.305 83.111 263.927 92.8551 266.434 102.886C268.385 113.203 269.778 124.093 269.778 135.27Z" fill="url(#paint0_radial_785_1107)"/>
<path opacity="0.5" fill-rule="evenodd" clip-rule="evenodd" d="M192.469 12.2141C191.919 12.2141 191.644 12.2141 191.095 12.4981C189.721 12.7822 188.347 12.4981 186.973 12.2141C185.874 11.93 185.325 11.3619 183.951 11.3619C182.302 11.0779 180.928 10.5098 179.279 10.2257C177.631 9.9417 176.257 9.3736 174.608 8.80551C173.234 8.23741 172.685 8.52146 171.586 8.80551C170.487 9.08955 169.662 8.52145 168.563 8.23741C167.464 7.66931 166.09 7.66931 164.991 7.38526C161.694 6.81716 158.397 5.68097 155.099 4.82882C153.176 4.26072 151.252 4.26073 149.054 4.26073C147.406 4.26073 146.032 4.82882 144.383 4.82882C143.284 4.82882 142.46 4.54478 141.36 4.54478C140.261 4.26073 139.162 4.54478 138.063 4.54478C136.414 4.26073 135.59 3.97668 133.942 4.54478C132.568 4.82882 131.743 4.82883 130.369 5.11287C128.996 5.11287 127.347 5.68097 125.973 5.96502C123.5 6.53312 120.752 7.10122 118.279 7.10122C116.631 7.10122 114.433 6.53312 113.059 7.10122C112.234 7.38527 111.685 8.52145 110.86 9.08955C109.487 10.5098 108.113 11.646 107.014 13.0662C105.914 14.4865 104.815 16.1908 104.815 18.1791C104.815 19.8834 105.64 21.8717 106.464 23.292C107.288 24.9963 107.563 26.4165 105.914 27.5527C103.991 28.973 101.518 30.1092 99.3199 30.9613C97.6712 31.5294 96.2973 31.8135 95.1982 30.6773C94.6487 30.3932 94.3739 29.5411 93.8244 28.973C93.2748 28.6889 92.4505 28.973 91.9009 29.257C90.2523 29.8251 88.6036 30.3932 86.955 30.6773C85.8559 30.9613 85.0315 31.5294 83.9324 31.5294C82.8333 31.8135 82.009 30.9613 80.6351 31.2454C78.9865 31.5294 77.063 32.3815 75.4144 32.3815C74.0405 32.3815 72.3919 31.8135 71.2928 31.2454C70.7432 30.9613 70.4684 30.3932 69.6441 30.6773C69.0945 30.6773 68.2702 31.5294 67.9954 32.0975C67.4459 32.6656 67.4459 33.5177 66.8963 34.0858C66.3468 34.938 66.072 35.5061 65.5225 36.3582C64.6981 37.7785 63.8738 39.1987 63.0495 40.619C62.5 41.4711 61.9504 42.8914 61.126 43.7435C60.8513 44.3116 60.027 44.5956 59.4775 44.8797C58.1036 45.7318 56.7297 46.868 55.3558 47.7202C52.8829 49.7085 50.4098 51.9809 47.9369 53.9693C46.0134 55.3895 43.2657 56.2416 41.0675 57.3778C39.6936 57.9459 38.3197 58.514 36.9458 59.0821C36.3963 59.3662 35.572 59.3662 35.2972 59.9343C34.7476 60.5024 34.4729 61.0705 34.1981 61.9226C33.099 63.3429 31.7251 65.0472 30.9008 66.7514C30.3512 67.8876 30.0764 68.7398 29.5269 69.876C28.9773 71.2962 28.1531 72.7165 27.8783 74.4208C26.7792 77.5453 26.7791 80.9539 25.4052 84.0784C24.8557 85.7827 23.7566 87.487 22.9323 89.1913C21.5584 92.0318 21.2837 95.4404 21.0089 98.5649C20.7341 100.269 21.0088 102.542 21.2836 104.246C21.5584 106.234 21.5584 108.223 21.5584 110.211C21.5584 112.199 20.1845 114.472 19.0854 115.892C17.9863 117.312 16.0629 117.88 14.689 119.3C13.5899 120.437 12.216 121.573 11.6665 123.277C11.3917 123.845 11.6665 124.697 11.6665 125.55C11.3917 127.254 10.8422 128.674 10.8422 130.378C10.5674 132.367 10.5674 134.355 10.5674 136.627C10.5674 137.764 10.5674 138.616 10.5674 139.752C10.5674 140.888 10.8422 141.74 11.117 142.592C11.117 143.161 11.117 144.013 11.117 144.581C11.117 145.433 11.6665 146.285 11.6665 146.853C12.216 148.842 12.4909 150.546 12.7656 152.534C13.0404 154.238 13.8647 155.943 14.1395 157.647C14.9639 159.919 15.2386 162.192 15.7881 164.748C16.0629 166.453 16.0629 168.441 16.3377 170.145C16.6125 171.565 16.8873 172.986 16.8873 174.406C16.8873 176.678 16.3377 178.667 16.3377 180.939C16.3377 184.632 17.7115 188.324 18.5359 192.017C18.8106 193.153 19.0855 194.005 19.3602 195.141C10.2927 176.962 5.34668 156.227 5.34668 134.355C5.34668 107.654 12.7656 82.9422 25.68 62.2067C31.1755 53.4012 37.4954 45.1638 44.9143 38.0625C68.2702 14.4865 100.419 0 135.59 0C138.338 0 141.36 -4.3421e-06 144.108 0.284044C161.144 -4.3421e-06 177.631 4.82883 192.469 12.2141Z" fill="url(#paint1_linear_785_1107)"/>
<path fill-rule="evenodd" clip-rule="evenodd" d="M62.2116 132.118C104.839 138.996 102.332 150.746 151.924 136.703C201.517 122.66 237.18 46.141 237.18 46.141C237.18 46.141 239.687 40.4092 237.458 36.9701C236.622 35.5372 230.214 38.4031 230.214 38.4031C231.329 63.0498 197.895 114.063 160.004 128.679C155.825 130.112 151.924 130.685 148.024 131.545C146.352 130.685 141.894 126.386 162.512 112.057C187.03 95.1478 197.895 88.8429 195.666 71.0743C193.438 53.3057 215.169 25.5065 215.169 25.5065C215.169 25.5065 216.841 18.0552 212.662 13.4698C207.368 7.45138 195.666 13.4698 195.666 13.4698C195.666 13.4698 192.602 48.1471 149.974 66.7755C107.347 85.4038 83.3861 76.2329 67.2266 71.0743C50.7885 65.9157 46.0521 38.1165 46.0521 38.1165C46.0521 38.1165 32.1216 35.2506 27.1066 44.1349C23.4846 50.7264 28.7783 59.0375 28.7783 59.0375C28.7783 59.0375 54.6891 68.7816 77.8138 77.9525C100.939 87.1233 145.516 78.8122 161.119 71.0743C177 63.3364 177 50.7264 189.537 39.2628C194.831 34.6774 200.124 31.2383 204.582 29.2322C204.582 29.2322 190.652 51.2996 192.323 66.7755C193.995 82.2513 184.522 81.6781 161.119 108.904C144.681 127.819 130.471 134.124 123.506 135.844C105.675 137.563 89.2369 135.557 67.2266 129.252C31.2857 119.221 9.83264 103.172 9.83264 103.172C9.83264 103.172 6.76791 101.739 5.65347 105.178C5.09624 106.611 8.43958 110.91 8.43958 110.91C8.43958 110.91 19.5841 124.953 62.2116 132.118Z" fill="url(#paint2_linear_785_1107)"/>
<path fill-rule="evenodd" clip-rule="evenodd" d="M92.3007 262.23C92.3007 262.23 81.7135 255.351 73.9123 234.43C66.1112 213.509 66.9471 214.942 52.1807 201.759C37.4143 188.576 11.782 175.679 11.782 175.679C11.782 175.679 10.1104 176.253 10.1104 176.826C10.1104 179.405 13.1751 179.978 13.1751 179.978C13.1751 179.978 37.1357 190.582 52.1807 207.491C67.2257 224.4 83.3852 254.778 71.9621 253.059C71.9621 253.059 74.4696 260.51 80.599 262.23C86.4498 263.949 92.3007 262.23 92.3007 262.23Z" fill="url(#paint3_radial_785_1107)"/>
<path d="M197.339 161.063C202.354 155.618 208.204 148.453 232.165 148.167C256.126 147.88 268.385 153.325 268.385 153.325C268.385 153.325 273.4 151.892 273.957 145.301C274.514 138.709 269.499 135.557 269.499 135.557C269.22 137.563 266.713 151.319 246.374 143.295C246.374 143.008 253.618 136.416 255.011 122.66C256.683 108.904 261.419 89.1292 261.419 89.1292C261.419 89.1292 264.205 84.2571 262.534 80.2449C261.976 78.8119 257.24 78.2388 257.24 78.2388C261.419 106.038 251.111 139.282 239.966 143.295C226.593 143.581 210.155 145.874 202.632 151.033C193.438 157.338 184.244 185.423 178.393 205.198C177 210.07 173.935 215.515 170.035 220.674C155.268 224.4 160.005 206.058 153.597 200.613C147.189 195.167 135.208 198.033 127.129 195.167C119.327 192.015 117.099 185.71 108.74 184.564C100.382 183.417 87.0085 199.753 71.6849 193.161C56.3613 186.57 5.65395 124.666 5.65395 124.666C5.65395 124.666 1.19617 123.52 0.0817254 126.672C-0.754109 129.252 5.09678 135.843 5.09678 135.843C5.09678 135.843 40.4804 190.582 74.1924 197.747C107.904 204.911 138.552 198.32 149.139 207.491C159.726 216.948 160.562 231.851 160.562 232.137C149.696 244.174 136.601 254.491 130.472 257.644C119.885 263.089 102.611 266.815 102.611 266.815C105.118 269.681 109.855 271.973 114.87 273.406C122.392 275.412 127.129 271.687 127.129 271.687C127.129 271.687 122.949 267.961 128.522 263.089C142.731 250.766 153.039 245.607 167.806 241.881C176.721 239.589 179.508 243.888 180.622 242.455C194.553 247.04 205.418 236.436 217.12 226.406C228.822 216.662 244.145 215.229 244.145 215.229C244.145 215.229 251.946 213.796 254.175 210.357C256.126 207.204 251.668 203.478 251.668 203.478C251.668 203.478 244.981 206.344 232.165 212.936C219.628 219.527 205.976 238.729 190.373 238.156C181.736 237.869 183.687 228.985 182.851 227.552C182.851 226.979 182.851 226.406 182.851 225.546C182.572 219.241 181.179 213.223 181.179 208.637C181.179 207.491 181.179 206.344 181.458 205.198C183.687 198.033 192.324 166.222 197.339 161.063ZM170.313 220.387C167.527 224.113 164.462 227.839 161.119 231.564L170.313 220.387ZM182.294 230.131C182.572 231.564 182.851 232.997 182.572 234.717C182.572 235.576 182.294 236.15 181.736 236.436C181.179 236.723 180.9 236.723 180.343 236.723C179.786 237.009 178.95 237.009 178.393 237.296C177.279 237.583 176.164 237.296 175.328 237.296C174.214 237.296 173.099 237.296 171.985 237.296C171.428 237.296 170.871 237.009 170.313 237.009C169.756 237.009 168.92 237.009 168.642 236.723C167.527 236.15 166.691 234.717 165.856 234.43C165.856 233.284 165.855 232.424 166.413 231.564C166.413 231.278 166.691 230.991 166.691 230.418C166.97 229.845 166.97 229.271 167.249 228.698C167.806 227.265 168.363 225.832 169.478 224.686C169.756 224.113 170.313 223.253 170.592 222.68C171.149 221.82 171.706 221.247 172.264 220.674C173.099 219.814 173.935 218.954 175.05 218.381C175.886 217.808 177.279 217.235 178.393 217.521C179.508 217.808 179.786 219.241 180.065 220.101C180.343 220.674 180.343 221.534 180.622 222.107C180.901 222.967 181.179 223.826 181.458 224.686C181.736 225.832 181.736 226.692 182.015 227.839C182.015 228.412 182.015 229.271 182.294 230.131Z" fill="url(#paint4_linear_785_1107)"/>
<path fill-rule="evenodd" clip-rule="evenodd" d="M31.8457 40.9828C31.8457 40.9828 37.6966 53.5927 53.0202 65.0563C53.0202 65.0563 48.0052 46.7146 44.3832 39.2633C44.3832 39.2633 39.3682 34.3912 31.8457 40.9828Z" fill="#FFFFEB"/>
<path fill-rule="evenodd" clip-rule="evenodd" d="M112.362 79.6723C112.362 79.6723 122.671 75.3735 126.014 77.093C126.014 76.8064 115.984 79.6723 112.362 79.6723Z" fill="#FFFFEB"/>
<path fill-rule="evenodd" clip-rule="evenodd" d="M147.19 69.6413C149.14 69.0682 151.09 68.495 152.762 67.6352C154.434 67.062 155.827 66.2023 157.498 65.3425C159.449 64.1961 161.399 63.0498 163.071 61.6168C163.628 61.3302 163.906 61.0437 164.464 60.7571C165.021 60.4705 165.578 59.8973 166.135 59.6107C166.692 59.3241 166.971 58.7509 167.528 58.4643C168.086 58.1777 168.364 57.6046 168.921 57.318C169.757 56.7448 170.593 55.885 171.15 55.3119C171.429 55.0253 171.708 54.7387 172.265 54.1655C172.543 53.8789 172.822 53.8789 173.101 53.8789C173.101 54.1655 172.822 54.7387 172.822 55.0253C172.543 55.5984 172.265 55.885 171.986 56.4582C171.429 57.6046 170.314 58.1778 169.479 59.3241C168.921 59.8973 168.364 60.4705 167.528 61.0436C166.692 61.6168 165.578 62.19 164.464 62.7632C163.349 63.3364 162.235 63.6229 161.399 64.1961C160.563 64.7693 159.449 65.3425 158.613 65.6291C158.055 65.9157 157.22 66.4889 156.662 66.7754C156.105 67.062 155.548 67.3486 154.991 67.6352C154.155 68.2084 153.319 68.495 152.483 69.0681C151.926 69.3547 151.647 69.3547 151.09 69.6413C150.254 70.2145 148.861 70.5011 147.747 70.5011C147.468 70.5011 146.911 70.5011 146.632 70.5011C146.354 70.5011 146.075 70.2145 146.075 70.2145C146.632 69.9279 146.911 69.6413 147.19 69.6413Z" fill="#FFFFEB"/>
<path fill-rule="evenodd" clip-rule="evenodd" d="M175.051 51.0134C174.493 51.3 174.215 51.5866 173.658 52.1598C173.658 52.4464 173.379 52.733 173.936 52.733C174.493 52.733 174.772 52.4464 175.329 51.8732C175.608 51.5866 175.887 51.0135 175.608 50.7269C175.329 50.4403 174.772 50.7269 174.493 51.0134H175.051Z" fill="#FFFFEB"/>
<path fill-rule="evenodd" clip-rule="evenodd" d="M197.617 14.0432C197.339 14.6164 196.782 15.1895 196.503 15.7627C196.225 16.3359 196.224 16.6225 195.946 17.1957C195.667 18.0554 195.389 19.2018 195.11 20.0616C194.553 21.7811 194.274 23.7872 193.438 25.5068C193.16 26.3665 192.881 26.9397 192.324 27.7995C192.045 28.0861 191.767 28.6593 191.767 28.9458C191.488 29.2324 191.488 29.519 191.209 30.0922C190.931 30.3788 190.931 30.6654 190.652 30.952C190.374 31.2386 190.374 31.8117 190.095 32.0983C189.816 32.3849 189.259 33.2447 189.538 33.5313C189.816 33.5313 189.816 33.2447 190.095 33.2447C190.374 32.9581 190.931 32.6715 191.209 32.0983C192.045 31.5251 192.603 30.6654 193.16 29.8056C193.438 29.519 193.717 29.2324 193.996 28.6592C194.274 28.0861 194.831 27.7995 195.11 27.2263C195.667 26.3665 196.503 25.5068 197.06 24.9336C197.339 24.647 197.618 24.0738 197.896 23.7872C198.175 23.5006 198.453 23.214 198.732 22.6409C199.846 21.4945 200.682 20.3481 201.797 19.2018C202.632 18.342 203.19 17.1957 204.026 16.3359C204.583 15.4761 205.14 14.6164 205.419 13.7566C205.697 13.47 205.976 12.6102 205.976 12.3236C205.697 11.7505 205.14 11.4639 204.583 11.4639C203.747 11.4639 202.911 11.4639 202.075 11.4639C201.24 11.7505 200.682 12.0371 199.846 12.3236C199.289 12.6102 198.732 13.1834 197.896 13.47C197.618 14.0432 197.06 14.3298 197.617 14.0432Z" fill="#FFFFEB"/>
<path fill-rule="evenodd" clip-rule="evenodd" d="M204.304 30.3792C204.025 30.9524 203.747 31.5256 203.468 32.0988C203.19 32.3853 202.911 32.9585 202.632 33.2451C202.075 34.1049 201.796 34.9647 201.239 35.5378C200.403 36.9708 199.289 38.4037 198.732 39.8367C198.453 40.4099 198.175 40.983 197.896 41.5562C197.617 42.1294 197.339 42.9892 197.339 43.5624C197.06 44.1355 197.06 44.7087 196.781 45.5685C196.781 46.1417 196.503 46.7148 196.503 47.288C197.06 46.7148 197.339 45.8551 197.896 45.2819C198.175 44.7087 198.453 44.1355 199.01 43.8489C199.568 43.5624 199.846 42.9892 200.125 42.416C200.403 41.8428 200.961 41.5562 201.239 40.983C201.518 40.4099 201.797 40.1233 202.075 39.5501C202.354 39.2635 202.632 38.6903 202.911 38.1171C203.19 37.544 203.468 36.9708 203.747 36.3976C204.025 35.2512 204.583 34.1049 204.861 32.9585C204.861 32.3853 205.14 31.8122 204.861 31.239C204.861 30.9524 204.304 29.806 204.304 30.3792Z" fill="#FFFFEB"/>
<path fill-rule="evenodd" clip-rule="evenodd" d="M195.111 49.007C194.832 49.8668 194.554 50.44 194.554 51.2998C194.554 51.5863 194.554 51.8729 194.554 51.8729C194.832 51.8729 195.111 51.8729 195.111 51.5863C195.39 51.5863 195.39 51.2998 195.39 51.0132C195.668 50.7266 195.947 50.1534 195.668 49.5802C195.668 49.007 195.111 48.7205 194.832 49.2936L195.111 49.007Z" fill="#FFFFEB"/>
<path fill-rule="evenodd" clip-rule="evenodd" d="M181.46 88.27C180.066 89.7029 178.116 91.1359 177.002 92.8554C177.002 93.142 176.166 93.7152 176.445 94.0018C176.723 94.2883 177.28 94.0018 177.559 94.0018C178.395 93.7152 179.231 93.142 180.066 92.8554C180.624 92.5688 181.181 91.9956 181.738 91.709C183.131 90.8493 184.246 89.7029 185.36 88.27C185.917 87.6968 186.196 87.1236 186.474 86.5504C186.474 86.2638 186.753 85.6907 186.753 85.6907C186.475 84.8309 184.803 85.6906 184.524 85.9772C184.246 86.2638 183.688 86.5504 183.41 86.837C183.131 87.1236 182.853 87.4102 182.574 87.4102C182.295 87.6968 182.017 87.9834 181.46 88.27C181.46 88.5566 181.181 88.8431 181.46 88.27Z" fill="#FFFFEB"/>
<path fill-rule="evenodd" clip-rule="evenodd" d="M174.772 95.4346C174.215 95.7212 173.658 96.0077 173.379 96.2943C173.379 96.5809 172.822 96.8675 173.1 97.1541C173.379 97.4407 173.936 97.1541 173.936 97.1541C174.215 97.1541 174.493 96.8675 174.772 96.5809C174.772 96.0078 174.772 96.0077 174.772 95.4346Z" fill="#FFFFEB"/>
<path fill-rule="evenodd" clip-rule="evenodd" d="M140.504 128.966C139.39 129.825 137.996 130.685 136.603 131.545C134.932 132.405 133.26 132.978 131.867 133.838C129.36 135.271 126.852 136.417 124.345 137.563C124.066 137.85 120.165 139.283 121.558 140.143C122.116 140.429 122.952 140.429 123.509 140.429C124.066 140.429 124.623 140.716 125.18 140.716C125.738 140.716 126.295 140.716 126.852 140.716C129.917 140.716 133.26 139.856 136.046 138.71C136.603 138.423 137.439 138.136 137.996 137.85C138.275 137.563 138.554 137.277 139.111 136.99C139.668 136.417 140.225 135.844 140.504 134.984C141.061 133.838 141.34 132.978 141.34 131.545C141.34 130.972 141.061 130.685 140.783 130.112C140.783 129.825 140.504 129.539 140.504 128.966Z" fill="#FFFFEB"/>
<path fill-rule="evenodd" clip-rule="evenodd" d="M118.769 138.71C118.212 138.423 117.376 137.85 116.54 137.85C116.262 137.85 115.983 137.85 115.704 137.85C115.147 137.85 114.311 138.137 113.754 138.423C113.197 138.996 114.59 139.57 115.147 139.856C115.704 140.143 116.819 140.143 117.376 139.856C117.933 139.856 118.769 139.283 118.769 138.71C119.048 138.71 119.048 138.71 119.048 138.71H118.769Z" fill="#FFFFEB"/>
<path fill-rule="evenodd" clip-rule="evenodd" d="M159.167 129.825C161.953 128.965 164.739 127.819 167.247 126.386C168.361 125.813 169.197 125.24 170.311 124.666C170.869 124.38 171.705 123.807 172.262 123.52C172.54 123.52 174.212 122.374 174.491 122.947C174.769 123.52 173.098 124.666 172.819 124.953C172.262 125.526 171.426 126.099 170.59 126.673C170.033 127.246 169.197 127.246 168.64 127.819C167.804 128.392 166.968 128.679 165.854 129.252C165.297 129.538 164.461 129.825 163.903 130.112C163.346 130.398 162.789 130.398 162.232 130.685C161.953 130.685 161.396 130.685 161.117 130.685C160.56 130.398 159.446 130.685 159.167 129.825Z" fill="#FFFFEB"/>
<path fill-rule="evenodd" clip-rule="evenodd" d="M221.299 145.588C222.692 145.588 224.364 145.874 225.757 145.588C226.871 145.301 227.707 145.301 228.821 145.015C230.772 144.728 233.001 144.155 234.951 144.155C235.787 144.155 236.623 144.155 237.458 144.155C238.016 144.155 238.573 144.155 238.851 144.155C239.13 144.155 239.687 144.441 239.687 144.728C240.245 145.301 239.687 145.301 239.409 145.301C238.573 145.588 238.016 146.161 237.18 146.161C235.787 146.447 234.672 146.734 233.279 147.021C232.443 147.021 231.608 147.021 230.493 147.021C229.379 147.307 228.264 147.307 226.871 147.307C225.757 147.307 224.921 147.307 223.806 147.307C222.971 147.307 222.413 147.021 221.578 147.021C221.02 147.021 220.463 147.021 220.185 146.734C220.463 147.021 219.906 146.448 221.299 145.588Z" fill="#FFFFEB"/>
<path fill-rule="evenodd" clip-rule="evenodd" d="M254.734 147.02C256.406 147.306 257.521 147.306 259.192 147.02C260.307 146.733 261.421 146.733 262.257 146.447C263.65 146.16 265.322 145.587 266.715 144.727C267.55 144.154 268.944 143.294 269.779 143.581C270.615 143.867 271.451 144.727 271.451 145.587C271.451 146.733 270.337 147.306 269.779 147.879C268.665 148.739 266.715 149.312 265.322 149.312C263.65 149.312 261.7 149.026 260.028 148.739C259.471 148.739 258.914 148.453 258.356 148.453C257.799 148.166 256.685 148.166 254.734 147.02Z" fill="#FFFFEB"/>
<path fill-rule="evenodd" clip-rule="evenodd" d="M258.633 79.9585C258.633 81.1049 257.798 84.2574 259.191 85.1171C260.027 85.6903 260.305 84.2574 260.305 83.6842C260.584 82.8244 260.026 80.5317 258.633 79.9585Z" fill="#FFFFEB"/>
<path fill-rule="evenodd" clip-rule="evenodd" d="M9.83287 108.045C11.2259 109.764 12.0617 111.484 13.7334 112.344C14.8479 112.917 15.6837 113.777 16.7982 114.063C17.9126 114.35 19.3057 114.636 20.4202 114.636C20.9774 114.636 21.256 114.636 21.256 113.777C21.256 113.49 20.9773 112.917 20.6987 112.63C20.4201 112.057 19.8629 111.77 19.3056 111.197C18.7484 110.624 18.4698 110.051 17.9126 109.478C15.9623 107.758 14.0121 106.612 11.5046 105.752C10.6687 105.465 10.6687 105.465 9.83287 105.752C9.27565 106.039 9.27568 106.039 8.99707 106.612C8.99707 107.472 9.55428 108.331 10.1115 109.191L9.83287 108.045Z" fill="#FFFFEB"/>
<path fill-rule="evenodd" clip-rule="evenodd" d="M10.9479 134.698C12.8981 138.137 15.4056 141.003 17.9131 144.155C19.5848 146.161 20.6993 149.027 22.6496 151.033C22.9282 151.32 26.5501 154.472 26.5501 152.753C26.5501 152.466 25.4357 150.747 25.4357 150.46C24.8785 149.6 24.3212 148.454 23.4854 147.594C22.9281 146.734 22.0924 146.161 21.8138 145.301C21.2565 144.442 20.6993 143.869 20.1421 143.009C19.3062 142.149 18.749 140.716 18.1918 139.856C17.6345 138.997 16.7988 137.85 16.2415 136.99C15.4057 135.557 14.2912 134.124 12.8982 133.551C12.6196 133.265 12.0623 132.978 11.5051 133.265C10.1121 134.124 10.6692 135.844 10.9479 134.698Z" fill="#FFFFEB"/>
<path fill-rule="evenodd" clip-rule="evenodd" d="M137.993 198.607C141.057 198.034 143.286 197.461 146.351 198.321C147.744 198.607 149.137 199.18 150.53 199.467C151.366 199.753 152.759 200.04 153.316 200.613C153.874 201.473 153.874 202.619 153.038 203.193C152.202 204.052 150.252 203.766 149.137 203.766C146.908 203.479 144.958 203.193 142.729 202.619C141.615 202.333 139.943 201.76 138.829 200.9C138.55 200.613 137.436 199.467 137.993 198.607Z" fill="#FFFFEB"/>
<path fill-rule="evenodd" clip-rule="evenodd" d="M178.392 214.656C176.999 214.369 176.721 211.503 177.278 210.357C177.556 209.784 177.835 208.637 178.671 208.351C179.228 208.064 179.507 208.637 180.064 208.637C179.507 210.07 178.671 211.217 177.835 212.363L178.392 214.656Z" fill="#FFFFEB"/>
<path fill-rule="evenodd" clip-rule="evenodd" d="M233.839 213.796C235.789 212.363 237.182 211.504 239.411 210.93C240.526 210.644 241.64 210.357 242.754 210.071C244.148 209.784 245.262 208.924 246.655 208.924C247.212 208.924 247.491 208.924 248.048 208.638C248.605 208.638 248.327 208.351 248.884 208.638C249.998 209.211 249.441 210.071 248.884 210.644C247.491 211.79 246.376 212.363 244.705 212.65C243.59 212.936 243.033 213.51 241.919 213.796C241.361 214.083 240.804 214.083 240.247 214.369C237.739 214.943 235.232 214.369 233.839 213.796Z" fill="#FFFFEB"/>
<path fill-rule="evenodd" clip-rule="evenodd" d="M56.6388 208.923C57.7532 211.503 58.8677 214.082 60.5393 216.375C61.3752 217.521 61.9324 218.381 63.0468 218.954C63.8826 219.241 64.7185 219.527 64.7185 218.094C64.7185 217.521 64.1612 216.375 63.8826 215.801C62.7682 213.795 61.3751 212.362 60.2607 210.643C59.7035 210.07 59.1462 208.923 58.589 208.637C57.7532 208.35 56.3602 207.777 56.6388 208.923Z" fill="#FFFFEB"/>
<path fill-rule="evenodd" clip-rule="evenodd" d="M108.184 266.815C111.249 266.242 113.756 265.095 116.542 264.236C117.657 263.663 118.771 263.663 120.164 263.663L120.443 263.376C120.722 263.376 121.279 263.376 121.557 263.376C121.836 263.376 123.229 263.089 123.508 263.376C124.622 264.236 122.393 266.528 121.836 266.815C119.886 268.821 116.821 269.967 113.756 269.681C112.363 269.394 110.97 268.821 109.577 268.535C108.741 268.535 106.791 267.961 106.791 266.815C107.07 267.102 107.07 266.815 108.184 266.815Z" fill="#FFFFEB"/>
<path fill-rule="evenodd" clip-rule="evenodd" d="M159.448 236.15C156.94 237.87 153.876 239.589 151.925 242.455C150.532 244.461 153.04 243.888 154.154 243.601C154.99 243.315 155.826 243.028 156.383 242.455C156.94 241.882 157.498 241.595 158.055 240.736C158.612 240.162 158.891 239.876 159.448 239.589C159.726 239.016 160.005 238.156 160.562 237.87C160.562 237.583 160.284 237.583 160.284 237.296L159.448 236.15Z" fill="#FFFFEB"/>
<path fill-rule="evenodd" clip-rule="evenodd" d="M87.5672 194.594C89.5175 193.735 91.4678 193.161 93.1394 192.015C94.8111 191.155 96.4828 190.009 98.1545 189.149C100.383 188.003 102.612 186.57 105.12 186.283C105.956 186.283 106.791 185.71 107.627 186.283C108.463 186.57 108.742 186.856 109.299 187.43C110.692 189.436 107.906 191.155 106.513 192.015C105.398 192.875 104.563 193.735 103.169 194.308C101.776 194.881 100.383 195.168 98.9903 195.741C96.7614 196.601 94.2539 197.747 91.7464 198.033C90.3533 198.32 89.2389 197.747 88.1245 196.887C87.5672 196.601 87.01 196.027 86.7314 195.454C86.4528 195.168 86.1741 194.594 87.5672 194.594Z" fill="#FFFFEB"/>
</g>
<defs>
<filter id="filter0_d_785_1107" x="0" y="0" width="282" height="282" filterUnits="userSpaceOnUse" color-interpolation-filters="sRGB">
<feFlood flood-opacity="0" result="BackgroundImageFix"/>
<feColorMatrix in="SourceAlpha" type="matrix" values="0 0 0 0 0 0 0 0 0 0 0 0 0 0 0 0 0 0 127 0" result="hardAlpha"/>
<feOffset dx="4" dy="4"/>
<feGaussianBlur stdDeviation="2"/>
<feComposite in2="hardAlpha" operator="out"/>
<feColorMatrix type="matrix" values="0 0 0 0 0 0 0 0 0 0 0 0 0 0 0 0 0 0 0.25 0"/>
<feBlend mode="normal" in2="BackgroundImageFix" result="effect1_dropShadow_785_1107"/>
<feBlend mode="normal" in="SourceGraphic" in2="effect1_dropShadow_785_1107" result="shape"/>
</filter>
<radialGradient id="paint0_radial_785_1107" cx="0" cy="0" r="1" gradientUnits="userSpaceOnUse" gradientTransform="translate(55.9944 71.791) rotate(25.6145) scale(217.309 223.531)">
<stop offset="0.00558659" stop-color="#9D9D99" stop-opacity="0.69"/>
<stop offset="0.2018" stop-color="#E5DFD6"/>
<stop offset="0.3542" stop-color="#C2B5A2" stop-opacity="0.86"/>
<stop offset="0.4919" stop-color="#D5C8B5" stop-opacity="0.89"/>
<stop offset="0.6209" stop-color="#ABA08C"/>
<stop offset="0.7437" stop-color="#847B60" stop-opacity="0.9"/>
<stop offset="0.8606" stop-color="#736950" stop-opacity="0.78"/>
<stop offset="0.942708" stop-color="#918A7A" stop-opacity="0.97"/>
</radialGradient>
<linearGradient id="paint1_linear_785_1107" x1="5.16176" y1="96.3263" x2="192.421" y2="96.3263" gradientUnits="userSpaceOnUse">
<stop offset="0.0111732" stop-color="#FFFAF3"/>
<stop offset="0.2983" stop-color="#FFFDF3"/>
<stop offset="0.695" stop-color="#FFE2B9"/>
<stop offset="0.8659" stop-color="#DFD9D0"/>
<stop offset="1" stop-color="#C2C0B9"/>
</linearGradient>
<linearGradient id="paint2_linear_785_1107" x1="5.14082" y1="76.8413" x2="238.333" y2="76.8413" gradientUnits="userSpaceOnUse">
<stop stop-color="#FFEFC8"/>
<stop offset="0.142857" stop-color="#FFD77B"/>
<stop offset="0.285714" stop-color="#FFC34D"/>
<stop offset="0.428571" stop-color="#FCA117"/>
<stop offset="0.571429" stop-color="#FFAB57"/>
<stop offset="0.714286" stop-color="#FF9D65"/>
<stop offset="0.857143" stop-color="#FFB186"/>
<stop offset="1" stop-color="#FF8F60"/>
</linearGradient>
<radialGradient id="paint3_radial_785_1107" cx="0" cy="0" r="1" gradientUnits="userSpaceOnUse" gradientTransform="translate(25.6117 198.827) scale(67.0411 68.9609)">
<stop offset="0.00558659" stop-color="#FFD56E"/>
<stop offset="0.388" stop-color="#FFD675"/>
<stop offset="0.5789" stop-color="#FFCE6C"/>
<stop offset="0.7274" stop-color="#FFC772"/>
<stop offset="0.8539" stop-color="#FFBD7A"/>
<stop offset="1" stop-color="#FE9D74"/>
</radialGradient>
<linearGradient id="paint4_linear_785_1107" x1="0.647029" y1="175.826" x2="274.065" y2="175.826" gradientUnits="userSpaceOnUse">
<stop offset="0.00558659" stop-color="#FFD774"/>
<stop offset="0.388" stop-color="#FFCD58"/>
<stop offset="0.5789" stop-color="#F7E481" stop-opacity="0.9"/>
<stop offset="0.7274" stop-color="#FFC368"/>
<stop offset="0.8539" stop-color="#FFBD7A"/>
<stop offset="0.9655" stop-color="#FEA674"/>
<stop offset="1" stop-color="#FD814D"/>
</linearGradient>
</defs>
</svg>
