<svg width="288" height="288" viewBox="0 0 288 288" fill="none" xmlns="http://www.w3.org/2000/svg">
<g filter="url(#filter0_d_810_203)">
<path fill-rule="evenodd" clip-rule="evenodd" d="M269.775 135.27C269.775 148.454 268.103 161.063 264.76 172.814C258.073 196.887 245.257 218.095 227.704 234.717C215.445 246.467 200.679 255.925 184.52 262.23C170.032 267.962 154.151 271.114 137.713 271.114C135.484 271.114 132.976 271.114 130.748 270.827C127.404 270.541 123.782 270.254 120.439 269.968C95.0853 266.529 71.682 255.638 53.015 239.303C46.0497 233.284 39.6417 226.406 33.7908 218.955C29.6117 213.509 25.7111 207.491 22.3677 201.186C21.5319 199.753 20.6961 198.034 19.8603 196.601C19.0244 194.881 18.1886 193.448 17.6314 191.729C15.4025 186.57 13.4522 181.125 11.7805 175.68C10.6661 171.667 9.55164 167.655 8.7158 163.643C8.15858 160.777 7.60136 157.911 7.32274 154.759C6.48691 148.454 5.92969 142.149 5.92969 135.557C5.92969 131.831 5.92972 128.106 6.48694 124.38C6.76556 122.087 6.76552 119.795 7.32274 117.502C8.99441 104.032 12.6163 91.4222 17.9099 79.672C20.4174 73.9402 23.4822 68.2084 26.8255 63.0498C32.3978 54.1655 38.8058 45.8544 46.3283 38.403C70.0103 14.6161 102.608 0 138.27 0C139.663 0 141.056 0 142.449 0C143.842 0 145.514 6.55525e-06 146.907 0.286596C154.43 0.859776 161.952 2.00614 168.917 3.72568C173.097 4.87204 177.276 6.01839 181.176 7.45134C183.962 8.31111 186.47 9.45747 189.256 10.6038C191.206 11.4636 193.157 12.3234 195.107 13.1831C195.385 13.4697 195.664 13.4697 196.221 13.7563C209.037 20.0613 220.739 28.659 230.769 38.9762C232.162 40.4092 233.555 41.8421 234.948 43.2751C235.784 44.4214 236.899 45.2812 237.734 46.4276C239.406 48.1471 240.799 50.1532 242.192 51.8728C247.486 58.7509 251.944 66.2023 255.844 73.9402C260.302 83.1111 263.924 92.8551 266.431 102.886C268.382 113.203 269.775 124.093 269.775 135.27Z" fill="url(#paint0_radial_810_203)"/>
<path fill-rule="evenodd" clip-rule="evenodd" d="M195.664 13.183C195.107 13.183 194.828 13.183 194.271 13.4696C192.878 13.7562 191.485 13.4696 190.092 13.183C188.977 12.8964 188.42 12.3232 187.027 12.3232C185.355 12.0366 183.962 11.4634 182.291 11.1768C180.619 10.8903 179.226 10.3171 177.554 9.7439C176.161 9.17072 175.604 9.45731 174.49 9.7439C173.375 10.0305 172.539 9.45731 171.425 9.17072C170.31 8.59754 168.917 8.59754 167.803 8.31095C164.459 7.73777 161.116 6.59141 157.773 5.73164C155.823 5.15846 153.872 5.15847 151.643 5.15847C149.972 5.15847 148.579 5.73164 146.907 5.73164C145.793 5.73164 144.957 5.44505 143.842 5.44505C142.728 5.15846 141.613 5.44505 140.499 5.44505C138.827 5.15846 137.991 4.87187 136.32 5.44505C134.927 5.73164 134.091 5.73164 132.698 6.01823C131.305 6.01823 129.633 6.59141 128.24 6.878C125.733 7.45118 122.946 8.02436 120.439 8.02436C118.767 8.02436 116.538 7.45119 115.145 8.02436C114.31 8.31096 113.752 9.45731 112.916 10.0305C111.523 11.4634 110.13 12.6098 109.016 14.0427C107.901 15.4757 106.787 17.1952 106.787 19.2014C106.787 20.9209 107.623 22.927 108.459 24.36C109.294 26.0795 109.573 27.5125 107.901 28.6588C105.951 30.0918 103.444 31.2381 101.215 32.0979C99.5431 32.6711 98.1501 32.9577 97.0356 31.8113C96.4784 31.5247 96.1998 30.665 95.6426 30.0918C95.0854 29.8052 94.2495 30.0918 93.6923 30.3784C92.0206 30.9515 90.349 31.5247 88.6773 31.8113C87.5629 32.0979 86.727 32.6711 85.6126 32.6711C84.4981 32.9577 83.6622 32.0979 82.2692 32.3845C80.5975 32.6711 78.6473 33.5309 76.9756 33.5309C75.5825 33.5309 73.9109 32.9577 72.7964 32.3845C72.2392 32.0979 71.9606 31.5247 71.1247 31.8113C70.5675 31.8113 69.7317 32.6711 69.453 33.2443C68.8958 33.8174 68.8958 34.6772 68.3386 35.2504C67.7814 36.1102 67.5028 36.6833 66.9456 37.5431C66.1097 38.9761 65.2739 40.409 64.4381 41.842C63.8809 42.7017 63.3236 44.1347 62.4878 44.9945C62.2092 45.5676 61.3734 45.8542 60.8162 46.1408C59.4231 47.0006 58.03 48.1469 56.637 49.0067C54.1295 51.0128 51.622 53.3056 49.1144 55.3117C47.1642 56.7446 44.3781 57.6044 42.1492 58.7508C40.7561 59.3239 39.3631 59.8971 37.97 60.4703C37.4128 60.7569 36.5769 60.7569 36.2983 61.3301C35.7411 61.9033 35.4625 62.4764 35.1839 63.3362C34.0694 64.7691 32.6763 66.4887 31.8405 68.2082C31.2833 69.3546 31.0047 70.2144 30.4475 71.3607C29.8902 72.7937 29.0545 74.2266 28.7759 75.9461C27.6614 79.0986 27.6613 82.5377 26.2683 85.6902C25.7111 87.4097 24.5966 89.1293 23.7608 90.8488C22.3677 93.7147 22.0892 97.1538 21.8106 100.306C21.532 102.026 21.8105 104.319 22.0891 106.038C22.3677 108.044 22.3677 110.05 22.3677 112.056C22.3677 114.063 20.9747 116.355 19.8603 117.788C18.7458 119.221 16.7955 119.794 15.4025 121.227C14.288 122.374 12.8949 123.52 12.3377 125.24C12.0591 125.813 12.3377 126.673 12.3377 127.532C12.0591 129.252 11.5019 130.685 11.5019 132.404C11.2233 134.41 11.2233 136.417 11.2233 138.709C11.2233 139.856 11.2233 140.715 11.2233 141.862C11.2233 143.008 11.5019 143.868 11.7805 144.728C11.7805 145.301 11.7805 146.161 11.7805 146.734C11.7805 147.594 12.3377 148.453 12.3377 149.027C12.8949 151.033 13.1736 152.752 13.4522 154.758C13.7308 156.478 14.5667 158.197 14.8453 159.917C15.6811 162.21 15.9597 164.502 16.5169 167.082C16.7955 168.801 16.7955 170.807 17.0741 172.527C17.3528 173.96 17.6314 175.393 17.6314 176.826C17.6314 179.118 17.0741 181.125 17.0741 183.417C17.0741 187.143 18.4672 190.869 19.303 194.594C19.5816 195.741 19.8603 196.6 20.1389 197.747C10.9447 179.405 5.92969 158.484 5.92969 136.417C5.92969 109.477 13.4522 84.5439 26.5469 63.6228C32.1191 54.7385 38.5272 46.4274 46.0497 39.2627C69.7317 15.4757 102.329 0.859619 137.991 0.859619C140.778 0.859619 143.842 0.859615 146.628 1.1462C163.902 0.859615 180.619 5.73164 195.664 13.183Z" fill="url(#paint1_linear_810_203)"/>
<path opacity="0.4" fill-rule="evenodd" clip-rule="evenodd" d="M130.751 270.827C130.751 270.827 147.468 245.32 165.577 245.32C183.966 245.32 192.324 252.199 206.812 243.601C221.3 235.003 227.15 229.558 233.837 224.973C240.524 220.387 241.638 218.954 241.638 218.954L244.703 214.942C244.703 214.942 234.673 209.783 225.757 217.235C216.842 224.686 200.682 241.595 187.866 241.308C175.05 241.308 175.607 233.57 161.398 239.589C146.91 245.607 116.82 266.528 116.82 266.528C116.82 266.528 122.114 270.54 130.751 270.827Z" fill="#7D72B3"/>
<path opacity="0.4" fill-rule="evenodd" clip-rule="evenodd" d="M5.6543 135.27C5.6543 135.27 36.8588 192.015 66.9488 200.899C97.0388 209.784 131.308 204.052 143.01 208.637C154.711 213.223 161.119 231.564 161.119 231.564L165.577 234.144C165.577 234.144 175.607 218.095 181.737 227.552C181.737 227.552 179.229 214.083 186.752 197.747C194.274 181.411 199.011 163.929 208.205 158.198C217.399 152.466 234.116 149.886 247.489 155.332C260.862 160.777 267.549 159.63 267.549 159.63L268.663 153.325L269.778 147.594C269.778 147.594 256.962 149.6 246.932 143.008C246.932 143.008 248.325 145.588 256.126 130.398C263.927 115.209 263.091 101.453 263.091 101.453L261.977 88.8428C261.977 88.8428 257.798 132.691 239.688 145.301C239.688 145.301 199.568 136.703 182.573 185.424C182.573 185.424 179.786 217.808 162.791 216.948C146.074 216.089 151.925 194.881 127.408 194.594C103.168 194.308 88.4019 204.625 64.4413 190.582C40.4807 176.539 5.6543 135.27 5.6543 135.27Z" fill="#7D72B3"/>
<path opacity="0.4" fill-rule="evenodd" clip-rule="evenodd" d="M12.8975 179.691L14.5691 184.277C14.5691 184.277 40.2014 198.893 56.6395 219.241C72.7989 239.588 75.8637 253.345 75.8637 253.345C75.8637 253.345 78.6498 241.308 64.7192 218.381C50.51 195.74 20.42 183.13 12.8975 179.691Z" fill="#7D72B3"/>
<path opacity="0.4" fill-rule="evenodd" clip-rule="evenodd" d="M20.9785 120.655C20.9785 120.655 94.8105 151.607 134.931 149.314C175.051 146.735 192.046 123.234 208.205 101.74C224.086 80.2457 230.216 54.1661 230.216 54.1661C230.216 54.1661 199.847 114.35 162.234 130.399L140.503 134.984C140.503 134.984 151.926 126.387 159.727 117.502C167.528 108.618 197.897 96.0082 200.962 85.6909C203.748 75.3737 203.469 58.4649 208.484 47.5745C213.499 36.6841 218.235 27.7998 218.235 27.7998L205.141 25.5071L199.011 40.4097C199.011 40.4097 197.34 65.0565 192.603 78.2396C187.867 91.7093 142.175 128.106 131.866 134.125C121.557 140.143 30.4513 127.246 20.9785 120.655Z" fill="#7D72B3"/>
<path opacity="0.4" fill-rule="evenodd" clip-rule="evenodd" d="M37.9727 59.3245C37.9727 59.3245 67.7841 86.5505 106.79 87.4103C146.074 88.27 160.562 85.4041 173.656 70.5015C186.751 55.5988 200.682 30.3789 200.682 30.3789C200.682 30.3789 183.965 38.69 172.263 55.0256C160.84 71.0747 106.232 98.5873 37.9727 59.3245Z" fill="#7D72B3"/>
<g opacity="0.25">
<path opacity="0.4" fill-rule="evenodd" clip-rule="evenodd" d="M40.4798 59.8981C36.5793 64.7701 33.2359 69.3555 30.7284 75.0873C28.4996 79.9594 27.6637 85.6912 26.8279 91.1364C26.2707 94.2888 25.9921 97.4413 25.4348 100.88C25.1562 103.746 24.3204 106.612 24.599 109.478C25.1563 113.49 25.4349 117.789 27.3852 121.228C29.3354 124.954 31.2857 128.393 33.7932 131.832C36.3007 134.985 39.3654 136.704 43.5446 136.991C45.7735 137.277 48.0023 136.704 50.2312 136.991C53.296 137.277 56.3607 137.85 59.4255 138.424C65.5549 139.57 72.5202 139.57 76.9779 134.411C80.5999 130.113 82.2716 124.954 84.5005 119.795C87.008 114.35 90.0726 110.051 94.5304 106.326C97.8738 103.746 100.939 100.594 104.003 97.7279C105.396 96.5816 106.232 95.1486 107.904 94.0023C109.575 93.1425 110.411 91.9961 111.804 90.5632C113.197 89.4168 114.59 88.557 115.705 87.1241C117.655 84.8314 119.048 81.9655 119.884 79.3862C120.999 76.5203 121.277 73.6544 121.834 70.5019C122.113 67.636 121.277 64.7701 120.441 61.9042C118.77 56.7456 114.312 53.3065 110.411 50.154C105.396 46.1417 99.2668 44.4222 93.1374 42.9893C87.5651 41.8429 80.5999 41.5563 74.7491 42.7027C68.6196 43.849 62.4901 44.7088 56.9179 47.2881C52.7387 49.2942 50.2313 51.8736 46.888 55.026C45.2163 56.459 43.2659 57.6054 41.5943 59.3249C39.644 61.6176 37.6937 64.1969 40.4798 59.8981Z" fill="black"/>
<path opacity="0.4" fill-rule="evenodd" clip-rule="evenodd" d="M100.103 34.6778C100.938 33.2449 101.774 30.9521 102.889 29.8058C103.446 28.946 104.282 28.3728 105.118 27.7997C107.346 25.7935 109.854 24.3606 112.64 23.5008C114.312 22.9276 115.983 22.9276 117.376 23.5008C119.048 23.7874 121.834 24.9338 122.949 26.0801C125.178 28.3728 123.785 32.0985 122.949 34.6778C122.391 37.2571 121.556 39.8364 119.327 41.2694C117.934 42.4157 115.983 43.2755 114.312 43.5621C113.476 43.8487 112.361 43.8487 111.247 43.8487C110.411 43.8487 109.575 44.1353 109.018 44.1353C107.068 44.1353 104.282 42.7023 103.725 40.9828C103.446 40.123 103.167 38.9767 102.61 38.1169C102.331 37.2571 102.053 36.6839 101.774 35.8242C101.217 34.3912 100.938 32.9583 100.103 34.6778Z" fill="black"/>
<path opacity="0.4" fill-rule="evenodd" clip-rule="evenodd" d="M122.111 49.0072C121.554 50.4402 121.275 52.1597 121.275 53.5927C121.833 53.8792 122.111 54.739 122.947 55.3122C123.504 55.5988 124.34 55.5988 125.176 55.5988C126.569 55.5988 127.683 55.5988 127.962 53.8792C128.241 52.4463 126.848 51.2999 125.733 50.4402C124.897 49.867 123.504 48.434 122.668 49.5804L122.111 49.0072Z" fill="black"/>
<path opacity="0.4" fill-rule="evenodd" clip-rule="evenodd" d="M140.223 71.0745C138.551 72.2209 136.601 73.3672 134.929 74.8002C132.979 76.5197 131.307 78.5259 129.636 80.8186C127.685 83.3979 125.178 86.2638 125.735 89.9895C126.292 93.4285 127.407 96.581 129.914 98.8737C132.979 101.74 137.716 101.74 141.337 103.459C144.402 104.892 146.352 108.045 147.745 111.197C149.974 115.783 154.989 116.642 159.447 117.502C162.233 118.075 165.298 118.362 168.084 118.935C171.985 119.508 175.885 120.081 179.786 120.655C187.03 121.228 194.274 122.947 201.518 122.374C209.319 121.801 216.284 118.935 222.413 114.35C227.707 110.624 232.722 103.746 234.115 97.1542C235.508 90.2761 233.279 82.5381 230.214 76.2331C226.035 68.2086 221.02 61.0439 215.448 53.8792C212.383 49.8669 209.04 46.4278 205.697 42.7021C202.911 39.2631 200.124 36.3972 197.06 33.5313C189.816 27.2263 180.9 22.0677 171.428 21.4945C167.806 21.2079 164.184 21.7811 160.562 23.214C157.497 24.3604 155.268 26.0799 153.039 28.6592C147.467 34.6776 144.402 42.4156 141.895 50.1535C140.78 53.8791 139.666 57.8914 140.223 61.6171C140.223 62.7634 141.059 63.6232 141.059 64.7696C141.059 65.9159 141.059 66.7757 141.059 67.9221C141.059 68.4952 141.059 69.0684 140.78 69.6416C140.502 70.2148 139.666 71.0745 140.223 71.0745Z" fill="black"/>
<path opacity="0.4" fill-rule="evenodd" clip-rule="evenodd" d="M110.133 98.0145C106.511 100.307 102.61 102.027 99.824 105.466C99.2668 106.039 98.7096 106.899 98.9882 107.759C99.2668 108.618 100.381 109.191 101.217 109.478C104.003 110.624 107.347 111.198 110.411 110.624C113.197 110.051 116.541 108.332 117.934 105.752C119.884 102.6 117.655 97.4413 113.755 97.7279C113.197 97.7279 112.64 98.0145 112.083 98.0145C111.526 98.0145 111.247 98.0145 110.69 98.0145C110.133 98.0145 110.133 98.0145 109.575 98.3011C109.018 98.8743 108.461 99.4474 110.133 98.0145Z" fill="black"/>
<path opacity="0.4" fill-rule="evenodd" clip-rule="evenodd" d="M33.7934 150.46C32.4003 151.893 30.7287 153.039 29.8928 154.759C29.057 156.478 28.4998 158.198 28.2211 160.204C27.9425 161.923 27.3853 163.643 27.9425 165.362C28.2211 166.795 29.057 168.228 29.6142 169.948C30.1714 171.954 31.0073 173.673 31.2859 175.68C31.8431 178.259 32.6789 180.265 33.7934 182.558C34.9078 184.85 36.0222 186.857 37.4153 188.863C38.8083 191.155 40.2014 192.588 41.8731 194.595C48.0025 200.9 55.2464 207.778 64.162 208.924C68.6198 209.497 73.3562 208.351 76.6995 204.912C80.3215 201.186 82.5503 196.027 83.3862 190.869C83.9434 186.57 83.6648 181.985 81.4359 178.259C79.4857 175.106 77.5353 171.954 75.3064 169.375C73.6348 167.655 71.9631 166.222 70.0129 164.503C68.3412 162.783 66.6695 161.064 64.7193 159.917C61.3759 157.338 58.3112 154.759 54.9679 152.466C51.9031 150.173 48.5598 147.88 44.9378 147.021C42.4303 146.447 39.6442 145.874 37.1367 147.021C36.0223 147.594 35.1864 147.88 34.6292 148.74C34.3506 149.313 33.7934 150.173 33.7934 150.746C33.2362 150.173 32.9575 150.173 33.7934 150.46Z" fill="black"/>
<path opacity="0.4" fill-rule="evenodd" clip-rule="evenodd" d="M57.1957 144.441C57.1957 145.587 57.4743 146.734 57.4743 147.594C57.4743 147.88 57.7529 148.167 57.7529 148.74C58.0315 149.027 58.8674 149.027 59.146 149.027C60.2604 149.027 61.3749 148.453 62.2107 147.88C63.6038 146.734 64.1609 144.441 62.7679 143.295C61.9321 142.435 60.539 141.862 59.146 142.148C58.5888 142.435 55.524 143.868 56.6385 145.014L57.1957 144.441Z" fill="black"/>
<path opacity="0.4" fill-rule="evenodd" clip-rule="evenodd" d="M233.835 114.636C234.392 112.344 234.392 110.624 235.785 108.904C237.178 107.472 238.571 105.752 239.686 104.319C241.915 101.453 243.308 97.7275 244.144 94.2884C244.979 91.1359 244.144 87.9834 245.537 84.8309C245.815 83.9712 246.373 82.8248 246.93 82.2516C247.487 81.9651 249.159 82.2516 249.716 82.5382C250.273 82.8248 251.109 83.6846 251.666 84.2578C252.502 85.1175 253.338 85.9773 254.452 87.1237C258.91 91.9957 261.417 99.447 261.139 106.039C261.139 110.051 260.582 113.49 259.467 117.216C258.91 118.649 258.353 120.081 257.517 121.514C256.681 123.234 255.288 124.094 253.895 125.24C249.437 128.106 242.75 127.246 238.85 123.521C237.457 122.088 236.9 120.368 235.785 118.649C234.949 117.502 234.392 116.356 234.114 114.636C234.114 114.35 234.114 114.35 233.835 114.636Z" fill="black"/>
<path opacity="0.4" fill-rule="evenodd" clip-rule="evenodd" d="M233.835 63.623C234.671 66.2023 234.949 69.0682 237.736 70.5011C238.293 70.7877 239.129 71.0743 239.686 71.0743C240.243 71.0743 240.8 70.7877 241.358 70.2145C244.144 68.2084 242.472 63.3364 240.8 61.0437C239.686 59.8973 238.293 59.3241 236.9 58.751C236.343 58.4644 236.342 58.4644 235.785 58.751C235.228 59.0375 234.949 59.0376 234.671 59.6107C234.392 59.8973 234.392 60.7571 234.392 61.0437C234.392 61.6169 234.114 61.9035 234.114 62.19C233.835 63.0498 234.114 63.9096 234.392 64.7693L233.835 63.623Z" fill="black"/>
<path opacity="0.4" fill-rule="evenodd" clip-rule="evenodd" d="M213.22 173.961C212.662 175.68 212.105 177.686 211.269 179.406C210.434 181.412 209.598 183.131 208.762 185.138C206.812 190.01 205.697 195.455 204.304 200.613C202.911 206.059 202.075 211.79 201.518 217.236C201.239 220.102 200.682 222.967 200.961 225.833C200.961 227.839 200.961 230.419 201.796 232.425C202.354 233.571 203.468 235.577 204.583 236.151C206.254 237.01 208.205 235.577 209.598 234.718C214.891 231.852 219.628 227.84 223.807 223.541C227.986 219.242 232.165 215.23 235.787 210.358C237.459 208.065 239.13 206.059 240.524 203.479C241.638 201.473 242.474 199.181 243.31 197.174C244.145 195.168 244.981 193.162 245.817 191.156C246.932 188.863 247.767 186.284 248.603 183.705C249.996 178.833 251.389 173.961 249.718 169.089C248.325 164.79 244.981 161.637 240.524 160.777C238.295 160.204 235.508 159.631 233.28 159.631C231.051 159.918 228.543 160.491 226.314 161.351C224.364 162.21 222.414 163.07 220.742 164.217C219.906 164.79 219.07 165.649 218.235 166.509C216.842 167.942 215.727 169.375 214.613 171.095C214.055 171.954 213.777 172.528 212.941 173.101C212.662 174.534 212.105 175.967 213.22 173.961Z" fill="black"/>
<path opacity="0.4" fill-rule="evenodd" clip-rule="evenodd" d="M192.322 236.724C189.536 237.871 187.307 238.73 184.8 240.737C182.014 243.029 179.228 245.035 177.277 248.188C176.441 249.334 175.048 251.054 176.163 252.487C176.999 253.633 178.67 253.633 180.063 253.633C182.014 253.633 183.964 253.346 185.636 252.487C187.307 251.914 188.7 250.767 190.372 250.194C192.044 249.621 194.273 248.474 195.387 247.041C195.944 246.182 196.501 245.035 197.059 244.176C197.616 243.316 197.616 243.029 197.616 241.883C197.616 240.737 196.78 239.304 196.223 238.73C195.666 238.157 194.273 237.297 193.437 237.584C192.879 237.584 192.322 237.871 191.765 238.157C190.651 238.157 189.815 239.59 192.322 236.724Z" fill="black"/>
<path opacity="0.4" fill-rule="evenodd" clip-rule="evenodd" d="M188.979 220.102C188.422 217.809 187.864 216.376 187.864 214.083C188.143 212.077 188.143 210.358 188.979 208.638C189.536 207.778 190.65 205.486 191.486 205.199C191.765 205.199 192.601 205.199 192.879 205.199C194.272 205.486 195.108 207.205 195.387 208.638C195.944 210.644 195.387 212.937 195.665 215.23C195.665 216.949 195.387 218.382 194.83 219.815C194.272 220.962 193.437 220.962 192.322 220.962C191.208 220.962 190.65 220.675 189.815 219.815C189.536 219.529 188.979 219.529 188.7 219.242C188.143 218.669 188.143 218.096 188.979 220.102Z" fill="black"/>
<path opacity="0.4" fill-rule="evenodd" clip-rule="evenodd" d="M186.469 134.125C186.19 135.558 186.19 137.277 186.19 138.71C186.748 138.71 187.305 139.857 187.862 139.857C188.976 140.143 189.812 139.57 190.648 138.997C192.32 137.564 192.877 134.985 192.32 132.978C192.041 130.972 189.812 130.686 188.141 130.972C187.583 130.972 186.747 131.259 186.469 131.545C185.354 132.405 185.354 133.552 185.354 134.698L186.469 134.125Z" fill="black"/>
<path opacity="0.4" fill-rule="evenodd" clip-rule="evenodd" d="M60.5405 227.552C61.3764 225.833 62.2122 224.113 63.3266 222.68C64.7197 220.961 66.1127 219.528 67.5058 218.095C69.4561 216.375 71.4064 214.656 73.3567 213.223C75.3069 211.79 76.9786 210.357 78.9289 208.924C82.2722 206.631 85.8942 205.198 89.7947 203.765C92.8594 202.619 96.2028 202.332 99.5461 202.906C102.889 203.479 106.233 205.485 108.462 207.778C110.691 210.07 113.198 212.936 114.591 215.802C117.656 221.821 116.263 228.699 114.312 234.717C113.477 237.583 111.526 240.735 109.298 242.742C107.904 243.888 106.511 244.461 104.84 244.748C103.168 245.034 100.939 245.894 99.2675 245.894C91.1878 247.04 83.108 246.467 75.5855 243.601C72.5208 242.455 69.7346 241.022 66.6699 239.589C64.441 238.443 62.4907 237.01 61.0977 235.004C59.9832 233.571 59.1475 231.565 59.1475 229.558C59.1475 228.699 59.426 227.839 59.7046 226.979C60.2619 227.552 60.5405 227.266 60.5405 227.552Z" fill="black"/>
<path opacity="0.4" fill-rule="evenodd" clip-rule="evenodd" d="M120.163 231.278C119.606 232.711 119.327 234.431 119.049 235.864C119.606 236.15 119.606 237.01 119.885 237.583C120.442 238.156 120.72 238.443 121.556 238.443C122.392 238.443 123.228 238.443 123.785 238.443C124.9 238.156 125.178 237.87 125.735 237.01C126.293 236.15 126.571 235.577 126.571 234.431C126.571 233.571 126.293 232.711 125.735 232.138C125.457 231.565 124.9 230.992 124.342 230.705C123.228 229.845 122.392 230.418 121.556 230.992L120.163 231.278Z" fill="black"/>
<path opacity="0.4" fill-rule="evenodd" clip-rule="evenodd" d="M250.551 160.491C249.436 159.631 248.322 158.485 247.486 157.052C247.486 156.479 247.486 155.906 247.486 155.333C247.207 153.9 246.929 152.753 247.207 151.32C247.764 147.881 250.551 145.588 253.894 145.302C256.123 145.015 259.188 146.735 260.302 148.741C261.416 150.747 261.974 153.04 261.974 155.333C261.974 157.052 261.695 159.345 260.581 160.778C259.745 161.924 258.352 161.924 257.237 161.924C255.844 161.924 254.451 161.637 253.337 161.351C252.222 161.064 251.108 160.491 250.551 160.491Z" fill="black"/>
</g>
<path opacity="0.4" fill-rule="evenodd" clip-rule="evenodd" d="M153.038 250.766C153.317 250.766 158.053 248.473 159.446 248.473C160.004 248.473 160.561 249.046 161.118 249.333C162.511 250.192 163.347 251.052 163.068 252.772C162.79 255.064 160.561 257.93 158.053 258.79C154.989 259.936 151.645 258.504 150.531 256.211C149.416 253.918 152.203 250.192 155.546 249.906L153.038 250.766Z" fill="#7D72B3"/>
<path fill-rule="evenodd" clip-rule="evenodd" d="M91.1877 115.495C89.516 118.648 85.0582 124.093 86.4512 128.679C87.0084 130.685 88.4015 132.404 89.2373 134.41C91.4662 139.282 95.924 144.154 101.496 140.715C107.904 136.703 105.118 129.538 102.332 124.38C101.218 122.374 99.8246 120.081 97.8743 118.935C96.7599 118.361 95.0882 117.788 93.9738 117.502C91.7449 116.642 93.1379 115.495 91.1877 115.495Z" fill="#FF9F84"/>
<path fill-rule="evenodd" clip-rule="evenodd" d="M133.259 15.7619C132.98 17.4815 132.98 18.9144 133.259 20.6339C133.816 20.6339 134.095 20.9205 134.652 20.9205C135.209 20.9205 136.045 20.6339 136.602 20.0608C137.716 19.4876 137.995 18.0546 137.995 16.9083C137.995 15.7619 137.995 14.6156 136.881 14.0424C135.488 13.1826 134.095 13.7558 133.537 15.1888V15.7619H133.259Z" fill="#FFEF84"/>
<path fill-rule="evenodd" clip-rule="evenodd" d="M105.398 163.355C105.676 162.496 105.955 159.63 106.791 158.483C107.348 157.624 108.741 157.05 109.855 156.477C112.084 155.618 114.592 155.904 116.263 157.624C119.607 160.49 119.328 165.075 116.263 168.227C114.87 169.66 112.92 171.093 110.97 171.093C109.855 171.093 108.741 171.38 107.905 170.807C106.791 170.234 105.955 169.087 105.676 167.941C105.119 165.935 105.397 164.502 106.512 162.782L105.398 163.355Z" fill="#FF9F84"/>
<path fill-rule="evenodd" clip-rule="evenodd" d="M81.1555 161.924C81.1555 163.357 80.3196 167.082 82.5485 167.655C83.663 167.942 84.7774 166.509 84.7774 165.649C85.056 164.79 84.7775 163.357 84.4988 162.497C83.9416 161.35 82.8271 160.491 81.9913 161.637H81.1555V161.924Z" fill="#FF9F84"/>
<path fill-rule="evenodd" clip-rule="evenodd" d="M24.8789 135.557C25.1575 137.849 25.1575 141.575 26.5506 143.581C27.1078 144.441 27.6651 145.301 28.7795 145.587C29.894 145.874 30.4512 145.301 31.0084 144.441C32.1228 143.008 32.1228 142.148 32.1228 140.429C32.1228 138.996 31.5656 137.276 31.0084 135.843C30.4512 134.984 29.6153 134.124 29.0581 133.551C28.5009 132.977 27.9437 132.691 26.8292 132.691C25.4362 132.691 25.7148 134.41 25.4362 135.557H24.8789Z" fill="#FF9F84"/>
<path fill-rule="evenodd" clip-rule="evenodd" d="M220.463 124.379C220.463 124.093 220.742 120.08 221.577 119.221C221.856 118.934 222.692 118.647 222.97 118.361C224.085 117.788 225.478 117.501 226.871 118.074C228.543 118.934 230.214 121.513 229.657 123.519C229.1 126.099 226.314 127.818 224.085 127.818C221.577 127.818 219.627 124.666 221.02 122.373L220.463 124.379Z" fill="#FF9F84"/>
<path fill-rule="evenodd" clip-rule="evenodd" d="M84.7783 156.478C84.7783 156.478 85.057 154.472 85.3356 153.899C85.6142 153.612 85.8928 153.612 86.1714 153.612C86.7286 153.325 87.5645 153.325 88.1217 153.612C88.9575 154.185 89.7934 155.331 89.5147 156.478C89.2361 157.624 87.8431 158.771 86.7286 158.771C85.6142 158.771 84.4997 157.051 85.0569 155.905L84.7783 156.478Z" fill="#FF9F84"/>
<path fill-rule="evenodd" clip-rule="evenodd" d="M144.96 181.411C144.96 181.411 145.239 179.404 145.517 178.831C145.796 178.545 146.074 178.545 146.353 178.545C146.91 178.258 147.746 178.258 148.303 178.545C149.139 179.118 149.975 180.264 149.696 181.411C149.418 182.557 148.025 183.703 146.91 183.703C145.796 183.703 144.681 181.984 145.239 180.837L144.96 181.411Z" fill="#FF9F84"/>
<path fill-rule="evenodd" clip-rule="evenodd" d="M185.638 71.9339C185.638 71.9339 185.916 69.9278 186.195 69.3546C186.474 69.068 186.752 69.068 187.031 69.068C187.588 68.7814 188.424 68.7814 188.981 69.068C189.817 69.6411 190.653 70.7875 190.374 71.9339C190.096 73.0802 188.702 74.2266 187.588 74.2266C186.474 74.2266 185.359 72.5071 185.916 71.3607L185.638 71.9339Z" fill="#FF9F84"/>
<path fill-rule="evenodd" clip-rule="evenodd" d="M102.891 230.704C102.891 230.704 103.169 228.698 103.448 228.125C103.726 227.838 104.005 227.838 104.284 227.838C104.841 227.552 105.677 227.552 106.234 227.838C107.07 228.412 107.906 229.558 107.627 230.704C107.348 231.851 105.955 232.997 104.841 232.997C103.726 232.997 102.612 231.278 103.169 230.131L102.891 230.704Z" fill="#FF9F84"/>
<path fill-rule="evenodd" clip-rule="evenodd" d="M211.828 158.196C209.878 159.629 208.484 160.202 207.37 161.922C206.534 163.355 205.42 164.501 204.863 166.22C204.305 167.367 203.748 169.373 203.748 170.519C204.027 173.958 208.206 171.092 209.599 169.946C211.27 168.513 212.942 166.507 212.942 164.214C212.942 163.355 212.942 162.208 212.664 161.348C212.385 161.062 212.385 160.489 212.106 160.202C211.549 159.629 211.271 159.629 211.828 158.196Z" fill="#FF9F84"/>
<path fill-rule="evenodd" clip-rule="evenodd" d="M253.898 173.96C254.177 172.527 253.341 177.972 253.62 178.259C254.177 178.259 254.734 178.259 255.291 178.259C255.848 178.259 256.127 177.685 256.684 177.399C257.799 176.539 258.635 175.966 258.635 174.533C258.635 173.387 258.356 172.527 257.241 171.954C256.684 171.667 256.406 171.667 255.848 171.667C254.734 171.954 253.898 173.1 253.341 174.246L253.898 173.96Z" fill="#FF9F84"/>
<path fill-rule="evenodd" clip-rule="evenodd" d="M141.896 16.3344C141.896 15.188 141.338 19.2003 141.617 19.2003C141.896 19.2003 142.453 19.2003 142.732 19.2003C143.289 19.2003 143.289 18.9137 143.567 18.6271C144.403 18.0539 144.96 17.7674 144.96 16.621C144.96 15.7612 144.96 15.188 144.125 14.9015C143.846 14.9015 143.567 14.6149 143.289 14.6149C142.453 14.9015 141.896 15.4746 141.617 16.3344H141.896Z" fill="#FFEF84"/>
<path fill-rule="evenodd" clip-rule="evenodd" d="M213.22 127.246C213.22 126.1 212.663 130.112 212.941 130.112C213.22 130.112 213.777 130.112 214.056 130.112C214.613 130.112 214.613 129.825 214.892 129.539C215.727 128.966 216.285 128.679 216.285 127.533C216.285 126.673 216.285 126.1 215.449 125.813C215.17 125.813 214.892 125.527 214.613 125.527C213.777 125.813 213.22 126.386 212.941 127.246H213.22Z" fill="#FFEF84"/>
<path fill-rule="evenodd" clip-rule="evenodd" d="M137.995 232.997C139.11 232.997 135.209 232.997 135.209 232.997C135.209 233.284 135.209 233.857 135.209 234.144C135.209 234.717 135.488 234.717 135.766 235.003C136.323 235.576 136.881 236.15 137.716 236.15C138.552 236.15 139.11 235.863 139.11 235.003C139.11 234.717 139.388 234.43 139.11 234.144C138.831 233.284 137.995 232.711 137.438 232.711L137.995 232.997Z" fill="#FFEF84"/>
<path fill-rule="evenodd" clip-rule="evenodd" d="M77.8155 116.355C77.8155 115.209 77.2584 119.221 77.537 119.221C77.8156 119.221 78.3728 119.221 78.6514 119.221C79.2087 119.221 79.2086 118.934 79.4872 118.648C80.3231 118.075 80.8803 117.788 80.8803 116.642C80.8803 115.782 80.8803 115.209 80.0445 114.922C79.7659 114.922 79.4872 114.636 79.2086 114.636C78.3728 114.922 77.8156 115.495 77.537 116.355H77.8155Z" fill="#FFEF84"/>
<path fill-rule="evenodd" clip-rule="evenodd" d="M136.046 221.247C136.324 219.814 135.488 225.259 135.767 225.546C136.324 225.546 136.881 225.546 137.439 225.546C137.996 225.546 138.274 224.972 138.832 224.686C139.946 223.826 140.782 223.253 140.782 221.82C140.782 220.674 140.503 219.814 139.389 219.241C138.832 218.954 138.553 218.954 137.996 218.954C136.881 219.241 136.046 220.387 135.488 221.533L136.046 221.247Z" fill="#FF9F84"/>
<path fill-rule="evenodd" clip-rule="evenodd" d="M62.2087 132.117C104.836 138.995 102.329 150.746 151.922 136.703C201.514 122.66 237.177 46.1403 237.177 46.1403C237.177 46.1403 239.684 40.4085 237.455 36.9694C236.619 35.5364 230.211 38.4023 230.211 38.4023C231.326 63.0491 197.892 114.062 160.001 128.678C155.822 130.111 151.922 130.684 148.021 131.544C146.349 130.684 141.892 126.385 162.509 112.056C187.027 95.1471 197.892 88.8422 195.663 71.0736C193.435 53.305 215.166 25.5058 215.166 25.5058C215.166 25.5058 216.838 18.0545 212.659 13.469C207.365 7.45064 195.663 13.469 195.663 13.469C195.663 13.469 192.599 48.1464 149.971 66.7747C107.344 85.4031 83.3831 76.2322 67.2237 71.0736C50.7856 65.915 46.0492 38.1158 46.0492 38.1158C46.0492 38.1158 32.1187 35.2499 27.1036 44.1341C23.4817 50.7257 28.7753 59.0368 28.7753 59.0368C28.7753 59.0368 54.6861 68.7809 77.8109 77.9518C100.936 87.1226 145.513 78.8115 161.116 71.0736C176.997 63.3357 176.997 50.7257 189.534 39.2621C194.828 34.6767 200.121 31.2376 204.579 29.2315C204.579 29.2315 190.649 51.2989 192.32 66.7747C193.992 82.2506 184.519 81.6774 161.116 108.903C144.678 127.818 130.468 134.123 123.503 135.843C105.672 137.562 89.234 135.556 67.2237 129.251C31.2828 119.221 9.82971 103.172 9.82971 103.172C9.82971 103.172 6.76498 101.739 5.65054 105.178C5.09331 106.611 8.43665 110.91 8.43665 110.91C8.43665 110.91 19.5812 124.952 62.2087 132.117Z" fill="url(#paint2_linear_810_203)"/>
<path fill-rule="evenodd" clip-rule="evenodd" d="M92.3007 262.23C92.3007 262.23 81.7135 255.351 73.9123 234.43C66.1112 213.509 66.9471 214.942 52.1807 201.759C37.4143 188.576 11.782 175.679 11.782 175.679C11.782 175.679 10.1104 176.253 10.1104 176.826C10.1104 179.405 13.1751 179.978 13.1751 179.978C13.1751 179.978 37.1357 190.582 52.1807 207.491C67.2257 224.4 83.3852 254.778 71.9621 253.059C71.9621 253.059 74.4695 260.51 80.599 262.23C86.4498 263.949 92.3007 262.23 92.3007 262.23Z" fill="url(#paint3_radial_810_203)"/>
<path d="M197.339 161.063C202.354 155.618 208.204 148.453 232.165 148.167C256.126 147.88 268.385 153.325 268.385 153.325C268.385 153.325 273.4 151.892 273.957 145.301C274.514 138.709 269.499 135.557 269.499 135.557C269.22 137.563 266.713 151.319 246.374 143.295C246.374 143.008 253.618 136.417 255.011 122.66C256.683 108.904 261.419 89.1293 261.419 89.1293C261.419 89.1293 264.205 84.2573 262.534 80.245C261.976 78.8121 257.24 78.2389 257.24 78.2389C261.419 106.038 251.111 139.283 239.966 143.295C226.593 143.581 210.155 145.874 202.632 151.033C193.438 157.338 184.244 185.423 178.393 205.198C177 210.07 173.935 215.515 170.035 220.674C155.268 224.4 160.005 206.058 153.597 200.613C147.189 195.168 135.208 198.033 127.129 195.168C119.327 192.015 117.099 185.71 108.74 184.564C100.382 183.417 87.0085 199.753 71.6849 193.161C56.3613 186.57 5.65395 124.666 5.65395 124.666C5.65395 124.666 1.19617 123.52 0.0817254 126.673C-0.754109 129.252 5.09678 135.843 5.09678 135.843C5.09678 135.843 40.4804 190.582 74.1924 197.747C107.904 204.912 138.552 198.32 149.139 207.491C159.726 216.948 160.562 231.851 160.562 232.138C149.696 244.174 136.601 254.492 130.472 257.644C119.885 263.089 102.611 266.815 102.611 266.815C105.118 269.681 109.855 271.974 114.87 273.407C122.392 275.413 127.129 271.687 127.129 271.687C127.129 271.687 122.949 267.961 128.522 263.089C142.731 250.766 153.039 245.607 167.806 241.882C176.721 239.589 179.508 243.888 180.622 242.455C194.553 247.04 205.418 236.437 217.12 226.406C228.822 216.662 244.145 215.229 244.145 215.229C244.145 215.229 251.946 213.796 254.175 210.357C256.126 207.204 251.668 203.479 251.668 203.479C251.668 203.479 244.981 206.345 232.165 212.936C219.628 219.528 205.976 238.729 190.373 238.156C181.736 237.869 183.687 228.985 182.851 227.552C182.851 226.979 182.851 226.406 182.851 225.546C182.572 219.241 181.179 213.223 181.179 208.637C181.179 207.491 181.179 206.345 181.458 205.198C183.687 198.033 192.324 166.222 197.339 161.063ZM170.313 220.387C167.527 224.113 164.462 227.839 161.119 231.564L170.313 220.387ZM182.294 230.132C182.572 231.564 182.851 232.997 182.572 234.717C182.572 235.577 182.294 236.15 181.736 236.437C181.179 236.723 180.9 236.723 180.343 236.723C179.786 237.01 178.95 237.01 178.393 237.296C177.279 237.583 176.164 237.296 175.328 237.296C174.214 237.296 173.099 237.296 171.985 237.296C171.428 237.296 170.871 237.01 170.313 237.01C169.756 237.01 168.92 237.01 168.642 236.723C167.527 236.15 166.691 234.717 165.856 234.43C165.856 233.284 165.855 232.424 166.413 231.564C166.413 231.278 166.691 230.991 166.691 230.418C166.97 229.845 166.97 229.272 167.249 228.699C167.806 227.266 168.363 225.833 169.478 224.686C169.756 224.113 170.313 223.253 170.592 222.68C171.149 221.82 171.706 221.247 172.264 220.674C173.099 219.814 173.935 218.955 175.05 218.381C175.886 217.808 177.279 217.235 178.393 217.522C179.508 217.808 179.786 219.241 180.065 220.101C180.343 220.674 180.343 221.534 180.622 222.107C180.901 222.967 181.179 223.827 181.458 224.686C181.736 225.833 181.736 226.692 182.015 227.839C182.015 228.412 182.015 229.272 182.294 230.132Z" fill="url(#paint4_linear_810_203)"/>
<path fill-rule="evenodd" clip-rule="evenodd" d="M31.8467 40.9835C31.8467 40.9835 37.6975 53.5935 53.0212 65.0571C53.0212 65.0571 48.0061 46.7153 44.3842 39.264C44.3842 39.264 39.3692 34.392 31.8467 40.9835Z" fill="#FFFFBF"/>
<path fill-rule="evenodd" clip-rule="evenodd" d="M112.361 79.6722C112.361 79.6722 122.67 75.3734 126.013 77.0929C126.013 76.8063 115.983 79.6722 112.361 79.6722Z" fill="#FFFFBF"/>
<path fill-rule="evenodd" clip-rule="evenodd" d="M147.191 69.642C149.141 69.0688 151.091 68.4956 152.763 67.6358C154.435 67.0626 155.828 66.2029 157.499 65.3431C159.45 64.1967 161.4 63.0504 163.072 61.6174C163.629 61.3308 163.907 61.0443 164.465 60.7577C165.022 60.4711 165.579 59.8979 166.136 59.6113C166.693 59.3247 166.972 58.7515 167.529 58.4649C168.087 58.1784 168.365 57.6052 168.922 57.3186C169.758 56.7454 170.594 55.8856 171.151 55.3125C171.43 55.0259 171.708 54.7393 172.266 54.1661C172.544 53.8795 172.823 53.8795 173.102 53.8795C173.102 54.1661 172.823 54.7393 172.823 55.0259C172.544 55.5991 172.266 55.8856 171.987 56.4588C171.43 57.6052 170.315 58.1784 169.48 59.3247C168.922 59.8979 168.365 60.4711 167.529 61.0443C166.693 61.6174 165.579 62.1906 164.465 62.7638C163.35 63.337 162.236 63.6236 161.4 64.1967C160.564 64.7699 159.45 65.3431 158.614 65.6297C158.056 65.9163 157.221 66.4895 156.663 66.7761C156.106 67.0626 155.549 67.3492 154.992 67.6358C154.156 68.209 153.32 68.4956 152.484 69.0688C151.927 69.3554 151.648 69.3554 151.091 69.642C150.255 70.2151 148.862 70.5017 147.748 70.5017C147.469 70.5017 146.912 70.5017 146.633 70.5017C146.355 70.5017 146.076 70.2151 146.076 70.2151C146.633 69.9285 146.912 69.642 147.191 69.642Z" fill="#FFFFBF"/>
<path fill-rule="evenodd" clip-rule="evenodd" d="M175.053 51.0132C174.495 51.2998 174.217 51.5864 173.66 52.1596C173.66 52.4462 173.381 52.7327 173.938 52.7327C174.495 52.7327 174.774 52.4461 175.331 51.873C175.61 51.5864 175.888 51.0132 175.61 50.7266C175.331 50.44 174.774 50.7266 174.495 51.0132H175.053Z" fill="#FFFFBF"/>
<path fill-rule="evenodd" clip-rule="evenodd" d="M197.617 14.0424C197.339 14.6156 196.782 15.1888 196.503 15.762C196.225 16.3352 196.224 16.6218 195.946 17.1949C195.667 18.0547 195.389 19.2011 195.11 20.0608C194.553 21.7804 194.274 23.7865 193.438 25.506C193.16 26.3658 192.881 26.939 192.324 27.7988C192.045 28.0853 191.767 28.6585 191.767 28.9451C191.488 29.2317 191.488 29.5183 191.209 30.0915C190.931 30.3781 190.931 30.6647 190.652 30.9513C190.374 31.2378 190.374 31.811 190.095 32.0976C189.816 32.3842 189.259 33.244 189.538 33.5306C189.816 33.5306 189.816 33.244 190.095 33.244C190.374 32.9574 190.931 32.6708 191.209 32.0976C192.045 31.5244 192.603 30.6647 193.16 29.8049C193.438 29.5183 193.717 29.2317 193.996 28.6585C194.274 28.0853 194.831 27.7988 195.11 27.2256C195.667 26.3658 196.503 25.506 197.06 24.9329C197.339 24.6463 197.618 24.0731 197.896 23.7865C198.175 23.4999 198.453 23.2133 198.732 22.6401C199.846 21.4938 200.682 20.3474 201.797 19.2011C202.632 18.3413 203.19 17.1949 204.026 16.3352C204.583 15.4754 205.14 14.6156 205.419 13.7559C205.697 13.4693 205.976 12.6095 205.976 12.3229C205.697 11.7497 205.14 11.4631 204.583 11.4631C203.747 11.4631 202.911 11.4631 202.075 11.4631C201.24 11.7497 200.682 12.0363 199.846 12.3229C199.289 12.6095 198.732 13.1827 197.896 13.4693C197.618 14.0424 197.06 14.329 197.617 14.0424Z" fill="#FFFFBF"/>
<path fill-rule="evenodd" clip-rule="evenodd" d="M204.305 30.3786C204.026 30.9518 203.748 31.525 203.469 32.0982C203.191 32.3847 202.912 32.9579 202.633 33.2445C202.076 34.1043 201.797 34.9641 201.24 35.5372C200.404 36.9702 199.29 38.4031 198.733 39.8361C198.454 40.4093 198.176 40.9824 197.897 41.5556C197.618 42.1288 197.34 42.9886 197.34 43.5618C197.061 44.1349 197.061 44.7081 196.782 45.5679C196.782 46.1411 196.504 46.7142 196.504 47.2874C197.061 46.7142 197.34 45.8545 197.897 45.2813C198.176 44.7081 198.454 44.1349 199.011 43.8483C199.569 43.5618 199.847 42.9886 200.126 42.4154C200.404 41.8422 200.962 41.5556 201.24 40.9824C201.519 40.4093 201.798 40.1227 202.076 39.5495C202.355 39.2629 202.633 38.6897 202.912 38.1165C203.191 37.5434 203.469 36.9702 203.748 36.397C204.026 35.2506 204.584 34.1043 204.862 32.9579C204.862 32.3847 205.141 31.8116 204.862 31.2384C204.862 30.9518 204.305 29.8054 204.305 30.3786Z" fill="#FFFFBF"/>
<path fill-rule="evenodd" clip-rule="evenodd" d="M195.109 49.0076C194.83 49.8674 194.552 50.4406 194.552 51.3004C194.552 51.587 194.552 51.8735 194.552 51.8735C194.83 51.8735 195.109 51.8735 195.109 51.5869C195.388 51.5869 195.388 51.3004 195.388 51.0138C195.666 50.7272 195.945 50.154 195.666 49.5808C195.666 49.0077 195.109 48.7211 194.83 49.2942L195.109 49.0076Z" fill="#FFFFBF"/>
<path fill-rule="evenodd" clip-rule="evenodd" d="M181.456 88.2698C180.063 89.7028 178.112 91.1357 176.998 92.8553C176.998 93.1419 176.162 93.7151 176.441 94.0016C176.719 94.2882 177.276 94.0016 177.555 94.0016C178.391 93.7151 179.227 93.1419 180.063 92.8553C180.62 92.5687 181.177 91.9955 181.734 91.7089C183.127 90.8491 184.242 89.7028 185.356 88.2698C185.913 87.6967 186.192 87.1235 186.471 86.5503C186.471 86.2637 186.749 85.6905 186.749 85.6905C186.471 84.8308 184.799 85.6905 184.52 85.9771C184.242 86.2637 183.685 86.5503 183.406 86.8369C183.127 87.1235 182.849 87.4101 182.57 87.4101C182.292 87.6967 182.013 87.9833 181.456 88.2698C181.456 88.5564 181.177 88.843 181.456 88.2698Z" fill="#FFFFBF"/>
<path fill-rule="evenodd" clip-rule="evenodd" d="M174.773 95.4343C174.216 95.7209 173.659 96.0075 173.38 96.2941C173.38 96.5807 172.823 96.8673 173.101 97.1539C173.38 97.4405 173.937 97.1539 173.937 97.1539C174.216 97.1539 174.494 96.8673 174.773 96.5807C174.773 96.0075 174.773 96.0075 174.773 95.4343Z" fill="#FFFFBF"/>
<path fill-rule="evenodd" clip-rule="evenodd" d="M140.5 128.965C139.386 129.825 137.993 130.684 136.6 131.544C134.928 132.404 133.256 132.977 131.863 133.837C129.356 135.27 126.848 136.416 124.341 137.563C124.062 137.849 120.161 139.282 121.555 140.142C122.112 140.428 122.948 140.428 123.505 140.428C124.062 140.428 124.619 140.715 125.176 140.715C125.734 140.715 126.291 140.715 126.848 140.715C129.913 140.715 133.256 139.855 136.042 138.709C136.6 138.422 137.435 138.136 137.993 137.849C138.271 137.563 138.55 137.276 139.107 136.989C139.664 136.416 140.221 135.843 140.5 134.983C141.057 133.837 141.336 132.977 141.336 131.544C141.336 130.971 141.057 130.684 140.779 130.111C140.779 129.825 140.5 129.538 140.5 128.965Z" fill="#FFFFBF"/>
<path fill-rule="evenodd" clip-rule="evenodd" d="M118.773 138.709C118.216 138.423 117.38 137.849 116.544 137.849C116.266 137.849 115.987 137.849 115.708 137.849C115.151 137.849 114.315 138.136 113.758 138.423C113.201 138.996 114.594 139.569 115.151 139.856C115.708 140.142 116.823 140.142 117.38 139.856C117.937 139.856 118.773 139.282 118.773 138.709C119.052 138.709 119.052 138.709 119.052 138.709H118.773Z" fill="#FFFFBF"/>
<path fill-rule="evenodd" clip-rule="evenodd" d="M159.17 129.824C161.956 128.965 164.742 127.818 167.25 126.385C168.364 125.812 169.2 125.239 170.314 124.666C170.872 124.379 171.707 123.806 172.265 123.519C172.543 123.519 174.215 122.373 174.494 122.946C174.772 123.519 173.101 124.666 172.822 124.952C172.265 125.526 171.429 126.099 170.593 126.672C170.036 127.245 169.2 127.245 168.643 127.818C167.807 128.391 166.971 128.678 165.857 129.251C165.299 129.538 164.464 129.824 163.906 130.111C163.349 130.398 162.792 130.398 162.235 130.684C161.956 130.684 161.399 130.684 161.12 130.684C160.563 130.398 159.449 130.684 159.17 129.824Z" fill="#FFFFBF"/>
<path fill-rule="evenodd" clip-rule="evenodd" d="M221.298 145.587C222.691 145.587 224.363 145.874 225.756 145.587C226.87 145.301 227.706 145.301 228.82 145.014C230.771 144.727 233 144.154 234.95 144.154C235.786 144.154 236.622 144.154 237.457 144.154C238.015 144.154 238.572 144.154 238.85 144.154C239.129 144.154 239.686 144.441 239.686 144.727C240.244 145.301 239.686 145.301 239.408 145.301C238.572 145.587 238.015 146.16 237.179 146.16C235.786 146.447 234.671 146.733 233.278 147.02C232.442 147.02 231.607 147.02 230.492 147.02C229.378 147.307 228.263 147.307 226.87 147.307C225.756 147.307 224.92 147.307 223.806 147.307C222.97 147.307 222.412 147.02 221.577 147.02C221.019 147.02 220.462 147.02 220.184 146.733C220.462 147.02 219.905 146.447 221.298 145.587Z" fill="#FFFFBF"/>
<path fill-rule="evenodd" clip-rule="evenodd" d="M254.735 147.021C256.407 147.308 257.522 147.308 259.193 147.021C260.308 146.734 261.422 146.734 262.258 146.448C263.651 146.161 265.323 145.588 266.716 144.728C267.551 144.155 268.945 143.295 269.78 143.582C270.616 143.869 271.452 144.728 271.452 145.588C271.452 146.734 270.338 147.308 269.78 147.881C268.666 148.741 266.716 149.314 265.323 149.314C263.651 149.314 261.701 149.027 260.029 148.741C259.472 148.741 258.914 148.454 258.357 148.454C257.8 148.167 256.686 148.167 254.735 147.021Z" fill="#FFFFBF"/>
<path fill-rule="evenodd" clip-rule="evenodd" d="M258.634 79.9592C258.634 81.1056 257.799 84.2581 259.192 85.1179C260.027 85.691 260.306 84.2581 260.306 83.6849C260.585 82.8251 260.027 80.5324 258.634 79.9592Z" fill="#FFFFBF"/>
<path fill-rule="evenodd" clip-rule="evenodd" d="M9.83092 108.043C11.224 109.763 12.0598 111.483 13.7315 112.342C14.8459 112.915 15.6818 113.775 16.7962 114.062C17.9106 114.348 19.3038 114.635 20.4182 114.635C20.9754 114.635 21.254 114.635 21.254 113.775C21.254 113.489 20.9754 112.915 20.6967 112.629C20.4181 112.056 19.8609 111.769 19.3037 111.196C18.7465 110.623 18.4679 110.05 17.9106 109.476C15.9604 107.757 14.0101 106.61 11.5026 105.751C10.6668 105.464 10.6668 105.464 9.83092 105.751C9.27369 106.037 9.27373 106.037 8.99512 106.61C8.99512 107.47 9.55232 108.33 10.1095 109.19L9.83092 108.043Z" fill="#FFFFBF"/>
<path fill-rule="evenodd" clip-rule="evenodd" d="M10.9488 134.698C12.8991 138.137 15.4066 141.003 17.9141 144.155C19.5858 146.161 20.7003 149.027 22.6505 151.033C22.9292 151.32 26.5511 154.472 26.5511 152.753C26.5511 152.466 25.4367 150.747 25.4367 150.46C24.8794 149.6 24.3222 148.454 23.4863 147.594C22.9291 146.734 22.0934 146.161 21.8147 145.301C21.2575 144.442 20.7003 143.868 20.1431 143.009C19.3072 142.149 18.75 140.716 18.1927 139.856C17.6355 138.996 16.7997 137.85 16.2425 136.99C15.4067 135.557 14.2922 134.124 12.8991 133.551C12.6205 133.265 12.0633 132.978 11.5061 133.265C10.113 134.124 10.6702 135.844 10.9488 134.698Z" fill="#FFFFBF"/>
<path fill-rule="evenodd" clip-rule="evenodd" d="M137.995 198.607C141.059 198.034 143.288 197.46 146.353 198.32C147.746 198.607 149.139 199.18 150.532 199.467C151.368 199.753 152.761 200.04 153.318 200.613C153.876 201.473 153.876 202.619 153.04 203.192C152.204 204.052 150.254 203.765 149.139 203.765C146.91 203.479 144.96 203.192 142.731 202.619C141.617 202.333 139.945 201.759 138.831 200.9C138.552 200.613 137.437 199.467 137.995 198.607Z" fill="#FFFFBF"/>
<path fill-rule="evenodd" clip-rule="evenodd" d="M178.391 214.656C176.998 214.37 176.72 211.504 177.277 210.357C177.555 209.784 177.834 208.638 178.67 208.351C179.227 208.065 179.506 208.638 180.063 208.638C179.506 210.071 178.67 211.217 177.834 212.364L178.391 214.656Z" fill="#FFFFBF"/>
<path fill-rule="evenodd" clip-rule="evenodd" d="M233.838 213.797C235.788 212.364 237.181 211.504 239.41 210.931C240.525 210.644 241.639 210.358 242.753 210.071C244.147 209.784 245.261 208.925 246.654 208.925C247.211 208.925 247.49 208.925 248.047 208.638C248.604 208.638 248.326 208.351 248.883 208.638C249.997 209.211 249.44 210.071 248.883 210.644C247.49 211.79 246.375 212.364 244.704 212.65C243.589 212.937 243.032 213.51 241.918 213.797C241.36 214.083 240.803 214.083 240.246 214.37C237.738 214.943 235.231 214.37 233.838 213.797Z" fill="#FFFFBF"/>
<path fill-rule="evenodd" clip-rule="evenodd" d="M56.6407 208.924C57.7552 211.503 58.8696 214.083 60.5413 216.375C61.3771 217.522 61.9343 218.381 63.0488 218.955C63.8846 219.241 64.7204 219.528 64.7204 218.095C64.7204 217.522 64.1632 216.375 63.8846 215.802C62.7701 213.796 61.3771 212.363 60.2626 210.643C59.7054 210.07 59.1482 208.924 58.591 208.637C57.7551 208.351 56.3621 207.778 56.6407 208.924Z" fill="#FFFFBF"/>
<path fill-rule="evenodd" clip-rule="evenodd" d="M108.183 266.815C111.248 266.242 113.755 265.096 116.541 264.236C117.656 263.663 118.77 263.663 120.163 263.663L120.442 263.376C120.721 263.376 121.278 263.376 121.556 263.376C121.835 263.376 123.228 263.09 123.507 263.376C124.621 264.236 122.392 266.529 121.835 266.815C119.885 268.821 116.82 269.968 113.755 269.681C112.362 269.395 110.969 268.821 109.576 268.535C108.74 268.535 106.79 267.962 106.79 266.815C107.069 267.102 107.069 266.815 108.183 266.815Z" fill="#FFFFBF"/>
<path fill-rule="evenodd" clip-rule="evenodd" d="M159.447 236.151C156.939 237.87 153.875 239.59 151.924 242.456C150.531 244.462 153.039 243.889 154.153 243.602C154.989 243.316 155.825 243.029 156.382 242.456C156.939 241.883 157.497 241.596 158.054 240.736C158.611 240.163 158.89 239.876 159.447 239.59C159.725 239.017 160.004 238.157 160.561 237.87C160.561 237.584 160.283 237.584 160.283 237.297L159.447 236.151Z" fill="#FFFFBF"/>
<path fill-rule="evenodd" clip-rule="evenodd" d="M87.5633 194.594C89.5136 193.734 91.4639 193.161 93.1355 192.015C94.8072 191.155 96.4789 190.009 98.1506 189.149C100.379 188.002 102.608 186.57 105.116 186.283C105.952 186.283 106.788 185.71 107.623 186.283C108.459 186.57 108.738 186.856 109.295 187.429C110.688 189.435 107.902 191.155 106.509 192.015C105.394 192.875 104.559 193.734 103.166 194.307C101.772 194.881 100.379 195.167 98.9864 195.74C96.7575 196.6 94.25 197.747 91.7425 198.033C90.3494 198.32 89.235 197.747 88.1206 196.887C87.5633 196.6 87.0061 196.027 86.7275 195.454C86.4489 195.167 86.1702 194.594 87.5633 194.594Z" fill="#FFFFBF"/>
</g>
<defs>
<filter id="filter0_d_810_203" x="0" y="0" width="288" height="288" filterUnits="userSpaceOnUse" color-interpolation-filters="sRGB">
<feFlood flood-opacity="0" result="BackgroundImageFix"/>
<feColorMatrix in="SourceAlpha" type="matrix" values="0 0 0 0 0 0 0 0 0 0 0 0 0 0 0 0 0 0 127 0" result="hardAlpha"/>
<feOffset dx="10" dy="10"/>
<feGaussianBlur stdDeviation="2"/>
<feComposite in2="hardAlpha" operator="out"/>
<feColorMatrix type="matrix" values="0 0 0 0 0 0 0 0 0 0 0 0 0 0 0 0 0 0 0.25 0"/>
<feBlend mode="normal" in2="BackgroundImageFix" result="effect1_dropShadow_810_203"/>
<feBlend mode="normal" in="SourceGraphic" in2="effect1_dropShadow_810_203" result="shape"/>
</filter>
<radialGradient id="paint0_radial_810_203" cx="0" cy="0" r="1" gradientUnits="userSpaceOnUse" gradientTransform="translate(55.9914 71.791) rotate(19.2102) scale(226.617 233.107)">
<stop stop-color="#9BA8E8" stop-opacity="0.51"/>
<stop offset="0.2" stop-color="#DC63DE" stop-opacity="0.33"/>
<stop offset="0.4" stop-color="#F396EF" stop-opacity="0.68"/>
<stop offset="0.6" stop-color="#BA5DD1" stop-opacity="0.58"/>
<stop offset="0.8" stop-color="#51056B" stop-opacity="0.59"/>
<stop offset="1" stop-color="#370063" stop-opacity="0.72"/>
</radialGradient>
<linearGradient id="paint1_linear_810_203" x1="5.74218" y1="98.0477" x2="195.615" y2="98.0477" gradientUnits="userSpaceOnUse">
<stop stop-color="#FFD6D8"/>
<stop offset="0.2" stop-color="#FFBEC3"/>
<stop offset="0.4" stop-color="#FBC2C7"/>
<stop offset="0.6" stop-color="#FFADB5"/>
<stop offset="0.8" stop-color="#FFAFBB"/>
<stop offset="1" stop-color="#FFB9C6"/>
</linearGradient>
<linearGradient id="paint2_linear_810_203" x1="5.13789" y1="76.8406" x2="238.33" y2="76.8406" gradientUnits="userSpaceOnUse">
<stop stop-color="#FFD366"/>
<stop offset="0.166667" stop-color="#FFCB53"/>
<stop offset="0.333333" stop-color="#FFCE6E"/>
<stop offset="0.5" stop-color="#FFC265"/>
<stop offset="0.666667" stop-color="#FFB061"/>
<stop offset="0.833333" stop-color="#FFB790"/>
<stop offset="1" stop-color="#FFAE8B"/>
</linearGradient>
<radialGradient id="paint3_radial_810_203" cx="0" cy="0" r="1" gradientUnits="userSpaceOnUse" gradientTransform="translate(25.6117 198.827) scale(67.0411 68.961)">
<stop stop-color="#FFDD8B"/>
<stop offset="0.166667" stop-color="#FFE6AC"/>
<stop offset="0.333333" stop-color="#FFD37B"/>
<stop offset="0.5" stop-color="#FFCB7C"/>
<stop offset="0.666667" stop-color="#FFB366"/>
<stop offset="0.833333" stop-color="#FFB891"/>
<stop offset="1" stop-color="#FF9F76"/>
</radialGradient>
<linearGradient id="paint4_linear_810_203" x1="0.647029" y1="175.826" x2="274.065" y2="175.826" gradientUnits="userSpaceOnUse">
<stop stop-color="#FFD673"/>
<stop offset="0.166667" stop-color="#FFCF60"/>
<stop offset="0.333333" stop-color="#FFC248"/>
<stop offset="0.5" stop-color="#FABC5E"/>
<stop offset="0.666667" stop-color="#FFA54A"/>
<stop offset="0.833333" stop-color="#FEA26F"/>
<stop offset="1" stop-color="#FBBA9F"/>
</linearGradient>
</defs>
</svg>
