<svg width="282" height="282" viewBox="0 0 282 282" fill="none" xmlns="http://www.w3.org/2000/svg">
<g filter="url(#filter0_d_784_461)">
<path fill-rule="evenodd" clip-rule="evenodd" d="M273.711 136.855C273.711 176.494 256.965 212.083 230.114 237.255C217.121 249.118 202.107 258.666 185.361 265.031C174.679 269.082 163.13 271.975 151.292 273.132C148.405 273.422 145.229 273.711 142.341 273.711C140.609 273.711 138.877 273.711 136.856 273.711C130.792 273.711 124.729 273.422 118.955 272.554C98.1665 269.95 78.8219 262.427 62.0759 251.432C60.3435 250.275 58.8999 249.407 57.4563 248.25C54.569 246.224 51.9705 244.199 49.0832 241.884C34.9357 230.021 23.098 215.265 14.725 198.773C9.52794 188.357 5.48577 177.073 2.88725 165.21C1.73235 159.134 0.866193 153.058 0.288743 146.982C1.76181e-05 143.8 0 140.328 0 136.855C0 109.947 7.7956 84.4858 21.3657 63.3644C27.1402 54.395 33.7808 46.0043 41.5764 38.7709C66.118 14.7561 99.8989 0 136.856 0C139.743 0 142.919 -4.41921e-06 145.806 0.289331C157.644 1.15734 169.193 3.47203 179.876 6.94405C183.34 8.10139 186.516 9.25873 189.692 10.7054C192.002 11.5734 194.312 12.7307 196.622 13.8881C209.903 20.2535 222.03 28.9335 232.424 39.3496C237.621 44.5576 242.529 50.055 246.86 55.8417C260.43 74.3591 269.669 96.0592 272.556 120.074C273.134 125.282 273.711 131.069 273.711 136.855Z" fill="url(#paint0_radial_784_461)"/>
<g opacity="0.7">
<g opacity="0.7">
<path opacity="0.6" fill-rule="evenodd" clip-rule="evenodd" d="M120.989 173.388C120.981 173.373 120.978 173.357 120.978 173.34C120.978 173.243 121.094 173.195 121.162 173.263C121.602 173.702 122.026 174.147 122.319 174.635C122.646 175.181 122.158 175.44 121.821 174.901C121.47 174.34 121.15 173.707 120.989 173.388Z" fill="url(#paint1_linear_784_461)"/>
<path fill-rule="evenodd" clip-rule="evenodd" d="M272.769 121.583C272.597 119.948 272.212 118.291 271.167 117.022C270.697 116.451 270.211 115.886 269.693 115.357C268.277 113.913 266.463 113.211 264.434 112.718C262.64 112.137 260.847 111.265 259.352 112.718C257.858 114.171 256.662 116.205 255.765 117.658C255.167 118.821 254.27 121.145 252.776 121.436C251.281 121.726 249.488 119.692 248.292 118.53C246.797 117.077 245.901 114.752 244.406 113.59C243.612 113.011 242.555 112.433 241.585 112.024C240.699 111.651 239.784 111.344 238.87 111.049C236.547 110.298 234.049 110.055 231.552 109.812C229.46 109.812 227.965 108.65 226.172 107.778C224.378 106.906 221.987 106.615 220.193 106.325C218.816 106.102 217.439 105.879 216.062 105.524C215.223 105.308 214.379 105.113 213.533 104.929C212.28 104.657 211.155 104.222 210.03 103.128C208.535 101.385 207.339 99.0598 205.546 97.6068C202.258 94.7008 198.67 96.735 194.485 96.735C191.197 96.735 188.507 94.7008 185.219 93.829C181.333 92.9572 178.045 92.3761 175.653 89.1795C173.561 86.2735 174.159 82.7863 172.963 79.5897C170.572 73.1966 161.604 71.453 155.326 70.8718C150.245 70.5812 145.761 72.3248 140.978 72.3248C136.793 72.3248 133.206 71.453 130.516 74.9401C127.526 78.7179 124.537 82.7863 122.146 86.8547C120.352 90.0513 117.363 93.2479 116.167 97.0256C115.569 99.0598 115.569 101.094 115.27 103.128C114.673 105.453 112.879 108.65 111.384 110.684C109.89 112.718 106.901 114.171 104.509 115.333C102.417 116.496 100.922 117.949 99.1285 119.692C97.036 121.726 94.9435 123.761 93.4489 126.085C92.851 127.248 92.2532 128.41 91.0575 129.282C90.5473 129.778 89.9404 130.086 89.3468 130.42C88.4389 130.93 87.5871 131.567 86.9155 132.363C86.2365 133.168 85.6162 134.049 84.7112 134.588C83.9599 135.035 83.092 135.402 82.2264 135.658C81.3532 135.917 80.4309 135.991 79.534 135.832C77.0105 135.387 74.5523 134.127 72.5242 136.838C71.0295 138.581 69.236 141.778 69.5349 144.103C69.8338 146.137 71.6274 147.88 72.8231 149.624C74.9156 152.239 79.3994 156.889 78.5027 160.667C78.2037 162.12 76.7091 162.991 77.307 164.735C77.6059 166.188 77.9048 167.641 77.9048 169.385C77.9048 170.547 77.307 172.581 77.9048 173.453C78.552 174.292 80.1332 175.131 81.525 175.642C82.4769 175.992 83.4691 176.239 84.3827 176.679C86.833 177.859 89.1382 179.494 91.6554 180.718C93.7478 181.88 94.9435 183.333 97.036 183.915C99.1285 184.496 100.922 184.205 103.014 184.496C104.21 184.786 105.705 184.786 106.901 185.077C107.797 185.368 108.694 185.949 109.591 186.239C113.178 187.111 117.363 186.239 121.249 186.239C123.64 186.239 126.032 186.821 128.124 185.658C130.516 184.205 131.113 182.462 131.113 179.846C131.113 177.521 129.918 175.487 129.021 173.162C128.722 172 128.423 170.547 127.526 169.385C126.929 168.513 126.032 168.513 125.135 167.932C123.939 167.06 123.64 166.188 121.847 165.897C121.194 165.739 120.542 165.84 119.89 166.059C118.768 166.435 117.77 167.114 116.897 167.912C115.591 169.105 114.242 170.692 114.358 172.148C114.365 172.243 114.388 172.336 114.422 172.425C114.523 172.692 114.652 172.958 114.81 173.213C115.254 173.936 116.256 173.621 116.473 172.802C116.618 172.255 117.198 171.792 117.753 171.904C119.422 172.239 121.376 172.683 123.093 173.391C125.328 174.312 125.896 177.144 123.759 178.272C122.911 178.719 122.001 178.974 121.249 178.974C117.662 178.974 114.075 179.556 111.384 176.94C108.993 174.906 108.993 172 107.498 169.385C106.901 167.932 106.303 166.769 105.107 165.607C104.21 164.735 103.612 163.863 103.014 162.701C101.819 160.957 100.623 158.342 102.417 156.598C104.21 154.855 107.498 153.692 109.591 152.53C112.879 150.786 116.466 149.043 119.754 147.009C124.537 144.393 128.423 140.906 134.103 140.615C138.587 140.325 143.967 141.197 147.554 144.103C149.946 146.137 150.544 148.462 151.739 151.077C152.935 153.402 154.729 155.145 156.522 156.598C159.212 158.342 161.903 160.085 164.294 161.829C167.582 164.154 170.273 165.026 172.664 168.513C176.251 174.325 178.045 180.718 179.838 187.402C181.034 190.598 181.632 193.795 182.23 197.282C182.827 199.897 184.023 201.932 185.219 204.547C186.116 206.872 187.012 208.615 188.208 210.65C188.806 211.521 189.404 212.393 189.703 213.556C190.599 217.624 186.415 220.53 184.322 223.727C181.931 227.214 179.24 230.12 178.045 234.188C177.148 237.385 178.344 238.838 178.941 241.744C180.137 246.684 177.746 249.59 174.458 253.077C172.664 254.821 170.87 256.274 168.479 257.436C162.297 260.011 156.695 264.56 151.959 269.415C151.813 269.564 151.732 269.679 151.634 269.863C150.852 271.34 151.551 273.531 153.206 273.297C163.375 271.862 173.266 269.27 182.529 265.863C199.866 259.47 215.41 249.88 228.862 237.966C256.662 212.974 274 176.94 274 137.128C273.745 131.433 273.273 126.371 272.769 121.583ZM114.374 120.855C113.776 122.598 109.292 123.47 107.498 124.051C106.901 124.342 106.004 124.632 105.406 124.051C104.133 123.061 107.63 119.963 108.696 119.246C108.833 119.153 108.826 119.046 108.671 118.986C108.428 118.891 108.45 118.263 108.655 118.102C109.265 117.622 109.658 116.927 110.412 117.061C110.462 117.07 110.513 117.076 110.563 117.085C110.682 117.107 110.866 117.172 111.07 117.26C111.911 117.62 112.801 117.998 113.536 118.544C114.263 119.083 114.764 119.907 114.374 120.855ZM162.202 88.8889C161.006 94.9914 153.832 99.641 148.152 101.385C145.163 102.256 142.473 102.838 139.483 102.838C136.793 102.838 133.804 103.419 131.113 102.838C130.277 102.634 129.551 102.369 128.929 102.058C125.038 100.115 123.868 93.8188 125.434 89.7607C126.331 88.0171 127.227 86.2735 128.423 84.8205C130.516 81.9145 133.505 81.9145 136.793 80.7521C143.369 78.7179 150.544 76.3931 157.12 79.8803C160.109 81.9145 162.799 85.1111 162.202 88.8889ZM225.574 217.915C222.883 225.761 216.008 229.539 208.535 232.154C204.649 233.607 201.062 235.641 197.176 237.094C194.485 238.256 192.692 238.838 190.301 237.966C187.012 236.513 186.116 233.607 187.61 230.41C189.703 226.923 193.589 224.017 192.692 219.658C192.094 216.752 191.795 214.427 192.393 211.521C192.594 210.056 192.727 208.591 192.816 207.126C192.954 204.847 189.789 198.393 190.002 196.12C190.002 193.504 190.898 192.342 193.29 190.889C200.763 185.949 210.926 190.598 217.503 194.667C221.688 197.282 224.677 201.641 226.47 206C227.666 210.068 227.068 214.137 225.574 217.915ZM223.182 135.966C221.09 136.256 217.802 133.35 216.307 132.188C214.812 131.026 213.617 129.282 212.421 127.829C211.225 126.667 209.731 125.214 208.834 123.761C207.937 122.017 207.339 119.983 206.442 117.949C205.57 115.829 204.857 114.019 203.839 112.067C203.361 111.148 202.223 109.684 203.154 109.231C203.916 108.861 204.919 108.962 205.857 109.084C206.84 109.213 207.839 109.288 208.79 109.569C211.207 110.284 212.798 111.585 214.812 113.299C217.204 115.915 219.894 117.949 221.987 120.564C223.78 122.598 227.666 126.667 227.666 129.282C227.965 131.897 225.574 135.966 223.182 135.966Z" fill="url(#paint2_linear_784_461)"/>
<path opacity="0.4" fill-rule="evenodd" clip-rule="evenodd" d="M243.734 50.9051C245.589 53.2599 244.877 56.0666 242.529 57.9301C241.374 58.7894 240.219 60.2216 239.065 60.7945C237.332 61.3674 235.022 60.7945 233.579 60.2216C229.825 58.7895 227.516 57.3573 223.474 58.7895C222.319 59.3623 221.164 59.0759 220.009 59.3623C218.854 59.6488 218.854 60.2216 217.41 60.2216C215.101 60.2216 212.791 57.9301 211.347 56.4979C209.615 54.4929 208.749 54.4929 206.15 54.4929C203.552 54.4929 200.664 55.0658 200.087 58.2166C199.509 61.6539 203.84 64.5182 206.15 66.2369C209.615 68.8148 205.861 69.3877 204.418 71.9656C203.263 74.2571 205.573 75.6893 203.84 77.6944C200.087 81.7045 191.137 84.5689 186.228 81.991C182.764 79.9859 181.031 76.2622 178.433 73.3978C176.989 71.6792 174.968 70.5334 173.524 68.8148C171.215 66.5233 169.482 63.3725 168.327 60.2216C169.482 63.3725 167.461 58.7894 166.884 55.0658C166.595 53.3471 167.461 52.2014 167.75 50.7692C168.039 49.0505 167.173 48.4777 166.306 47.3319C164.863 44.754 162.842 42.7489 164.863 40.171C166.018 38.4523 167.461 37.0201 168.905 35.5879C171.94 32.5768 173.151 28.952 170.133 25.9236C169.986 25.7757 169.862 25.6532 169.771 25.5626C167.75 23.2711 166.018 20.4067 163.708 18.4016C162.842 17.5423 161.109 16.683 160.532 15.8237C159.377 13.5322 163.13 10.3814 164.574 9.2356C167.461 7.23053 170.06 6.94409 173.236 6.94409C174.77 6.94409 176.472 6.94409 178.213 7.06951C179.322 7.14937 180.409 7.40354 181.461 7.76206C184.321 8.73675 187.007 9.74306 189.693 10.9542C192.003 11.8135 194.312 12.9593 196.622 14.1051C209.904 20.4067 222.03 28.9998 232.424 39.3116C236.613 42.5929 240.298 46.5425 243.734 50.9051Z" fill="url(#paint3_linear_784_461)"/>
<path opacity="0.4" fill-rule="evenodd" clip-rule="evenodd" d="M207.595 84.1539C207.595 84.0725 207.669 84.0113 207.749 84.0274C210.223 84.527 212.693 85.2369 214.977 86.1571C215.519 86.3754 215.756 87.0376 215.942 87.5916C216.083 88.0107 216.046 88.5072 215.703 88.7853C214.767 89.542 213.394 90.3505 212.214 90.5847C210.482 90.8711 209.616 90.5847 208.172 89.7254C206.738 88.8721 205.02 88.8661 205.279 87.1833C205.283 87.16 205.285 87.1349 205.285 87.1114C205.303 85.627 206.44 84.9373 207.735 84.5654C207.864 84.5282 207.839 84.283 207.704 84.283C207.644 84.283 207.595 84.234 207.595 84.1735V84.1539Z" fill="url(#paint4_linear_784_461)"/>
<path opacity="0.9" fill-rule="evenodd" clip-rule="evenodd" d="M177.513 227.972C176.343 229.986 176.05 231.999 176.05 234.013C176.05 236.027 176.05 238.041 176.05 240.054C176.05 242.931 174.002 244.657 172.246 246.671C170.198 249.26 167.565 250.986 165.224 253C164.054 254.151 163.469 255.589 162.299 256.74C161.128 257.89 159.958 258.753 159.08 259.904C157.91 261.342 157.617 262.205 156.154 263.068C154.399 264.219 153.228 265.658 151.765 267.096C150.574 268.137 149.443 269.237 148.317 270.316C145.714 272.811 142.205 274 138.599 274C132.455 274 126.31 273.712 120.459 272.849C101.167 270.478 83.1016 264.006 67.1622 254.537C66.1722 253.949 66.6569 252.814 67.7933 253C69.5488 253.288 71.3043 254.151 73.0598 254.438C76.2783 255.301 80.3745 254.726 83.593 254.726C88.5669 254.726 93.2483 255.589 98.2222 256.164C101.733 256.74 104.367 257.315 107.878 256.164C110.803 255.301 113.729 254.151 116.07 252.712C121.629 249.548 128.066 249.548 133.625 246.671C135.966 245.52 138.014 243.507 140.355 242.068C141.525 241.493 143.28 240.054 144.743 239.767C145.914 239.479 146.791 239.479 147.962 238.904C150.888 237.753 153.814 237.178 156.739 236.315C159.08 235.452 162.884 233.726 164.932 231.999C167.565 229.698 171.076 225.958 172.246 222.794C173.124 220.492 173.124 218.479 173.124 216.177C173.124 215.314 173.124 214.164 173.124 213.301C173.124 212.15 172.832 211.575 172.539 210.711C171.954 208.41 173.124 207.259 173.709 205.246C174.295 203.52 174.88 201.794 175.465 199.78C176.05 197.191 176.05 195.752 175.172 193.163C174.88 192.3 174.295 190.862 174.002 189.999C173.709 189.136 173.709 187.985 173.709 187.122C173.709 188.273 175.172 191.15 175.465 192.013C176.343 194.026 178.098 195.752 178.098 198.341C178.098 200.643 177.513 202.369 176.928 204.67C176.343 206.972 177.22 208.41 177.22 210.711C177.22 211.575 177.22 212.725 177.513 213.588C177.655 214.146 177.728 214.703 177.799 215.228C177.938 216.254 178.133 217.287 178.519 218.247C178.718 218.745 178.963 219.227 179.215 219.7C180.089 221.338 180.622 223.271 179.728 224.898C179.11 226.022 178.208 226.946 177.513 227.972Z" fill="url(#paint5_linear_784_461)"/>
</g>
<path opacity="0.7" fill-rule="evenodd" clip-rule="evenodd" d="M69.488 228.134C69.7751 235.092 65.7552 241.18 60.2995 245.239C58.3348 246.727 55.5877 246.39 53.6235 244.901C51.9442 243.629 50.2896 242.314 48.5268 240.89C34.4569 229.004 22.6841 214.219 14.357 197.694C9.18849 187.258 5.16855 175.951 2.58429 164.065C1.45633 158.086 0.605277 152.107 0.0311804 146.128C0.0112446 145.921 0.111138 145.689 0.257913 145.54C0.700393 145.094 1.45667 145.434 1.51377 146.06C1.86241 149.884 3.30385 153.019 4.30711 156.817C5.16853 160.006 6.31709 163.195 7.17851 166.384C7.75279 168.993 8.32707 171.313 10.0499 173.632C10.9157 174.725 11.6183 175.323 12.6497 175.8C13.3849 176.14 14.1501 176.418 14.8408 176.84C15.284 177.112 15.7272 177.4 16.1704 177.671C16.8611 178.094 17.6114 178.406 18.3866 178.64C20.7872 179.365 23.6693 179.968 26.1298 179.72C26.9137 179.72 27.5264 179.72 28.1548 179.814C29.3249 179.99 30.3574 180.633 31.339 181.294C31.7083 181.542 32.0776 181.791 32.4469 182.039C34.4569 183.489 36.1797 184.938 37.9025 186.678C40.4868 189.577 40.1997 193.346 42.2096 196.535C43.9325 199.144 46.2296 200.014 49.3881 200.014C55.4181 200.014 60.5866 207.261 63.7452 211.61C66.6166 216.538 69.2008 222.916 69.488 228.134Z" fill="url(#paint6_linear_784_461)"/>
</g>
<path fill-rule="evenodd" clip-rule="evenodd" d="M195.602 12.9764C195.921 13.126 195.832 13.7092 195.516 13.8629C195.489 13.8758 195.45 13.891 195.422 13.8965C193.992 14.1715 192.563 13.8851 191.134 13.5986C190.433 13.4229 189.945 13.1405 189.346 12.9458C188.453 12.6556 187.49 12.6655 186.58 12.4376C185.408 12.1443 184.305 11.7829 183.05 11.5733C181.318 11.2839 179.874 10.7053 178.142 10.1266C176.698 9.54794 176.121 9.83727 174.966 10.1266C174.463 10.2527 174.014 10.214 173.573 10.1062C172.366 9.81149 171.228 9.23209 170.004 9.0208C169.324 8.9035 168.641 8.83132 168.036 8.67993C164.572 8.10126 161.107 6.94392 157.642 6.07591C155.621 5.49724 153.6 5.49725 151.29 5.49725C149.558 5.49725 148.114 6.07591 146.382 6.07591C145.986 6.07591 145.625 6.04198 145.274 5.99735C143.903 5.82307 142.511 5.59256 141.134 5.70269C140.206 5.77689 139.283 5.69017 138.363 5.54862C137.408 5.40168 136.62 5.38243 135.41 5.78658C134.601 5.94884 133.973 6.02011 133.323 6.10243C132.21 6.24338 131.085 6.34084 129.984 6.55537C128.984 6.75021 127.952 7.04986 127.037 7.23326C124.439 7.81193 121.552 8.3906 118.953 8.3906C117.221 8.3906 114.911 7.81193 113.467 8.3906C113.053 8.52896 112.705 8.8658 112.36 9.24293C111.603 10.0689 110.761 10.8177 109.944 11.583C108.923 12.5379 107.945 13.4276 107.115 14.4666C105.96 15.9133 104.806 17.6493 104.806 19.6747C104.806 21.4107 105.672 23.436 106.538 24.8827C107.404 26.6187 107.693 28.0654 105.96 29.2227C103.939 30.6694 101.341 31.8267 99.031 32.6947C97.7414 33.1255 96.6118 33.396 95.6423 33.0286C94.9374 32.7616 94.3959 32.2735 93.9784 31.6459C93.5608 31.0183 92.8753 30.4457 92.1419 30.6199C92.0359 30.6451 91.9304 30.6759 91.8274 30.7106C91.4221 30.8471 91.032 31.0272 90.6261 31.1618C89.0969 31.6691 87.5676 32.15 86.0384 32.4054C85.6273 32.5084 85.2527 32.6481 84.8887 32.7853C83.5854 33.2764 82.1656 33.3202 80.8055 33.0207C80.3859 32.9283 79.9313 32.8771 79.3977 32.9841C77.6654 33.2734 75.6443 34.1414 73.912 34.1414C72.4684 34.1414 70.736 33.5628 69.5811 32.9841C69.3441 32.8653 69.1557 32.6978 68.9561 32.5616C68.317 32.1255 67.4505 32.398 66.873 32.9129C66.297 33.4264 65.8286 34.1393 65.5425 34.8559C65.5061 34.9469 65.4699 35.0379 65.4314 35.1278C65.1985 35.6722 64.7923 36.1233 64.4841 36.6289C64.1737 37.1383 63.9136 37.5972 63.5179 38.1921C62.6517 39.6388 61.7855 41.0855 60.9194 42.5321C60.6553 42.9291 60.3912 43.4471 60.0994 43.9755C59.4206 45.205 58.4216 46.243 57.1659 46.8722C55.7223 47.7402 54.2787 48.8975 52.835 49.7655C50.2365 51.7908 47.638 54.1055 45.0395 56.1309C43.0184 57.5776 40.1312 58.4456 37.8214 59.6029C36.3777 60.1816 34.9341 60.7602 33.4905 61.3389C33.2476 61.4606 32.9537 61.5311 32.6731 61.615C31.9607 61.8281 31.4667 62.4198 31.0981 63.0655C30.6937 63.7739 30.3407 64.5567 29.8329 65.1951C28.8585 66.4198 27.8199 67.7854 27.1385 69.151C26.5611 70.3083 26.2724 71.1763 25.6949 72.3336C25.2927 73.3413 24.7504 74.3489 24.3608 75.4543C24.0152 76.4345 23.7662 77.4501 23.5008 78.455C22.7733 81.2104 22.5849 84.1089 21.364 86.8004C20.7866 88.5364 19.6317 90.2724 18.7655 92.0084C17.3219 94.9018 17.0331 98.3738 16.7444 101.556C16.4557 103.292 16.7444 105.607 17.0332 107.343C17.3219 109.369 17.3219 111.394 17.3219 113.419C17.3219 115.445 15.8783 117.759 14.7234 119.206C13.5685 120.653 11.5474 121.231 10.1037 122.678C9.18144 123.602 8.07501 124.526 7.37265 125.745C7.01335 126.369 6.75709 126.97 6.81199 127.688C6.87586 128.523 6.86566 129.46 6.6763 130.276C6.48104 131.117 6.26539 131.918 6.14854 132.76C6.03819 133.556 5.99567 134.36 5.92254 135.159C5.77288 136.795 5.77287 138.468 5.77287 140.327C5.77287 141.485 5.77287 142.353 5.77287 143.51C5.77287 143.844 5.79694 144.154 5.83813 144.447C6.02496 145.776 6.35031 147.087 6.35031 148.429C6.35031 150.005 7.17384 151.507 7.49605 153.05C7.73398 154.19 7.90832 155.307 8.08267 156.53C8.28278 157.733 8.76028 158.937 9.13066 160.14C9.45312 161.187 9.73901 162.25 10.0336 163.306C10.5372 165.11 10.8113 166.954 11.2587 168.972C11.5474 170.708 11.5474 172.733 11.8361 174.469C12.1248 175.916 12.4135 177.362 12.4135 178.809C12.4135 181.124 11.8361 183.149 11.8361 185.464C11.8361 189.225 13.2797 192.986 14.1459 196.748C14.2558 197.188 13.7379 197.387 13.5406 196.979C4.95031 179.181 0.287109 159.116 0.287109 138.013C0.287109 110.815 8.08267 85.6431 21.6527 64.5216C27.4272 55.5522 34.0679 47.1615 41.8635 39.9281C66.4051 15.9133 100.186 1.15723 137.143 1.15723C140.03 1.15723 143.206 1.15722 146.093 1.44656C163.496 1.16528 180.352 5.80605 195.602 12.9764Z" fill="url(#paint7_linear_784_461)"/>
</g>
<defs>
<filter id="filter0_d_784_461" x="0" y="0" width="282" height="282" filterUnits="userSpaceOnUse" color-interpolation-filters="sRGB">
<feFlood flood-opacity="0" result="BackgroundImageFix"/>
<feColorMatrix in="SourceAlpha" type="matrix" values="0 0 0 0 0 0 0 0 0 0 0 0 0 0 0 0 0 0 127 0" result="hardAlpha"/>
<feOffset dx="4" dy="4"/>
<feGaussianBlur stdDeviation="2"/>
<feComposite in2="hardAlpha" operator="out"/>
<feColorMatrix type="matrix" values="0 0 0 0 0 0 0 0 0 0 0 0 0 0 0 0 0 0 0.25 0"/>
<feBlend mode="normal" in2="BackgroundImageFix" result="effect1_dropShadow_784_461"/>
<feBlend mode="normal" in="SourceGraphic" in2="effect1_dropShadow_784_461" result="shape"/>
</filter>
<radialGradient id="paint0_radial_784_461" cx="0" cy="0" r="1" gradientUnits="userSpaceOnUse" gradientTransform="translate(70.1801 52.6876) rotate(26.3721) scale(236.447 236.947)">
<stop stop-color="#E4FFE3"/>
<stop offset="0.125" stop-color="#D7FEB8"/>
<stop offset="0.25" stop-color="#AAF985"/>
<stop offset="0.375" stop-color="#99EE71"/>
<stop offset="0.5" stop-color="#77E451"/>
<stop offset="0.625" stop-color="#5FCB45"/>
<stop offset="0.75" stop-color="#44A634"/>
<stop offset="0.875" stop-color="#2F902D"/>
<stop offset="1" stop-color="#377627"/>
</radialGradient>
<linearGradient id="paint1_linear_784_461" x1="120.976" y1="174.326" x2="122.795" y2="174.326" gradientUnits="userSpaceOnUse">
<stop stop-color="#E8DDFF"/>
<stop offset="1" stop-color="#AA8AD8"/>
</linearGradient>
<linearGradient id="paint2_linear_784_461" x1="69.1885" y1="171.842" x2="273.579" y2="171.842" gradientUnits="userSpaceOnUse">
<stop stop-color="#E8DDFF"/>
<stop offset="1" stop-color="white"/>
</linearGradient>
<linearGradient id="paint3_linear_784_461" x1="160.014" y1="44.5838" x2="246.916" y2="44.5838" gradientUnits="userSpaceOnUse">
<stop stop-color="#E8DDFF"/>
<stop offset="1" stop-color="#AA8AD8"/>
</linearGradient>
<linearGradient id="paint4_linear_784_461" x1="205.269" y1="87.2133" x2="216.15" y2="87.2133" gradientUnits="userSpaceOnUse">
<stop stop-color="#E8DDFF"/>
<stop offset="1" stop-color="#AA8AD8"/>
</linearGradient>
<linearGradient id="paint5_linear_784_461" x1="62.7298" y1="231.079" x2="180.013" y2="231.079" gradientUnits="userSpaceOnUse">
<stop stop-color="#E6FBE4"/>
<stop offset="1" stop-color="#DBC1FF"/>
</linearGradient>
<linearGradient id="paint6_linear_784_461" x1="0.400274" y1="195.723" x2="69.6562" y2="195.723" gradientUnits="userSpaceOnUse">
<stop stop-color="#E8DDFF"/>
<stop offset="1" stop-color="#FFD2FB"/>
</linearGradient>
<linearGradient id="paint7_linear_784_461" x1="0.024081" y1="99.21" x2="196.79" y2="99.21" gradientUnits="userSpaceOnUse">
<stop offset="0.0111732" stop-color="#CCFA93"/>
<stop offset="0.2926" stop-color="#ADFFBF"/>
<stop offset="0.499" stop-color="#B3FA6D"/>
<stop offset="0.6813" stop-color="#98FFA8"/>
<stop offset="0.8488" stop-color="#A8DBB3"/>
<stop offset="1" stop-color="#80AC81"/>
</linearGradient>
</defs>
</svg>
