<svg width="292" height="292" viewBox="0 0 292 292" fill="none" xmlns="http://www.w3.org/2000/svg">
<g filter="url(#filter0_d_785_1139)">
<path fill-rule="evenodd" clip-rule="evenodd" d="M274 136.855C274 176.494 257.236 212.082 230.357 237.255C217.639 249.117 202.321 258.665 185.557 265.031C170.527 270.817 154.053 274 137 274C130.93 274 124.861 273.711 119.08 272.843C92.7785 269.371 68.5 258.376 49.135 241.884C34.9726 230.021 23.1224 215.265 14.7405 198.773C9.53797 188.357 5.49156 177.073 2.8903 165.21C0.867089 155.951 0 146.693 0 136.855C0 109.658 7.80379 84.4857 21.3882 63.3643C27.1688 54.3949 33.8165 46.0042 41.6203 38.7709C66.1878 14.7561 100.004 0 137 0C139.89 0 143.07 6.61804e-06 145.96 0.289341C161.568 1.15735 176.308 4.91869 190.181 10.7054C192.494 11.5734 194.806 12.7307 197.118 13.8881C210.413 20.2534 222.553 28.9335 232.958 39.3495C258.392 63.943 274 98.6631 274 136.855Z" fill="url(#paint0_radial_785_1139)"/>
<path fill-rule="evenodd" clip-rule="evenodd" d="M64.7438 227.707C53.1826 227.707 32.0834 210.925 21.9674 189.514C9.53914 162.606 9.25011 134.251 15.3197 129.043C17.0539 127.597 19.3661 126.729 22.2564 126.729C23.9906 126.729 26.3029 127.018 28.3261 127.597C42.7775 131.937 63.0096 151.901 71.6805 172.154C80.0623 191.829 77.7501 207.453 75.1488 217.001C73.4147 225.971 68.5012 227.707 64.7438 227.707Z" fill="url(#paint1_linear_785_1139)"/>
<path fill-rule="evenodd" clip-rule="evenodd" d="M26.1879 116.283C24.81 116.283 23.432 115.725 22.6053 114.61C19.0227 110.427 24.2588 95.6476 26.4635 90.3493C30.0461 81.9837 33.9043 77.522 37.2113 77.522C38.5892 77.522 39.6916 78.0797 40.7939 78.9163L41.3451 79.474C45.2033 83.378 47.1324 92.5802 43.5498 99.8304C40.7939 105.129 32.8019 114.331 27.2902 115.725C27.2902 116.283 26.7391 116.283 26.1879 116.283Z" fill="url(#paint2_linear_785_1139)"/>
<path fill-rule="evenodd" clip-rule="evenodd" d="M43.3548 100.11C40.7535 105.318 32.0827 114.866 26.8801 116.313C25.435 116.602 24.2788 116.602 23.7008 115.734C19.9434 111.105 30.9265 79.5674 38.4413 79.2781C39.5974 79.2781 40.7535 79.8567 41.6206 80.7247C44.8 83.9074 46.8232 92.8768 43.3548 100.11Z" fill="url(#paint3_linear_785_1139)"/>
<path fill-rule="evenodd" clip-rule="evenodd" d="M43.3526 100.11C40.7514 105.318 32.0805 114.866 26.8779 116.313C27.167 114.287 31.2134 89.694 41.3294 80.7246C44.7978 83.9073 46.821 92.8767 43.3526 100.11Z" fill="#FFFF80"/>
<path opacity="0.3" fill-rule="evenodd" clip-rule="evenodd" d="M201.887 150.638C200.672 152.491 199.484 154.162 197.935 155.777C196.651 156.877 195.214 157.767 194.264 159.104C190.758 163.756 190.399 169.641 188.133 174.672C186.776 177.431 184.237 179.449 182.88 182.208C182.321 183.42 182.304 184.718 182.079 186.168C181.825 187.799 180.75 188.746 179.648 189.873C178.336 191.154 176.746 191.834 175.004 192.305C173.651 192.652 172.231 192.245 170.782 192.019C167.704 191.539 164.863 190.725 161.926 189.338C159.323 188.19 156.985 186.526 154.41 185.196C152.684 184.37 151.207 184.325 149.34 184.406C147.654 184.514 145.871 184.051 144.242 183.796C141.344 183.345 138.374 184.553 135.642 185.426C133.69 186.05 132.254 186.94 131.219 188.821C129.947 191.037 129.609 193.212 126.752 193.695C125.037 193.985 123.13 193.13 121.557 192.514C120.165 191.925 118.507 191.852 117.058 191.627C114.161 191.175 111.586 189.845 109.067 188.153C106.243 186.042 103.893 183.262 101.906 180.538C100.836 179.072 99.1377 178.064 98.0675 176.598C96.5106 174.684 94.7726 172.742 93.3967 170.857C91.1036 167.714 88.6294 164.544 86.127 161.554C84.2079 159.584 82.7355 157.127 81.235 154.85C80.0402 152.993 79.5014 150.496 78.7251 148.332C77.1444 144.187 76.0105 139.554 75.6008 135.035C75.0947 129.943 74.4639 124.46 75.4346 119.413C76.1114 115.063 76.1885 110.99 76.8653 106.64C75.2342 114.74 74.553 121.503 74.4713 127.989C74.1062 121.991 74.4654 116.106 75.4242 109.943C78.075 92.9036 85.4174 77.8956 95.9865 65.99C100.482 60.9353 105.465 56.3279 111.059 52.5584C128.791 39.9129 151.415 33.9712 174.592 37.5846C176.403 37.8669 178.395 38.1774 180.177 38.6409C189.871 40.7091 198.739 44.5053 206.867 49.4857C208.673 52.1809 210.423 55.2386 211.629 58.2117C212.184 59.4122 212.349 60.7375 212.904 61.938C213.278 63.1103 213.946 63.5858 213.568 64.8264C213.274 65.5232 212.771 66.3731 212.296 67.0417C211.024 69.257 208.054 70.465 205.865 71.4233C202.686 72.7843 199.313 73.0012 195.981 74.1527C193.82 74.9298 193.136 75.7514 191.434 77.157C190.568 77.9504 189.578 78.353 188.894 79.1747C186.87 81.4583 185.4 84.9425 185.13 87.871C184.409 93.6997 188.287 98.5746 188.528 104.182C188.7 109.036 187.186 113.999 188.111 118.784C188.922 124.295 192.801 129.17 196.667 132.929C198.28 134.48 199.741 135.822 201.145 137.526C202.368 139.202 204.247 140.238 205.051 142.22C205.506 145.261 203.397 148.088 201.887 150.638Z" fill="url(#paint4_linear_785_1139)"/>
<path fill-rule="evenodd" clip-rule="evenodd" d="M195.141 12.4651C194.568 12.4651 194.282 12.4651 193.709 12.7549C192.276 13.0448 190.843 12.755 189.41 12.4651C188.264 12.1752 187.691 11.5954 186.258 11.5954C184.539 11.3055 183.106 10.7258 181.387 10.4359C179.668 10.146 178.235 9.56621 176.516 8.98644C175.083 8.40667 174.51 8.69656 173.364 8.98644C172.217 9.27633 171.358 8.69655 170.212 8.40667C169.065 7.8269 167.633 7.8269 166.486 7.53701C163.048 6.95724 159.609 5.79771 156.17 4.92805C154.165 4.34828 152.159 4.34828 149.866 4.34828C148.147 4.34828 146.714 4.92805 144.995 4.92805C143.849 4.92805 142.989 4.63816 141.843 4.63816C140.697 4.34828 139.551 4.63816 138.404 4.63816C136.685 4.34828 135.825 4.05839 134.106 4.63816C132.673 4.92805 131.814 4.92805 130.381 5.21793C128.948 5.21793 127.229 5.7977 125.796 6.08759C123.217 6.66736 120.352 7.24713 117.773 7.24713C116.053 7.24713 113.761 6.66736 112.328 7.24713C111.468 7.53702 110.895 8.69656 110.036 9.27633C108.603 10.7258 107.17 11.8853 106.024 13.3347C104.878 14.7841 103.732 16.5235 103.732 18.5527C103.732 20.292 104.591 22.3212 105.451 23.7706C106.311 25.5099 106.597 26.9593 104.878 28.1189C102.872 29.5683 100.293 30.7278 98.0006 31.5975C96.2812 32.1773 94.8485 32.4672 93.7023 31.3076C93.1292 31.0177 92.8426 30.1481 92.2695 29.5683C91.6964 29.2784 90.8368 29.5683 90.2637 29.8582C88.5444 30.438 86.8251 31.0177 85.1057 31.3076C83.9595 31.5975 83.0999 32.1773 81.9537 32.1773C80.8075 32.4672 79.9478 31.5975 78.5151 31.8874C76.7958 32.1773 74.7899 33.0469 73.0706 33.0469C71.6378 33.0469 69.9185 32.4671 68.7723 31.8874C68.1992 31.5975 67.9127 31.0177 67.053 31.3076C66.4799 31.3076 65.6203 32.1773 65.3337 32.757C64.7606 33.3368 64.7606 34.2065 64.1875 34.7862C63.6144 35.6559 63.3279 36.2357 62.7548 37.1053C61.8951 38.5547 61.0354 40.0042 60.1758 41.4536C59.6027 42.3233 59.0296 43.7727 58.1699 44.6423C57.8834 45.2221 57.0237 45.512 56.4506 45.8019C55.0179 46.6715 53.5851 47.8311 52.1523 48.7007C49.5734 50.7299 46.9944 53.049 44.4155 55.0782C42.4096 56.5276 39.5441 57.3973 37.2517 58.5568C35.8189 59.1366 34.3862 59.7164 32.9534 60.2961C32.3803 60.586 31.5207 60.586 31.2341 61.1658C30.661 61.7456 30.3744 62.3253 30.0879 63.195C28.9417 64.6444 27.5089 66.3837 26.6493 68.123C26.0762 69.2826 25.7896 70.1523 25.2165 71.3118C24.6434 72.7612 23.7838 74.2106 23.4972 75.95C22.351 79.1387 22.351 82.6173 20.9182 85.8061C20.3451 87.5454 19.1989 89.2847 18.3393 91.024C16.9065 93.9228 16.62 97.4015 16.3334 100.59C16.0469 102.33 16.3334 104.649 16.62 106.388C16.9065 108.417 16.9065 110.446 16.9065 112.476C16.9065 114.505 15.4738 116.824 14.3276 118.273C13.1814 119.723 11.1755 120.302 9.74275 121.752C8.59655 122.911 7.16378 124.071 6.59068 125.81C6.30413 126.39 6.59068 127.26 6.59068 128.129C6.30413 129.869 5.73103 131.318 5.73103 133.057C5.44448 135.087 5.44448 137.116 5.44448 139.435C5.44448 140.594 5.44448 141.464 5.44448 142.624C5.44448 143.783 5.73102 144.653 6.01757 145.522C6.01757 146.102 6.01757 146.972 6.01757 147.552C6.01757 148.421 6.59068 149.291 6.59068 149.871C7.16378 151.9 7.45034 153.639 7.73689 155.668C8.02344 157.408 8.88309 159.147 9.16965 160.886C10.0293 163.205 10.3158 165.525 10.8889 168.133C11.1755 169.873 11.1755 171.902 11.4621 173.641C11.7486 175.091 12.0352 176.54 12.0352 177.99C12.0352 180.309 11.4621 182.338 11.4621 184.657C11.4621 188.425 12.8948 192.194 13.7545 195.962C14.041 197.122 14.3276 197.992 14.6141 199.151C5.15792 180.599 0 159.437 0 137.116C0 109.867 7.73689 84.6465 21.2048 63.4849C26.9358 54.4984 33.5265 46.0918 41.2634 38.8446C65.6203 14.7841 99.1468 0 135.825 0C138.691 0 141.843 -4.42762e-06 144.708 0.289881C162.475 0.289881 179.668 4.92805 195.141 12.4651Z" fill="url(#paint5_linear_785_1139)"/>
<path opacity="0.3" fill-rule="evenodd" clip-rule="evenodd" d="M185.27 241.305C187.871 239.569 190.472 238.123 193.363 236.387C196.253 234.651 199.143 233.783 202.323 232.336C204.635 231.468 204.924 231.468 206.658 232.915C208.392 234.361 210.415 234.651 212.439 234.651C215.329 234.651 218.508 234.94 218.797 238.701C219.086 243.909 211.572 248.249 207.814 250.275C204.924 252.011 201.745 253.168 198.565 254.615C195.964 255.772 193.074 257.219 190.183 257.508C187.582 257.797 186.137 256.64 184.403 254.904C182.38 252.589 182.669 250.564 182.669 247.96C182.669 244.488 182.669 242.173 185.27 241.305Z" fill="url(#paint6_linear_785_1139)"/>
<path opacity="0.3" fill-rule="evenodd" clip-rule="evenodd" d="M226.023 49.4767C228.047 53.5274 229.492 59.0247 232.671 62.4968C234.405 64.2328 235.561 64.5221 237.874 64.5221C239.03 64.5221 241.053 64.8114 242.209 64.5221C243.654 63.9434 243.654 62.2074 243.654 60.7608C243.365 55.2634 239.897 50.3447 236.428 46.5833C234.116 43.9793 230.648 41.086 226.89 41.6646C225.734 44.2687 225.445 46.8727 226.023 49.4767Z" fill="url(#paint7_linear_785_1139)"/>
<path fill-rule="evenodd" clip-rule="evenodd" d="M60.9849 35.299C59.5398 35.8776 58.9617 35.8776 57.5166 37.035C56.3604 37.903 55.2043 38.771 54.0482 39.9283C52.603 41.375 52.025 42.8216 51.736 44.2683C51.1579 45.715 50.8689 47.451 51.4469 48.319C51.736 48.6083 52.6031 48.6083 53.4701 48.6083C54.6263 48.319 55.7824 47.451 56.9385 46.8723C58.3836 46.0043 59.5398 44.5577 60.6959 43.111C61.563 41.9536 61.852 40.7963 62.4301 39.639C62.7191 38.771 63.0081 38.1923 63.2971 37.6136C63.5862 37.035 63.5862 36.4563 63.2971 36.167C63.0081 35.299 62.7191 35.299 60.9849 35.299Z" fill="#FFFF45"/>
<path fill-rule="evenodd" clip-rule="evenodd" d="M77.1691 32.6948C76.591 33.2735 75.4349 34.1415 76.302 34.7202C76.5911 35.0095 76.8801 34.7202 77.1691 35.0095C77.4581 35.0095 77.4581 35.2988 77.7472 35.0095C78.6143 35.0095 78.3252 32.4055 77.1691 32.6948Z" fill="#FFFF45"/>
<path fill-rule="evenodd" clip-rule="evenodd" d="M81.502 41.3749C81.791 41.0856 82.369 41.0856 82.6581 41.0856C82.6581 41.6642 83.2361 42.5322 82.3691 43.1109C81.791 43.4002 82.08 42.2429 81.791 42.2429L81.502 41.3749Z" fill="#FFFF45"/>
<path fill-rule="evenodd" clip-rule="evenodd" d="M89.8867 41.3748C90.7538 41.6641 91.3319 41.9535 92.199 42.2428C92.488 41.9535 92.777 41.9535 93.066 41.9535C93.3551 41.6641 93.6441 41.0855 93.9331 40.7961C94.2222 40.2175 93.9331 39.6388 93.6441 39.0601C93.3551 38.7708 93.3551 38.1921 93.066 37.9028C92.777 37.6135 91.9099 37.6135 91.6209 37.9028C91.0428 38.1921 90.7538 38.4815 90.4648 39.0601C90.1757 39.3495 89.8867 40.2175 89.8867 40.5068C89.8867 41.0855 90.1758 41.6641 90.7538 41.9535L89.8867 41.3748Z" fill="#FFFF45"/>
<path fill-rule="evenodd" clip-rule="evenodd" d="M96.8203 199.93C97.6874 200.22 98.2654 200.509 99.1325 200.798C99.4216 200.509 99.7106 200.509 99.9996 200.509C100.289 200.22 100.578 199.641 100.867 199.352C101.156 198.773 100.867 198.194 100.578 197.616C100.289 197.326 100.289 196.748 99.9996 196.458C99.7106 196.169 98.8435 196.169 98.5545 196.458C97.9764 196.748 97.6874 197.037 97.3984 197.616C97.1093 197.905 96.8203 198.773 96.8203 199.062C96.8203 199.641 97.1093 200.22 97.6874 200.509L96.8203 199.93Z" fill="#FFFF45"/>
<path fill-rule="evenodd" clip-rule="evenodd" d="M67.6317 48.8974C67.3427 49.1867 67.0537 49.476 66.7646 49.7654C67.0537 50.0547 67.3427 50.6334 67.9208 50.6334C68.2098 50.6334 68.4988 50.6334 68.4988 50.6334C68.7879 50.3441 68.4988 50.0547 68.7878 50.0547C69.0769 49.476 69.0769 49.476 68.7878 48.8974C68.4988 48.608 68.4988 48.608 68.2098 48.608C67.9208 48.608 67.6317 48.608 67.3427 48.8974H67.6317Z" fill="#FFFF45"/>
<path fill-rule="evenodd" clip-rule="evenodd" d="M69.3673 61.3389C69.3673 61.3389 68.7892 63.0749 69.3673 62.4962C69.9453 62.2069 69.9453 61.6282 69.3673 61.3389C69.6563 61.3389 69.6563 61.3389 69.3673 61.3389Z" fill="#FFFF45"/>
<path fill-rule="evenodd" clip-rule="evenodd" d="M58.0917 82.1709C57.5136 82.7495 57.5136 83.0389 57.2246 83.9069C57.5136 84.1962 57.8027 84.1962 58.0917 84.1962C58.6698 84.1962 58.6698 83.9069 58.6698 83.6176C58.6698 83.3282 58.9588 83.0389 58.6698 82.7496C58.6698 82.1709 58.3807 81.8815 58.0917 82.1709Z" fill="#FFFF45"/>
<path fill-rule="evenodd" clip-rule="evenodd" d="M75.4355 50.3443C75.7246 50.6336 76.0136 50.923 76.0136 51.2123C75.7246 51.2123 75.4355 50.923 75.4355 50.6336C75.4355 50.055 75.4355 50.3443 75.7246 49.7656L75.4355 50.3443Z" fill="#FFFF45"/>
<path fill-rule="evenodd" clip-rule="evenodd" d="M71.3905 34.1413C71.1015 34.4306 70.8125 34.72 70.5234 35.0093C70.8125 35.2986 70.5234 35.588 71.1015 35.588C71.3905 35.588 71.6796 35.2986 71.9686 35.0093C72.2576 34.72 72.2576 34.4306 72.2576 34.1413C72.2576 33.852 72.2576 33.2733 71.9686 33.852L71.3905 34.1413Z" fill="#FFFF45"/>
<path fill-rule="evenodd" clip-rule="evenodd" d="M123.992 25.7507C123.992 25.4613 124.281 24.8827 124.281 24.5933L124.57 24.304C124.859 24.0147 124.859 24.0146 125.148 24.0146C125.437 24.0146 125.726 24.0147 126.304 24.304C127.461 25.172 124.57 26.04 124.281 25.172L123.992 25.7507Z" fill="#FFFF45"/>
<path fill-rule="evenodd" clip-rule="evenodd" d="M133.82 29.5122C133.531 30.0909 133.242 30.9589 133.82 31.5375C134.398 31.8269 135.554 31.2482 135.843 30.9589C136.71 30.3802 137.578 28.9335 136.71 28.0655C136.421 27.4868 134.976 27.1975 134.398 27.1975C132.953 27.1975 132.664 28.9335 132.375 30.3802L133.82 29.5122Z" fill="#FFFF45"/>
<path fill-rule="evenodd" clip-rule="evenodd" d="M138.153 15.9134C137.864 14.756 137.864 13.5987 138.731 13.02C139.309 12.7307 140.176 12.4413 140.755 13.02C141.044 13.3093 141.333 13.888 141.622 14.1774C141.911 14.756 141.911 14.756 141.622 15.3347C141.333 16.492 141.044 17.36 139.598 17.36C137.864 17.36 137.864 16.2027 137.864 14.4667V15.9134H138.153Z" fill="#FFFF45"/>
<path fill-rule="evenodd" clip-rule="evenodd" d="M152.896 36.1665C153.763 35.8771 154.63 35.5878 155.208 34.7198C154.63 34.4305 153.185 33.5624 152.896 34.7198V36.1665Z" fill="#FFFF45"/>
<path fill-rule="evenodd" clip-rule="evenodd" d="M102.026 218.447C102.893 218.158 103.761 217.869 104.339 217.001C103.761 216.711 102.315 215.843 102.026 217.001V218.447Z" fill="#FFCDB1"/>
<path fill-rule="evenodd" clip-rule="evenodd" d="M195.959 238.122C196.826 237.833 197.693 237.544 198.271 236.676C197.693 236.386 196.248 235.518 195.959 236.676V238.122Z" fill="#FFCDB1"/>
<path fill-rule="evenodd" clip-rule="evenodd" d="M164.168 53.8163C165.035 52.659 166.191 50.923 167.925 51.791C168.792 52.3697 169.081 54.1057 168.214 54.6843C167.347 55.263 166.769 55.5523 165.613 55.8417C165.035 56.131 163.879 55.5523 164.168 54.395V53.8163Z" fill="#FFFF45"/>
<path fill-rule="evenodd" clip-rule="evenodd" d="M103.181 78.9882C104.048 77.8309 105.205 76.0949 106.939 76.9629C107.806 77.5415 108.095 79.2775 107.228 79.8562C106.361 80.4349 105.783 80.7242 104.627 81.0136C104.048 81.3029 102.892 80.7242 103.181 79.5669V78.9882Z" fill="#FFCDB1"/>
<path fill-rule="evenodd" clip-rule="evenodd" d="M204.343 34.1414C205.21 32.9841 206.366 31.2481 208.1 32.1161C208.967 32.6947 209.256 34.4307 208.389 35.0094C207.522 35.5881 206.944 35.8774 205.788 36.1668C205.21 36.4561 204.053 35.8774 204.343 34.7201V34.1414Z" fill="#FFCDB1"/>
<path fill-rule="evenodd" clip-rule="evenodd" d="M147.692 127.597C148.559 126.439 149.715 124.703 151.45 125.571C152.317 126.15 152.606 127.886 151.739 128.465C150.871 129.043 150.293 129.333 149.137 129.622C148.559 129.911 147.403 129.333 147.692 128.175V127.597Z" fill="#FFCDB1"/>
<path fill-rule="evenodd" clip-rule="evenodd" d="M98.2682 41.0852C97.1121 41.6638 95.3779 42.5318 95.0889 44.2679C95.0889 45.1359 95.3779 45.7145 96.245 46.0039C96.823 46.2932 97.9791 46.2932 98.8462 46.0039C100.002 45.4252 101.158 44.5572 101.448 43.6892C101.737 42.8212 101.737 42.2425 101.448 41.6638C101.158 41.3745 100.869 40.7958 100.291 40.5065C98.8462 39.9278 97.9792 41.3745 96.823 41.9532L98.2682 41.0852Z" fill="#FFFF45"/>
<path fill-rule="evenodd" clip-rule="evenodd" d="M101.737 37.0345C102.315 37.3238 102.893 37.6132 103.182 38.1918C102.604 38.4812 102.026 38.7705 101.448 38.7705C100.581 38.4812 100.581 37.6132 100.581 37.0345C100.581 36.7452 101.448 35.8772 101.737 36.1665C102.026 36.1665 102.026 36.4558 102.026 36.7452C102.315 37.0345 102.315 37.0345 102.026 37.6132H101.737V37.0345Z" fill="#FFFF45"/>
<path fill-rule="evenodd" clip-rule="evenodd" d="M40.7523 62.4966C39.5962 63.6539 38.4401 64.8113 37.862 66.2579C37.573 67.1259 38.1511 67.1259 38.7291 66.8366C40.1743 66.5473 41.3304 66.2579 42.7755 65.9686C43.6426 65.6793 44.7987 65.3899 45.0878 64.8113C45.3768 64.2326 45.6658 63.3646 45.6658 62.7859C45.6658 61.9179 44.7987 61.6286 44.2207 61.3392C42.4865 60.7606 39.8852 61.9179 39.3072 63.6539L40.7523 62.4966Z" fill="#FFFF45"/>
<path fill-rule="evenodd" clip-rule="evenodd" d="M41.6197 68.5718C42.4868 68.5718 43.3539 68.8612 44.221 69.1505C43.9319 69.4398 43.9319 69.7292 43.9319 70.0185C43.6429 70.5972 43.3539 70.8865 42.7758 71.1758C41.9087 71.7545 40.7526 71.7545 39.8855 71.4652C37.2843 70.5972 41.3307 67.7038 41.9087 68.5718H41.6197Z" fill="#FFFF45"/>
<path fill-rule="evenodd" clip-rule="evenodd" d="M119.945 13.5988C120.812 13.0201 121.68 12.7308 122.547 12.4414C123.703 12.1521 124.859 12.1521 126.015 12.1521C126.593 12.1521 128.038 12.1521 127.46 13.0201C127.171 14.1774 124.859 15.0454 123.992 15.3348C122.547 15.9134 121.101 16.7815 119.367 17.0708C118.5 17.0708 117.055 17.3601 116.477 16.4921C116.188 15.6241 116.188 15.0454 116.766 14.4668C117.055 13.8881 117.633 13.5988 118.5 13.3094C118.789 13.3094 120.812 12.7308 120.812 13.3094L119.945 13.5988Z" fill="#FFFF45"/>
<path fill-rule="evenodd" clip-rule="evenodd" d="M104.628 13.8879C104.338 14.1773 101.159 15.9133 102.604 16.7813C103.471 17.0706 104.917 17.0706 105.784 16.7813C106.362 16.492 107.229 15.9133 106.651 15.0453C105.784 13.3093 103.471 14.4666 102.315 15.0453L104.628 13.8879Z" fill="#FFFF45"/>
<path fill-rule="evenodd" clip-rule="evenodd" d="M61.5615 127.307C61.8506 128.465 62.1396 129.911 63.2957 130.779C64.4518 131.647 65.897 131.358 66.7641 130.49C67.6312 129.911 68.4982 129.333 69.0763 129.043C69.6544 128.754 69.9434 128.754 69.9434 127.886C69.9434 127.018 69.3653 126.15 68.7873 125.571C68.2092 124.993 67.3421 124.125 66.475 123.835C64.7409 123.257 61.5615 123.835 61.5615 126.15V127.307Z" fill="#FFD32F"/>
<path fill-rule="evenodd" clip-rule="evenodd" d="M159.832 128.754C160.121 129.911 160.41 131.358 161.566 132.226C162.722 133.094 164.167 132.804 165.035 131.936C165.902 131.358 166.769 130.779 167.347 130.49C167.925 130.2 168.214 130.2 168.214 129.332C168.214 128.464 167.636 127.596 167.058 127.018C166.48 126.439 165.613 125.571 164.746 125.282C163.011 124.703 159.832 125.282 159.832 127.596V128.754Z" fill="#FDE7AD"/>
<path fill-rule="evenodd" clip-rule="evenodd" d="M19.9438 178.23C19.9438 178.23 18.7876 183.149 22.256 189.515C25.7244 195.88 28.3256 195.301 28.3256 195.301C28.3256 195.301 25.1463 183.728 19.9438 178.23Z" fill="#FFFF59"/>
<path fill-rule="evenodd" clip-rule="evenodd" d="M243.363 110.816C243.363 110.816 239.316 122.389 238.738 124.125C238.738 123.836 245.097 122.1 243.363 110.816Z" fill="#FFFF59"/>
<path fill-rule="evenodd" clip-rule="evenodd" d="M265.041 114.287C265.041 114.287 262.151 116.313 260.706 121.81C260.706 121.81 264.174 123.546 265.041 114.287Z" fill="#FFFF59"/>
</g>
<defs>
<filter id="filter0_d_785_1139" x="0" y="0" width="292" height="292" filterUnits="userSpaceOnUse" color-interpolation-filters="sRGB">
<feFlood flood-opacity="0" result="BackgroundImageFix"/>
<feColorMatrix in="SourceAlpha" type="matrix" values="0 0 0 0 0 0 0 0 0 0 0 0 0 0 0 0 0 0 127 0" result="hardAlpha"/>
<feOffset dx="11" dy="11"/>
<feGaussianBlur stdDeviation="3.5"/>
<feComposite in2="hardAlpha" operator="out"/>
<feColorMatrix type="matrix" values="0 0 0 0 0 0 0 0 0 0 0 0 0 0 0 0 0 0 0.4 0"/>
<feBlend mode="normal" in2="BackgroundImageFix" result="effect1_dropShadow_785_1139"/>
<feBlend mode="normal" in="SourceGraphic" in2="effect1_dropShadow_785_1139" result="shape"/>
</filter>
<radialGradient id="paint0_radial_785_1139" cx="0" cy="0" r="1" gradientUnits="userSpaceOnUse" gradientTransform="translate(52.349 72.8406) rotate(17.6457) scale(209.452 209.673)">
<stop stop-color="#FFE7C4"/>
<stop offset="0.125" stop-color="#FFDBB0"/>
<stop offset="0.25" stop-color="#FFD39E"/>
<stop offset="0.5" stop-color="#FFC6C7"/>
<stop offset="0.625" stop-color="#FBC2EB"/>
<stop offset="0.75" stop-color="#FFACE8"/>
<stop offset="0.875" stop-color="#FF96C8"/>
<stop offset="1" stop-color="#FF88C1"/>
</radialGradient>
<linearGradient id="paint1_linear_785_1139" x1="11.6936" y1="177.276" x2="77.9935" y2="177.276" gradientUnits="userSpaceOnUse">
<stop offset="0.0111732" stop-color="#FFA90B" stop-opacity="0.43"/>
<stop offset="0.3713" stop-color="#FFA60E" stop-opacity="0.32"/>
<stop offset="0.6354" stop-color="#FF9D16" stop-opacity="0.29"/>
<stop offset="0.868" stop-color="#FF8D25" stop-opacity="0.33"/>
<stop offset="1" stop-color="#FF8031" stop-opacity="0.14"/>
</linearGradient>
<linearGradient id="paint2_linear_785_1139" x1="21.0989" y1="97.3077" x2="46.2696" y2="96.5188" gradientUnits="userSpaceOnUse">
<stop offset="0.0111732" stop-color="#FFDB98"/>
<stop offset="0.3713" stop-color="#FFBC7D"/>
<stop offset="0.6354" stop-color="#FFBF44"/>
<stop offset="0.868" stop-color="#FFD6B0"/>
<stop offset="1" stop-color="#F9C7A9"/>
</linearGradient>
<linearGradient id="paint3_linear_785_1139" x1="22.3019" y1="98.0197" x2="45.3905" y2="97.2882" gradientUnits="userSpaceOnUse">
<stop stop-color="#FFF191"/>
<stop offset="0.2" stop-color="#FFEF8C"/>
<stop offset="0.4" stop-color="#F5DC67"/>
<stop offset="0.6" stop-color="#FFD764"/>
<stop offset="0.8" stop-color="#FFBC4E"/>
<stop offset="1" stop-color="#FFA546"/>
</linearGradient>
<linearGradient id="paint4_linear_785_1139" x1="75.7343" y1="104.115" x2="207.68" y2="124.642" gradientUnits="userSpaceOnUse">
<stop offset="0.0111732" stop-color="#FFE00B"/>
<stop offset="0.3061" stop-color="#FFDD0D"/>
<stop offset="0.5224" stop-color="#FFD412"/>
<stop offset="0.7136" stop-color="#F67C27"/>
<stop offset="0.8891" stop-color="#ED6930"/>
<stop offset="1" stop-color="#E76332"/>
</linearGradient>
<linearGradient id="paint5_linear_785_1139" x1="-0.0618951" y1="98.372" x2="195.222" y2="98.372" gradientUnits="userSpaceOnUse">
<stop offset="0.0111732" stop-color="#FFF5B4"/>
<stop offset="0.3061" stop-color="#FFF19C"/>
<stop offset="0.5224" stop-color="#FFED9B"/>
<stop offset="0.7136" stop-color="#FFDF84"/>
<stop offset="0.8891" stop-color="#FFC567"/>
<stop offset="1" stop-color="#FFB15F"/>
</linearGradient>
<linearGradient id="paint6_linear_785_1139" x1="182.765" y1="244.62" x2="218.884" y2="244.62" gradientUnits="userSpaceOnUse">
<stop offset="0.0111732" stop-color="#FFE00B"/>
<stop offset="0.3061" stop-color="#FFDD0D"/>
<stop offset="0.5224" stop-color="#FFD412"/>
<stop offset="0.7136" stop-color="#FFC41B"/>
<stop offset="0.8891" stop-color="#FFAD27"/>
<stop offset="1" stop-color="#FF9B31"/>
</linearGradient>
<linearGradient id="paint7_linear_785_1139" x1="225.651" y1="53.2435" x2="243.428" y2="53.2435" gradientUnits="userSpaceOnUse">
<stop offset="0.0111732" stop-color="#FFE00B"/>
<stop offset="0.3061" stop-color="#FFDD0D"/>
<stop offset="0.5224" stop-color="#FFD412"/>
<stop offset="0.7136" stop-color="#FFC41B"/>
<stop offset="0.8891" stop-color="#FFAD27"/>
<stop offset="1" stop-color="#FF9B31"/>
</linearGradient>
</defs>
</svg>
