<svg width="282" height="291" viewBox="0 0 282 291" fill="none" xmlns="http://www.w3.org/2000/svg">
<g filter="url(#filter0_d_785_681)">
<path fill-rule="evenodd" clip-rule="evenodd" d="M21.1221 67.9332C21.1221 67.9332 22.8581 53.9551 24.0154 46.407C24.0154 46.407 33.8528 32.9881 49.4768 22.0852L70.3089 23.2035C70.3089 23.2035 28.0661 55.9121 21.1221 67.9332Z" fill="url(#paint0_linear_785_681)"/>
<path fill-rule="evenodd" clip-rule="evenodd" d="M49.481 22.0852C49.481 22.0852 49.4811 33.2676 38.7757 42.2136C28.0703 51.1595 23.4409 48.0844 23.4409 48.0844L20.8369 65.9763L70.0238 23.2035L49.481 22.0852Z" fill="url(#paint1_linear_785_681)"/>
<path fill-rule="evenodd" clip-rule="evenodd" d="M274 139.221C274 151.802 272.264 164.382 268.792 175.844C261.848 199.327 248.249 220.014 230.31 236.229C217.58 247.691 202.245 256.916 185.463 263.067C170.418 268.658 153.926 271.733 136.855 271.733C134.541 271.733 131.937 271.733 129.622 271.454C126.15 271.174 122.388 270.894 118.916 270.615C92.587 267.26 68.283 256.637 48.8975 240.702C41.6642 234.831 35.0095 228.122 28.9335 220.853C24.5934 215.262 20.5427 209.671 17.0707 203.52C16.2027 202.122 15.3347 200.445 14.4667 199.047C14.4667 199.047 14.4667 199.047 14.4667 198.768C13.5987 197.09 12.7307 195.693 12.152 194.015C9.83732 188.983 7.81196 183.671 6.07596 178.36C4.91862 174.446 3.76135 170.532 2.89335 166.618C2.31468 163.823 1.73601 161.027 1.44667 157.952C0.578669 151.802 0 145.651 0 139.221C0 135.587 -5.29874e-05 131.953 0.578616 128.318C0.867951 126.082 1.15734 123.845 1.44667 121.609C3.18268 108.47 6.944 96.1689 12.4414 84.7069C15.0454 79.1157 18.2281 73.5245 21.7001 68.4924C27.4868 59.826 34.1415 51.7188 41.9535 44.4502C66.547 21.2466 100.399 6.98901 137.434 6.98901C138.881 6.98901 140.327 6.98901 141.774 6.98901C143.221 6.98901 144.957 6.98901 146.403 7.26857C154.215 7.82769 162.027 8.94594 169.55 10.6233C173.89 11.7415 178.23 12.8598 182.281 14.2576C185.174 15.0963 187.778 16.2145 190.672 17.3328C192.697 18.1714 194.722 19.0101 196.748 19.8488C197.037 20.1284 197.326 20.1284 197.905 20.4079C211.214 26.5583 223.366 34.9451 233.782 45.0093C235.229 46.4071 236.676 47.8049 238.122 49.4823C238.99 50.6005 240.148 51.4392 241.016 52.5574C242.752 54.2348 244.198 56.1917 245.645 57.8691C251.142 64.5785 255.772 71.8471 259.822 79.3953C264.452 88.3412 268.213 97.8463 270.817 107.631C272.553 117.416 274 128.039 274 139.221Z" fill="url(#paint2_radial_785_681)"/>
<path fill-rule="evenodd" clip-rule="evenodd" d="M196.478 19.1353C195.901 19.1353 195.612 19.1353 195.035 19.4173C193.593 19.6993 192.15 19.4173 190.708 19.1353C189.554 18.8533 188.977 18.2894 187.534 18.2894C185.803 18.0074 184.36 17.4435 182.629 17.1615C180.898 16.8795 179.456 16.3156 177.725 15.7517C176.282 15.1877 175.705 15.4697 174.551 15.7517C173.397 16.0336 172.531 15.4697 171.377 15.1877C170.223 14.6238 168.781 14.6238 167.627 14.3418C164.164 13.7778 160.702 12.65 157.24 11.804C155.221 11.2401 153.201 11.2401 150.893 11.2401C149.162 11.2401 147.719 11.804 145.988 11.804C144.834 11.804 143.968 11.5221 142.814 11.5221C141.66 11.2401 140.506 11.5221 139.352 11.5221C137.621 11.2401 136.756 10.9581 135.025 11.5221C133.582 11.804 132.716 11.804 131.274 12.086C129.831 12.086 128.1 12.65 126.658 12.9319C124.061 13.4959 121.176 14.0598 118.579 14.0598C116.848 14.0598 114.54 13.4959 113.097 14.0598C112.232 14.3418 111.655 15.4697 110.789 16.0336C109.347 17.4435 107.904 18.5714 106.75 19.9812C105.596 21.3911 104.442 23.0829 104.442 25.0568C104.442 26.7486 105.308 28.7224 106.173 30.1323C107.039 31.8241 107.327 33.234 105.596 34.3619C103.576 35.7717 100.98 36.8996 98.6717 37.7455C96.9406 38.3095 95.4981 38.5914 94.344 37.4635C93.767 37.1816 93.4785 36.3357 92.9014 35.7717C92.3244 35.4897 91.4589 35.7717 90.8819 36.0537C89.1508 36.6176 87.4197 37.1816 85.6886 37.4635C84.5345 37.7455 83.669 38.3095 82.5149 38.3095C81.3609 38.5914 80.4954 37.7455 79.0528 38.0275C77.3217 38.3095 75.3021 39.1554 73.5711 39.1554C72.1285 39.1554 70.3974 38.5914 69.2434 38.0275C68.6663 37.7455 68.3778 37.1816 67.5123 37.4635C66.9352 37.4635 66.0697 38.3095 65.7812 38.8734C65.2041 39.4374 65.2041 40.2833 64.6271 40.8472C64.0501 41.6931 63.7616 42.2571 63.1845 43.103C62.319 44.5129 61.4535 45.9227 60.5879 47.3326C60.0109 48.1785 59.4338 49.5884 58.5683 50.4343C58.2798 50.9982 57.4142 51.2802 56.8372 51.5622C55.3946 52.4081 53.9521 53.536 52.5095 54.3819C49.9129 56.3557 47.3163 58.6115 44.7197 60.5853C42.7001 61.9952 39.8149 62.8411 37.5068 63.969C36.0642 64.5329 34.6217 65.0969 33.1791 65.6608C32.6021 65.9428 31.7365 65.9428 31.448 66.5067C30.871 67.0707 30.5825 67.6346 30.294 68.4805C29.1399 69.8904 27.6973 71.5823 26.8318 73.2741C26.2547 74.402 25.9662 75.2479 25.3892 76.3758C24.8122 77.7857 23.9466 79.1955 23.6581 80.8873C22.504 83.989 22.5041 87.3727 21.0615 90.4744C20.4845 92.1663 19.3304 93.8581 18.4649 95.5499C17.0223 98.3696 16.7338 101.753 16.4452 104.855C16.1567 106.547 16.4453 108.803 16.7338 110.494C17.0223 112.468 17.0223 114.442 17.0223 116.416C17.0223 118.39 15.5798 120.645 14.4257 122.055C13.2716 123.465 11.252 124.029 9.80946 125.439C8.6554 126.567 7.21281 127.695 6.63579 129.387C6.34727 129.951 6.63579 130.797 6.63579 131.642C6.34727 133.334 5.77028 134.744 5.77028 136.436C5.48177 138.41 5.48175 140.384 5.48175 142.639C5.48175 143.767 5.48175 144.613 5.48175 145.741C5.48175 146.869 5.77021 147.715 6.05872 148.561C6.05872 149.125 6.05872 149.971 6.05872 150.535C6.05872 151.381 6.63579 152.226 6.63579 152.79C7.21281 154.764 7.50131 156.456 7.78982 158.43C8.07834 160.122 8.94388 161.814 9.23239 163.505C10.0979 165.761 10.3865 168.017 10.9635 170.555C11.252 172.247 11.252 174.22 11.5406 175.912C11.8291 177.322 12.1175 178.732 12.1175 180.142C12.1175 182.398 11.5406 184.371 11.5406 186.627C11.5406 190.293 12.9831 193.958 13.8486 197.624C14.1371 198.752 14.4256 199.598 14.7141 200.726C5.19318 182.679 0 162.095 0 140.384C0 113.878 7.78986 89.3465 21.35 68.7625C27.1203 60.0214 33.7561 51.8442 41.546 44.7948C66.0697 21.3911 99.8258 7.0105 136.756 7.0105C139.641 7.0105 142.814 7.0105 145.7 7.29248C163.587 7.0105 180.898 11.5221 196.478 19.1353Z" fill="url(#paint3_linear_785_681)"/>
<path opacity="0.1" fill-rule="evenodd" clip-rule="evenodd" d="M145.536 201.284C145.536 201.284 158.267 219.455 175.338 234.272C192.408 249.089 194.723 259.153 194.723 259.153C194.723 259.153 226.839 246.293 249.697 215.542C272.554 185.069 145.536 201.284 145.536 201.284Z" fill="black"/>
<path opacity="0.4" fill-rule="evenodd" clip-rule="evenodd" d="M168.685 10.3442C161.163 8.66688 153.64 7.54865 145.539 6.98953C144.092 6.98953 142.356 6.70996 140.909 6.70996C144.092 8.38733 147.275 11.4625 147.853 14.8172C149.011 20.4084 151.036 25.4405 151.904 30.7522C153.061 36.0639 152.772 42.7733 150.168 47.5259C148.721 50.601 146.696 53.1171 144.092 55.6331C142.356 57.3105 140.62 58.4287 139.463 60.6652C138.305 62.9017 136.859 64.8586 135.412 66.8156C133.387 69.8907 131.072 72.9659 128.468 75.7615C127.6 76.8797 126.732 77.4389 125.864 78.5571C124.996 79.9549 124.417 81.3527 123.26 82.471C120.656 84.987 116.895 86.6644 113.712 87.7826C109.372 89.46 105.61 91.1374 101.56 93.3738C95.7731 96.449 90.8544 100.083 84.1997 100.363C81.885 100.363 79.5704 100.083 77.2557 100.363C74.3624 100.642 71.7584 101.761 69.1544 102.32C66.8397 102.879 64.2357 103.158 61.921 103.718C57.8703 104.277 54.6876 105.675 50.9262 106.513C46.0075 107.631 40.7996 107.352 35.5915 108.191C30.9622 108.75 27.2008 109.309 22.5715 108.191C15.6274 106.513 11.8661 103.438 13.3127 96.1694C14.1807 91.4169 13.8915 87.7826 11.5768 84.4279C6.07944 95.8899 2.31804 108.47 0.582031 121.33C3.76471 122.728 7.52606 123.287 10.7087 123.566C20.8355 124.685 31.8302 120.212 41.0889 116.857C45.7182 115.18 50.6369 112.664 55.845 112.104C61.3423 111.545 65.9716 112.104 71.469 110.986C89.9864 106.513 108.215 100.363 124.996 90.8578C131.94 86.9439 134.833 81.3527 139.752 75.7615C143.803 70.7294 148.721 66.8156 153.64 62.6221C158.559 58.4287 162.899 54.5149 165.792 48.9237C168.975 43.0529 171.579 36.3434 173.025 29.9135C174.472 22.6449 172.447 15.9355 168.685 10.3442ZM167.817 28.2361C167.528 29.634 167.239 31.3113 166.949 32.7091C165.792 36.3434 163.477 39.9777 160.005 41.6551C158.559 42.4938 156.244 41.9346 155.376 40.5368C154.797 39.6981 154.797 38.5799 154.797 37.7412C154.508 35.7843 154.219 34.1069 154.219 32.15C154.219 27.677 154.219 23.2041 153.64 18.7311C154.219 21.2471 153.64 14.8172 157.691 13.1399C159.716 12.3012 162.609 13.1399 164.056 14.5377C165.792 16.4946 166.371 19.5698 166.949 21.8063C167.528 24.3223 168.107 25.9997 167.817 28.2361Z" fill="url(#paint4_linear_785_681)"/>
<path opacity="0.4" fill-rule="evenodd" clip-rule="evenodd" d="M147.85 239.863C147.561 239.863 146.982 240.143 146.693 240.143L149.297 240.423C149.297 240.143 148.718 239.863 147.85 239.863ZM147.85 239.863C147.561 239.863 146.982 240.143 146.693 240.143L149.297 240.423C149.297 240.143 148.718 239.863 147.85 239.863ZM269.949 107.072C269.949 110.427 268.792 114.061 268.792 117.416C268.792 122.168 267.924 125.803 266.767 130.276C265.899 133.351 264.163 135.587 263.295 138.662C262.137 142.017 260.401 145.092 258.665 148.167C255.193 154.318 251.432 160.748 249.985 167.737C248.539 174.167 248.249 179.478 245.066 185.349C241.884 190.94 237.254 195.693 233.782 201.284C232.336 203.8 231.178 203.8 228.574 205.477C225.97 207.434 223.366 210.23 220.762 212.187C215.265 216.38 210.057 219.456 203.113 221.972C198.773 223.649 194.722 224.767 190.093 225.326C187.2 225.885 184.306 225.326 181.413 225.885C176.784 226.724 172.444 227.842 167.814 229.24C160.581 231.477 153.058 232.874 145.825 235.111C140.617 236.509 135.698 237.627 130.49 238.466C127.307 239.025 124.703 240.702 121.521 240.143C118.338 239.584 115.155 238.466 111.973 237.347C107.922 236.229 104.45 235.95 100.11 235.95C94.3231 235.95 87.3791 236.788 81.3031 235.67C74.6484 234.552 68.2831 232.595 61.6284 231.477C57.5777 230.638 54.6843 228.961 50.923 227.563C47.4509 225.885 43.979 225.606 40.2176 224.488C36.4563 223.369 32.6949 221.692 28.9336 220.853C34.7203 228.122 41.375 234.831 48.8977 240.702C68.2831 256.637 92.2978 267.26 118.917 270.615C122.389 270.895 125.861 271.454 129.622 271.454C137.434 269.776 144.957 267.54 152.769 265.303C165.789 261.39 177.073 253.841 190.093 250.207C195.012 248.809 199.352 247.412 203.692 245.175C207.164 243.498 210.636 243.218 213.818 241.82C225.97 236.788 234.94 225.606 240.437 214.423C242.752 209.391 245.066 203.8 249.696 199.886C251.432 198.209 253.747 197.091 255.193 195.134C256.929 193.177 258.087 190.94 259.823 188.704C262.716 185.07 265.32 181.156 267.924 177.521C268.213 176.962 268.503 176.683 268.792 176.124C272.264 164.382 274 152.081 274 139.501C274 128.039 272.553 117.416 269.949 107.072ZM144.089 240.702C144.667 240.423 145.246 239.863 145.825 239.584C146.403 239.304 147.271 239.584 147.85 239.863C149.007 239.584 149.875 239.584 150.743 240.143C151.322 240.423 152.19 240.982 152.479 241.541C152.769 242.1 152.479 242.38 151.901 242.939C151.322 243.498 151.033 243.498 150.165 243.498C148.718 243.777 147.271 244.057 145.535 243.777C144.667 243.777 143.221 243.498 142.642 242.939C142.642 241.82 143.51 241.261 144.089 240.702ZM153.058 258.035C152.19 259.153 151.322 260.271 150.165 260.831C149.007 261.669 147.85 261.949 146.982 262.787C144.089 264.185 141.195 265.863 138.302 266.701C137.145 266.981 135.698 266.981 134.541 266.981C133.094 267.26 131.358 267.26 129.911 267.26C128.175 267.26 126.15 267.54 124.414 267.82C122.678 267.82 120.653 268.099 118.917 268.099C115.734 268.379 113.13 267.82 110.237 266.701C107.633 265.863 105.029 264.465 102.714 263.067C100.978 261.949 99.5312 260.551 98.3739 259.153C96.9272 258.035 96.0592 256.637 95.1912 254.96C94.9019 254.401 94.6125 253.841 94.9018 253.003C94.9018 252.723 95.1912 252.444 95.1912 252.444C95.7699 252.164 96.3485 251.605 96.6379 251.605C97.5059 251.046 98.6632 251.046 99.8206 250.766C102.425 250.487 105.029 250.766 107.633 251.046C109.079 251.046 110.526 251.325 111.973 251.046C113.998 250.766 116.023 250.207 117.759 249.648C122.389 248.53 127.018 247.412 131.647 247.132C136.277 246.573 141.485 246.014 146.114 246.852C147.85 247.132 150.165 247.691 151.611 248.53C152.769 249.369 153.637 250.487 154.215 251.605C155.083 253.841 154.505 256.078 153.058 258.035ZM189.514 246.573C188.646 247.412 187.489 247.971 186.332 248.809C184.885 249.928 183.438 250.487 181.992 251.325C180.834 252.164 179.388 252.723 178.23 253.282C176.783 253.841 175.626 254.401 174.18 255.239C172.733 255.798 171.286 256.358 169.839 256.917C168.682 257.196 167.525 257.755 166.368 257.476C165.5 257.196 164.342 256.917 163.763 256.358C162.606 255.239 162.895 254.121 163.185 253.562C163.185 252.723 162.895 251.325 163.185 250.207C163.474 249.648 164.053 248.809 164.342 248.25C165.499 246.014 167.236 244.616 168.972 242.939C170.418 241.541 172.154 240.423 174.18 239.584C176.494 238.745 179.388 238.466 181.702 238.186C184.306 237.907 188.936 237.627 190.382 240.702C191.25 242.659 190.961 244.616 189.514 246.573ZM149.586 240.143C149.297 240.143 148.718 239.863 148.139 239.584C147.85 239.584 147.271 239.863 146.982 239.863L149.586 240.143Z" fill="url(#paint5_linear_785_681)"/>
<path opacity="0.4" fill-rule="evenodd" clip-rule="evenodd" d="M258.958 78.8356V79.3947C258.668 83.029 257.222 85.5451 255.775 88.8998C254.618 91.6954 253.46 93.9319 252.014 96.4479C249.699 100.641 248.542 104.555 246.806 109.308C243.912 116.297 242.755 123.845 238.415 130.275C234.654 136.146 233.496 143.135 230.603 149.285C227.131 156.274 221.634 161.027 215.847 166.059C213.243 168.295 210.928 171.091 208.613 173.607C206.009 176.123 204.274 179.478 201.091 181.714C194.725 186.187 187.492 190.101 181.127 194.853C177.365 197.649 174.761 201.563 170.421 203.799C166.371 206.315 161.741 207.993 157.691 210.229C153.929 212.466 150.168 214.702 146.117 216.38C141.488 218.057 137.727 217.498 132.808 217.777C127.6 218.057 122.102 219.455 117.184 221.132C113.133 222.53 109.661 223.928 105.321 222.53C102.428 221.691 100.113 219.734 97.2196 219.175C90.2756 217.777 82.7529 219.175 75.8089 218.896C70.3115 218.616 64.5249 217.498 59.0275 216.38C53.8195 215.541 49.4795 211.907 44.5608 210.509C38.1954 208.831 30.962 210.229 25.1753 207.993C22.5713 207.154 20.2567 205.197 18.2313 203.799C17.6527 203.52 17.3633 203.24 16.7847 202.961C15.9167 201.563 15.0487 199.885 14.1807 198.488C15.6273 199.047 17.074 199.606 18.5207 200.445C26.3327 204.079 36.1701 203.52 44.5608 204.918C54.1088 206.595 63.6569 208.831 73.2049 209.95C77.2556 210.509 81.017 210.229 85.0676 209.95C90.565 209.391 96.0623 209.391 101.56 208.552C110.818 206.874 120.077 202.681 129.625 203.799C131.361 204.079 133.386 204.918 135.122 204.918C137.727 204.918 139.752 202.681 141.777 201.283C145.539 199.047 149.589 199.326 153.061 196.251C156.244 193.176 160.005 191.219 164.056 189.262C174.472 184.23 182.863 175.843 191.253 167.736C198.197 161.027 204.852 154.037 209.482 145.93C214.111 137.823 213.243 128.038 216.715 119.651C219.319 113.501 221.344 107.91 225.395 102.598C227.42 100.082 229.735 97.8457 231.76 95.3297C234.075 92.8136 235.232 90.018 236.968 86.9429C238.704 83.5881 241.308 80.7925 242.755 77.1582C244.202 73.8035 243.912 71.0079 243.912 67.3736C243.912 63.7393 243.912 59.8255 243.912 55.9116C249.988 64.0189 254.907 71.2875 258.958 78.8356Z" fill="url(#paint6_linear_785_681)"/>
<path opacity="0.4" fill-rule="evenodd" clip-rule="evenodd" d="M237.254 48.9234C235.808 47.5256 234.361 45.8482 232.914 44.4504C222.498 34.3862 210.346 26.279 197.037 19.8491C196.747 19.5695 196.458 19.5695 195.879 19.2899C193.854 18.4513 191.829 17.6126 189.803 16.7739C186.91 15.6557 184.306 14.5374 181.413 13.6987C182.281 14.2579 183.438 14.817 183.727 14.817C185.464 15.6557 186.91 16.2148 188.068 17.6126C189.225 19.0104 189.803 20.1286 189.803 22.0856C189.803 23.7629 190.093 25.7199 190.382 27.3972C190.671 29.0746 191.539 30.4724 191.829 32.1498C192.118 32.9884 192.118 33.8271 192.408 34.9454C192.986 37.1818 193.854 39.4183 194.433 41.6548C195.301 45.8482 192.986 49.203 191.539 52.8373C189.225 58.708 187.778 64.5788 185.753 70.7291C184.306 75.4817 181.702 80.2342 177.941 83.8685C174.179 87.2232 168.682 88.0619 165.499 91.6962C162.606 95.0509 159.134 98.1261 155.083 99.8035C150.454 102.04 145.246 103.717 140.327 105.115C136.855 106.233 133.094 106.233 129.333 107.072C124.703 108.19 120.653 110.427 116.602 112.104C111.972 114.061 107.922 116.298 103.292 118.254C98.6631 120.211 94.6124 122.727 89.983 124.405C87.6683 125.244 85.3537 125.803 83.3283 126.362C78.699 128.039 74.359 130.835 69.4403 131.394C67.7043 131.673 65.9682 131.953 64.2322 131.953C62.7856 131.953 61.6283 132.233 60.4709 132.512C56.1309 134.189 53.5269 138.662 48.6082 138.942C43.9788 138.942 39.6388 138.662 35.2988 139.222C32.9841 139.501 30.9588 139.222 28.9335 139.501C28.3548 139.501 27.4868 139.781 26.9081 139.501C26.3294 139.222 25.4614 138.662 24.5934 138.103C22.8574 137.265 21.4107 136.146 19.9641 135.028C17.0707 132.792 13.3094 134.189 10.1267 133.351C9.25871 133.071 7.81202 133.351 6.94401 132.792C4.91867 131.673 2.31462 129.157 0.578616 127.76C0.289282 131.394 0 135.028 0 138.662C0 145.092 0.578669 151.243 1.44667 157.393C1.73601 160.189 2.31468 162.984 2.89335 166.059C3.76135 169.973 4.91862 174.167 6.07596 177.801C7.81196 183.113 9.83732 188.424 12.152 193.456C15.9134 194.015 19.6747 194.575 23.436 194.015C28.9334 193.177 34.1414 192.338 39.6388 192.618C44.8468 192.897 49.4762 194.575 54.3949 195.413C59.8922 196.252 65.6789 197.091 71.4656 197.37C76.6736 197.65 81.8817 198.209 86.8004 198.768C90.5617 199.327 94.6124 199.886 98.3738 200.166C108.5 200.725 118.338 198.209 128.175 197.37C133.094 196.811 138.013 195.693 142.931 194.575C145.825 194.015 148.718 193.177 151.322 191.499C154.794 189.263 157.109 186.188 160.002 183.672C163.474 180.876 166.946 178.081 170.418 175.564C173.311 173.328 176.205 170.812 179.387 168.855C181.702 167.457 184.306 165.78 186.621 164.102C190.961 160.748 194.722 156.834 198.483 152.64C203.692 146.77 205.717 138.662 207.742 131.394C209.768 124.684 210.925 118.254 214.686 112.104C216.422 109.309 217.869 105.954 218.737 102.599C219.316 100.642 219.605 98.1261 220.473 96.1692C221.92 93.094 225.102 90.578 226.838 87.7824C228.285 85.5459 230.021 83.3094 230.889 80.5138C232.914 75.4817 234.361 70.4496 235.229 64.8584C235.808 60.9445 237.254 57.0307 238.412 53.1168C238.701 52.5577 238.701 51.719 238.99 51.1599C238.99 50.8803 238.122 49.7621 237.254 48.9234ZM58.7349 139.501C59.0242 138.942 64.2323 136.985 64.8109 136.706C64.8109 136.706 64.8109 136.706 64.5216 136.706L61.0495 138.103C64.8109 136.985 71.4656 140.619 68.2829 144.533C67.4149 145.651 64.8109 146.211 63.3643 146.49C61.9176 146.77 61.0496 146.211 60.1816 145.092C59.3136 143.974 58.7349 142.297 58.7349 140.899C58.7349 140.619 58.7349 139.781 58.7349 139.501ZM17.9387 175.005C13.888 173.887 11.284 172.489 8.9693 169.135C7.23329 166.898 6.07601 164.941 5.49734 162.425C5.20801 160.189 4.33997 158.511 4.91864 156.275C5.20797 154.597 6.07601 152.64 6.94401 151.243C7.81202 149.565 9.25866 147.608 9.25866 147.049C13.3093 146.77 17.0707 146.49 20.832 146.49C25.1721 146.49 29.8014 147.049 34.1415 147.049C36.1668 147.049 38.1922 147.049 40.2175 146.77C42.2428 146.49 43.9788 145.931 46.0042 145.651C49.4762 145.092 52.6589 144.813 55.8415 146.211C58.1562 147.329 59.3136 150.124 60.4709 152.361C61.0496 153.759 61.6282 154.597 61.6282 156.275C61.6282 158.232 61.6282 159.909 61.3389 161.586C61.3389 162.146 61.0495 162.984 61.0495 163.543C58.1562 169.414 50.6336 171.371 44.8469 173.608C36.1668 176.962 26.6187 177.242 17.9387 175.005ZM79.567 187.865C77.831 192.338 70.3083 193.736 65.9683 194.015C63.9429 194.015 61.3389 193.736 59.3136 192.618C58.1563 192.059 57.2883 190.94 56.4203 189.822C55.8416 188.983 54.9735 187.586 52.6589 188.145C53.2375 185.629 53.8162 183.392 54.9736 181.156C55.8416 180.037 56.9989 179.199 58.1562 178.081C60.1815 176.403 62.4963 174.726 64.8109 173.608C68.5723 171.651 72.623 173.048 76.095 174.726C78.699 175.844 80.435 177.521 81.0137 180.037C81.8817 183.113 80.7244 185.07 79.567 187.865ZM130.49 187.026C129.043 190.102 127.018 190.94 124.125 192.618C120.653 194.295 116.023 195.693 112.262 195.693C110.236 195.693 108.211 194.854 106.475 194.015C105.318 193.456 103.871 193.177 103.003 192.338C100.399 189.822 99.8204 186.467 101.556 187.026C100.399 184.79 99.8204 182.553 99.5311 180.317C100.11 180.037 100.399 179.478 100.399 178.919C101.846 176.403 104.45 174.167 107.343 172.769C111.972 170.253 118.048 169.694 123.256 171.93C125.571 172.769 127.018 173.887 128.465 175.564C129.333 176.403 130.201 176.962 131.069 178.081C131.937 180.317 131.358 184.51 130.49 187.026ZM145.825 186.467C144.957 187.026 143.51 188.145 142.642 188.145C141.774 187.865 140.327 186.467 140.327 185.349L139.749 184.79C140.906 182.833 142.063 181.156 143.221 179.199C144.957 180.037 146.693 179.758 147.85 181.715C149.297 183.672 147.271 185.349 145.825 186.467ZM184.885 98.4057C183.438 100.363 181.413 102.32 179.098 103.158C176.205 104.276 172.154 105.395 171.865 100.922C171.865 98.4057 172.154 96.4487 173.311 94.2123C175.047 90.8575 176.494 90.0188 179.966 88.3415C181.123 88.3415 182.57 88.9006 183.438 89.1802C185.174 89.7393 186.91 91.4167 187.199 93.3736C187.489 95.3305 186.042 97.0079 184.885 98.4057ZM221.052 79.6751C219.605 84.1481 217.58 88.3415 215.554 92.2553C213.24 97.2874 212.95 102.599 211.504 107.911C210.925 110.986 209.189 114.341 206.296 115.459C204.849 116.018 203.692 115.738 202.245 115.738C200.798 115.738 198.483 116.298 198.483 117.416C197.615 115.179 196.458 112.384 195.879 110.147C195.301 107.631 195.012 104.836 194.722 102.04C194.144 99.2444 194.144 96.4487 193.854 93.6531C193.565 91.1371 192.986 88.3415 192.986 85.8254C192.986 77.159 198.194 66.2562 206.585 62.3423C209.189 61.2241 211.793 60.6649 214.686 60.9445C217.869 61.5036 219.894 62.3423 221.341 65.4175C223.077 69.6109 222.209 75.2021 221.052 79.6751Z" fill="url(#paint7_linear_785_681)"/>
<path opacity="0.4" fill-rule="evenodd" clip-rule="evenodd" d="M181.615 91.1665C181.326 91.4461 180.747 91.4461 180.458 91.7256C179.59 91.7256 179.011 91.4461 178.433 91.7256L181.615 91.1665Z" fill="url(#paint8_linear_785_681)"/>
<path fill-rule="evenodd" clip-rule="evenodd" d="M141.979 155.465C136.193 152.67 142.847 127.789 148.634 122.198C154.421 116.606 169.755 129.466 171.491 139.81C173.517 150.433 155.578 161.616 141.979 155.465Z" fill="url(#paint9_linear_785_681)"/>
<path opacity="0.4" fill-rule="evenodd" clip-rule="evenodd" d="M8.97022 147.049C8.68088 147.049 8.3916 147.049 8.3916 147.049C8.97027 146.77 8.97022 146.77 8.97022 147.049Z" fill="url(#paint10_linear_785_681)"/>
<path fill-rule="evenodd" clip-rule="evenodd" d="M163.186 9.22551L187.2 0C187.2 0 225.392 14.2576 249.697 45.848L251.143 65.9764C251.143 65.9764 205.428 48.9231 163.186 9.22551Z" fill="url(#paint11_linear_785_681)"/>
<path fill-rule="evenodd" clip-rule="evenodd" d="M250.564 213.584C250.564 213.584 230.311 234.83 215.266 239.303L202.824 242.938C202.824 242.938 145.825 223.089 142.643 188.703C140.039 159.628 191.251 115.178 205.139 109.867C219.027 104.555 235.23 107.63 235.23 107.63L250.564 213.584Z" fill="url(#paint12_linear_785_681)"/>
<path fill-rule="evenodd" clip-rule="evenodd" d="M235.233 107.631C223.081 103.997 171.29 127.201 157.112 178.919C154.219 189.543 180.548 229.52 212.086 239.304C222.502 242.659 270.532 202.123 272.557 174.726C274.582 147.329 253.171 113.222 235.233 107.631Z" fill="url(#paint13_linear_785_681)"/>
<path fill-rule="evenodd" clip-rule="evenodd" d="M160.584 185.069C168.106 126.361 223.369 107.072 235.521 110.706C244.201 113.502 256.932 125.802 264.455 137.823C256.932 122.727 245.648 110.426 235.521 107.351C223.369 103.717 171.578 126.921 157.401 178.639C156.533 182.274 158.848 189.542 164.056 197.929C160.873 192.617 160.005 187.865 160.584 185.069Z" fill="url(#paint14_linear_785_681)"/>
<path opacity="0.3" fill-rule="evenodd" clip-rule="evenodd" d="M58.7368 248.25C58.7368 248.25 71.1782 252.723 80.1476 250.207C80.1476 250.207 83.6196 221.971 72.6248 203.8C61.6301 185.628 42.8234 213.025 42.8234 213.025L38.4834 230.358C38.4834 230.358 48.8994 242.379 58.7368 248.25Z" fill="black"/>
<path fill-rule="evenodd" clip-rule="evenodd" d="M69.4424 243.777L77.2544 241.82C77.2544 241.82 81.0157 226.165 74.361 208.273C66.8383 188.145 39.0622 173.048 35.0115 172.769C30.9608 172.489 26.9102 181.435 26.9102 181.435L69.4424 243.777Z" fill="url(#paint15_linear_785_681)"/>
<path fill-rule="evenodd" clip-rule="evenodd" d="M194.721 259.154L181.412 275.648C181.412 275.648 158.554 286.271 135.407 281.239L118.626 270.336L194.721 259.154Z" fill="url(#paint16_linear_785_681)"/>
<path fill-rule="evenodd" clip-rule="evenodd" d="M21.125 193.735C22.5717 187.585 28.0691 177.521 32.9877 176.403C37.9064 175.284 61.6318 197.09 67.1292 211.068C72.6265 225.046 69.7333 240.422 69.4439 243.497C69.1546 246.572 42.5358 237.906 28.9371 227.283C15.6277 216.659 21.125 193.735 21.125 193.735Z" fill="url(#paint17_linear_785_681)"/>
<path fill-rule="evenodd" clip-rule="evenodd" d="M67.1274 211.069C61.63 197.091 38.1939 175.565 32.9859 176.403C30.9606 176.683 28.9352 178.64 27.1992 180.876C28.3566 179.758 29.5138 179.199 30.6712 178.919C35.5899 177.801 59.6047 195.134 65.1021 209.112C71.7568 226.165 67.9954 238.466 67.4167 244.057C68.5741 244.057 69.4421 244.057 69.4421 243.498C69.7314 240.423 72.6247 225.047 67.1274 211.069Z" fill="url(#paint18_linear_785_681)"/>
<path fill-rule="evenodd" clip-rule="evenodd" d="M147.274 150.124C142.644 147.887 147.852 127.2 152.482 122.447C157.111 117.974 169.263 128.597 170.999 137.264C172.735 145.93 158.268 155.156 147.274 150.124Z" fill="url(#paint19_linear_785_681)"/>
<path fill-rule="evenodd" clip-rule="evenodd" d="M187.2 0C187.2 0 188.358 13.978 204.85 31.3108C221.342 48.6436 249.697 45.848 249.697 45.848L251.143 65.9764C251.143 65.9764 190.962 40.2568 163.186 9.22551L187.2 0Z" fill="url(#paint20_linear_785_681)"/>
<path fill-rule="evenodd" clip-rule="evenodd" d="M187.491 2.23633C187.491 2.23633 193.857 27.9559 211.506 37.7406C233.785 50.0412 249.409 45.8478 249.409 45.8478C249.409 45.8478 229.445 45.2887 210.927 32.988C195.593 22.6443 187.491 2.23633 187.491 2.23633Z" fill="url(#paint21_linear_785_681)"/>
<path opacity="0.2" fill-rule="evenodd" clip-rule="evenodd" d="M145.536 201.283L157.399 184.51C157.399 184.51 172.734 226.444 212.083 239.583L203.403 244.895C203.692 244.895 163.186 233.712 145.536 201.283Z" fill="black" fill-opacity="0.41"/>
<path opacity="0.3" fill-rule="evenodd" clip-rule="evenodd" d="M168.105 14.8169C168.105 14.8169 225.104 70.1699 266.19 94.7713C266.19 94.7713 262.139 79.675 251.145 65.697C251.145 65.9765 216.714 55.0737 168.105 14.8169Z" fill="black" fill-opacity="0.62"/>
</g>
<defs>
<filter id="filter0_d_785_681" x="0" y="0" width="282" height="290.592" filterUnits="userSpaceOnUse" color-interpolation-filters="sRGB">
<feFlood flood-opacity="0" result="BackgroundImageFix"/>
<feColorMatrix in="SourceAlpha" type="matrix" values="0 0 0 0 0 0 0 0 0 0 0 0 0 0 0 0 0 0 127 0" result="hardAlpha"/>
<feOffset dx="4" dy="4"/>
<feGaussianBlur stdDeviation="2"/>
<feComposite in2="hardAlpha" operator="out"/>
<feColorMatrix type="matrix" values="0 0 0 0 0 0 0 0 0 0 0 0 0 0 0 0 0 0 0.25 0"/>
<feBlend mode="normal" in2="BackgroundImageFix" result="effect1_dropShadow_785_681"/>
<feBlend mode="normal" in="SourceGraphic" in2="effect1_dropShadow_785_681" result="shape"/>
</filter>
<linearGradient id="paint0_linear_785_681" x1="45.763" y1="68.0637" x2="45.763" y2="22.1956" gradientUnits="userSpaceOnUse">
<stop stop-color="#D7BADE"/>
<stop offset="1" stop-color="#7F72FF"/>
</linearGradient>
<linearGradient id="paint1_linear_785_681" x1="35.2608" y1="70.3872" x2="52.0214" y2="17.4299" gradientUnits="userSpaceOnUse">
<stop stop-color="#974AC0"/>
<stop offset="1" stop-color="#A76BD7"/>
</linearGradient>
<radialGradient id="paint2_radial_785_681" cx="0" cy="0" r="1" gradientUnits="userSpaceOnUse" gradientTransform="translate(51.928 77.1756) scale(220.188 212.75)">
<stop stop-color="#BEF0FF"/>
<stop offset="0.1" stop-color="#A5E7FF"/>
<stop offset="0.2" stop-color="#8ED5FF"/>
<stop offset="0.3" stop-color="#6BB1FF"/>
<stop offset="0.4" stop-color="#6E91FF"/>
<stop offset="0.562065" stop-color="#6A65FD"/>
<stop offset="0.6" stop-color="#6C5EFF"/>
<stop offset="0.7" stop-color="#6750FF"/>
<stop offset="0.8" stop-color="#603CE5"/>
<stop offset="0.9" stop-color="#5819CE"/>
<stop offset="1" stop-color="#6002C6"/>
</radialGradient>
<linearGradient id="paint3_linear_785_681" x1="-0.254469" y1="102.508" x2="196.367" y2="102.508" gradientUnits="userSpaceOnUse">
<stop offset="0.0111732" stop-color="#DEF7FF"/>
<stop offset="0.3224" stop-color="#CBF1FF"/>
<stop offset="0.520397" stop-color="#C0E9FF"/>
<stop offset="0.7523" stop-color="#88C3FF"/>
<stop offset="0.9375" stop-color="#94ADFF"/>
<stop offset="1" stop-color="#97A4FF"/>
</linearGradient>
<linearGradient id="paint4_linear_785_681" x1="0.998384" y1="65.3006" x2="173.386" y2="65.3006" gradientUnits="userSpaceOnUse">
<stop stop-color="#B8C2FF"/>
<stop offset="1" stop-color="#7D72B3"/>
</linearGradient>
<linearGradient id="paint5_linear_785_681" x1="28.9738" y1="189.282" x2="273.895" y2="189.282" gradientUnits="userSpaceOnUse">
<stop stop-color="#B8C2FF"/>
<stop offset="1" stop-color="#7D72B3"/>
</linearGradient>
<linearGradient id="paint6_linear_785_681" x1="14.5102" y1="140.332" x2="258.94" y2="140.332" gradientUnits="userSpaceOnUse">
<stop stop-color="#B8C2FF"/>
<stop offset="1" stop-color="#7D72B3"/>
</linearGradient>
<linearGradient id="paint7_linear_785_681" x1="-0.249117" y1="107.329" x2="240.014" y2="107.329" gradientUnits="userSpaceOnUse">
<stop stop-color="#B8C2FF"/>
<stop offset="1" stop-color="#7D72B3"/>
</linearGradient>
<linearGradient id="paint8_linear_785_681" x1="178.242" y1="91.5772" x2="181.54" y2="91.5772" gradientUnits="userSpaceOnUse">
<stop stop-color="#E8DDFF"/>
<stop offset="1" stop-color="#AA8AD8"/>
</linearGradient>
<linearGradient id="paint9_linear_785_681" x1="150.435" y1="158.284" x2="161.454" y2="123.467" gradientUnits="userSpaceOnUse">
<stop stop-color="#AF5ADC"/>
<stop offset="1" stop-color="#B963FD"/>
</linearGradient>
<linearGradient id="paint10_linear_785_681" x1="8.34502" y1="147.079" x2="9.02982" y2="147.079" gradientUnits="userSpaceOnUse">
<stop stop-color="#E8DDFF"/>
<stop offset="1" stop-color="#AA8AD8"/>
</linearGradient>
<linearGradient id="paint11_linear_785_681" x1="163.099" y1="32.9381" x2="251.073" y2="32.9381" gradientUnits="userSpaceOnUse">
<stop stop-color="#BCB5FF"/>
<stop offset="1" stop-color="#E55EFB"/>
</linearGradient>
<linearGradient id="paint12_linear_785_681" x1="183.081" y1="236.989" x2="225.013" y2="104.502" gradientUnits="userSpaceOnUse">
<stop stop-color="#6A3EBF"/>
<stop offset="1" stop-color="#A86EFF"/>
</linearGradient>
<linearGradient id="paint13_linear_785_681" x1="195.859" y1="234.312" x2="235.859" y2="107.934" gradientUnits="userSpaceOnUse">
<stop stop-color="#D7BADE"/>
<stop offset="1" stop-color="#D088FD"/>
</linearGradient>
<linearGradient id="paint14_linear_785_681" x1="210.523" y1="198.291" x2="210.523" y2="107.339" gradientUnits="userSpaceOnUse">
<stop stop-color="#C886DA"/>
<stop offset="1" stop-color="#E05CFF"/>
<stop offset="1" stop-color="#F7D5FF"/>
</linearGradient>
<linearGradient id="paint15_linear_785_681" x1="44.068" y1="235.599" x2="61.3886" y2="180.872" gradientUnits="userSpaceOnUse">
<stop stop-color="#3E1196"/>
<stop offset="1" stop-color="#9B5FF3"/>
</linearGradient>
<linearGradient id="paint16_linear_785_681" x1="156.776" y1="282.737" x2="156.776" y2="259.183" gradientUnits="userSpaceOnUse">
<stop stop-color="#C164ED"/>
<stop offset="0.9162" stop-color="#9A53F7"/>
<stop offset="1" stop-color="#913EFD"/>
</linearGradient>
<linearGradient id="paint17_linear_785_681" x1="45.1754" y1="244.288" x2="45.1754" y2="176.585" gradientUnits="userSpaceOnUse">
<stop stop-color="#C477E9"/>
<stop offset="1" stop-color="#D7BADE"/>
</linearGradient>
<linearGradient id="paint18_linear_785_681" x1="48.8461" y1="244.262" x2="48.8461" y2="176.586" gradientUnits="userSpaceOnUse">
<stop stop-color="#BA89C7"/>
<stop offset="1" stop-color="#B74ED0"/>
</linearGradient>
<linearGradient id="paint19_linear_785_681" x1="154.029" y1="152.4" x2="163.143" y2="123.603" gradientUnits="userSpaceOnUse">
<stop stop-color="#D7BADE"/>
<stop offset="1" stop-color="#D194F7"/>
</linearGradient>
<linearGradient id="paint20_linear_785_681" x1="202.655" y1="50.589" x2="215.808" y2="9.02932" gradientUnits="userSpaceOnUse">
<stop stop-color="#B336F4"/>
<stop offset="1" stop-color="#C17AF9"/>
</linearGradient>
<linearGradient id="paint21_linear_785_681" x1="218.569" y1="46.5476" x2="218.569" y2="2.26596" gradientUnits="userSpaceOnUse">
<stop stop-color="#D077E4"/>
<stop offset="1" stop-color="#ECB1FA"/>
</linearGradient>
</defs>
</svg>
