<svg width="282" height="282" viewBox="0 0 282 282" fill="none" xmlns="http://www.w3.org/2000/svg">
<g filter="url(#filter0_d_814_371)">
<path fill-rule="evenodd" clip-rule="evenodd" d="M273.999 137C273.999 150.006 272.263 163.012 268.791 174.863C261.847 199.141 248.249 220.529 230.31 237.293C217.579 249.143 202.244 258.681 185.463 265.04C170.418 270.821 153.926 274 136.855 274C134.54 274 131.936 274 129.622 273.711C126.15 273.422 122.388 273.133 118.916 272.844C92.5869 269.376 68.2828 258.392 48.8974 241.918C41.6641 235.848 35.0094 228.911 28.9334 221.397C24.5934 215.616 20.5427 209.835 17.0707 203.477C16.2027 202.032 15.3347 200.297 14.4667 198.852C14.4667 198.852 14.4667 198.852 14.4667 198.563C13.5987 196.829 12.7306 195.384 12.152 193.65C9.83731 188.447 7.81195 182.956 6.07595 177.464C4.91861 173.418 3.76134 169.371 2.89334 165.325C2.31467 162.434 1.736 159.544 1.44667 156.365C0.578668 150.006 0 143.647 0 137C0 133.242 -5.29873e-05 129.485 0.578615 125.728C0.867949 123.415 1.15734 121.103 1.44667 118.791C3.18268 105.206 6.94398 92.4891 12.4413 80.6389C15.0453 74.8583 18.2281 69.0777 21.7001 63.8751C27.4867 54.9152 34.1414 46.5333 41.9534 39.0186C66.5469 15.0291 100.399 0.288513 137.434 0.288513C138.88 0.288513 140.327 0.288513 141.774 0.288513C143.22 0.288513 144.956 0.288509 146.403 0.577539C154.215 1.1556 162.027 2.31172 169.55 4.0459C173.89 5.20202 178.23 6.35814 182.281 7.80329C185.174 8.67038 187.778 9.8265 190.671 10.9826C192.697 11.8497 194.722 12.7168 196.747 13.5839C197.037 13.8729 197.326 13.8729 197.905 14.162C211.214 20.5206 223.366 29.1915 233.782 39.5966C235.229 41.0418 236.675 42.4869 238.122 44.2211C238.99 45.3772 240.147 46.2443 241.015 47.4004C242.751 49.1346 244.198 51.1578 245.645 52.892C251.142 59.8287 255.771 67.3435 259.822 75.1473C264.451 84.3963 268.213 94.2233 270.817 104.339C272.553 114.455 273.999 125.439 273.999 137Z" fill="url(#paint0_radial_814_371)"/>
<path fill-rule="evenodd" clip-rule="evenodd" d="M194 12.393C193.43 12.393 193.145 12.393 192.576 12.6812C191.151 12.9694 189.727 12.6812 188.302 12.393C187.163 12.1048 186.593 11.5284 185.169 11.5284C183.46 11.2402 182.035 10.6638 180.326 10.3756C178.617 10.0873 177.192 9.51092 175.483 8.93451C174.059 8.35809 173.489 8.6463 172.35 8.93451C171.21 9.22272 170.355 8.64629 169.216 8.35808C168.076 7.78166 166.652 7.78167 165.512 7.49346C162.094 6.91704 158.676 5.76419 155.257 4.89957C153.263 4.32315 151.269 4.32314 148.99 4.32314C147.28 4.32314 145.856 4.89957 144.147 4.89957C143.007 4.89957 142.153 4.61136 141.013 4.61136C139.874 4.32315 138.734 4.61136 137.595 4.61136C135.885 4.32315 135.031 4.03494 133.322 4.61136C131.897 4.89957 131.043 4.89956 129.618 5.18777C128.194 5.18777 126.485 5.7642 125.06 6.05241C122.496 6.62883 119.648 7.20524 117.084 7.20524C115.374 7.20524 113.095 6.62882 111.671 7.20524C110.816 7.49345 110.247 8.64629 109.392 9.22271C107.968 10.6638 106.543 11.8166 105.404 13.2576C104.264 14.6987 103.125 16.428 103.125 18.4454C103.125 20.1747 103.979 22.1921 104.834 23.6332C105.689 25.3624 105.974 26.8035 104.264 27.9563C102.27 29.3974 99.7063 30.5502 97.4273 31.4149C95.718 31.9913 94.2937 32.2795 93.1542 31.1266C92.5844 30.8384 92.2995 29.9738 91.7298 29.3974C91.16 29.1092 90.3055 29.3974 89.7357 29.6856C88.0265 30.262 86.3172 30.8384 84.6079 31.1266C83.4684 31.4148 82.6138 31.9913 81.4743 31.9913C80.3348 32.2795 79.4802 31.4149 78.0558 31.7031C76.3466 31.9913 74.3524 32.8559 72.6432 32.8559C71.2188 32.8559 69.5096 32.2795 68.3701 31.7031C67.8003 31.4149 67.5154 30.8384 66.6608 31.1266C66.091 31.1266 65.2364 31.9913 64.9515 32.5677C64.3818 33.1441 64.3818 34.0087 63.812 34.5852C63.2423 35.4498 62.9574 36.0262 62.3877 36.8908C61.533 38.3319 60.6784 39.7729 59.8238 41.214C59.2541 42.0786 58.6843 43.5196 57.8297 44.3843C57.5448 44.9607 56.6901 45.2489 56.1204 45.5371C54.696 46.4017 53.2716 47.5546 51.8472 48.4192C49.2834 50.4367 46.7195 52.7424 44.1557 54.7598C42.1615 56.2009 39.3128 57.0655 37.0338 58.2183C35.6094 58.7948 34.185 59.3712 32.7607 59.9476C32.1909 60.2358 31.3363 60.2358 31.0514 60.8122C30.4816 61.3887 30.1968 61.9651 29.9119 62.8297C28.7724 64.2707 27.348 66 26.4934 67.7293C25.9236 68.8821 25.6387 69.7467 25.069 70.8996C24.4992 72.3406 23.6446 73.7817 23.3597 75.5109C22.2202 78.6812 22.2202 82.1398 20.7959 85.3101C20.2261 87.0393 19.0866 88.7686 18.232 90.4978C16.8076 93.3799 16.5227 96.8384 16.2378 100.009C15.953 101.738 16.2379 104.044 16.5227 105.773C16.8076 107.79 16.8076 109.808 16.8076 111.825C16.8076 113.843 15.3833 116.148 14.2438 117.59C13.1043 119.031 11.1101 119.607 9.68574 121.048C8.54624 122.201 7.12185 123.354 6.5521 125.083C6.26722 125.659 6.5521 126.524 6.5521 127.389C6.26722 129.118 5.69751 130.559 5.69751 132.288C5.41263 134.306 5.41261 136.323 5.41261 138.629C5.41261 139.782 5.41261 140.646 5.41261 141.799C5.41261 142.952 5.69744 143.817 5.98231 144.681C5.98231 145.258 5.98231 146.122 5.98231 146.699C5.98231 147.563 6.5521 148.428 6.5521 149.004C7.12185 151.022 7.40671 152.751 7.69158 154.769C7.97646 156.498 8.83108 158.227 9.11596 159.956C9.97058 162.262 10.2555 164.568 10.8252 167.162C11.1101 168.891 11.1101 170.908 11.395 172.638C11.6799 174.079 11.9647 175.52 11.9647 176.961C11.9647 179.266 11.395 181.284 11.395 183.59C11.395 187.336 12.8194 191.083 13.674 194.83C13.9589 195.983 14.2437 196.847 14.5286 198C11.8903 192.824 8.69055 185.755 6.49995 179C4.85792 173.936 3.55146 169.267 2.49995 164.5C1.52826 160.095 15.8632 156.504 15.5 152.5C14.9121 146.02 0 139.27 0 132.288C0 105.197 7.69162 84.1572 21.0808 63.1179C26.7783 54.1834 33.3304 45.8253 41.022 38.6201C65.2364 14.6987 98.5668 0 135.031 0C137.88 0 141.013 6.58631e-06 143.862 0.288216C161.524 6.58631e-06 178.617 4.61135 194 12.393Z" fill="url(#paint1_linear_814_371)"/>
<path opacity="0.4" fill-rule="evenodd" clip-rule="evenodd" d="M168.682 3.75739C161.16 2.02321 153.637 0.867097 145.536 0.289037C144.089 0.289037 142.353 0 140.906 0C144.089 1.73418 147.271 4.91352 147.85 8.38188C149.007 14.1625 151.033 19.365 151.901 24.8566C153.058 30.3482 152.769 37.2849 150.165 42.1984C148.718 45.3777 146.693 47.979 144.089 50.5803C142.353 52.3145 140.617 53.4706 139.459 55.7828C138.302 58.095 136.855 60.1183 135.409 62.1415C133.383 65.3208 131.069 68.5001 128.465 71.3904C127.597 72.5466 126.729 73.1246 125.861 74.2807C124.993 75.7259 124.414 77.171 123.257 78.3272C120.653 80.9284 116.891 82.6626 113.709 83.8187C109.369 85.5529 105.607 87.2871 101.557 89.5993C95.77 92.7787 90.8513 96.5361 84.1966 96.8251C81.882 96.8251 79.5673 96.5361 77.2526 96.8251C74.3593 97.1141 71.7553 98.2702 69.1513 98.8483C66.8367 99.4264 64.2327 99.7154 61.918 100.293C57.8673 100.872 54.6846 102.317 50.9232 103.184C46.0045 104.34 40.7966 104.051 35.5886 104.918C30.9592 105.496 27.1979 106.074 22.5685 104.918C15.6245 103.184 11.8631 100.004 13.3098 92.4896C14.1778 87.5761 13.8885 83.8187 11.5739 80.3504C6.0765 92.2006 2.31511 105.207 0.579102 118.502C3.76178 119.948 7.52312 120.526 10.7058 120.815C20.8325 121.971 31.8272 117.346 41.0859 113.878C45.7152 112.144 50.6339 109.542 55.8419 108.964C61.3393 108.386 65.9686 108.964 71.466 107.808C89.9834 103.184 108.211 96.8251 124.993 86.9981C131.937 82.9516 134.83 77.171 139.749 71.3904C143.8 66.1879 148.718 62.1415 153.637 57.806C158.556 53.4706 162.896 49.4242 165.789 43.6436C168.972 37.5739 171.576 30.6372 173.022 23.9895C174.469 16.4747 172.444 9.53799 168.682 3.75739ZM167.814 22.2553C167.525 23.7005 167.236 25.4346 166.946 26.8798C165.789 30.6372 163.474 34.3946 160.002 36.1288C158.556 36.9959 156.241 36.4178 155.373 34.9726C154.794 34.1056 154.794 32.9494 154.794 32.0823C154.505 30.0591 154.216 28.325 154.216 26.3017C154.216 21.6773 154.216 17.0528 153.637 12.4283C154.216 15.0296 153.637 8.38187 157.688 6.64769C159.713 5.7806 162.606 6.64769 164.053 8.09284C165.789 10.1161 166.368 13.2954 166.946 15.6076C167.525 18.2089 168.104 19.9431 167.814 22.2553Z" fill="url(#paint2_linear_814_371)" fill-opacity="0.5"/>
<path opacity="0.4" fill-rule="evenodd" clip-rule="evenodd" d="M147.85 241.051C147.561 241.051 146.982 241.34 146.693 241.34L149.297 241.629C149.297 241.34 148.718 241.051 147.85 241.051ZM147.85 241.051C147.561 241.051 146.982 241.34 146.693 241.34L149.297 241.629C149.297 241.34 148.718 241.051 147.85 241.051ZM269.949 103.761C269.949 107.23 268.792 110.987 268.792 114.455C268.792 119.369 267.924 123.126 266.766 127.751C265.898 130.93 264.162 133.242 263.294 136.422C262.137 139.89 260.401 143.069 258.665 146.249C255.193 152.607 251.432 159.255 249.985 166.481C248.538 173.129 248.249 178.62 245.066 184.69C241.883 190.47 237.254 195.384 233.782 201.164C232.335 203.766 231.178 203.766 228.574 205.5C225.97 207.523 223.366 210.413 220.762 212.437C215.265 216.772 210.057 219.951 203.113 222.553C198.773 224.287 194.722 225.443 190.093 226.021C187.199 226.599 184.306 226.021 181.413 226.599C176.783 227.466 172.443 228.622 167.814 230.067C160.581 232.38 153.058 233.825 145.825 236.137C140.617 237.582 135.698 238.738 130.49 239.605C127.307 240.184 124.703 241.918 121.521 241.34C118.338 240.762 115.155 239.605 111.972 238.449C107.922 237.293 104.45 237.004 100.11 237.004C94.323 237.004 87.379 237.871 81.303 236.715C74.6483 235.559 68.283 233.536 61.6283 232.38C57.5776 231.513 54.6843 229.778 50.9229 228.333C47.4509 226.599 43.979 226.31 40.2176 225.154C36.4563 223.998 32.6949 222.264 28.9336 221.397C34.7203 228.911 41.3749 235.848 48.8976 241.918C68.283 258.392 92.2977 269.376 118.916 272.844C122.388 273.133 125.86 273.711 129.622 273.711C137.434 271.977 144.957 269.665 152.769 267.352C165.789 263.306 177.073 255.502 190.093 251.745C195.011 250.3 199.351 248.854 203.691 246.542C207.163 244.808 210.635 244.519 213.818 243.074C225.97 237.871 234.939 226.31 240.437 214.749C242.751 209.546 245.066 203.766 249.695 199.719C251.432 197.985 253.746 196.829 255.193 194.806C256.929 192.783 258.086 190.47 259.822 188.158C262.716 184.401 265.32 180.354 267.924 176.597C268.213 176.019 268.502 175.73 268.792 175.152C272.264 163.012 274 150.295 274 137.289C274 125.439 272.553 114.455 269.949 103.761ZM144.089 241.918C144.667 241.629 145.246 241.051 145.825 240.762C146.403 240.473 147.271 240.762 147.85 241.051C149.007 240.762 149.875 240.762 150.743 241.34C151.322 241.629 152.19 242.207 152.479 242.785C152.769 243.363 152.479 243.652 151.901 244.23C151.322 244.808 151.033 244.808 150.165 244.808C148.718 245.097 147.271 245.386 145.535 245.097C144.667 245.097 143.221 244.808 142.642 244.23C142.642 243.074 143.51 242.496 144.089 241.918ZM153.058 259.838C152.19 260.994 151.322 262.15 150.165 262.728C149.007 263.595 147.85 263.884 146.982 264.751C144.089 266.196 141.195 267.93 138.302 268.798C137.145 269.087 135.698 269.087 134.541 269.087C133.094 269.376 131.358 269.376 129.911 269.376C128.175 269.376 126.15 269.665 124.414 269.954C122.678 269.954 120.652 270.243 118.916 270.243C115.734 270.532 113.13 269.954 110.236 268.798C107.632 267.93 105.028 266.485 102.714 265.04C100.978 263.884 99.5311 262.439 98.3738 260.994C96.9271 259.838 96.0591 258.392 95.1911 256.658C94.9018 256.08 94.6124 255.502 94.9017 254.635C94.9017 254.346 95.1911 254.057 95.1911 254.057C95.7698 253.768 96.3484 253.19 96.6378 253.19C97.5058 252.612 98.6631 252.612 99.8205 252.323C102.424 252.034 105.028 252.323 107.632 252.612C109.079 252.612 110.526 252.901 111.972 252.612C113.998 252.323 116.023 251.745 117.759 251.167C122.388 250.011 127.018 248.854 131.647 248.565C136.277 247.987 141.485 247.409 146.114 248.276C147.85 248.565 150.165 249.143 151.611 250.011C152.769 250.878 153.637 252.034 154.215 253.19C155.083 255.502 154.505 257.814 153.058 259.838ZM189.514 247.987C188.646 248.854 187.489 249.432 186.331 250.3C184.885 251.456 183.438 252.034 181.991 252.901C180.834 253.768 179.387 254.346 178.23 254.924C176.783 255.502 175.626 256.08 174.179 256.947C172.733 257.525 171.286 258.103 169.839 258.681C168.682 258.97 167.525 259.549 166.367 259.26C165.499 258.97 164.342 258.681 163.763 258.103C162.606 256.947 162.895 255.791 163.185 255.213C163.185 254.346 162.895 252.901 163.185 251.745C163.474 251.167 164.053 250.3 164.342 249.721C165.499 247.409 167.235 245.964 168.971 244.23C170.418 242.785 172.154 241.629 174.179 240.762C176.494 239.895 179.387 239.605 181.702 239.316C184.306 239.027 188.935 238.738 190.382 241.918C191.25 243.941 190.961 245.964 189.514 247.987ZM149.586 241.34C149.297 241.34 148.718 241.051 148.139 240.762C147.85 240.762 147.271 241.051 146.982 241.051L149.586 241.34Z" fill="url(#paint3_linear_814_371)" fill-opacity="0.7"/>
<path opacity="0.4" fill-rule="evenodd" clip-rule="evenodd" d="M258.956 74.5693V75.1474C258.667 78.9048 257.22 81.506 255.774 84.9744C254.616 87.8647 253.459 90.1769 252.012 92.7782C249.698 97.1137 248.54 101.16 246.804 106.074C243.911 113.299 242.754 121.103 238.414 127.751C234.652 133.82 233.495 141.046 230.602 147.405C227.13 154.631 221.632 159.544 215.846 164.747C213.242 167.059 210.927 169.949 208.612 172.55C206.008 175.152 204.272 178.62 201.09 180.932C194.724 185.557 187.491 189.603 181.125 194.517C177.364 197.407 174.76 201.454 170.42 203.766C166.369 206.367 161.74 208.101 157.689 210.413C153.928 212.726 150.167 215.038 146.116 216.772C141.487 218.506 137.725 217.928 132.807 218.217C127.599 218.506 122.101 219.951 117.183 221.686C113.132 223.131 109.66 224.576 105.32 223.131C102.427 222.264 100.112 220.24 97.2185 219.662C90.2745 218.217 82.7518 219.662 75.8078 219.373C70.3105 219.084 64.5238 217.928 59.0265 216.772C53.8185 215.905 49.4784 212.148 44.5598 210.702C38.1944 208.968 30.961 210.413 25.1743 208.101C22.5703 207.234 20.2557 205.211 18.2303 203.766C17.6517 203.477 17.3623 203.188 16.7837 202.899C15.9157 201.454 15.0477 199.719 14.1797 198.274C15.6264 198.852 17.073 199.43 18.5197 200.297C26.3317 204.055 36.1691 203.477 44.5598 204.922C54.1078 206.656 63.6558 208.968 73.2038 210.124C77.2545 210.702 81.0159 210.413 85.0665 210.124C90.5639 209.546 96.0612 209.546 101.559 208.679C110.817 206.945 120.076 202.61 129.624 203.766C131.36 204.055 133.385 204.922 135.121 204.922C137.725 204.922 139.751 202.61 141.776 201.164C145.537 198.852 149.588 199.141 153.06 195.962C156.243 192.783 160.004 190.759 164.055 188.736C174.471 183.534 182.861 174.863 191.252 166.481C198.196 159.544 204.851 152.318 209.48 143.937C214.11 135.555 213.242 125.439 216.714 116.768C219.318 110.409 221.343 104.628 225.394 99.1369C227.419 96.5356 229.734 94.2233 231.759 91.6221C234.074 89.0208 235.231 86.1305 236.967 82.9512C238.703 79.4828 241.307 76.5925 242.754 72.8351C244.2 69.3668 243.911 66.4765 243.911 62.7191C243.911 58.9617 243.911 54.9153 243.911 50.8688C249.987 59.2507 254.906 66.7655 258.956 74.5693Z" fill="url(#paint4_linear_814_371)" fill-opacity="0.5"/>
<path opacity="0.4" fill-rule="evenodd" clip-rule="evenodd" d="M237.254 43.6435C235.807 42.1984 234.361 40.4642 232.914 39.019C222.498 28.6139 210.346 20.2321 197.036 13.5844C196.747 13.2953 196.458 13.2953 195.879 13.0063C193.854 12.1392 191.828 11.2721 189.803 10.405C186.91 9.24893 184.306 8.0928 181.412 7.22571C182.28 7.80377 183.438 8.38183 183.727 8.38183C185.463 9.24892 186.91 9.82698 188.067 11.2721C189.225 12.7173 189.803 13.8734 189.803 15.8966C189.803 17.6308 190.092 19.654 190.382 21.3882C190.671 23.1224 191.539 24.5675 191.828 26.3017C192.118 27.1688 192.118 28.0359 192.407 29.192C192.986 31.5042 193.854 33.8165 194.432 36.1287C195.3 40.4642 192.986 43.9325 191.539 47.6899C189.224 53.7596 187.778 59.8292 185.752 66.1878C184.306 71.1013 181.702 76.0149 177.94 79.7723C174.179 83.2406 168.682 84.1077 165.499 87.8651C162.606 91.3335 159.134 94.5128 155.083 96.247C150.454 98.5592 145.246 100.293 140.327 101.739C136.855 102.895 133.094 102.895 129.332 103.762C124.703 104.918 120.652 107.23 116.602 108.964C111.972 110.988 107.922 113.3 103.292 115.323C98.6629 117.346 94.6122 119.947 89.9828 121.682C87.6682 122.549 85.3535 123.127 83.3282 123.705C78.6988 125.439 74.3589 128.329 69.4402 128.907C67.7042 129.196 65.9681 129.485 64.2321 129.485C62.7854 129.485 61.6281 129.774 60.4708 130.063C56.1308 131.798 53.5268 136.422 48.6081 136.711C43.9787 136.711 39.6387 136.422 35.2987 137C32.984 137.289 30.9587 137 28.9334 137.289C28.3547 137.289 27.4867 137.578 26.908 137.289C26.3294 137 25.4614 136.422 24.5934 135.844C22.8574 134.977 21.4107 133.821 19.964 132.665C17.0707 130.353 13.3094 131.798 10.1267 130.931C9.25869 130.642 7.812 130.931 6.944 130.353C4.91866 129.196 2.31462 126.595 0.578615 125.15C0.289281 128.907 0 132.665 0 136.422C0 143.07 0.578668 149.428 1.44667 155.787C1.736 158.677 2.31467 161.568 2.89334 164.747C3.76134 168.794 4.91861 173.129 6.07595 176.886C7.81195 182.378 9.83731 187.87 12.152 193.072C15.9133 193.65 19.6746 194.228 23.436 193.65C28.9333 192.783 34.1414 191.916 39.6387 192.205C44.8467 192.494 49.4761 194.228 54.3948 195.095C59.8921 195.962 65.6788 196.829 71.4655 197.118C76.6735 197.407 81.8816 197.986 86.8002 198.564C90.5616 199.142 94.6123 199.72 98.3736 200.009C108.5 200.587 118.338 197.986 128.175 197.118C133.094 196.54 138.012 195.384 142.931 194.228C145.824 193.65 148.718 192.783 151.322 191.049C154.794 188.737 157.108 185.557 160.002 182.956C163.474 180.066 166.946 177.175 170.418 174.574C173.311 172.262 176.204 169.661 179.387 167.637C181.702 166.192 184.306 164.458 186.62 162.724C190.961 159.256 194.722 155.209 198.483 150.874C203.691 144.804 205.717 136.422 207.742 128.907C209.767 121.971 210.925 115.323 214.686 108.964C216.422 106.074 217.869 102.606 218.737 99.1373C219.315 97.1141 219.605 94.5128 220.473 92.4896C221.919 89.3103 225.102 86.709 226.838 83.8187C228.285 81.5064 230.021 79.1942 230.889 76.3039C232.914 71.1013 234.361 65.8988 235.229 60.1182C235.807 56.0718 237.254 52.0254 238.411 47.979C238.701 47.4009 238.701 46.5338 238.99 45.9557C238.99 45.6667 238.122 44.5106 237.254 43.6435ZM58.7348 137.289C59.0241 136.711 64.2322 134.688 64.8108 134.399C64.8108 134.399 64.8108 134.399 64.5215 134.399L61.0494 135.844C64.8108 134.688 71.4655 138.445 68.2828 142.492C67.4148 143.648 64.8108 144.226 63.3642 144.515C61.9175 144.804 61.0495 144.226 60.1815 143.07C59.3135 141.914 58.7348 140.18 58.7348 138.734C58.7348 138.445 58.7348 137.578 58.7348 137.289ZM17.9387 173.996C13.888 172.84 11.284 171.395 8.96929 167.926C7.23328 165.614 6.076 163.591 5.49733 160.99C5.208 158.677 4.33996 156.943 4.91863 154.631C5.20796 152.897 6.076 150.874 6.944 149.429C7.812 147.694 9.25864 145.671 9.25864 145.093C13.3093 144.804 17.0707 144.515 20.832 144.515C25.172 144.515 29.8014 145.093 34.1414 145.093C36.1667 145.093 38.1921 145.093 40.2174 144.804C42.2428 144.515 43.9788 143.937 46.0041 143.648C49.4761 143.07 52.6588 142.781 55.8414 144.226C58.1561 145.382 59.3135 148.272 60.4708 150.585C61.0495 152.03 61.6281 152.897 61.6281 154.631C61.6281 156.654 61.6281 158.388 61.3388 160.123C61.3388 160.701 61.0494 161.568 61.0494 162.146C58.1561 168.215 50.6335 170.239 44.8468 172.551C36.1668 176.019 26.6187 176.308 17.9387 173.996ZM79.5669 187.291C77.8309 191.916 70.3082 193.361 65.9681 193.65C63.9428 193.65 61.3388 193.361 59.3135 192.205C58.1562 191.627 57.2882 190.471 56.4202 189.315C55.8415 188.448 54.9734 187.002 52.6588 187.58C53.2374 184.979 53.8161 182.667 54.9735 180.355C55.8415 179.199 56.9987 178.332 58.1561 177.175C60.1814 175.441 62.4962 173.707 64.8108 172.551C68.5722 170.528 72.6228 171.973 76.0948 173.707C78.6988 174.863 80.4349 176.597 81.0135 179.199C81.8816 182.378 80.7242 184.401 79.5669 187.291ZM130.49 186.424C129.043 189.604 127.018 190.471 124.124 192.205C120.652 193.939 116.023 195.384 112.262 195.384C110.236 195.384 108.211 194.517 106.475 193.65C105.318 193.072 103.871 192.783 103.003 191.916C100.399 189.315 99.8202 185.846 101.556 186.424C100.399 184.112 99.8203 181.8 99.5309 179.488C100.11 179.199 100.399 178.621 100.399 178.042C101.846 175.441 104.45 173.129 107.343 171.684C111.972 169.083 118.048 168.505 123.256 170.817C125.571 171.684 127.018 172.84 128.464 174.574C129.332 175.441 130.2 176.019 131.068 177.175C131.936 179.488 131.358 183.823 130.49 186.424ZM145.824 185.846C144.956 186.424 143.51 187.58 142.642 187.58C141.774 187.291 140.327 185.846 140.327 184.69L139.748 184.112C140.906 182.089 142.063 180.355 143.22 178.332C144.956 179.199 146.692 178.91 147.85 180.933C149.296 182.956 147.271 184.69 145.824 185.846ZM184.884 94.8018C183.438 96.825 181.412 98.8483 179.098 99.7153C176.204 100.871 172.154 102.028 171.864 97.4031C171.864 94.8018 172.154 92.7786 173.311 90.4664C175.047 86.998 176.494 86.1309 179.966 84.3967C181.123 84.3967 182.57 84.9748 183.438 85.2638C185.174 85.8419 186.91 87.5761 187.199 89.5993C187.488 91.6225 186.042 93.3567 184.884 94.8018ZM221.051 75.4368C219.605 80.0613 217.579 84.3967 215.554 88.4432C213.239 93.6457 212.95 99.1373 211.503 104.629C210.924 107.808 209.189 111.277 206.295 112.433C204.849 113.011 203.691 112.722 202.245 112.722C200.798 112.722 198.483 113.3 198.483 114.456C197.615 112.144 196.458 109.253 195.879 106.941C195.3 104.34 195.011 101.45 194.722 98.5592C194.143 95.6689 194.143 92.7786 193.854 89.8883C193.565 87.287 192.986 84.3967 192.986 81.7955C192.986 72.8355 198.194 61.5634 206.585 57.5169C209.189 56.3608 211.793 55.7828 214.686 56.0718C217.869 56.6498 219.894 57.517 221.341 60.6963C223.077 65.0317 222.209 70.8123 221.051 75.4368Z" fill="url(#paint5_linear_814_371)" fill-opacity="0.5"/>
<path opacity="0.1" fill-rule="evenodd" clip-rule="evenodd" d="M145.536 201.165C145.536 201.165 158.267 219.952 175.338 235.27C192.408 250.589 194.723 260.994 194.723 260.994C194.723 260.994 226.839 247.699 249.696 215.905C272.554 184.401 145.536 201.165 145.536 201.165Z" fill="black" fill-opacity="0.99"/>
<path opacity="0.3" fill-rule="evenodd" clip-rule="evenodd" d="M58.7348 249.722C58.7348 249.722 71.1762 254.346 80.1455 251.745C80.1455 251.745 83.6175 222.553 72.6228 203.766C61.6281 184.979 42.8215 213.304 42.8215 213.304L38.4814 231.224C38.4814 231.224 48.8975 243.652 58.7348 249.722Z" fill="black" fill-opacity="0.6"/>
</g>
<defs>
<filter id="filter0_d_814_371" x="0" y="0" width="282" height="282" filterUnits="userSpaceOnUse" color-interpolation-filters="sRGB">
<feFlood flood-opacity="0" result="BackgroundImageFix"/>
<feColorMatrix in="SourceAlpha" type="matrix" values="0 0 0 0 0 0 0 0 0 0 0 0 0 0 0 0 0 0 127 0" result="hardAlpha"/>
<feOffset dx="4" dy="4"/>
<feGaussianBlur stdDeviation="2"/>
<feComposite in2="hardAlpha" operator="out"/>
<feColorMatrix type="matrix" values="0 0 0 0 0 0 0 0 0 0 0 0 0 0 0 0 0 0 0.25 0"/>
<feBlend mode="normal" in2="BackgroundImageFix" result="effect1_dropShadow_814_371"/>
<feBlend mode="normal" in="SourceGraphic" in2="effect1_dropShadow_814_371" result="shape"/>
</filter>
<radialGradient id="paint0_radial_814_371" cx="0" cy="0" r="1" gradientUnits="userSpaceOnUse" gradientTransform="translate(51.9279 72.8524) rotate(26.4746) scale(220.16 219.929)">
<stop offset="0.00558659" stop-color="#D5F5FF"/>
<stop offset="0.0937306" stop-color="#C2E6F3"/>
<stop offset="0.211" stop-color="#94D7FF"/>
<stop offset="0.3446" stop-color="#96C7FF"/>
<stop offset="0.4903" stop-color="#7D9DFF"/>
<stop offset="0.6442" stop-color="#6F6AFF"/>
<stop offset="0.6844" stop-color="#6F5FFF"/>
<stop offset="0.7432" stop-color="#6651EF"/>
<stop offset="0.8282" stop-color="#6E4AF1"/>
<stop offset="0.9287" stop-color="#8B4DFF"/>
<stop offset="1" stop-color="#7607EE"/>
</radialGradient>
<linearGradient id="paint1_linear_814_371" x1="-0.251261" y1="97.6102" x2="193.891" y2="97.6102" gradientUnits="userSpaceOnUse">
<stop stop-color="#ECFAFF"/>
<stop offset="0.2" stop-color="#F1FBFF"/>
<stop offset="0.4" stop-color="#D0D5D9"/>
<stop offset="0.6" stop-color="#A6D2FF"/>
<stop offset="0.8" stop-color="#6788F3"/>
<stop offset="1" stop-color="#D2D5E5"/>
</linearGradient>
<linearGradient id="paint2_linear_814_371" x1="0.995453" y1="60.5752" x2="173.383" y2="60.5752" gradientUnits="userSpaceOnUse">
<stop stop-color="#3044BD"/>
<stop offset="1" stop-color="white"/>
</linearGradient>
<linearGradient id="paint3_linear_814_371" x1="28.9738" y1="188.756" x2="273.895" y2="188.756" gradientUnits="userSpaceOnUse">
<stop stop-color="white"/>
<stop offset="1"/>
</linearGradient>
<linearGradient id="paint4_linear_814_371" x1="45.5" y1="216" x2="228" y2="175.5" gradientUnits="userSpaceOnUse">
<stop stop-color="#503232"/>
<stop offset="0.582899" stop-color="#A290FF"/>
<stop offset="1" stop-color="white"/>
</linearGradient>
<linearGradient id="paint5_linear_814_371" x1="-0.249117" y1="104.027" x2="240.014" y2="104.027" gradientUnits="userSpaceOnUse">
<stop stop-color="#131416"/>
<stop offset="1" stop-color="#9B7CF5"/>
</linearGradient>
</defs>
</svg>
